<?xml version="1.0" encoding="UTF-8" standalone="no"?>
<svg
   xmlns:dc="http://purl.org/dc/elements/1.1/"
   xmlns:cc="http://creativecommons.org/ns#"
   xmlns:rdf="http://www.w3.org/1999/02/22-rdf-syntax-ns#"
   xmlns:svg="http://www.w3.org/2000/svg"
   xmlns="http://www.w3.org/2000/svg"
   xmlns:sodipodi="http://sodipodi.sourceforge.net/DTD/sodipodi-0.dtd"
   xmlns:inkscape="http://www.inkscape.org/namespaces/inkscape"
   version="1.1"
   id="Capa_1"
   x="0px"
   y="0px"
   viewBox="0 0 13.277255 16.166761"
   xml:space="preserve"
   sodipodi:docname="arbre.svg"
   width="13.277255"
   height="16.166761"
   inkscape:version="1.0.1 (3bc2e813f5, 2020-09-07)"><metadata
   id="metadata43"><rdf:RDF><cc:Work
       rdf:about=""><dc:format>image/svg+xml</dc:format><dc:type
         rdf:resource="http://purl.org/dc/dcmitype/StillImage" /></cc:Work></rdf:RDF></metadata><defs
   id="defs41" /><sodipodi:namedview
   pagecolor="#ffffff"
   bordercolor="#666666"
   borderopacity="1"
   objecttolerance="10"
   gridtolerance="10"
   guidetolerance="10"
   inkscape:pageopacity="0"
   inkscape:pageshadow="2"
   inkscape:window-width="1920"
   inkscape:window-height="1017"
   id="namedview39"
   showgrid="false"
   inkscape:zoom="2.5293616"
   inkscape:cx="135.32673"
   inkscape:cy="100.39917"
   inkscape:window-x="3592"
   inkscape:window-y="-8"
   inkscape:window-maximized="1"
   inkscape:current-layer="Capa_1" />
<g
   id="g6"
   transform="matrix(0.04908267,0,0,0.0494141,-1.3905611,0)"
   style="fill:#ffffff;stroke:none;stroke-width:2.85353;stroke-miterlimit:4;stroke-dasharray:none;stroke-opacity:1">
	<g
   id="g4"
   style="fill:#ffffff;stroke:none;stroke-width:2.85353;stroke-miterlimit:4;stroke-dasharray:none;stroke-opacity:1">
		<path
   style="fill:#ffffff;stroke:none;stroke-width:2.85353;stroke-miterlimit:4;stroke-dasharray:none;stroke-opacity:1"
   d="M 271.976,327.169 H 54.197 V 287.34 h 89.473 v -19.53 c -9.475,3.497 -19.512,5.322 -29.47,5.322 -47.347,0 -85.869,-38.522 -85.869,-85.869 0,-33.898 20.192,-64.705 50.796,-78.381 C 77.039,101.406 75.982,93.684 75.982,85.862 75.982,38.516 114.498,0 161.839,0 c 47.347,0 85.869,38.522 85.869,85.863 0,7.375 -0.937,14.673 -2.804,21.755 32.49,12.984 53.935,44.292 53.935,79.64 0,47.347 -38.516,85.869 -85.857,85.869 -9.965,0 -20.007,-1.826 -29.482,-5.322 v 19.53 h 88.477 v 13.694 c 0.674,2.029 1.014,4.111 1.014,6.217 0,2.106 -0.34,4.189 -1.014,6.217 v 13.706 z"
   id="path2" />
	</g>
</g>
<g
   id="g8"
   transform="matrix(0.04908267,0,0,0.0494141,-1.3905611,0)"
   style="fill:#ffffff;stroke:none;stroke-width:2.85353;stroke-miterlimit:4;stroke-dasharray:none;stroke-opacity:1">
</g>
<g
   id="g10"
   transform="matrix(0.04908267,0,0,0.0494141,-1.3905611,0)"
   style="fill:#ffffff;stroke:none;stroke-width:2.85353;stroke-miterlimit:4;stroke-dasharray:none;stroke-opacity:1">
</g>
<g
   id="g12"
   transform="matrix(0.04908267,0,0,0.0494141,-1.3905611,0)"
   style="fill:#ffffff;stroke:none;stroke-width:2.85353;stroke-miterlimit:4;stroke-dasharray:none;stroke-opacity:1">
</g>
<g
   id="g14"
   transform="matrix(0.04908267,0,0,0.0494141,-1.3905611,0)"
   style="fill:#ffffff;stroke:none;stroke-width:2.85353;stroke-miterlimit:4;stroke-dasharray:none;stroke-opacity:1">
</g>
<g
   id="g16"
   transform="matrix(0.04908267,0,0,0.0494141,-1.3905611,0)"
   style="fill:#ffffff;stroke:none;stroke-width:2.85353;stroke-miterlimit:4;stroke-dasharray:none;stroke-opacity:1">
</g>
<g
   id="g18"
   transform="matrix(0.04908267,0,0,0.0494141,-1.3905611,0)"
   style="fill:#ffffff;stroke:none;stroke-width:2.85353;stroke-miterlimit:4;stroke-dasharray:none;stroke-opacity:1">
</g>
<g
   id="g20"
   transform="matrix(0.04908267,0,0,0.0494141,-1.3905611,0)"
   style="fill:#ffffff;stroke:none;stroke-width:2.85353;stroke-miterlimit:4;stroke-dasharray:none;stroke-opacity:1">
</g>
<g
   id="g22"
   transform="matrix(0.04908267,0,0,0.0494141,-1.3905611,0)"
   style="fill:#ffffff;stroke:none;stroke-width:2.85353;stroke-miterlimit:4;stroke-dasharray:none;stroke-opacity:1">
</g>
<g
   id="g24"
   transform="matrix(0.04908267,0,0,0.0494141,-1.3905611,0)"
   style="fill:#ffffff;stroke:none;stroke-width:2.85353;stroke-miterlimit:4;stroke-dasharray:none;stroke-opacity:1">
</g>
<g
   id="g26"
   transform="matrix(0.04908267,0,0,0.0494141,-1.3905611,0)"
   style="fill:#ffffff;stroke:none;stroke-width:2.85353;stroke-miterlimit:4;stroke-dasharray:none;stroke-opacity:1">
</g>
<g
   id="g28"
   transform="matrix(0.04908267,0,0,0.0494141,-1.3905611,0)"
   style="fill:#ffffff;stroke:none;stroke-width:2.85353;stroke-miterlimit:4;stroke-dasharray:none;stroke-opacity:1">
</g>
<g
   id="g30"
   transform="matrix(0.04908267,0,0,0.0494141,-1.3905611,0)"
   style="fill:#ffffff;stroke:none;stroke-width:2.85353;stroke-miterlimit:4;stroke-dasharray:none;stroke-opacity:1">
</g>
<g
   id="g32"
   transform="matrix(0.04908267,0,0,0.0494141,-1.3905611,0)"
   style="fill:#ffffff;stroke:none;stroke-width:2.85353;stroke-miterlimit:4;stroke-dasharray:none;stroke-opacity:1">
</g>
<g
   id="g34"
   transform="matrix(0.04908267,0,0,0.0494141,-1.3905611,0)"
   style="fill:#ffffff;stroke:none;stroke-width:2.85353;stroke-miterlimit:4;stroke-dasharray:none;stroke-opacity:1">
</g>
<g
   id="g36"
   transform="matrix(0.04908267,0,0,0.0494141,-1.3905611,0)"
   style="fill:#ffffff;stroke:none;stroke-width:2.85353;stroke-miterlimit:4;stroke-dasharray:none;stroke-opacity:1">
</g>
</svg>
