<?xml version="1.0" encoding="UTF-8" standalone="no"?>
<svg
   xmlns:dc="http://purl.org/dc/elements/1.1/"
   xmlns:cc="http://creativecommons.org/ns#"
   xmlns:rdf="http://www.w3.org/1999/02/22-rdf-syntax-ns#"
   xmlns:svg="http://www.w3.org/2000/svg"
   xmlns="http://www.w3.org/2000/svg"
   xmlns:sodipodi="http://sodipodi.sourceforge.net/DTD/sodipodi-0.dtd"
   xmlns:inkscape="http://www.inkscape.org/namespaces/inkscape"
   version="1.1"
   id="Capa_1"
   x="0px"
   y="0px"
   viewBox="0 0 20 21.000354"
   xml:space="preserve"
   sodipodi:docname="parc-relais.svg"
   inkscape:version="1.0.1 (3bc2e813f5, 2020-09-07)"
   width="20"
   height="21.000353"><metadata
   id="metadata45"><rdf:RDF><cc:Work
       rdf:about=""><dc:format>image/svg+xml</dc:format><dc:type
         rdf:resource="http://purl.org/dc/dcmitype/StillImage" /></cc:Work></rdf:RDF></metadata><defs
   id="defs43" /><sodipodi:namedview
   pagecolor="#ffffff"
   bordercolor="#666666"
   borderopacity="1"
   objecttolerance="10"
   gridtolerance="10"
   guidetolerance="10"
   inkscape:pageopacity="0"
   inkscape:pageshadow="2"
   inkscape:window-width="1920"
   inkscape:window-height="1017"
   id="namedview41"
   showgrid="true"
   showguides="false"
   inkscape:zoom="11.614438"
   inkscape:cx="31.446336"
   inkscape:cy="29.180272"
   inkscape:window-x="3592"
   inkscape:window-y="-8"
   inkscape:window-maximized="1"
   inkscape:current-layer="g8"><inkscape:grid
     type="xygrid"
     id="grid870"
     originx="0"
     originy="0" /></sodipodi:namedview>
<g
   id="g8"
   transform="scale(0.14035088,0.1473709)">
	
<g
   id="g899"
   transform="scale(0.49999999)"><g
     id="g6">
		<path
   d="M 142.5,0 C 63.934,0 0,63.934 0,142.5 0,221.066 63.934,285 142.5,285 221.066,285 285,221.066 285,142.5 285,63.934 221.066,0 142.5,0 Z m 0,271.424 C 71.417,271.424 13.576,213.583 13.576,142.5 13.576,71.417 71.417,13.576 142.5,13.576 c 71.083,0 128.924,57.841 128.924,128.924 0,71.083 -57.841,128.924 -128.924,128.924 z"
   id="path2" />
		<path
   d="M 153.138,62.919 H 98.637 c -12.586,0 -20.831,4.991 -20.831,20.843 v 120.507 c 0,10.632 6.928,17.807 17.788,17.807 10.854,0 17.807,-7.175 17.807,-17.807 v -42.336 h 39.515 c 34.524,0 54.279,-21.065 54.279,-49.504 -0.001,-34.746 -24.085,-49.51 -54.057,-49.51 z m -6.506,71.664 H 113.4 V 90.269 h 29.545 c 17.584,0 28.661,6.525 28.661,22.16 0,13.452 -10.65,22.154 -24.974,22.154 z"
   id="path4" />
	</g><path
     style="opacity:1;fill:#ffffff;fill-opacity:1;stroke:#00d000;stroke-width:0;stroke-miterlimit:5.6;stroke-dasharray:none"
     d="M 17.956427,39.819693 C 11.859378,38.993839 6.6965442,35.20276 3.9547745,29.538251 0.89773642,23.222396 1.4057343,15.976102 5.3203211,10.059522 6.382361,8.4543347 8.6416864,6.1833429 10.217962,5.1365913 c 2.076381,-1.3788549 4.166491,-2.2598224 6.581712,-2.7741471 1.619527,-0.3448805 5.007161,-0.3125841 6.696988,0.063846 3.435698,0.7653462 6.393619,2.3936825 8.888265,4.8929928 2.083377,2.0872719 3.582439,4.48461 4.555307,7.284959 0.80987,2.331167 0.974448,3.397242 0.980248,6.349688 0.0056,2.853513 -0.08976,3.558266 -0.799157,5.905525 -0.48404,1.601603 -1.729461,4.100548 -2.755922,5.529777 -2.65668,3.699116 -6.642924,6.303138 -11.028445,7.204353 -1.425468,0.29293 -4.06751,0.403957 -5.380531,0.226108 z m -3.498449,-7.243169 c 0.601689,-0.251401 0.987164,-0.622368 1.259215,-1.211822 0.201775,-0.437188 0.225062,-0.844648 0.227464,-3.979821 l 0.0027,-3.492768 3.744225,-0.03939 c 3.733305,-0.03927 3.747065,-0.04038 4.718332,-0.378244 3.04422,-1.058972 4.691713,-3.503944 4.685777,-6.953953 -0.004,-2.347058 -0.577261,-3.943342 -1.886015,-5.252096 -0.527639,-0.527639 -1.041804,-0.896037 -1.660289,-1.189593 -1.61524,-0.7666501 -2.060768,-0.814197 -7.629246,-0.814197 -3.440336,0 -5.10853,0.043414 -5.394435,0.1403873 -0.665408,0.225694 -1.035482,0.5471173 -1.34327,1.1666797 l -0.288265,0.580266 v 9.923717 9.923718 l 0.271211,0.50724 c 0.270549,0.506002 0.725467,0.910547 1.268507,1.128048 0.449495,0.180035 1.528195,0.149031 2.024111,-0.05818 z"
     id="path890"
     transform="scale(7.1249999,6.7856001)" /><path
     style="opacity:1;fill:#ffffff;fill-opacity:1;stroke:#00d000;stroke-width:0;stroke-miterlimit:5.6;stroke-dasharray:none"
     d="m 15.94733,16.562352 v -3.173945 l 2.831,0.03854 c 2.673425,0.03639 2.866523,0.0546 3.469239,0.327062 0.762493,0.344694 1.427895,1.041556 1.605601,1.681512 0.07105,0.255878 0.129493,0.801434 0.129866,1.212348 0.0013,1.374637 -0.935744,2.586227 -2.291236,2.962709 -0.246269,0.0684 -1.639521,0.124669 -3.096115,0.125043 L 15.94733,19.7363 Z"
     id="path892"
     transform="scale(7.1249999,6.7856001)" /></g></g>
<g
   id="g10">
</g>
<g
   id="g12">
</g>
<g
   id="g14">
</g>
<g
   id="g16">
</g>
<g
   id="g18">
</g>
<g
   id="g20">
</g>
<g
   id="g22">
</g>
<g
   id="g24">
</g>
<g
   id="g26">
</g>
<g
   id="g28">
</g>
<g
   id="g30">
</g>
<g
   id="g32">
</g>
<g
   id="g34">
</g>
<g
   id="g36">
</g>
<g
   id="g38">
</g>
</svg>
