<svg id="Calque_1" data-name="Calque 1" xmlns="http://www.w3.org/2000/svg" viewBox="0 0 109.46 111.97"><defs><style>.cls-1{fill:#3973b8;}.cls-2{fill:#fff;}</style></defs><path class="cls-1" d="M106.27,57.67A51.54,51.54,0,1,1,54.73,6.13a51.53,51.53,0,0,1,51.54,51.54"/><path class="cls-2" d="M28.82,68.88c3.61,1.84,7.06,2.42,10.58.87a12,12,0,0,1,10.21,0,9.92,9.92,0,0,0,8.22.16,12.84,12.84,0,0,1,11,0,9.42,9.42,0,0,0,7.25.13L61.23,43.16l3.17-.61c4.71-.86,9.43-1.67,14.14-2.58A5.06,5.06,0,0,0,82.9,34,5,5,0,0,0,77.13,30Q64,32.27,50.93,34.73a4.6,4.6,0,0,0-3.45,6.17,14.75,14.75,0,0,0,1.19,2.47c2,3.69,4,7.37,6.14,11.18l-26,14.33m60.09,9.64c-.57-.16-1.13-.33-1.68-.52a16,16,0,0,0-10.54.14,11.93,11.93,0,0,1-9.06-.39,10.58,10.58,0,0,0-7.91-.34,16.57,16.57,0,0,1-11.32.17,10.76,10.76,0,0,0-8,0,15.44,15.44,0,0,1-10.94,0,10.65,10.65,0,0,0-7-.22c-1.27.38-2.53.79-3.81,1.2a3.27,3.27,0,0,0-2.27,3.1v0a3.26,3.26,0,0,0,4.35,3.08l.21-.08a11.62,11.62,0,0,1,8.8-.19,14.71,14.71,0,0,0,10.67,0,11,11,0,0,1,8,0,15.83,15.83,0,0,0,11,0,11,11,0,0,1,7.81,0,15.47,15.47,0,0,0,10.83,0,11.8,11.8,0,0,1,8.74.23l.17.07a3.26,3.26,0,1,0,2-6.21m-5-15a8.9,8.9,0,1,0-8.62-9,8.58,8.58,0,0,0,8.62,9"/></svg>