<svg id="Calque_1" data-name="Calque 1" xmlns="http://www.w3.org/2000/svg" viewBox="0 0 400 400"><defs><style>.cls-1{fill:#3a8ccb;}.cls-2{fill:#fff;}.cls-3{fill:none;}</style></defs><path class="cls-1" d="M387.13,204.06c0,104.24-84.05,188.75-187.72,188.75S11.69,308.3,11.69,204.06,95.73,15.3,199.41,15.3,387.13,99.81,387.13,204.06"/><path class="cls-2" d="M290,250.39c-1.47-.63-2.91-1.25-4.33-1.9-16.74-7.74-36.33-8.06-52.93-.06-9.53,4.59-18.24,4.12-28-1.59-14-8.2-28.76-8.76-42.85-1.79a42.86,42.86,0,0,1-37.52,0c-14.19-6.89-28.78-5.91-43.26,1.75-2.44,1.29-5,2.41-7.53,3.5a11.18,11.18,0,0,0-6.86,10.25c0,7.78,7.92,13.19,15.41,10.52a57.57,57.57,0,0,0,8.28-3.62c9.27-5.09,17.57-5.54,26.55-1.06a59.34,59.34,0,0,0,53-.14c8.86-4.5,17.12-4,26,1.26,16,9.43,32.48,9.56,48.44.16,9.93-5.85,19.09-6.16,28.81,0a42.9,42.9,0,0,0,8.22,4.1,11.4,11.4,0,0,0,15.38-10.52v-.56A11.2,11.2,0,0,0,290,250.39m30.49-86.09c-.07-17.84-14.86-32.52-32.54-32.29-17.41.23-31.76,14.79-31.87,32.33-.1,17.74,14.65,32.66,32.27,32.63a32.44,32.44,0,0,0,32.14-32.67m-32.79,144c-1.47-.62-2.92-1.25-4.33-1.9-16.75-7.73-36.33-8.06-52.94-.05-9.52,4.59-18.23,4.11-28-1.6-14-8.19-28.76-8.76-42.85-1.78A42.88,42.88,0,0,1,122,303c-14.18-6.89-28.77-5.91-43.26,1.75-2.43,1.29-5,2.41-7.52,3.51a11.15,11.15,0,0,0-6.87,10.25c0,7.77,7.93,13.18,15.41,10.51a57.21,57.21,0,0,0,8.29-3.62c9.27-5.08,17.57-5.53,26.54-1.05a59.39,59.39,0,0,0,53.06-.14c8.86-4.51,17.12-4,26,1.25,16,9.43,32.49,9.56,48.45.16,9.93-5.85,19.09-6.16,28.8,0a43.82,43.82,0,0,0,8.23,4.09,11.4,11.4,0,0,0,15.38-10.52v-.56a11.2,11.2,0,0,0-6.91-10.27"/><path class="cls-2" d="M169.82,124.87c7.34,13.52,14.76,27,22.38,40.93l-74,41c1.25.48,2.51,1,3.76,1.56a42.86,42.86,0,0,0,37.52,0c14.1-7,28.87-6.41,42.85,1.78,9.75,5.71,18.45,6.19,28,1.59a60.33,60.33,0,0,1,30.42-5.63c-15.12-27.49-30-54.63-45.14-82.08,4.53-.87,8.16-3.28,11.55-4.44,16.5-5.68,33.05-11.21,49.49-17.06,10.88-3.88,15.75-13.61,12.48-24-2.93-9.26-13.1-14.47-23-11.5-33.24,10-55.39,15.83-88,26.1-10.15,3.19-15.92,12.31-12.58,22.59a54.3,54.3,0,0,0,4.33,9"/><rect class="cls-3" x="-12" width="412" height="414.28"/></svg>