<svg id="Calque_1" data-name="Calque 1" xmlns="http://www.w3.org/2000/svg" viewBox="0 0 107.13 109.34" width="70px" height="70px" ><circle cx="54.51" cy="54.77" r="51.54" style="fill:#3973b9"/><path d="M28.6,66c3.61,1.84,7.06,2.42,10.58.87a12,12,0,0,1,10.21,0,9.92,9.92,0,0,0,8.22.16,12.86,12.86,0,0,1,11,0,9.42,9.42,0,0,0,7.25.13c-5-9-9.9-17.89-14.86-26.86l3.18-.61c4.71-.86,9.43-1.67,14.13-2.58a5.06,5.06,0,0,0,4.36-5.95,5,5,0,0,0-5.77-4.05q-13.11,2.28-26.2,4.76A4.61,4.61,0,0,0,47.26,38a14.75,14.75,0,0,0,1.19,2.47c2,3.69,4,7.37,6.14,11.18Zm60.1,9.64c-.58-.16-1.14-.33-1.69-.52a16,16,0,0,0-10.54.14,11.91,11.91,0,0,1-9-.39,10.61,10.61,0,0,0-7.92-.34,16.62,16.62,0,0,1-11.32.17,10.76,10.76,0,0,0-8,0,15.42,15.42,0,0,1-10.93,0,10.68,10.68,0,0,0-7.06-.22c-1.27.38-2.53.79-3.81,1.2a3.26,3.26,0,0,0-2.27,3.1v0a3.26,3.26,0,0,0,4.36,3.08l.2-.08a11.62,11.62,0,0,1,8.8-.19,14.71,14.71,0,0,0,10.67,0,11,11,0,0,1,8,0,15.83,15.83,0,0,0,11,0,11,11,0,0,1,7.81,0,15.47,15.47,0,0,0,10.83,0,11.8,11.8,0,0,1,8.74.23l.17.06a3.25,3.25,0,0,0,4.36-3.07h0A3.27,3.27,0,0,0,88.7,75.62Zm-5-15a8.9,8.9,0,1,0-8.63-9A8.58,8.58,0,0,0,83.72,60.62Z" style="fill:#fff"/></svg>