<svg width="89.998" height="134.84" version="1.1" viewBox="0 0 89.998 134.84" xmlns="http://www.w3.org/2000/svg">
 <g transform="matrix(18.569 0 0 18.548 -4166.5 -1516.8)">
  <path d="m226.87 81.795c-0.7188-0.03667-1.4365 0.27717-1.9027 0.82443-0.56881 0.61181-0.74351 1.5416-0.48855 2.3294 0.58988 1.28 1.1914 2.555 1.8025 3.825 0.21975 0.39331 0.87121 0.35054 1.046-0.06224 0.5951-1.2532 1.1868-2.5082 1.767-3.7684 0.27471-0.85415 0.0366-1.8587-0.62998-2.4701-0.42034-0.41876-1.0006-0.66737-1.5942-0.67802zm-0.0749 1.3193c0.61648-0.02134 1.0828 0.67807 0.85295 1.2433-0.17328 0.55229-0.91744 0.79521-1.3771 0.43752-0.51105-0.34078-0.50714-1.1809 7e-3 -1.5168 0.15004-0.10605 0.33312-0.1645 0.51691-0.16405z" fill="param(fill)" stroke-width=".00070556"/>
 </g>
</svg>
