<?xml version="1.0" encoding="UTF-8" standalone="no"?>
<!-- Generated by IcoMoon.io -->

<svg
   xmlns:dc="http://purl.org/dc/elements/1.1/"
   xmlns:cc="http://creativecommons.org/ns#"
   xmlns:rdf="http://www.w3.org/1999/02/22-rdf-syntax-ns#"
   xmlns:svg="http://www.w3.org/2000/svg"
   xmlns="http://www.w3.org/2000/svg"
   xmlns:sodipodi="http://sodipodi.sourceforge.net/DTD/sodipodi-0.dtd"
   xmlns:inkscape="http://www.inkscape.org/namespaces/inkscape"
   version="1.1"
   width="50"
   height="50"
   viewBox="0 0 1.5625 1.5625"
   id="svg2"
   inkscape:version="0.91 r13725"
   sodipodi:docname="earth-globe.svg">
  <metadata
     id="metadata10">
    <rdf:RDF>
      <cc:Work
         rdf:about="">
        <dc:format>image/svg+xml</dc:format>
        <dc:type
           rdf:resource="http://purl.org/dc/dcmitype/StillImage" />
        <dc:title></dc:title>
      </cc:Work>
    </rdf:RDF>
  </metadata>
  <defs
     id="defs8" />
  <sodipodi:namedview
     pagecolor="#ffffff"
     bordercolor="#666666"
     borderopacity="1"
     objecttolerance="10"
     gridtolerance="10"
     guidetolerance="10"
     inkscape:pageopacity="0"
     inkscape:pageshadow="2"
     inkscape:window-width="1280"
     inkscape:window-height="1002"
     id="namedview6"
     showgrid="false"
     inkscape:zoom="7.0184257"
     inkscape:cx="31.457627"
     inkscape:cy="17.355932"
     inkscape:window-x="-8"
     inkscape:window-y="-8"
     inkscape:window-maximized="1"
     inkscape:current-layer="svg2" />
  <path
     d="M 0.77814882,0.00620235 C 0.35016698,0.00620235 0,0.35636932 0,0.78435118 0,1.2123331 0.35016698,1.5625 0.77814882,1.5625 c 0.42798188,0 0.77814878,-0.3501669 0.77814878,-0.77814882 0,-0.42798186 -0.3501669,-0.77814883 -0.77814878,-0.77814883 z m 0.50579678,0.5155236 c 0.038907,0 0.068088,0.0291805 0.1069951,0.0291805 -0.029181,0.0389074 -0.1556298,0.0389074 -0.1945372,-0.009727 0.029181,-0.009727 0.048634,-0.0194537 0.087541,-0.0194537 z m -1.186677,0.26262523 c 0,-0.0389074 0,-0.0778149 0.0097269,-0.12644919 0.009727,0 0.0194537,0.009727 0.0291806,0.009727 0,0 0.009727,0.009727 0.009727,0.0194538 0,0.0291805 0.0291805,0.0486343 0.0486343,0.0486343 0.0778149,0.009727 0.10699542,0.0778149 0.17508348,0.0972687 0.0194538,0.009727 0.009727,0.0291805 0,0.0486343 -0.0583612,0.0778149 -0.009727,0.13617599 0.0389074,0.18481029 0.0486343,0.038907 0.0486343,0.077815 0.0583612,0.1361761 0,0.068088 0.009727,0.1459029 0.0389074,0.213991 C 0.26262523,1.2998747 0.0972686,1.0664301 0.0972686,0.78435118 Z M 0.77814882,1.4652314 c -0.068088,0 -0.1459029,-0.00972 -0.20426406,-0.029181 -0.009727,-0.019454 -0.009727,-0.038907 0,-0.058361 0.0389074,-0.077815 0.0778149,-0.1459029 0.12644918,-0.2139909 0.0194537,-0.019454 0.0389074,-0.038907 0.0389074,-0.068088 0,-0.019454 0.009727,-0.048634 0.0194538,-0.068088 0.0291805,-0.0486345 0.0194537,-0.0778151 -0.0194538,-0.087542 -0.0778149,-0.0194537 -0.11672233,-0.0875417 -0.1750835,-0.11672231 -0.0583612,-0.0291806 -0.11672231,-0.0486343 -0.16535661,-0.0194537 -0.0194538,0.009727 -0.0486343,0.0194538 -0.0486343,-0.009727 0,-0.0389074 -0.0486343,-0.068088 -0.0389074,-0.10699542 -0.009727,0 -0.0194537,0 -0.0291806,0.009727 -0.009727,0.009727 -0.0194537,0.0194537 -0.0389074,0.009727 -0.0194538,-0.0194537 -0.009727,-0.0389074 -0.009727,-0.0583612 0.009727,-0.0194537 0.0194537,-0.0291805 0.0389074,-0.0389074 0.0389074,-0.009727 0.0778149,-0.009727 0.0972686,0.0389074 0.0291806,-0.0875418 0.0875418,-0.13617605 0.1459029,-0.17508348 0,0 0.0778149,-0.068088 0.0875418,-0.068088 0.009727,0 0.0194537,0.0194538 0.0389074,0.0291805 0.0194538,0 0.0291805,0 0.0291805,-0.0194537 0.009727,-0.0486343 -0.0194537,-0.10699541 -0.0583612,-0.11672233 0,-0.009727 0.009727,-0.009727 0.009727,-0.009727 0.0291805,-0.009727 0.068088,-0.0291805 0.0583612,-0.0583612 0,-0.0389074 -0.0389074,-0.0583612 -0.0778149,-0.0583612 -0.0194537,0 -0.0389074,0 -0.0583612,0.009727 -0.0389074,0.0194537 -0.0875418,0.0389074 -0.1459029,0.0389074 0.10699541,-0.0778149 0.2431715,-0.11672232 0.37934754,-0.11672232 0.0291806,0 0.0486343,0 0.0778149,0 -0.0583612,0.009727 -0.11672231,0.0291805 -0.15562976,0.0486343 0.0583612,0.009727 0.068088,0.0389074 0.0486343,0.0875418 -0.009727,0.0194537 0,0.0389074 0.0194538,0.0486343 0.0194538,0.009727 0.0389074,0.009727 0.0486343,-0.009727 0.0194537,-0.0291806 0.0583612,-0.0389074 0.0875418,-0.0486343 0.0389074,-0.009727 0.068088,-0.0291806 0.0972687,-0.068088 0,-0.009727 0.00973,-0.009727 0.019454,-0.0194538 0.058361,0.0194538 0.1167223,0.0583612 0.1750835,0.0972686 -0.00972,0 -0.00972,0.009727 -0.019454,0.009727 -0.019454,0.0194538 -0.048634,0.0291805 -0.019454,0.068088 0.00972,0.0194538 0,0.0291805 -0.00972,0.0389074 -0.019454,0.009727 -0.029181,0 -0.038907,-0.009727 -0.00973,-0.009727 -0.00973,-0.0291805 -0.038907,-0.0291805 -0.00973,0.0194538 -0.038908,0.0291805 -0.038908,0.0583612 0.048634,0 0.038908,0.0389074 0.048634,0.068088 -0.058361,0.009727 -0.077815,0.0389074 -0.048634,0.0875418 0.00973,0.0194537 -0.00973,0.0291805 -0.019454,0.0389074 -0.0389075,0.0583612 -0.0778149,0.0972686 -0.0778149,0.16535663 0,0.068088 0.0486343,0.13617604 0.12644922,0.12644918 0.087536,-0.009727 0.087536,-0.009727 0.1167165,0.0680879 0,0.009722 0.00972,0.0194536 0.00972,0.0291809 0.00972,0.0194536 0.019454,0.0389071 0.00972,0.0583607 -0.029181,0.077815 0.00972,0.136176 0.038907,0.1945373 0.00972,0.019454 0.019454,0.029181 0.029181,0.038907 -0.1264492,0.136176 -0.29180582,0.2139909 -0.48634304,0.2139909 z"
     id="path4"
     inkscape:connector-curvature="0"
     style="fill:#ffffff;fill-opacity:1" />
</svg>
