<?xml version="1.0" encoding="UTF-8" standalone="no"?>
<!-- Generated by IcoMoon.io -->

<svg
   xmlns:dc="http://purl.org/dc/elements/1.1/"
   xmlns:cc="http://creativecommons.org/ns#"
   xmlns:rdf="http://www.w3.org/1999/02/22-rdf-syntax-ns#"
   xmlns:svg="http://www.w3.org/2000/svg"
   xmlns="http://www.w3.org/2000/svg"
   xmlns:sodipodi="http://sodipodi.sourceforge.net/DTD/sodipodi-0.dtd"
   xmlns:inkscape="http://www.inkscape.org/namespaces/inkscape"
   version="1.1"
   width="48"
   height="48"
   viewBox="0 0 48 48"
   id="svg2"
   inkscape:version="0.91 r13725"
   sodipodi:docname="logo_bzh.svg">
  <metadata
     id="metadata10">
    <rdf:RDF>
      <cc:Work
         rdf:about="">
        <dc:format>image/svg+xml</dc:format>
        <dc:type
           rdf:resource="http://purl.org/dc/dcmitype/StillImage" />
      </cc:Work>
    </rdf:RDF>
  </metadata>
  <defs
     id="defs8" />
  <sodipodi:namedview
     pagecolor="#000000"
     bordercolor="#666666"
     borderopacity="1"
     objecttolerance="10"
     gridtolerance="10"
     guidetolerance="10"
     inkscape:pageopacity="0"
     inkscape:pageshadow="2"
     inkscape:window-width="1280"
     inkscape:window-height="962"
     id="namedview6"
     showgrid="false"
     inkscape:zoom="4.9166667"
     inkscape:cx="24"
     inkscape:cy="24"
     inkscape:window-x="-8"
     inkscape:window-y="-8"
     inkscape:window-maximized="1"
     inkscape:current-layer="svg2" />
  <path
     fill="#000000"
     d="M47.932 47.931h-47.932v-13.048c0.209 0 0.419-0.068 0.419-0.068s0.279 0.068 0.42 0.068c0.069 0 0.069-0.068 0.069-0.139v-1.604c0-0.14 0.069-0.14 0.14-0.14h0.278c0.14 0 0.14 0.070 0.209 0.14l0.559 1.048c0.349 0.557 0.559 0.696 1.047 0.696 0.209 0 0.349 0 0.419-0.068 0.069 0 0.14-0.070 0.14-0.14v-0.697c-0.14 0-0.14 0.068-0.279 0.068s-0.278-0.139-0.419-0.348c-0.419-0.628-0.559-0.837-0.559-0.907l0.069-0.070c0.42-0.209 0.769-0.698 0.769-1.256 0-0.976-0.629-1.465-1.814-1.465-0.488 0-1.116 0-1.466 0.068v-30.069h47.932v37.536h-1.536c-0.14 0-0.14 0.069-0.14 0.209v2.232c0 0.21-0.069 0.278-0.209 0.278h-1.814c-0.139 0-0.209-0.14-0.209-0.278v-2.302c0-0.14 0-0.209-0.139-0.209-0.279 0-0.838 0.069-0.838 0.069h-0.698c-0.14 0-0.21 0-0.21 0.209v6.209c0 0.628 0.069 0.767 0.279 0.767h1.534c0.070 0 0.141-0.068 0.141-0.139 0-0.14-0.070-0.349-0.070-0.699v-1.743c0-0.209 0-0.348 0.209-0.348h1.326c0.209 0 0.35-0.21 0.489-0.21s0.209 0.14 0.209 0.488v1.116c0 1.047 0.49 1.676 1.675 1.676l0.001 3.070zM1.535 32.302h-0.419c-0.14-0.069-0.209-0.139-0.209-0.279v-1.116c0-0.068 0-0.14 0.069-0.14h0.489c0.559 0 0.837 0.209 0.837 0.768s-0.348 0.767-0.767 0.767zM5.024 7.395c1.883 1.954 3.767 1.395 3.767 1.395s0.419-1.953-1.535-3.767c-1.884-1.954-3.767-1.603-3.767-1.603s-0.348 1.953 1.535 3.975zM9.209 11.023c0 0-1.675-0.698-3.767 0.976-2.023 1.675-1.954 3.488-1.954 3.488s1.604 0.769 3.767-0.837c2.164-1.604 1.954-3.627 1.954-3.627zM8.094 41.094c-0.070-0.070-0.349-0.14-0.349-0.209 0-0.14 0.278-0.21 0.349-0.279 0.419-0.209 0.698-0.628 0.698-1.326 0-1.116-0.769-1.813-2.721-1.813-0.976 0-1.954 0.14-2.162 0.14l-0.279-0.069c-0.069 0-0.069 0.069-0.069 0.209v6.069c0 0.14 0 0.211 0.209 0.211 0.488 0 0.559 0 0.629 0.14 0.488 0.489 1.256 0.698 2.163 0.698 1.535 0 2.511-0.837 2.511-2.164-0.003-0.841-0.352-1.329-0.979-1.607zM5.791 31.326c-0.487 0-0.837 0.068-1.116 0.209v0.768c0.14 0 0.349-0.209 0.976-0.209 0.559 0 0.837 0.209 0.837 0.627v0.141c0 0.209-0.069 0.277-0.209 0.277-0.209 0-0.419-0.14-0.767-0.14-0.698 0-1.116 0.348-1.116 0.977s0.419 0.905 1.256 0.905c0.559 0 1.116-0.209 1.256-0.209h0.35c0 0 0.068 0 0.068-0.068v-1.954c0-0.976-0.628-1.325-1.535-1.325zM5.861 34.326c-0.348 0-0.558-0.070-0.558-0.348 0-0.349 0.209-0.42 0.487-0.42h0.56c0.139 0 0.139 0 0.139 0.141 0 0.419-0.139 0.628-0.628 0.628zM6.14 40.325h-0.628c-0.141 0-0.141-0.069-0.141-0.209v-1.116c0-0.139 0-0.209 0.070-0.209h0.628c0.56 0 0.837 0.209 0.837 0.769 0.001 0.628-0.348 0.766-0.766 0.766zM6.21 43.465c-0.697 0-0.838-0.279-0.838-0.837v-1.047c0.070 0 0.209 0.069 0.279 0.069h0.419c0.628 0 1.046 0.209 1.046 0.906 0 0.7-0.277 0.909-0.906 0.909zM11.512 33c0-1.116-0.489-1.674-1.326-1.674-0.698 0-0.907 0.278-1.047 0.278-0.209 0-0.419-0.278-0.558-0.278h-0.069l-0.279 0.209-0.068 0.069c0 0.14 0.419 0.419 0.419 0.56 0 0.139-0.141 0.209-0.141 0.836v1.743c0 0.070 0 0.14 0.070 0.14s0.349-0.068 0.349-0.068 0.349 0.068 0.419 0.068c0.069 0 0.069-0.068 0.069-0.14v-1.604c0-0.628 0.070-1.116 0.629-1.116s0.697 0.42 0.697 1.116v1.604c0 0.070 0 0.14 0.070 0.14l0.349-0.068 0.349 0.068c0.069 0 0.069-0.068 0.069-0.14v-1.743zM38.025 18.628c-0.489 0-0.906 0.070-1.326 0.279 1.535-1.116 3-4.465 3-6.28 0-0.278 0-0.419-0.069-0.628 0 0-4.116 4.186-11.86 4.186-6.069 0-11.652-1.674-16.884-5.163 6.768 10.116 17.441 17.442 29.234 20.371 0-2.372-1.814-5.442-3.628-6.418 0.278 0.068 0.558 0.14 0.907 0.14 2.092 0 5.163-1.605 7.325-4.326-3.143-1.395-5.236-2.162-6.7-2.162zM11.303 8.929c0 0 2.233 0.419 3.977-1.744 1.674-2.022 0.698-3.766 0.698-3.766s-1.743-0.14-3.42 1.813c-1.675 2.024-1.256 3.697-1.256 3.697zM17.513 43.186c-0.141 0-0.070 0.070-0.35 0.070-0.277 0-0.487-0.279-0.696-0.559-0.279-0.349-0.56-0.905-0.56-0.976 0 0 0-0.14 0.070-0.209 0.628-0.279 1.116-0.907 1.116-1.815 0-1.534-1.048-2.231-2.793-2.231-0.837 0-2.022 0.069-2.372 0.14-0.069 0-0.14 0-0.14 0.14v6.628c0 0.279 0 0.348 0.14 0.348 0.279 0 0.698-0.067 0.698-0.067s0.559 0.067 0.837 0.067c0.14 0 0.14-0.067 0.14-0.139v-2.304c0-0.14 0.069-0.21 0.14-0.21 0.069 0 0.209 0.070 0.209 0.070 0.069 0 0.139 0 0.209 0.14l0.837 1.466c0.419 0.767 0.837 1.116 1.676 1.116 0.419 0 0.696-0.141 0.837-0.21 0.068-0.069 0.139-0.069 0.139-0.209v-1.116c-0.001-0.068-0.071-0.139-0.139-0.139zM15.769 33c0-1.116-0.489-1.674-1.326-1.674-0.698 0-0.907 0.278-1.047 0.278-0.209 0-0.42-0.278-0.559-0.278h-0.069l-0.278 0.209-0.069 0.069c0 0.14 0.419 0.419 0.419 0.56 0 0.139-0.14 0.209-0.14 0.836v1.743c0 0.070 0 0.14 0.069 0.14s0.349-0.068 0.349-0.068 0.349 0.068 0.42 0.068c0.069 0 0.069-0.068 0.069-0.14v-1.604c0-0.628 0.069-1.116 0.629-1.116 0.558 0 0.697 0.42 0.697 1.116v1.604c0 0.070 0 0.14 0.069 0.14l0.349-0.068 0.349 0.068c0.070 0 0.070-0.068 0.070-0.14v-1.743zM14.234 40.884c-0.141 0-0.279-0.070-0.42-0.070-0.209 0-0.209-0.068-0.209-0.348v-1.466c0-0.139 0-0.209 0.069-0.209h0.56c0.628 0 0.975 0.349 0.975 0.977 0 0.837-0.348 1.116-0.975 1.116zM19.744 31.394h-0.278c0 0-0.419-0.068-0.489-0.068s-0.069 0-0.139 0.14c0 0.069 0 0.14-0.070 0.348l-0.419 1.675c-0.070 0.21-0.070 0.21-0.070 0.348 0 0.14 0 0.209-0.068 0.209-0.141 0-0.141-0.139-0.279-0.627l-0.419-1.605c-0.141-0.348-0.070-0.488-0.209-0.488-0.070 0-0.489 0.069-0.489 0.069h-0.348c0 0-0.070 0-0.070 0.069s0.139 0.348 0.209 0.489l0.628 2.022c0.279 0.838 0.348 0.838 0.628 0.838h0.56c0.278 0 0.348 0 0.628-0.838l0.625-2.023c0.069-0.279 0.139-0.42 0.139-0.489 0.001-0.071 0.001-0.071-0.069-0.071zM25.884 43.186v-0.906c0-0.068 0-0.14-0.14-0.14h-1.046c-0.14 0-0.209 0-0.209 0.14 0 0.838-0.489 0.977-1.048 0.977-0.767 0-1.256-0.14-1.256-0.837 0-0.35 0.14-0.627 0.559-0.627h1.326c0.14 0 0.209 0 0.209-0.141 0-0.209-0.069-0.558-0.069-0.558s0.069-0.42 0.069-0.628c0-0.14-0.069-0.21-0.209-0.21h-1.116c-0.349 0-0.488-0.209-0.488-0.559 0-0.627 0.348-0.768 1.185-0.768 0.906 0 1.186 0.278 1.325 0.278 0.070 0 0.141 0 0.141-0.139v-0.698c0 0 0.139-0.349 0.139-0.489 0-0.069 0-0.209-0.069-0.209-0.42-0.14-1.116-0.279-1.812-0.279-1.675 0-2.721 0.768-2.721 2.233 0 0.559 0.279 0.836 0.279 1.046 0 0.348-0.698 0.768-0.698 1.954 0 1.535 1.257 2.233 2.72 2.233 0.907 0 1.536-0.21 2.164-0.699 0.068-0.069 0.139-0.14 0.279-0.14h0.419c0.068 0 0.139-0.069 0.139-0.14l-0.071-0.694zM23.024 31.394c-0.069-0.068-0.278-0.068-0.488-0.068-0.698 0-0.837 0.278-0.976 0.278s-0.419-0.278-0.559-0.278h-0.069l-0.279 0.209c0 0.069-0.069 0.069-0.069 0.069 0 0.14 0.488 0.419 0.488 0.56 0 0.139-0.209 0.277-0.209 0.836v1.743c0 0.070 0 0.14 0.070 0.14s0.419-0.068 0.419-0.068 0.278 0.068 0.349 0.068c0.070 0 0.069-0.068 0.069-0.14v-1.673c0-0.629 0.14-0.977 0.559-0.977 0.278 0 0.488 0.209 0.559 0.209 0.069 0 0.069-0.069 0.139-0.069v-0.348c0 0 0.141-0.279 0.141-0.349-0.003-0.070-0.073-0.070-0.143-0.141zM25.465 31.326c-0.698 0-0.837 0.348-1.185 0.348-0.349 0.279-0.628 0.837-0.628 1.396 0 1.256 0.628 1.812 1.745 1.812 0.975 0 1.602-0.558 1.602-1.743s-0.558-1.813-1.535-1.813zM25.327 34.187c-0.489 0-0.699-0.35-0.699-1.116 0-0.629 0.21-1.048 0.699-1.048 0.558 0 0.698 0.35 0.698 1.116 0 0.699-0.208 1.048-0.698 1.048zM30.629 43.536v-5.931c0-0.069 0-0.14-0.14-0.14-0.069 0-0.768 0.069-0.768 0.069h-0.768c-0.14 0-0.21 0.068-0.21 0.349v6.698c0 0.139 0.069 0.209 0.14 0.209 0.14 0 0.906-0.070 0.906-0.070h0.768c0.069 0 0.14-0.067 0.14-0.139 0.002-0.139-0.068-0.348-0.068-1.045zM39.141 42.559h-1.257c-0.14 0-0.14 0.069-0.14 0.14v0.42c0 0.14-0.070 0.21-0.139 0.21-0.141 0-0.279-0.070-0.56-0.070h-1.394c-0.35 0-0.489-0.070-0.489-0.14 0-0.14 0.489-0.21 0.837-0.628l2.791-2.93c0.278-0.349 0.488-0.698 0.488-1.117 0-0.627-0.348-0.905-0.906-0.905h-4.257c-0.14 0-0.209 0-0.209 0.14 0 0.069 0.069 0.628 0.069 0.628s-0.069 0.628-0.069 0.698 0 0.14 0.14 0.14c0.069 0 0.209-0.14 0.767-0.14h1.467c0.278 0 0.488-0.069 0.697-0.069 0 0.14-0.349 0.348-0.559 0.628l-2.302 2.51c-0.488 0.56-0.559 1.048-0.559 1.326 0 0.907 0.489 1.326 1.326 1.326h3.21c0.209 0 1.116-0.067 1.116-0.067 0.069 0 0.14 0 0.14-0.141 0-0.139-0.070-1.046-0.070-1.046s0.070-0.627 0.070-0.768c0.001-0.143-0.070-0.143-0.208-0.143z"
     id="path4"
     style="fill:#ffffff" />
</svg>
