<?xml version="1.0" encoding="UTF-8" standalone="no"?>
<svg
   xmlns:dc="http://purl.org/dc/elements/1.1/"
   xmlns:cc="http://creativecommons.org/ns#"
   xmlns:rdf="http://www.w3.org/1999/02/22-rdf-syntax-ns#"
   xmlns:svg="http://www.w3.org/2000/svg"
   xmlns="http://www.w3.org/2000/svg"
   xmlns:sodipodi="http://sodipodi.sourceforge.net/DTD/sodipodi-0.dtd"
   xmlns:inkscape="http://www.inkscape.org/namespaces/inkscape"
   version="1.1"
   viewBox="0 0 512 512"
   enable-background="new 0 0 512 512"
   id="svg2"
   inkscape:version="0.91 r13725"
   sodipodi:docname="logo_kartenn.svg">
  <metadata
     id="metadata12">
    <rdf:RDF>
      <cc:Work
         rdf:about="">
        <dc:format>image/svg+xml</dc:format>
        <dc:type
           rdf:resource="http://purl.org/dc/dcmitype/StillImage" />
        <dc:title></dc:title>
      </cc:Work>
    </rdf:RDF>
  </metadata>
  <defs
     id="defs10" />
  <sodipodi:namedview
     pagecolor="#ffffff"
     bordercolor="#666666"
     borderopacity="1"
     objecttolerance="10"
     gridtolerance="10"
     guidetolerance="10"
     inkscape:pageopacity="0"
     inkscape:pageshadow="2"
     inkscape:window-width="1280"
     inkscape:window-height="1002"
     id="namedview8"
     showgrid="false"
     inkscape:zoom="0.59903033"
     inkscape:cx="246.23729"
     inkscape:cy="273.32769"
     inkscape:window-x="-8"
     inkscape:window-y="-8"
     inkscape:window-maximized="1"
     inkscape:current-layer="svg2" />
  <g
     id="g4175"
     transform="matrix(1.0381548,0,0,1.0381548,-9.7676298,-12.201802)">
    <path
       id="path3"
       d="m 442.9163,204.62232 c 0,149.67047 -168.96477,288.28567 -168.96477,288.28567 -9.87275,8.09992 -26.0303,8.09992 -35.90305,0 0,0 -168.964778,-138.6152 -168.964778,-288.28567 0.0019,-103.23102 83.686688,-186.915828 186.916778,-186.915828 103.23008,0 186.91582,83.684808 186.91582,186.915828 z"
       style="fill:#2d4059;fill-opacity:1"
       inkscape:connector-curvature="0" />
    <path
       id="path5"
       d="m 255.1147,324.55964 c -66.46859,0 -120.54207,-54.0759 -120.54207,-120.54207 0,-66.46615 54.0759,-120.544469 120.54207,-120.544469 66.46615,0 120.54206,54.075899 120.54206,120.542069 0,66.46616 -54.07349,120.54447 -120.54206,120.54447 z"
       style="fill:#ffffff;fill-opacity:1"
       inkscape:connector-curvature="0" />
    <g
       transform="matrix(0.49327565,0,0,0.49327565,129.23499,78.140093)"
       style="fill:#d0d0d0;fill-opacity:0.43220341"
       id="g4">
      <path
         inkscape:connector-curvature="0"
         style="fill:#d0d0d0;fill-opacity:0.43220341"
         id="path6"
         d="M 429.2,82.8 C 383,36.5 321.4,11 256,11 190.6,11 129,36.5 82.8,82.8 36.6,129.1 11,190.6 11,256 11,321.4 36.5,383 82.8,429.2 129.1,475.4 190.6,501 256,501 321.4,501 383,475.5 429.2,429.2 475.4,382.9 501,321.4 501,256 501,190.6 475.5,129 429.2,82.8 Z m 49.6,162.2 -95,0 c -0.9,-37.8 -6.2,-74.2 -15.5,-106.5 18.1,-9.3 35,-21 50.5,-34.8 35,37.4 57.3,86.8 60,141.3 z m -211.8,22 94.9,0 c -0.8,34.8 -5.6,68.1 -13.9,97.9 -25.6,-10.3 -52.9,-16.3 -81,-17.6 L 267,267 Z M 403,88.4 c -12.8,11.3 -26.8,20.9 -41.6,28.9 -3.8,-10.6 -8.1,-20.6 -12.9,-30 -9.5,-18.8 -20.3,-34.2 -32.2,-46 32.5,9.1 62,25.4 86.7,47.1 z m -136,-52 c 22.9,5.1 44.5,26.2 61.9,60.6 4.7,9.3 8.9,19.2 12.6,29.7 -23.5,9.7 -48.6,15.4 -74.5,16.7 l 0,-107 z m 81.1,111.4 c 8.2,29.6 12.9,62.7 13.7,97.3 l -94.8,0 0,-79.6 c 28.2,-1.3 55.5,-7.4 81.1,-17.7 z M 245,245 l -94.9,0 c 0.8,-34.6 5.5,-67.7 13.7,-97.3 25.6,10.4 53,16.4 81.1,17.6 l 0,79.7 z m 0.1,-208.6 0,107 c -25.9,-1.3 -51.1,-7 -74.5,-16.7 3.7,-10.5 7.9,-20.4 12.6,-29.7 17.4,-34.4 39,-55.5 61.9,-60.6 z m -49.3,4.9 c -11.9,11.8 -22.7,27.3 -32.2,46 -4.7,9.4 -9,19.4 -12.9,30 -14.8,-8 -28.7,-17.6 -41.6,-28.9 24.7,-21.7 54.2,-38 86.7,-47.1 z M 93.3,103.7 c 15.5,13.8 32.4,25.4 50.5,34.8 -9.3,32.4 -14.7,68.7 -15.5,106.5 l -95,0 c 2.7,-54.5 25,-103.9 60,-141.3 z m -60,163.3 95,0 c 0.9,38.1 6.3,74.6 15.7,107.1 -18,9.3 -34.9,20.8 -50.3,34.6 C 58.4,371.2 36,321.7 33.3,267 Z m 76.2,157 c 12.8,-11.2 26.7,-20.8 41.4,-28.7 3.8,10.3 8,20.2 12.7,29.4 9.5,18.8 20.3,34.2 32.2,46.1 -32.3,-9.1 -61.7,-25.3 -86.3,-46.8 z m 135.6,51.6 c -22.9,-5.1 -44.5,-26.2 -61.9,-60.6 -4.6,-9.1 -8.7,-18.8 -12.4,-29.1 23.4,-9.7 48.5,-15.4 74.3,-16.6 l 0,106.3 z m -81,-110.7 C 155.8,335.1 151,301.8 150.2,267 l 94.9,0 0,80.3 c -28.1,1.2 -55.4,7.2 -81,17.6 z m 103,110.7 0,-106.3 c 25.8,1.3 50.9,6.9 74.3,16.6 -3.7,10.3 -7.8,20 -12.4,29.1 -17.4,34.4 -39,55.5 -61.9,60.6 z m 49.3,-4.9 c 11.9,-11.8 22.7,-27.3 32.2,-46.1 4.7,-9.2 8.9,-19.1 12.7,-29.4 14.7,7.9 28.6,17.5 41.4,28.7 -24.6,21.6 -54,37.8 -86.3,46.8 z m 102.2,-62 C 403.2,395 386.3,383.4 368.3,374.1 377.7,341.6 383.1,305 384,267 l 95,0 c -2.8,54.7 -25.2,104.2 -60.4,141.7 z" />
    </g>
    <path
       sodipodi:nodetypes="sssssssssssssssscsscssscsssssssssscsssscssssssscss"
       inkscape:connector-curvature="0"
       id="path4151"
       d="m 327.70416,270.19014 c -7.69212,-2.2949 -12.10827,-3.78928 -18.60959,-6.29728 -41.48192,-16.00242 -75.87899,-42.55877 -101.59048,-78.43318 -4.13315,-5.76686 -4.12628,-5.7169 -0.44696,-3.24835 15.71468,10.54339 32.1789,16.67394 52.23489,19.44997 20.60724,2.85233 35.51645,1.92301 49.89426,-3.10997 8.12804,-2.84525 16.98969,-7.74109 22.17004,-12.24839 1.05709,-0.91974 2.03294,-1.67225 2.16858,-1.67225 0.13563,0 0.24661,0.99187 0.24661,2.20416 0,8.19963 -4.68261,19.61937 -10.98502,26.7897 -0.78552,0.89369 -1.20643,1.54256 -0.93536,1.44191 0.27106,-0.10061 1.4227,-0.27459 2.55921,-0.38658 4.18445,-0.41232 11.10596,1.06119 19.16357,4.07973 4.33144,1.62264 12.21312,5.1156 12.74642,5.64886 0.45377,0.45374 -6.6891,7.43212 -10.49188,10.25027 -7.44744,5.5191 -15.3835,8.7882 -22.12947,9.11574 l -3.34246,0.16232 1.58868,1.29413 c 5.91864,4.82127 11.6106,14.71369 13.15719,22.86667 0.62049,3.27094 0.60742,4.18019 -0.0596,4.14972 -0.2879,-0.0132 -3.59027,-0.9389 -7.3386,-2.05718 z M 173.29661,201.17766 c -0.32904,-0.0737 -1.24705,-0.34128 -2.04007,-0.59456 l -1.44185,-0.46052 0.19084,-1.24021 c 1.32153,-8.58845 8.72996,-16.65445 17.33752,-18.87645 1.96112,-0.50623 6.8829,-0.61926 8.02688,-0.18433 0.66946,0.25454 0.71504,0.39914 0.5893,1.86947 -0.6666,7.79491 -5.11849,14.12686 -12.49273,17.76851 -1.48062,0.73117 -3.41707,1.46264 -4.3032,1.62547 -1.61079,0.29596 -4.73861,0.34536 -5.86669,0.0926 z m 32.16389,-31.03011 c -0.16952,-0.44585 -0.30622,-1.71046 -0.30379,-2.81021 0.0221,-10.05853 9.66387,-20.53699 19.95433,-21.6862 l 1.56319,-0.17458 0.45582,1.53493 c 0.59892,2.01677 0.58772,6.25337 -0.022,8.32646 -1.0103,3.43508 -2.76298,6.23759 -5.79066,9.25935 -4.14825,4.14013 -7.72159,5.86869 -12.79095,6.18749 l -2.7577,0.17344 z m -17.88872,-0.0305 c -6.36917,-1.38325 -13.4279,-7.64199 -16.1364,-14.30762 -1.28336,-3.1584 -2.01405,-8.61363 -1.30393,-9.73522 0.20953,-0.33095 0.7668,-0.37751 2.64472,-0.2209 5.65268,0.47142 10.43046,2.99993 15.21054,8.04975 3.86424,4.0823 5.73418,8.20553 6.01298,13.25865 l 0.16662,3.02038 -0.97535,0.19508 c -1.45855,0.29173 -3.51701,0.19642 -5.61918,-0.26012 z"
       style="fill:#2d4059;fill-opacity:1;stroke:none;stroke-width:10;stroke-miterlimit:4;stroke-dasharray:none;stroke-opacity:1" />
  </g>
</svg>
