<?xml version="1.0" encoding="UTF-8" standalone="no"?>
<!-- Created with Inkscape (http://www.inkscape.org/) -->

<svg
   xmlns:dc="http://purl.org/dc/elements/1.1/"
   xmlns:cc="http://creativecommons.org/ns#"
   xmlns:rdf="http://www.w3.org/1999/02/22-rdf-syntax-ns#"
   xmlns:svg="http://www.w3.org/2000/svg"
   xmlns="http://www.w3.org/2000/svg"
   xmlns:sodipodi="http://sodipodi.sourceforge.net/DTD/sodipodi-0.dtd"
   xmlns:inkscape="http://www.inkscape.org/namespaces/inkscape"
   width="210mm"
   height="210mm"
   viewBox="0 0 744.09449 744.09448"
   id="svg4166"
   version="1.1"
   inkscape:version="0.91 r13725"
   sodipodi:docname="rb_blanc.svg">
  <defs
     id="defs4168" />
  <sodipodi:namedview
     id="base"
     pagecolor="#ffffff"
     bordercolor="#666666"
     borderopacity="1.0"
     inkscape:pageopacity="0.0"
     inkscape:pageshadow="2"
     inkscape:zoom="0.35"
     inkscape:cx="-103.57143"
     inkscape:cy="520"
     inkscape:document-units="px"
     inkscape:current-layer="layer1"
     showgrid="false"
     inkscape:window-width="1280"
     inkscape:window-height="1002"
     inkscape:window-x="-8"
     inkscape:window-y="-8"
     inkscape:window-maximized="1" />
  <metadata
     id="metadata4171">
    <rdf:RDF>
      <cc:Work
         rdf:about="">
        <dc:format>image/svg+xml</dc:format>
        <dc:type
           rdf:resource="http://purl.org/dc/dcmitype/StillImage" />
        <dc:title></dc:title>
      </cc:Work>
    </rdf:RDF>
  </metadata>
  <g
     inkscape:label="Calque 1"
     inkscape:groupmode="layer"
     id="layer1"
     transform="translate(0,-308.26772)">
    <path
       style="fill:#ffffff;fill-opacity:1"
       d="m 6.6428629,1020.7449 0,-27.83185 4.8422001,0.27812 c 4.57987,0.26306 4.96818,0.42582 7.16797,3.00439 4.84027,5.67374 12.12532,8.97664 21.96361,9.95814 22.23885,2.2184 38.56182,-6.83323 42.81192,-23.74062 0.50122,-1.99384 0.73458,-6.43339 0.56557,-10.76046 -0.2353,-6.02413 -0.62726,-8.10061 -2.15152,-11.39769 -2.59786,-5.61918 -6.19013,-9.30952 -11.65673,-11.97488 -5.05527,-2.46487 -5.35699,-3.32857 -1.88014,-5.38239 2.68846,-1.58817 6.10268,-5.9275 8.10183,-10.29747 1.29477,-2.83007 1.5876,-4.78094 1.59901,-10.65321 0.0129,-6.69717 -0.14792,-7.51754 -2.35317,-11.99712 -3.60131,-7.31532 -9.20866,-11.27036 -19.2184,-13.55531 -4.90999,-1.12081 -21.64122,-1.1079 -37.42745,0.0287 -5.62765,0.40531 -10.7119701,0.5528 -11.2984901,0.32777 -0.94096,-0.36112 -1.06621,-34.48512 -1.06621,-290.50613 l 0,-290.09696 366.2142871,0 366.21427,0 0,290.25734 0,290.2573 -1.97275,-0.47519 c -1.08501,-0.2614 -6.97637,-0.65696 -13.09189,-0.87913 -12.08078,-0.43888 -16.16924,0.19032 -24.13784,3.71437 -5.67157,2.50826 -12.45945,9.51246 -14.58335,15.04814 -2.45558,6.40018 -2.72386,14.28451 -0.76935,22.60959 l 1.56807,6.67916 -3.61977,7.30126 c -4.67832,9.43642 -6.08025,15.31522 -5.55872,23.30988 0.51757,7.93405 1.96336,12.52006 5.68848,18.04376 5.45302,8.08589 15.09584,13.07479 27.44749,14.20059 9.19034,0.8377 20.72729,-0.5174 27.92697,-3.2802 0.97784,-0.3752 1.10266,2.1838 1.10266,22.6093 l 0,23.0324 -366.21427,0 -366.2142871,0 0,-27.8319 z M 177.18756,1005.0375 c 2.06667,-0.6206 4.04846,-1.4889 4.40398,-1.9296 0.35552,-0.4406 0.76289,-4.67488 0.90528,-9.40948 l 0.25889,-8.60837 -1.79341,0.18917 c -0.98638,0.10402 -3.30316,0.38493 -5.1484,0.62425 -5.72898,0.7429 -7.13434,-0.79592 -16.6378,-18.21758 -2.61595,-4.79558 -4.75627,-9.13685 -4.75627,-9.64733 0,-0.51047 1.45312,-1.699 3.22916,-2.64119 16.21569,-8.60241 19.87241,-36.97272 6.55957,-50.8918 -4.65745,-4.86954 -10.41632,-7.41755 -19.70532,-8.71863 -9.33274,-1.30718 -43.69325,1.01191 -45.835797,3.09356 -0.66786,0.64893 -0.92174,13.25165 -1.07604,53.41069 l -0.20194,52.56131 11.119137,-0.1968 11.11907,-0.1968 0.19059,-20.76819 c 0.13183,-14.36615 0.43825,-20.9212 0.99403,-21.26468 1.007,-0.62238 9.15748,0.0438 10.78675,0.88193 0.666,0.34247 4.95446,8.02867 9.52993,17.08044 8.77764,17.36492 11.6479,21.3814 17.13488,23.9779 5.66144,2.679 11.54263,2.8876 18.92371,0.6712 z m -52.79702,-59.00187 c -1.32592,-0.3358 -2.82074,-1.04749 -3.32181,-1.58157 -1.37234,-1.46285 -2.06216,-30.48747 -0.73667,-30.99615 2.50892,-0.96277 14.5541,-1.28975 17.5884,-0.47748 7.45761,1.99643 11.03123,7.37465 10.97284,16.51394 -0.0499,7.80499 -2.62459,12.56484 -8.44716,15.61608 -2.48314,1.30122 -12.32988,1.86866 -16.0556,0.92518 z m 119.59378,59.42787 c 5.9425,-0.9304 13.15531,-3.6665 17.84973,-6.77101 3.30229,-2.18387 4.30948,-2.4833 8.35227,-2.4833 3.06289,0 4.68262,-0.29928 4.85324,-0.89671 0.14086,-0.49318 0.0947,-6.54594 -0.10259,-13.45055 l -0.35868,-12.55387 -7.53232,-0.0151 c -9.74415,-0.0194 -10.03966,0.0509 -10.05885,2.39478 -0.0458,5.59694 -6.05232,12.26498 -12.82059,14.23255 -9.00861,2.6188 -20.41893,-0.4381 -24.68722,-6.61401 -4.11803,-5.95842 -4.164,-16.2475 -0.0894,-20.02363 2.33523,-2.16422 5.64667,-2.52857 22.98136,-2.52857 l 14.58002,0 -0.15353,-9.50507 -0.15352,-9.50507 -16.02493,-0.35868 -16.02492,-0.35868 -1.72983,-2.01278 c -1.44399,-1.68014 -1.72983,-2.78252 -1.72983,-6.6712 0,-5.34164 1.00795,-7.73828 4.56966,-10.86548 6.01871,-5.28446 21.13797,-4.9288 31.45155,0.73996 4.93482,2.71242 5.55256,2.33301 5.58267,-3.42879 0.0103,-1.97275 0.49948,-5.17147 1.08703,-7.10828 1.80818,-5.96051 1.56739,-6.73383 -2.69787,-8.66425 -5.86498,-2.65454 -13.76645,-3.95497 -24.03008,-3.95497 -14.13685,0 -22.12433,2.61902 -29.52967,9.68254 -5.84097,5.57134 -8.13748,10.79289 -8.51952,19.37069 -0.19254,4.32305 0.0904,8.07092 0.85624,11.34296 1.68444,7.1966 1.48628,8.57135 -2.38447,16.54227 -3.88496,8.00012 -5.0801,12.5637 -5.0801,19.39817 0,10.03133 3.26494,18.81916 9.1951,24.74932 9.0132,9.01326 23.68027,12.23996 42.3491,9.31666 z m 93.71222,-0.3786 c 6.41392,-1.5562 7.80513,-2.6841 7.27372,-5.8975 -0.23825,-1.44076 -0.44169,-4.87922 -0.45208,-7.64108 -0.0262,-6.95957 -0.4124,-7.41474 -5.03646,-5.93604 -4.2316,1.35324 -5.56081,1.07024 -6.49322,-1.38214 -0.37004,-0.9733 -0.66241,-16.27503 -0.66241,-34.66903 l 0,-32.92679 1.54336,-0.82605 c 1.05707,-0.56571 5.6343,-0.74319 14.52662,-0.5632 l 12.98326,0.2627 0.20038,-9.98621 c 0.11021,-5.49235 -0.0736,-10.26017 -0.40845,-10.59496 -0.33486,-0.33487 -1.99898,-0.11837 -3.69805,0.48106 -2.60945,0.92067 -8.80092,1.08996 -39.86653,1.08996 -28.79617,0 -36.83728,0.19463 -37.05372,0.89671 -0.15203,0.49319 -0.15915,4.86796 -0.0158,9.72164 l 0.2606,8.82502 14.82437,-0.21665 14.82434,-0.21657 -0.26462,2.51077 c -0.14554,1.38093 -0.30694,18.81287 -0.35868,38.73765 -0.10268,39.54151 -0.10641,39.50048 4.03386,44.21601 4.92985,5.6148 12.3658,6.8982 23.83949,4.1147 z m 116.41319,0.8436 c 1.68295,-0.2277 4.33345,-0.9237 5.89002,-1.5465 l 2.83012,-1.1324 -0.15112,-9.0798 -0.15111,-9.07975 -3.48198,0.2231 c -3.76261,0.24103 -5.52087,-0.766 -7.27539,-4.16686 -0.50935,-0.98731 -6.48279,-19.38848 -13.27432,-40.89147 -6.79154,-21.50298 -12.78609,-39.94497 -13.32123,-40.98214 -0.53514,-1.03723 -1.45583,-2.0711 -2.04598,-2.29757 -2.17129,-0.83322 -26.74964,-0.43135 -27.94281,0.45689 -0.63322,0.47138 -2.10438,4.24658 -3.26925,8.38936 -1.16486,4.14277 -8.15401,27.06255 -15.53146,50.93283 -7.37743,23.87029 -13.55945,44.40201 -13.73782,45.62611 l -0.3243,2.2257 9.21253,0.4874 c 5.06688,0.268 10.18089,0.5577 11.36445,0.6438 1.94187,0.1411 2.23138,-0.1237 2.96592,-2.713 6.28316,-22.14929 7.69444,-26.77987 8.58134,-28.15657 0.99479,-1.54412 1.46381,-1.61406 10.82401,-1.61406 7.22082,0 10.79975,-0.32016 13.66059,-1.22196 4.33842,-1.36759 5.86333,-0.916 6.72214,1.99054 7.2148,24.41804 8.21463,26.74235 12.81239,29.78505 2.70222,1.7882 8.29642,3.1664 11.14862,2.7466 0.7891,-0.1161 2.81169,-0.3975 4.49464,-0.6253 z m -55.32632,-51.16277 c -0.18822,-0.30452 1.5682,-7.27672 3.90316,-15.49377 2.33495,-8.21704 4.25031,-15.95754 4.25635,-17.20102 0.0156,-3.20052 0.992,-4.5884 2.4038,-3.41673 1.64513,1.36536 12.29564,34.77995 11.49738,36.07157 -0.46363,0.75014 -21.5981,0.78845 -22.06069,0.0402 z m 119.0947,51.13887 c 5.04228,-0.5473 11.26989,-2.7729 16.13537,-5.7665 3.92508,-2.41513 4.28338,-2.49418 11.29848,-2.49418 l 7.24485,0 0,-19.996 c 0,-15.40697 0.23297,-20.65628 1.01511,-22.87308 0.74656,-2.116 0.8035,-3.08875 0.21521,-3.67706 -0.85363,-0.85359 -34.53433,-1.18824 -36.68116,-0.36442 -0.94284,0.36177 -1.13472,1.81744 -1.13472,8.60837 l 0,8.17292 7.03017,0 c 4.51142,0 7.33858,0.3084 7.891,0.86084 1.16463,1.16464 1.09095,7.96023 -0.11767,10.85286 -1.29059,3.08882 -4.83174,5.99111 -8.52246,6.98495 -1.6387,0.44125 -5.7934,0.69182 -9.23267,0.55689 -5.59937,-0.2198 -6.57831,-0.47346 -9.36245,-2.42642 -3.61316,-2.53442 -7.07145,-8.75554 -8.46329,-15.22459 -0.48698,-2.26342 -1.05064,-9.11891 -1.25259,-15.23444 -0.69052,-20.91195 2.96872,-32.62478 11.81141,-37.80695 2.84965,-1.66995 4.18678,-1.97339 8.76339,-1.98867 4.63999,-0.0158 5.88118,0.26435 8.81229,1.98731 4.19356,2.46508 7.43202,7.73505 8.11565,13.20667 l 0.47416,3.795 8.34656,-0.44878 c 4.59061,-0.24678 8.5389,-0.64958 8.77399,-0.89513 0.23508,-0.24555 0.27694,-6.66058 0.093,-14.25567 l -0.33441,-13.80926 -5.06207,0 c -4.60383,0 -5.39151,-0.22589 -8.70139,-2.49578 -5.9639,-4.09005 -11.01391,-5.49644 -21.25849,-5.92033 -7.20976,-0.29835 -9.86236,-0.12704 -13.27123,0.85711 -14.62237,4.22154 -24.18713,15.02332 -28.78345,32.5062 -1.52189,5.78869 -1.89519,9.13541 -2.1941,19.67069 -0.66291,23.36425 3.08986,38.06331 12.16863,47.66271 5.93868,6.27934 12.28396,9.22464 22.07056,10.24464 5.28302,0.5506 6.62058,0.5231 14.1123,-0.2899 z m 142.28329,-0.467 c 1.77548,-0.4 4.27728,-1.2241 5.55957,-1.8315 l 2.33144,-1.1041 0,-8.88536 c 0,-9.92428 -0.0352,-9.97851 -5.11329,-7.89072 -2.97043,1.22124 -5.4642,0.44218 -5.95479,-1.86017 -0.19279,-0.90482 -0.49329,-12.94362 -0.66777,-26.75287 -0.2721,-21.53534 -0.51857,-26.0264 -1.73227,-31.56402 -1.99418,-9.09868 -5.01122,-15.31464 -9.94277,-20.4849 -6.72049,-7.04573 -14.63032,-10.01095 -26.66056,-9.99453 -6.94541,0.009 -10.95342,0.91902 -18.57683,4.21566 -2.83886,1.22763 -5.94584,2.23208 -6.90441,2.23208 -0.97942,0 -4.10935,-1.72827 -7.14547,-3.9455 -2.97145,-2.17003 -6.0965,-3.9455 -6.94455,-3.9455 -2.4181,0 -12.94034,7.05821 -12.94034,8.68025 0,0.77963 2.62373,3.88883 6.0976,7.22586 4.27624,4.10777 6.09759,6.3633 6.09759,7.55112 0,0.93156 -0.83214,3.67082 -1.8492,6.08726 -3.58354,8.5141 -3.88971,12.32008 -3.88971,48.35262 l 0,33.29432 11.11914,0 c 8.38474,0 11.13405,-0.2206 11.17976,-0.8967 0.0334,-0.4932 0.0237,-13.32508 -0.0213,-28.51524 -0.0451,-15.19018 0.23336,-31.00806 0.6187,-35.15084 1.68357,-18.09973 7.22986,-25.29769 19.46436,-25.26082 11.16513,0.0337 16.61922,5.85584 18.56047,19.81295 0.42469,3.05339 0.77217,16.16529 0.77217,29.13746 0,23.59974 0.41746,28.79331 2.67991,33.34083 4.03891,8.11816 11.97708,10.83016 23.86255,8.15236 z M 223.37115,867.78957 c 4.08893,-1.1358 7.31115,-3.6748 9.06201,-7.14059 3.29707,-6.52648 1.8592,-11.14274 -6.08018,-19.52029 -7.73873,-8.16582 -7.98211,-10.6502 -1.16471,-11.88931 11.17301,-2.03075 16.22284,-11.09472 13.20044,-23.6935 -0.77576,-3.23373 -0.72839,-3.9241 0.40041,-5.835 0.70415,-1.19203 1.07974,-2.36788 0.83464,-2.61299 -0.24511,-0.2451 -5.87739,-0.49714 -12.51617,-0.56008 -10.53503,-0.0999 -12.3899,0.0555 -14.58128,1.22124 -10.43898,5.5534 -12.49393,19.01411 -4.19386,27.47127 2.94193,2.99761 3.01956,3.1926 2.18729,5.49419 -1.94736,5.38534 -0.60728,8.59187 6.58813,15.76397 4.74855,4.73317 5.46153,5.77512 5.46153,7.98145 0,3.8451 -2.26115,5.03188 -8.34572,4.38028 -4.73148,-0.5067 -4.75394,-0.50063 -4.33709,1.17196 0.23047,0.92471 0.63453,3.03704 0.89792,4.69405 0.30101,1.89356 0.91334,3.12846 1.64838,3.32426 2.26126,0.60235 8.37101,0.4622 10.93826,-0.25091 z m -5.65014,-46.1331 c -2.39587,-1.33059 -3.72062,-3.58353 -4.21104,-7.16153 -0.9063,-6.61218 2.62674,-11.24813 8.57659,-11.25394 7.85878,-0.008 10.38125,13.04511 3.42556,17.72584 -2.70272,1.81876 -5.33797,2.05202 -7.79111,0.68963 z M 110.2269,848.49452 c 0.83845,-0.69585 1.15115,-2.20984 1.15115,-5.5743 l 0,-4.61899 -3.04879,0.45476 c -2.71458,0.40488 -3.25698,0.23275 -4.94773,-1.57012 -2.33947,-2.4947 -11.619567,-18.53067 -11.268417,-19.47188 0.1401,-0.37565 1.70051,-1.77991 3.46752,-3.12059 6.981307,-5.29682 9.902337,-14.16329 7.665957,-23.26897 -1.52885,-6.22464 -4.228787,-9.99447 -9.162237,-12.7929 l -3.86852,-2.19436 -14.70604,0.0735 c -9.05334,0.0453 -15.46428,0.38311 -16.67871,0.87895 l -1.97275,0.80542 0,35.47063 0,35.47064 5.72449,0 5.72457,0 0.19369,-14.82867 0.19376,-14.82867 4.66286,0.25815 c 2.56458,0.14199 5.21057,0.54767 5.88002,0.90151 0.66944,0.35384 3.6493,5.26503 6.62191,10.91376 8.85041,16.81804 10.74432,18.65371 18.807697,18.22941 2.42469,-0.12759 4.9265,-0.66187 5.55957,-1.18731 z M 73.599093,810.5003 c -5.21064,-0.91938 -5.26294,-1.05239 -5.26294,-13.37067 0,-9.32735 0.16851,-11.01923 1.13473,-11.38998 0.62404,-0.23949 4.12728,-0.43543 7.78491,-0.43543 5.71552,0 6.98346,0.22684 9.02171,1.61406 3.87118,2.63467 5.13109,4.91504 5.50103,9.95687 0.60732,8.27609 -3.5488,13.20473 -11.69404,13.86747 -1.92425,0.15657 -4.8427,0.0476 -6.4854,-0.24232 z m 94.079387,38.26376 c 2.32889,-0.6066 5.30204,-1.76277 6.60699,-2.56928 2.34028,-1.44637 2.37264,-1.53896 2.37264,-6.7881 0,-5.81056 -0.3527,-6.18989 -3.60331,-3.87525 -4.04615,2.88112 -8.13292,4.26058 -12.67002,4.27669 -5.20946,0.0185 -7.71336,-0.79817 -10.53893,-3.43736 -4.04526,-3.77842 -6.35207,-12.27865 -3.61703,-13.32819 0.62409,-0.23949 7.39182,-0.43543 15.0394,-0.43543 16.00371,0 15.23396,0.3506 15.9234,-7.25261 1.06362,-11.72984 -6.48026,-19.42506 -19.18497,-19.56981 -15.28203,-0.17414 -24.37334,9.96449 -24.37334,27.1811 0,12.99477 5.53326,22.56489 14.84046,25.66746 4.43841,1.47956 13.78212,1.54318 19.20471,0.13078 z m -21.86702,-34.96519 c 0,-4.37763 4.30388,-9.27972 8.90515,-10.14293 3.51615,-0.65964 7.6424,0.59879 9.98675,3.04577 1.99798,2.08544 3.14161,6.27351 2.11701,7.75262 -0.35976,0.51934 -4.26626,0.91451 -10.78647,1.0911 l -10.22244,0.27687 0,-2.02343 z m 195.29605,33.67956 c 8.02885,-3.92814 11.9961,-11.8336 12.01362,-23.93928 0.0256,-17.69581 -7.8661,-27.7131 -21.87915,-27.77212 -4.56963,-0.0192 -5.65864,0.28891 -11.90745,3.36944 -3.78281,1.86485 -7.39238,3.9592 -8.02127,4.65412 -0.6289,0.69492 -2.17228,3.46204 -3.42972,6.14914 -5.63629,12.04447 -2.44279,29.77853 6.47536,35.95881 4.44033,3.07715 8.21482,3.97356 15.839,3.76162 5.78555,-0.16082 7.46585,-0.49685 10.90961,-2.18173 z m -16.31374,-7.19277 c -4.89272,-2.26488 -7.49657,-7.28643 -8.06292,-15.54943 -0.26985,-3.93706 -0.0324,-6.59708 0.86418,-9.68126 2.20291,-7.57774 5.36849,-10.38193 11.71989,-10.38193 4.43491,0 7.72512,2.09468 10.18481,6.48404 1.63554,2.91865 1.79341,3.95816 1.79341,11.80874 0,7.52859 -0.20043,8.98321 -1.59783,11.59676 -0.87881,1.64361 -2.61482,3.71254 -3.85781,4.59763 -2.75992,1.96524 -8.06228,2.50559 -11.04373,1.12545 z m -45.97108,7.24988 c -0.0328,-0.69047 -0.11358,-12.40604 -0.17934,-26.03462 l -0.11956,-24.77923 -5.55957,0.20952 -5.55957,0.20951 0.0399,2.33143 c 0.022,1.28229 0.10261,12.97391 0.17934,25.98138 l 0.13945,23.64994 5.55957,-0.15628 c 4.78335,-0.13444 5.55123,-0.33154 5.49979,-1.41165 z m 112.45466,-15.82187 c 0.23737,-16.04221 0.37227,-17.57345 1.78177,-20.22567 2.08067,-3.91511 3.976,-5.46844 7.44683,-6.10313 4.29832,-0.786 7.87053,0.26729 10.45764,3.08354 3.09988,3.3744 3.85935,8.52592 3.85935,26.17799 l 0,14.43252 5.20089,-0.144 5.20089,-0.144 0,-17.57541 c 0,-14.74748 -0.203,-18.23145 -1.26158,-21.6526 -4.0385,-13.05177 -16.87469,-17.6526 -30.38778,-10.8918 l -3.67215,1.83723 -3.96753,-2.63429 -3.96753,-2.63429 -2.57387,1.66785 c -1.41563,0.91731 -2.57786,2.19387 -2.58275,2.83681 -0.005,0.64293 1.44378,2.35932 3.21926,3.81419 3.5437,2.9038 3.89155,4.27664 1.97275,7.78567 -1.07904,1.97331 -1.28828,4.78429 -1.48953,20.01071 l -0.23414,17.71491 5.37034,0 5.37034,0 0.2568,-17.35623 z m 227.77406,-41.26269 c -2.24957,-29.17188 -22.97938,-67.69756 -46.68992,-86.77172 l -5.19913,-4.18247 7.94121,0.30082 c 9.12081,0.34551 16.87134,-0.86024 27.64269,-4.30037 23.08931,-7.37422 42.73113,-18.65752 63.56727,-36.51646 6.7146,-5.75519 21.99725,-21.24655 23.22684,-23.54405 0.61235,-1.14419 -0.46988,-1.8549 -9.14131,-6.00321 -28.60889,-13.68616 -59.7858,-24.44307 -79.42018,-27.40222 -10.6134,-1.59957 -22.77218,-1.28974 -29.17846,0.74354 -0.78162,0.24808 1.28311,-2.25318 4.58828,-5.55835 16.47097,-16.47097 31.98215,-50.04102 36.12114,-78.17514 1.12041,-7.61578 1.11658,-18.67606 -0.007,-19.79949 -0.24225,-0.24226 -2.12724,1.21138 -4.18887,3.23028 -9.23063,9.03967 -27.84372,21.4447 -46.07257,30.70612 -46.47327,23.61137 -99.43021,33.18124 -158.73238,28.68461 -15.2395,-1.15554 -15.397,-1.17133 -32.80379,-3.28836 -73.43519,-8.93123 -134.82848,-31.36918 -188.30804,-68.82261 -3.74822,-2.625 -7.2574,-5.03359 -7.79817,-5.35242 -1.16486,-0.68681 4.11435,7.25186 13.09924,19.69809 35.96469,49.81974 77.28975,94.89354 122.38971,133.4921 81.65156,69.88105 180.49902,122.35531 287.72691,152.74299 7.264,2.05857 14.65992,4.16793 16.4354,4.68747 5.43002,1.58892 5.2867,1.72532 4.8013,-4.56915 z m -458.46643,2.19523 c 1.18688,-0.79692 8.90513,-16.07825 8.4735,-16.77664 -0.20682,-0.33465 -2.73212,-0.60845 -5.61177,-0.60845 l -5.23572,0 -1.97157,7.35298 c -1.08436,4.04414 -2.24882,7.87546 -2.5877,8.51405 -0.33888,0.63858 -0.41229,1.36491 -0.16314,1.61407 0.62514,0.62512 6.13339,0.5506 7.0964,-0.096 z m 116.18127,-5.15233 c 0.37482,-0.37387 0.57007,-2.48677 0.43388,-4.69532 l -0.24762,-4.01553 -4.3931,0.21179 -4.39309,0.2118 -0.0285,3.58682 c -0.0156,1.97275 0.256,3.99034 0.60371,4.48353 0.73871,1.04777 7.0215,1.21761 8.02471,0.21691 z M 93.149843,555.02312 c 11.628177,-2.95506 24.229607,-10.43562 34.177137,-20.28847 12.24188,-12.12534 19.30795,-27.26144 20.38822,-43.67327 l 0.45672,-6.9386 -3.15298,-0.9191 c -5.27049,-1.53635 -19.32162,-1.14101 -26.46732,0.74469 -7.65241,2.01944 -16.04664,5.91932 -23.353197,10.84972 -6.79609,4.58599 -17.07871,14.33955 -21.89402,20.76769 -6.86861,9.16912 -11.83485,21.3972 -13.17539,32.44068 l -0.49706,4.09519 2.73803,1.15407 c 8.22982,3.46883 21.16252,4.21143 30.77986,1.7674 z M 201.45116,451.72798 c 11.67769,-2.96771 22.98376,-9.6257 32.23738,-18.98417 9.86309,-9.97482 16.48635,-21.04193 19.78198,-33.05463 2.56474,-9.34857 2.03085,-21.68669 -1.28208,-29.62829 l -1.00135,-2.40038 -5.16245,0.51093 c -30.60272,3.02874 -60.53802,31.4959 -66.55196,63.28804 -0.49148,2.59819 -0.70886,7.83573 -0.51773,12.47459 0.42104,10.219 0.45399,10.25103 9.94234,9.6649 3.77241,-0.23304 9.42166,-1.07498 12.55387,-1.87099 z m -60.53426,-0.55539 c 1.2556,-1.25559 0.7243,-14.88726 -0.83634,-21.45839 -1.68851,-7.10951 -6.27757,-17.27878 -10.82296,-23.98345 -4.45844,-6.57641 -15.51648,-17.70023 -22.76329,-22.89872 -7.273277,-5.21743 -16.916787,-10.00179 -24.528237,-12.16899 -6.91991,-1.97029 -20.64688,-2.83248 -21.58204,-1.35557 -0.98544,1.55631 -0.76794,13.56352 0.35165,19.41073 3.01745,15.75937 11.16312,30.07878 24.26663,42.65871 11.39361,10.93821 23.123497,17.32983 36.777457,20.0399 5.37173,1.0662 17.98772,0.90519 19.13713,-0.24422 z M 37.130823,988.43791 c -3.78538,-1.81199 -6.50713,-4.80581 -7.86317,-8.64909 -1.42662,-4.04356 -1.64434,-26.73149 -0.24304,-25.33019 0.56629,0.56629 3.58976,0.86084 8.83685,0.86084 16.48868,0 22.10076,4.29636 22.1367,16.94686 0.0201,7.16008 -1.96357,11.67668 -6.54243,14.89482 -3.9587,2.78222 -11.88493,3.40217 -16.32491,1.27676 z m 675.504387,-2.92713 c -5.43118,-1.87552 -7.34568,-3.49024 -9.71499,-8.19364 -2.54502,-5.05225 -2.99286,-12.64339 -0.93151,-15.78939 2.74119,-4.18359 3.69441,-4.394 21.0879,-4.6539 l 15.99481,-0.23895 0,11.11778 0,11.11784 -3.33294,2.93374 c -5.67005,4.99103 -15.0336,6.49327 -23.10327,3.70652 z M 28.163773,925.62562 c 0,-11.36986 0.15689,-13.25473 1.13473,-13.62991 0.62404,-0.23953 4.71875,-0.43544 9.09919,-0.43544 6.58934,0 8.49445,0.25653 11.03341,1.48559 4.99702,2.41902 7.27737,7.56202 6.34824,14.3175 -0.63924,4.64802 -2.84951,7.85177 -6.79049,9.84267 -2.79686,1.41292 -4.29342,1.61407 -12.01004,1.61407 l -8.81504,0 0,-13.19448 z m 680.792517,10.83829 c -2.46697,-1.24821 -3.57798,-3.80045 -3.59039,-8.24796 -0.02,-7.1778 3.27873,-11.39073 10.58113,-13.51363 4.77591,-1.38838 13.44722,-1.04032 19.35823,0.77712 l 3.76616,1.15797 0,10.37394 0,10.37402 -14.16794,-0.0108 c -9.92195,-0.007 -14.70115,-0.28035 -15.94719,-0.91084 z"
       id="path4164"
       inkscape:connector-curvature="0" />
  </g>
</svg>
