<?xml version="1.0" encoding="iso-8859-1"?>
<svg xmlns="http://www.w3.org/2000/svg" xmlns:xlink="http://www.w3.org/1999/xlink" version="1.1" viewBox="0 0 463 463" enable-background="new 0 0 463 463" width="512px" height="512px">
  <path d="m395.195,67.805c-43.724-43.725-101.859-67.805-163.695-67.805s-119.971,24.08-163.695,67.805-67.805,101.859-67.805,163.695 24.08,119.971 67.805,163.695 101.859,67.805 163.695,67.805 119.971-24.08 163.695-67.805 67.805-101.859 67.805-163.695-24.08-119.971-67.805-163.695zm34.009,252.195h-34.488c8.005-25.444 12.503-52.793 13.183-81h39.959c-0.959,28.346-7.338,55.746-18.654,81zm-414.062-81h39.959c0.679,28.207 5.177,55.556 13.183,81h-34.488c-11.316-25.254-17.695-52.654-18.654-81zm18.654-96h34.488c-8.005,25.444-12.503,52.793-13.183,81h-39.959c0.959-28.346 7.338-55.746 18.654-81zm294.15,81c-0.363-28.221-2.767-55.577-7.039-81h57.973c8.346,24.878 13.278,52.236 14.013,81h-64.947zm-46.076,176h-42.87v-65h63.821c-4.013,18.969-9.161,36.525-15.358,52.123-1.798,4.524-3.667,8.813-5.593,12.877zm-42.87,46.988v-31.988h34.85c-10.691,17.643-22.689,28.727-34.85,31.988zm-49.85-31.988h34.85v31.988c-12.161-3.261-24.159-14.345-34.85-31.988zm-13.613-27.877c-6.197-15.598-11.346-33.153-15.358-52.123h63.821v65h-42.87c-1.926-4.064-3.795-8.353-5.593-12.877zm5.593-324.123h42.87v65h-63.821c4.013-18.969 9.161-36.525 15.358-52.123 1.798-4.524 3.667-8.813 5.593-12.877zm42.87-46.988v31.988h-34.85c10.691-17.643 22.689-28.727 34.85-31.988zm49.85,31.988h-34.85v-31.988c12.161,3.261 24.159,14.345 34.85,31.988zm13.613,27.877c6.197,15.598 11.346,33.153 15.358,52.123h-63.821v-65h42.87c1.926,4.064 3.795,8.353 5.593,12.877zm-63.463,67.123v81h-73.945c0.372-28.338 2.847-55.721 7.241-81h66.704zm0,96v81h-66.703c-4.394-25.279-6.869-52.662-7.241-81h73.944zm15,81v-81h73.945c-0.372,28.338-2.847,55.721-7.241,81h-66.704zm0-96v-81h66.703c4.394,25.279 6.869,52.662 7.241,81h-73.944zm79.124-96c-4.278-21.008-9.885-40.455-16.722-57.661-0.998-2.513-2.021-4.952-3.06-7.339h34.439c16.482,17.839 30.309,39.917 40.536,65h-55.193zm-27.019-80c-5.326-9.946-11.062-18.44-17.129-25.386 15.411,5.638 29.91,14.263 43.13,25.386h-26.001zm-119.21,0h-26c13.22-11.123 27.718-19.748 43.13-25.386-6.068,6.946-11.804,15.44-17.13,25.386zm-7.237,15c-1.039,2.387-2.062,4.826-3.06,7.339-6.836,17.206-12.444,36.653-16.722,57.661h-55.193c10.227-25.083 24.053-47.161 40.536-65h34.439zm-22.565,80c-4.272,25.423-6.676,52.779-7.039,81h-64.947c0.735-28.764 5.667-56.122 14.013-81h57.973zm-71.986,96h64.947c0.363,28.221 2.767,55.577 7.039,81h-57.973c-8.346-24.878-13.278-52.236-14.013-81zm74.769,96c4.278,21.008 9.885,40.455 16.722,57.661 0.998,2.513 2.021,4.952 3.06,7.339h-34.439c-16.482-17.839-30.309-39.917-40.536-65h55.193zm27.019,80c5.326,9.946 11.062,18.44 17.129,25.386-15.411-5.638-29.91-14.263-43.13-25.386h26.001zm119.21,0h26c-13.22,11.123-27.718,19.748-43.13,25.386 6.068-6.946 11.804-15.44 17.13-25.386zm7.237-15c1.039-2.387 2.062-4.826 3.06-7.339 6.836-17.206 12.444-36.653 16.722-57.661h55.193c-10.227,25.083-24.053,47.161-40.536,65h-34.439zm22.565-80c4.272-25.423 6.676-52.779 7.039-81h64.947c-0.735,28.764-5.667,56.122-14.013,81h-57.973zm86.992-96c-0.679-28.207-5.177-55.556-13.183-81h34.488c11.317,25.254 17.695,52.654 18.654,81h-39.959zm13.858-96h-32.247c-8.258-21.675-19.173-41.716-32.522-59.409-1.438-1.905-2.903-3.76-4.381-5.591h14.854c5.932,4.805 11.654,9.938 17.127,15.411 14.901,14.9 27.348,31.595 37.169,49.589zm-75.231-80h-7.289c-3.583-3.633-7.258-7.071-11.018-10.311 6.254,3.129 12.362,6.569 18.307,10.311zm-222.763,0h-7.289c5.945-3.742 12.053-7.182 18.307-10.311-3.76,3.24-7.436,6.678-11.018,10.311zm-45.352,30.411c5.474-5.473 11.195-10.606 17.128-15.411h14.854c-1.478,1.831-2.944,3.686-4.381,5.591-13.349,17.693-24.263,37.734-32.522,59.409h-32.247c9.821-17.994 22.268-34.689 37.168-49.589zm-37.168,256.589h32.247c8.258,21.675 19.173,41.716 32.522,59.409 1.438,1.905 2.903,3.76 4.381,5.591h-14.854c-5.932-4.805-11.654-9.938-17.127-15.411-14.901-14.9-27.348-31.595-37.169-49.589zm75.231,80h7.289c3.583,3.633 7.258,7.071 11.018,10.311-6.254-3.129-12.362-6.569-18.307-10.311zm222.763,0h7.289c-5.945,3.742-12.053,7.182-18.307,10.311 3.76-3.24 7.436-6.678 11.018-10.311zm45.352-30.411c-5.473,5.473-11.195,10.606-17.127,15.411h-14.854c1.478-1.831 2.944-3.686 4.381-5.591 13.349-17.693 24.263-37.734 32.522-59.409h32.247c-9.822,17.994-22.269,34.689-37.169,49.589z" fill="#FFFFFF"/>
</svg>
