<?xml version="1.0" encoding="utf-8"?>

<svg version="1.1" id="Calque_1" xmlns="http://www.w3.org/2000/svg" xmlns:xlink="http://www.w3.org/1999/xlink" x="0px" y="0px"
	 viewBox="0 0 100 100" style="enable-background:new 0 0 100 100;" xml:space="preserve">
<g>
	<g>
		<path d="M90.1,27.6H72.2V14.2l-22.4-9l-22.4,9v13.4H9.5c-2.2,0-4.5,2.2-4.5,4.5v62.7h35.8V75.1c0-4,3.1-7.2,7.2-7.2h4
			c4,0,7.2,3.1,7.2,7.2v19.7H95V32.1C94.6,29.9,92.8,27.6,90.1,27.6z M22.9,63.4h-9v-9h9V63.4z M22.9,45.5h-9v-9h9V45.5z M40.8,63.4
			h-9v-9h9V63.4z M40.8,45.5h-9v-9h9V45.5z M49.8,23.1c-2.7,0-4.5-1.8-4.5-4.5s1.8-4.5,4.5-4.5s4.5,1.8,4.5,4.5S52.5,23.1,49.8,23.1
			z M67.7,63.4h-9v-9h9V63.4z M67.7,45.5h-9v-9h9V45.5z M85.6,63.4h-9v-9h9V63.4z M85.6,45.5h-9v-9h9V45.5z"/>
	</g>
</g>
</svg>
