<?xml version="1.0" encoding="utf-8"?>

<svg version="1.1" id="Calque_1" xmlns="http://www.w3.org/2000/svg" xmlns:xlink="http://www.w3.org/1999/xlink" x="0px" y="0px"
	 viewBox="0 0 100 100" style="enable-background:new 0 0 100 100;" xml:space="preserve">
<g id="surface1">
	<path d="M94.4,48.1c-0.1-0.1-2.4-3.3-6.5-4.2c-3.7-0.8-12.2-0.8-12.6-0.8c-0.6,0-1.1,0-1.4-0.1c-0.2-0.2-0.7-0.7-1.1-1.1L56.2,21.3
		c-0.4-0.4-1.1-1.3-1.6-1.6c-0.8-0.6-2.8-0.4-3.1-0.4l-0.5,0c-0.6,0-1.7,0.2-2.3,0.5c-0.3,0.2-1.3,0.7-0.4,3.5
		c0,0,6.4,19.6,6.4,19.7c-0.1,0-9.1,0-9.1,0c-0.6,0-1.1,0-1.4-0.1c-0.3-0.2-0.8-0.7-1.1-1.1L37.2,35c0,0-1-1.2-1.6-1.6
		c-0.8-0.5-2.4-0.2-2.4-0.2c-0.5,0.1-1.1,0.3-1.5,0.6c-0.7,0.5-0.9,1.7-0.4,3.4c1.3,4.7,3.2,11.8,3.3,12.8c-0.1,1.1-2,8.1-3.3,12.8
		c-0.1,0.4-0.4,1.6-0.3,2.3c0.2,1.3,2.1,1.7,2.2,1.7c0.5,0.1,1.1,0.1,1.5,0.1c1-0.1,2.3-1.6,2.5-1.9l5.9-6.9c0.4-0.4,0.8-0.8,1-1
		c0.3-0.1,1-0.1,1.6-0.1c0,0,9.1,0,9.1,0c0,0.1-6.4,19.7-6.4,19.7c-0.2,0.6-0.5,1.7-0.4,2.3c0.1,1,1.2,1.5,3.1,1.7l0.5,0
		c0.3,0,0.7,0,1.1,0c0.4,0,0.8,0,1.1-0.1c0.9-0.2,2.3-1.8,2.4-2L72.8,58c0.4-0.5,0.7-0.8,0.9-1c0.3-0.1,1-0.1,1.5-0.2
		c0.4,0,8.9,0,12.6-0.8c4.1-0.8,6.4-4,6.5-4.2C95.2,50.8,95.2,49.2,94.4,48.1z"/>
	<path d="M22.9,37h-7c-1.5,0-2.7,1.2-2.7,2.7c0,1.5,1.2,2.7,2.7,2.7h7c1.5,0,2.7-1.2,2.7-2.7C25.6,38.2,24.4,37,22.9,37z"/>
	<path d="M22.9,58.3h-7c-1.5,0-2.7,1.2-2.7,2.7c0,1.5,1.2,2.7,2.7,2.7h7c1.5,0,2.7-1.2,2.7-2.7C25.6,59.5,24.4,58.3,22.9,58.3z"/>
	<path d="M22.9,47.6H7.7c-1.5,0-2.7,1.2-2.7,2.7c0,1.5,1.2,2.7,2.7,2.7h15.2c1.5,0,2.7-1.2,2.7-2.7C25.6,48.8,24.4,47.6,22.9,47.6z"
		/>
</g>
</svg>
