<?xml version="1.0" encoding="utf-8"?>

<svg version="1.1" id="Calque_1" xmlns="http://www.w3.org/2000/svg" xmlns:xlink="http://www.w3.org/1999/xlink" x="0px" y="0px"
	 viewBox="0 0 100 100" style="enable-background:new 0 0 100 100;" xml:space="preserve">
<g>
	<path d="M78.7,46l2.9,5.8c4.7,1.4,8.1,5.8,8.1,11c0,6.3-5.2,11.5-11.5,11.5c-6.3,0-11.5-5.2-11.5-11.5c0-1.4,0.2-2.7,0.7-3.9
		l-2.3-4.6l-3.3,4.9c-0.2,1.1-0.4,2.3-0.4,3.5c0,9.2,7.5,16.8,16.8,16.8c9.2,0,16.8-7.5,16.8-16.8C95,53.6,87.7,46.2,78.7,46
		L78.7,46z"/>
	<path d="M75.9,63.9c0.7,1.3,2.2,1.8,3.5,1.2c1.3-0.7,1.8-2.2,1.2-3.5L67.1,34.5l5.1-10.1c0.4-0.8,0.4-1.8-0.1-2.6s-1.3-1.3-2.2-1.3
		H58.5c-1.5,0-2.6,1.2-2.6,2.6c0,1.5,1.2,2.6,2.6,2.6h7l-3.7,7.5c-0.4,0.7-0.4,1.6,0,2.4l1.3,2.7L50.3,57.5L40.1,37.1h4.2
		c1.5,0,2.6-1.2,2.6-2.6s-1.2-2.6-2.6-2.6H30.2c-1.5,0-2.6,1.2-2.6,2.6s1.2,2.6,2.6,2.6h4l1.4,2.7l-16,21.3C19,61.9,19,63,19.4,63.9
		c0.4,0.9,1.4,1.5,2.4,1.5l28.2,0c0.9,0,1.7-0.4,2.2-1.2l13.6-20.4L75.9,63.9z M27,60.1l11.2-15l7.5,15H27z"/>
	<path d="M21.8,74.2c-6.3,0-11.5-5.2-11.5-11.5c0-5.9,4.4-10.7,10.1-11.4l3.9-5.2C23.5,46,22.6,46,21.8,46C12.5,46,5,53.5,5,62.7
		s7.5,16.8,16.8,16.8c6.4,0,11.9-3.6,14.8-8.8h-6.5C28,72.8,25,74.2,21.8,74.2L21.8,74.2z"/>
</g>
</svg>
