<?xml version="1.0" encoding="utf-8"?>

<svg version="1.1" id="Calque_1" xmlns="http://www.w3.org/2000/svg" xmlns:xlink="http://www.w3.org/1999/xlink" x="0px" y="0px"
	 viewBox="0 0 100 100" style="enable-background:new 0 0 100 100;" xml:space="preserve">
<g>
	<path d="M13.8,55v17.6c0,4,3,7.3,6.9,7.8v3.5c0,2.8,2.3,5.2,5.2,5.2s5.2-2.3,5.2-5.2v-3.4h37.9v3.4c0,2.8,2.3,5.2,5.2,5.2
		c2.8,0,5.2-2.3,5.2-5.2v-3.5c3.9-0.4,7-3.8,7-7.9V55H13.8z M69.4,60c2.9,0,5.2,2.3,5.2,5.2c0,2.9-2.3,5.2-5.2,5.2s-5.2-2.3-5.2-5.2
		C64.2,62.4,66.5,60,69.4,60z M30.6,60c2.9,0,5.2,2.3,5.2,5.2c0,2.9-2.3,5.2-5.2,5.2s-5.2-2.3-5.2-5.2C25.3,62.4,27.7,60,30.6,60z"
		/>
	<path d="M86.2,21.5v-2.6c0-4.4-3.5-7.9-7.9-7.9H21.7c-4.4,0-7.9,3.5-7.9,7.9v2.6c-5,1.1-8.8,5.6-8.8,11v7.1c0,1.5,1.2,2.6,2.6,2.6
		s2.6-1.2,2.6-2.6v-7.1c0-2.4,1.4-4.5,3.5-5.4v22.7h31h8h21.3H79h7.3V27c2.1,0.9,3.5,3,3.5,5.4v7.1c0,1.5,1.2,2.6,2.6,2.6
		S95,41,95,39.6v-7.1C95,27.1,91.2,22.6,86.2,21.5z"/>
</g>
</svg>
