<?xml version="1.0" encoding="utf-8"?>

<svg version="1.1" id="Calque_1" xmlns="http://www.w3.org/2000/svg" xmlns:xlink="http://www.w3.org/1999/xlink" x="0px" y="0px"
	 viewBox="0 0 100 100" style="enable-background:new 0 0 100 100;" xml:space="preserve">
<g>
	<g>
		<g>
			<path d="M23.5,28.9c-1.4,0-2.6,1.2-2.6,2.6c0,1.4,1.2,2.6,2.6,2.6s2.6-1.2,2.6-2.6C26.1,30.1,24.9,28.9,23.5,28.9z"/>
		</g>
	</g>
	<g>
		<g>
			<path d="M77,47.2c-4.8,5-11.5,8.1-18.9,8.1c-6.8,0-13.3-2.6-18-6.9c-4.3,4.2-10.2,6.9-16.7,6.9c-6.7,0-12.7-2.8-17-7.2
				C5.6,49.4,5,50.9,5,52.6v31.6c0,4.4,3.5,7.9,7.9,7.9h58.4c4.4,0,7.9-3.5,7.9-7.9c0-10.7,0-19.8,0-31.6
				C79.2,50.5,78.3,48.6,77,47.2z"/>
		</g>
	</g>
	<g>
		<g>
			<path d="M58.1,23.6c-2.9,0-5.3,2.4-5.3,5.3c0,2.9,2.4,5.3,5.3,5.3s5.3-2.4,5.3-5.3C63.4,26,61,23.6,58.1,23.6z"/>
		</g>
	</g>
	<g>
		<g>
			<path d="M58.1,7.8c-8.7,0-16.6,5.3-19.8,12.9c-3.4-4.6-8.7-7.6-14.9-7.6C13.3,13.1,5,21.4,5,31.5S13.3,50,23.5,50
				c7.2,0,13.3-4.1,16.4-10.1c3.7,6,10.7,10.1,18.3,10.1c11.6,0,21.1-9.5,21.1-21.1C79.2,17.3,69.7,7.8,58.1,7.8z M23.5,39.5
				c-4.3,0-7.9-3.6-7.9-7.9s3.6-7.9,7.9-7.9s7.9,3.6,7.9,7.9S27.7,39.5,23.5,39.5z M58.1,39.5c-5.8,0-10.5-4.7-10.5-10.5
				s4.7-10.5,10.5-10.5s10.5,4.7,10.5,10.5S63.9,39.5,58.1,39.5z"/>
		</g>
	</g>
	<g>
		<g>
			<path d="M91,47.6l-6.6,3.9c0,11.7,0,21.8,0,33.7L91,89c1.8,1,4-0.2,4-2.3V49.8C95,47.8,92.8,46.5,91,47.6z"/>
		</g>
	</g>
</g>
</svg>
