<?xml version="1.0" encoding="utf-8"?>

<svg version="1.1" id="Calque_1" xmlns="http://www.w3.org/2000/svg" xmlns:xlink="http://www.w3.org/1999/xlink" x="0px" y="0px"
	 viewBox="0 0 100 100" style="enable-background:new 0 0 100 100;" xml:space="preserve">
<g>
	<path d="M24.5,56.7c-4.4,0-7.9,3.5-7.9,7.9s3.5,7.9,7.9,7.9s7.9-3.5,7.9-7.9S28.8,56.7,24.5,56.7z M24.5,67.2
		c-1.5,0-2.6-1.2-2.6-2.6c0-1.5,1.2-2.6,2.6-2.6c1.5,0,2.6,1.2,2.6,2.6C27.1,66,25.9,67.2,24.5,67.2z"/>
	<path d="M73,56.7c-4.4,0-7.9,3.5-7.9,7.9s3.5,7.9,7.9,7.9s7.9-3.5,7.9-7.9S77.4,56.7,73,56.7z M73,67.2c-1.5,0-2.6-1.2-2.6-2.6
		c0-1.5,1.2-2.6,2.6-2.6c1.5,0,2.6,1.2,2.6,2.6C75.6,66,74.5,67.2,73,67.2z"/>
	<path d="M81.8,43.4H70.3c-1-1.6-2.9-4.4-5.6-7.2C59,30.5,52.6,27.5,46,27.5H31.6c-4.8,0-9.2,2.6-11.5,6.8l-5,9.1H12
		c-3.9,0-7,3.1-7,7v14c0,1.5,1.2,2.6,2.6,2.6h4.1c-0.2-0.8-0.3-1.7-0.3-2.6c0-7.2,5.9-13,13.1-13c7.2,0,13.1,5.8,13.1,13
		c0,0.9-0.1,1.7-0.3,2.6h22.8c-0.2-0.8-0.3-1.7-0.3-2.6c0-7.2,5.9-13,13.1-13c7.2,0,13.1,5.8,13.1,13c0,0.9-0.1,1.7-0.3,2.6h6.6
		c1.5,0,2.6-1.2,2.6-2.6v-7.9C95,49.3,89.1,43.4,81.8,43.4z M39.4,43.4H21.1l3.6-6.6c1.4-2.5,4-4.1,6.9-4.1h7.8V43.4z M44.7,43.4
		V32.8H46c8.4,0,14.6,6.3,17.9,10.6H44.7z"/>
</g>
</svg>
