<?xml version="1.0" encoding="utf-8"?>

<svg version="1.1" id="Calque_1" xmlns="http://www.w3.org/2000/svg" xmlns:xlink="http://www.w3.org/1999/xlink" x="0px" y="0px"
	 viewBox="0 0 100 100" style="enable-background:new 0 0 100 100;" xml:space="preserve">
<g>
	<g>
		<g>
			<path d="M71.3,7.8H12.9C8.5,7.8,5,11.4,5,15.7v42.2c0,4.4,3.5,7.9,7.9,7.9c5.5,0,6.3,0,6.3,0h1.6V79c0,2.4,2.9,3.5,4.5,1.9
				c7.4-7.4,2.2-2.2,14.3-14.3c0.5-0.5,1.2-0.8,1.9-0.8h29.8c4.4,0,7.9-3.5,7.9-7.9c0-24.6,0-17.5,0-42.2
				C79.2,11.4,75.6,7.8,71.3,7.8z M18.2,23.6h37.3c1.5,0,2.6,1.2,2.6,2.6s-1.2,2.6-2.6,2.6H18.2c-1.5,0-2.6-1.2-2.6-2.6
				C15.5,24.8,16.7,23.6,18.2,23.6z M44.9,50H18.2c-1.5,0-2.6-1.2-2.6-2.6c0-1.5,1.2-2.6,2.6-2.6h26.7c1.5,0,2.6,1.2,2.6,2.6
				C47.5,48.8,46.4,50,44.9,50z M66,39.5H18.2c-1.5,0-2.6-1.2-2.6-2.6s1.2-2.6,2.6-2.6H66c1.5,0,2.6,1.2,2.6,2.6S67.5,39.5,66,39.5z
				"/>
		</g>
	</g>
	<g>
		<g>
			<path d="M87.1,18.4h-2.6v39.6c0,7.3-5.9,13.2-13.2,13.2H42.9l-5.6,5.2h22.4l15,15.1c1.7,1.7,4.5,0.5,4.5-1.9V76.3h7.9
				c4.4,0,7.9-3.5,7.9-7.9V26.3C95,21.9,91.5,18.4,87.1,18.4z"/>
		</g>
	</g>
</g>
</svg>
