<?xml version="1.0" encoding="utf-8"?>

<svg version="1.1" id="Calque_1" xmlns="http://www.w3.org/2000/svg" xmlns:xlink="http://www.w3.org/1999/xlink" x="0px" y="0px"
	 viewBox="0 0 100 100" style="enable-background:new 0 0 100 100;" xml:space="preserve">
<g>
	<g>
		<path d="M90.1,89.7V5H75.4L55.7,25.6v64.1h-5.3V30.3L30.8,50.8v38.9H17.4v-5.6c4.1-1.2,7.1-4.9,7.1-9.4c0-5.4-4.4-9.8-9.8-9.8
			S5,69.4,5,74.8c0,4.5,3,8.2,7.1,9.4v5.6H5V95h90v-5.3H90.1z M43.3,80H38v-7.5h5.3V80z M43.3,63.1H38v-7.5h5.3V63.1z M70.6,80h-5.3
			v-7.5h5.3V80z M70.6,63.1h-5.3v-7.5h5.3V63.1z M70.6,46.3h-5.3v-7.5h5.3V46.3z M80.6,80h-5.3v-7.5h5.3V80z M80.6,63.1h-5.3v-7.5
			h5.3V63.1z M80.6,46.3h-5.3v-7.5h5.3V46.3z M80.6,29.4h-5.3v-7.5h5.3V29.4z"/>
	</g>
</g>
</svg>
