<?xml version="1.0" encoding="utf-8"?>

<svg version="1.1" id="Calque_1" xmlns="http://www.w3.org/2000/svg" xmlns:xlink="http://www.w3.org/1999/xlink" x="0px" y="0px"
	 viewBox="0 0 100 100" style="enable-background:new 0 0 100 100;" xml:space="preserve">
<g>
	<path d="M87.1,51.3L73.4,27.6c-0.9-1.6-3.6-1.6-4.6,0L55.1,51.3c-1.6,2.8-2.5,6-2.5,9.2c0,10.2,8.3,18.5,18.5,18.5
		s18.5-8.3,18.5-18.5C89.6,57.3,88.7,54.1,87.1,51.3z"/>
	<path d="M31.2,43.4c-0.9-1.6-3.6-1.6-4.6,0L12.9,67.1c-1.6,2.8-2.5,6-2.5,9.2c0,10.2,8.3,18.6,18.5,18.6s18.5-8.5,18.5-18.6
		c0-3.2-0.9-6.4-2.5-9.2L31.2,43.4z"/>
	<path d="M44.7,42.1c7.3,0,13.2-5.9,13.2-13.2c0-2.3-0.6-4.6-1.8-6.6L47,6.2c-0.9-1.6-3.6-1.6-4.6,0l-9.1,16.1
		c-1.2,2-1.8,4.3-1.8,6.6C31.5,36.2,37.5,42.1,44.7,42.1z"/>
</g>
</svg>
