<?xml version="1.0" encoding="utf-8"?>

<svg version="1.1" id="Calque_1" xmlns="http://www.w3.org/2000/svg" xmlns:xlink="http://www.w3.org/1999/xlink" x="0px" y="0px"
	 viewBox="0 0 100 100" style="enable-background:new 0 0 100 100;" xml:space="preserve">
<g>
	<g>
		<path d="M53.6,9.5c-2.4-4.1-4.9-3.9-7.3,0C35.4,25.7,18.8,50.2,18.8,62.4c0,8.6,3.5,16.4,9.1,22s13.5,9.1,22,9.1s16.4-3.5,22-9.1
			s9.1-13.5,9.1-22C81.2,50,64.6,25.7,53.6,9.5z M72.5,76.3c-2.2,3.6-5.5,6.9-9.4,9.1c-1.8,1-4.1,0.4-5.1-1.4
			c-1.1-2-0.4-4.2,1.4-5.2c2.8-1.5,5.1-3.8,6.7-6.5s2.7-5.8,2.8-9c0.1-2.1,1.8-3.6,3.9-3.5s3.6,1.8,3.5,3.9
			C76.1,68.3,74.7,72.5,72.5,76.3z"/>
	</g>
</g>
</svg>
