<?xml version="1.0" encoding="utf-8"?>

<svg version="1.1" id="Calque_1" xmlns="http://www.w3.org/2000/svg" xmlns:xlink="http://www.w3.org/1999/xlink" x="0px" y="0px"
	 viewBox="0 0 100 100" style="enable-background:new 0 0 100 100;" xml:space="preserve">
<g>
	<path d="M24.5,77.9c-4.4,0-7.9,3.5-7.9,7.9s3.5,7.9,7.9,7.9s7.9-3.5,7.9-7.9S28.8,77.9,24.5,77.9z M24.5,88.4
		c-1.5,0-2.6-1.2-2.6-2.6c0-1.5,1.2-2.6,2.6-2.6c1.5,0,2.6,1.2,2.6,2.6C27.1,87.3,25.9,88.4,24.5,88.4z"/>
	<path d="M73,77.9c-4.4,0-7.9,3.5-7.9,7.9s3.5,7.9,7.9,7.9s7.9-3.5,7.9-7.9S77.4,77.9,73,77.9z M73,88.4c-1.5,0-2.6-1.2-2.6-2.6
		c0-1.5,1.2-2.6,2.6-2.6c1.5,0,2.6,1.2,2.6,2.6C75.6,87.3,74.5,88.4,73,88.4z"/>
	<path d="M81.8,64.7H70.3c-1-1.6-2.9-4.4-5.6-7.2C59,51.8,52.6,48.8,46,48.8H31.6c-4.8,0-9.2,2.6-11.5,6.8l-5,9.1H12
		c-3.9,0-7,3.1-7,7v14c0,1.5,1.2,2.6,2.6,2.6h4.1c-0.2-0.8-0.3-1.7-0.3-2.6c0-7.2,5.9-13,13.1-13c7.2,0,13.1,5.8,13.1,13
		c0,0.9-0.1,1.7-0.3,2.6h22.8c-0.2-0.8-0.3-1.7-0.3-2.6c0-7.2,5.9-13,13.1-13c7.2,0,13.1,5.8,13.1,13c0,0.9-0.1,1.7-0.3,2.6h6.6
		c1.5,0,2.6-1.2,2.6-2.6v-7.9C95,70.6,89.1,64.7,81.8,64.7z M39.4,64.7H21.1l3.6-6.6c1.4-2.5,4-4.1,6.9-4.1h7.8V64.7z M44.7,64.7V54
		H46c8.4,0,14.6,6.3,17.9,10.6H44.7z"/>
	<path d="M26.3,35.3H37c4.3,0,7.7,3.5,7.7,7.7v0.4h0.4H50v-0.4c0-7.2-5.8-13-13-13H26.3c-2.9,0-5.3-2.4-5.3-5.3s2.4-5.3,5.3-5.3
		h35.1c1.5,0,2.6-1.2,2.6-2.6s-1.2-2.6-2.6-2.6H26.3c-5.8,0-10.5,4.7-10.5,10.5S20.5,35.3,26.3,35.3z"/>
	<path d="M84.4,19.6h-5.2v-5.2h5.3c1.5,0,2.6-1.2,2.6-2.6s-1.2-2.6-2.6-2.6h-5.3V8.9c0-1.5-1.2-2.6-2.6-2.6h-7.9
		c-4.4,0-7.9,3.5-7.9,7.9v5.3c0,4.4,3.5,7.9,7.9,7.9h7.9c1.4,0,2.6-1.1,2.6-2.5h5.2c1.5,0,2.6-1.2,2.6-2.6
		C87,20.8,85.8,19.6,84.4,19.6z"/>
</g>
</svg>
