<?xml version="1.0" encoding="utf-8"?>

<svg version="1.1" id="Calque_1" xmlns="http://www.w3.org/2000/svg" xmlns:xlink="http://www.w3.org/1999/xlink" x="0px" y="0px"
	 viewBox="0 0 100 100" style="enable-background:new 0 0 100 100;" xml:space="preserve">
<g>
	<g>
		<g>
			<path d="M71.1,5H18.4c-4.4,0-7.9,3.5-7.9,7.9v63.6c0,3.4,2.2,6.3,5.3,7.4V30.9c0-3.5,1.4-6.8,3.9-9.3l7.5-7.5
				c2.5-2.5,5.8-3.9,9.3-3.9h42.2C77.4,7.2,74.5,5,71.1,5z"/>
		</g>
	</g>
	<g>
		<g>
			<path d="M81.7,15.6c-23.3,0-16.5,0-39.6,0V34c0,1.5-1.2,2.7-2.6,2.7H21v50.4c0,4.4,3.5,7.9,7.9,7.9h52.7c4.4,0,7.9-3.5,7.9-7.9
				V23.5C89.5,19.1,86,15.6,81.7,15.6z M76.4,79.2H34.2c-1.5,0-2.6-1.2-2.6-2.6s1.2-2.6,2.6-2.6h42.2c1.5,0,2.6,1.2,2.6,2.6
				S77.8,79.2,76.4,79.2z M76.4,68.6H34.2c-1.5,0-2.6-1.2-2.6-2.6s1.2-2.6,2.6-2.6h42.2c1.5,0,2.6,1.2,2.6,2.6S77.8,68.6,76.4,68.6z
				 M76.4,58.1H34.2c-1.5,0-2.6-1.2-2.6-2.6s1.2-2.6,2.6-2.6h42.2c1.5,0,2.6,1.2,2.6,2.6S77.8,58.1,76.4,58.1z M76.4,47.5H34.2
				c-1.5,0-2.6-1.2-2.6-2.6s1.2-2.6,2.6-2.6h42.2c1.5,0,2.6,1.2,2.6,2.6S77.8,47.5,76.4,47.5z"/>
		</g>
	</g>
	<g>
		<g>
			<path d="M36.4,15.5c-2.1,0-4.1,0.8-5.6,2.3l-7.5,7.5c-1.8,1.8-2.3,3.7-2.3,6h15.8V15.5H36.4z"/>
		</g>
	</g>
</g>
</svg>
