<?xml version="1.0" encoding="utf-8"?>

<svg version="1.1" id="Calque_1" xmlns="http://www.w3.org/2000/svg" xmlns:xlink="http://www.w3.org/1999/xlink" x="0px" y="0px"
	 viewBox="0 0 100 100" style="enable-background:new 0 0 100 100;" xml:space="preserve">
<g>
	<g>
		<g>
			<path d="M87.1,34.2H28.2c-4,0-7.4,3-7.9,7l-0.4,3.5h74.8l0.2-1.8C95.5,38.2,91.7,34.2,87.1,34.2z"/>
		</g>
	</g>
	<g>
		<g>
			<path d="M19.3,50l-4.1,36.9h2.9H83c1,0,2-0.2,2.9-0.5c2.7-1,4.7-3.5,5-6.5L94.2,50H19.3z"/>
		</g>
	</g>
	<g>
		<g>
			<path d="M82.4,23.6H45.6l-9.8-9.8c-0.5-0.5-1.2-0.8-1.9-0.8H12.9C8.5,13.1,5,16.6,5,21v58c0,3.3,2.1,6.2,5,7.3l5.1-45.7
				c0.7-6.7,6.4-11.7,13.1-11.7h58.9c1,0,1.9,0.1,2.9,0.3C89,26,86,23.6,82.4,23.6z"/>
		</g>
	</g>
</g>
</svg>
