<?xml version="1.0" encoding="utf-8"?>

<svg version="1.1" id="Calque_1" xmlns="http://www.w3.org/2000/svg" xmlns:xlink="http://www.w3.org/1999/xlink" x="0px" y="0px"
	 viewBox="0 0 100 100" style="enable-background:new 0 0 100 100;" xml:space="preserve">
<g>
	<g>
		<g>
			<path d="M93.5,45.2L53.1,8.4c-1.8-1.6-4.4-1.6-6.2,0L6.5,45.2c-1.4,1.3-1.9,3.3-1.2,5.1c0.7,1.8,2.4,2.9,4.3,2.9h6.4v36.9
				c0,1.5,1.2,2.6,2.6,2.6h22.1c1.5,0,2.6-1.2,2.6-2.6V67.7h13v22.4c0,1.5,1.2,2.6,2.6,2.6h22.1c1.5,0,2.6-1.2,2.6-2.6V53.3h6.5
				c1.9,0,3.6-1.2,4.3-2.9C95.4,48.5,94.9,46.5,93.5,45.2z"/>
		</g>
	</g>
	<g>
		<g>
			<path d="M83.2,12.5H65.5l20.4,18.6V15.2C85.9,13.7,84.7,12.5,83.2,12.5z"/>
		</g>
	</g>
</g>
</svg>
