<?xml version="1.0" encoding="utf-8"?>

<svg version="1.1" id="Calque_1" xmlns="http://www.w3.org/2000/svg" xmlns:xlink="http://www.w3.org/1999/xlink" x="0px" y="0px"
	 viewBox="0 0 100 100" style="enable-background:new 0 0 100 100;" xml:space="preserve">
<g>
	<g>
		<g>
			<polygon points="33.8,10.8 13.7,10.8 13.2,20.9 34.3,20.9 			"/>
		</g>
	</g>
	<g>
		<g>
			<polygon points="34.5,26.2 13,26.2 12.5,34.4 35,34.4 			"/>
		</g>
	</g>
	<g>
		<g>
			<path d="M90.1,83.9V45.8l-18.2,7.8v-7.8l-18.2,7.8v-7.8l-12.6,5.5l1.7,32.6h-5.3l-2.3-44.2h-23L10,83.9H5v5.3h90v-5.3H90.1z
				 M58.3,76.9H53v-7.5h5.3V76.9z M68.9,76.9h-5.3v-7.5h5.3V76.9z M79.5,76.9h-5.3v-7.5h5.3V76.9z"/>
		</g>
	</g>
</g>
</svg>
