<?xml version="1.0" encoding="utf-8"?>

<svg version="1.1" id="Calque_1" xmlns="http://www.w3.org/2000/svg" xmlns:xlink="http://www.w3.org/1999/xlink" x="0px" y="0px"
	 viewBox="0 0 100 100" style="enable-background:new 0 0 100 100;" xml:space="preserve">
<g>
	<path d="M94.6,29c-0.3-1.9-0.7-4-1.2-6.2c-0.5-2.2-1.3-4.1-2.4-5.6c-1.1-1.5-2.2-2.3-3.5-2.3c-0.2-0.7-0.9-0.6-2.2,0.2
		c-1.3,0.8-1.9,1.1-1.8,0.8c0.1-0.3-0.4,0.1-1.4,1c-1,0.9-1.5,1.4-1.5,1.4l-1.5,1.5c-1.3,1.2-3.2,2.2-5.7,2.8
		c-2.5,0.7-5.2,1.1-8.2,1.2c-3,0.2-6,0.3-9,0.3c-3,0-6,0.2-9,0.5c-3,0.3-5.4,0.7-7.3,1.3c-3.7,1.2-7.1,2.8-10.2,4.8
		c-3.2,2-6,4.3-8.6,7c-2.5,2.7-4.5,5.8-6,9.3c-1.5,3.5-2.2,7.2-2.2,11c0,1.8,0.2,3.5,0.5,5.2c0.1,0.3,0.3,1.1,0.8,2.2
		c0.5,1.1,0.7,1.8,0.7,1.9c0,0.6-0.5,1.4-1.6,2.4c-1,1-2.2,1.9-3.4,2.8c-1.2,0.9-2.4,2-3.4,3.3c-1,1.3-1.6,2.5-1.6,3.7
		c0,0.2,0,0.5,0.1,0.7c0.1,0.2,0.1,0.4,0.2,0.5c0,0.1,0.1,0.3,0.3,0.5c0.1,0.2,0.2,0.4,0.3,0.6c0.6,1,1,1.7,1.4,2.1
		C7.5,84.3,8,84.7,8.7,85c0.7,0.4,1.6,0.6,2.6,0.6c1,0,2-0.5,3-1.6c1-1.1,1.9-2.2,2.6-3.5c0.7-1.3,1.5-2.4,2.3-3.5
		c0.8-1.1,1.4-1.6,2-1.6c0.8,0,2.4,0.6,4.8,1.9c2.4,1.2,3.9,1.9,4.4,2.1c4.6,1.6,9.4,2.4,14.4,2.4c7.5,0,14.8-1.8,22-5.4
		c7.3-3.6,13.3-8.1,18-13.5c4.6-5.3,7.7-11.7,9.3-19.2c0.7-3.3,1-6.5,1-9.7C95,32.6,94.9,31,94.6,29z M68.3,46.1
		c-0.6,0.6-1.4,1-2.3,1c-6.1,0-11.3,0.9-15.7,2.6c-4.4,1.7-8.9,4.7-13.5,8.8c-0.7,0.6-1.8,1.7-3.4,3.3c-1.6,1.6-2.8,2.8-3.7,3.6
		c-0.7,0.6-1.5,1-2.3,1c-0.9,0-1.6-0.3-2.3-1c-0.6-0.6-1-1.4-1-2.3c0-0.8,0.3-1.6,1-2.3c4.1-4.5,8-8.2,11.8-11
		c3.8-2.8,8.1-5.1,13-6.7c4.9-1.7,10.2-2.5,16-2.5c0.9,0,1.6,0.3,2.3,1c0.6,0.6,1,1.4,1,2.3C69.3,44.7,69,45.4,68.3,46.1z"/>
</g>
</svg>
