<?xml version="1.0" encoding="utf-8"?>

<svg version="1.1" id="Calque_1" xmlns="http://www.w3.org/2000/svg" xmlns:xlink="http://www.w3.org/1999/xlink" x="0px" y="0px"
	 viewBox="0 0 100 100" style="enable-background:new 0 0 100 100;" xml:space="preserve">
<g>
	<path d="M91.8,57c-0.9-0.1-1.9-0.1-2.9-0.1c-2,0-4.3,0.1-7,0.4l-0.2-10.2c1.1,0.4,2.2,0.6,3.4,0.6c5.5,0,10-4.5,10-10
		c0-3.2-1.5-6.1-4-8c0.1-0.5,0.1-1,0.1-1.5c0-3.7-2.4-7-5.9-8.2c0.4-1,0.6-2,0.6-3.1c0-4.8-3.9-8.7-8.7-8.7s-8.7,3.9-8.7,8.7
		c0,0.1,0,0.2,0,0.3c-4.3,0.5-7.7,4.2-7.7,8.6c0,2.2,0.8,4.3,2.3,5.8c-2,1.9-3.1,4.5-3.1,7.2c0,5.5,4.5,10,10,10
		c1.2,0,2.3-0.2,3.4-0.6l-0.2,10.4c-5.4,1.1-11.7,2.8-18.9,5.4c-14.8,5.4-26.5,12-32.2,15.5c-3.9,2.4-7.2,4.7-9.6,6.6
		C8.8,89,8.6,90,8.7,90.7c0.1,0.5,0.5,1.1,1.5,1.1h81c0.1,0,0.2,0,0.3,0c0.5,0,1.3-0.1,2.1-0.7c0.6-0.5,1.4-1.4,1.4-3.2V60.3
		C95,58.9,94.4,57.2,91.8,57z"/>
	<path d="M49.9,59.2c0.5-0.2,0.9-0.7,1-1.3c0-0.5-0.2-0.9-0.6-1.2c-4.6-2.9-11.7-5.4-18.9-7.2l-0.2-8.6c0.7,0.2,1.5,0.3,2.3,0.3
		c4.3,0,7.7-3.5,7.7-7.7c0-2.4-1.1-4.6-3-6.1c0.1-0.3,0.1-0.7,0.1-1c0-2.8-1.8-5.3-4.3-6.3c0.2-0.7,0.4-1.4,0.4-2.2
		c0-3.7-3-6.7-6.7-6.7c-3.7,0-6.7,3-6.7,6.7c-3.3,0.5-5.8,3.3-5.8,6.7c0,1.6,0.6,3.1,1.6,4.4c-1.4,1.4-2.2,3.4-2.2,5.4
		c0,4.3,3.5,7.7,7.7,7.7c0.8,0,1.6-0.1,2.3-0.4L24.4,48c-4.2-0.8-8.1-1.2-11.2-1.2C7.7,46.8,5,48,5,50.5v30.4c0,1.2,0.7,1.7,1.4,1.7
		c0.6,0,1-0.3,1.2-0.4c0.3-0.3,0.7-0.6,1-0.8c2.6-2.1,6.2-4.5,10.3-7C24.3,71,35.6,64.6,49.9,59.2z"/>
</g>
</svg>
