<?xml version="1.0" encoding="utf-8"?>

<svg version="1.1" id="Calque_1" xmlns="http://www.w3.org/2000/svg" xmlns:xlink="http://www.w3.org/1999/xlink" x="0px" y="0px"
	 viewBox="0 0 100 100" style="enable-background:new 0 0 100 100;" xml:space="preserve">
<g>
	<path d="M50,26.1c5.8,0,10.5-4.7,10.5-10.5S55.8,5,50,5c-5.8,0-10.5,4.7-10.5,10.5S44.2,26.1,50,26.1z"/>
	<path d="M75.5,76.3c-2-0.4-4.1-0.8-6.4-1.2c-1.4-0.2-2.8,0.8-2.9,2.3c-0.2,1.4,0.8,2.8,2.2,3c1.6,0.2,3.1,0.5,4.5,0.8
		c6.1,1.2,8.8,2.6,9.6,3.3c-0.8,0.7-3.4,2.1-9.6,3.3C66.6,89,58.5,89.7,50,89.7S33.4,89,27.1,87.8c-6.1-1.2-8.8-2.6-9.6-3.3
		c0.8-0.7,3.4-2.1,9.6-3.3c1.1-0.2,2.3-0.4,3.5-0.6c1.4-0.2,2.4-1.5,2.2-2.9c-0.2-1.4-1.5-2.5-3-2.3c-1.9,0.3-3.7,0.6-5.4,1
		C16.1,78.2,12,80.8,12,84.5s4.1,6.3,12.4,8.2C31.3,94.2,40.4,95,50,95s18.7-0.8,25.5-2.4c8.4-1.9,12.4-4.5,12.4-8.2
		S83.9,78.2,75.5,76.3z"/>
	<path d="M38.5,58.7v18.4c0,4.4,3.5,7.9,7.9,7.9h7.2c4.4,0,7.9-3.5,7.9-7.9V58.7c2.6-1.3,4.4-4,4.4-7.1V39.3c0-4.4-3.5-7.9-7.9-7.9
		H42c-4.4,0-7.9,3.5-7.9,7.9v12.3C34.1,54.7,35.8,57.4,38.5,58.7z"/>
</g>
</svg>
