<?xml version="1.0" encoding="utf-8"?>

<svg version="1.1" id="Calque_1" xmlns="http://www.w3.org/2000/svg" xmlns:xlink="http://www.w3.org/1999/xlink" x="0px" y="0px"
	 viewBox="0 0 100 100" style="enable-background:new 0 0 100 100;" xml:space="preserve">
<g>
	<g>
		<g>
			<path d="M58.1,31.4c-2.9,0-5.3,2.4-5.3,5.3c0,2.9,2.4,5.3,5.3,5.3c2.9,0,5.3-2.4,5.3-5.3S61,31.4,58.1,31.4z"/>
		</g>
	</g>
	<g>
		<g>
			<polygon points="66,58.8 59.2,65.6 72.4,79.2 79.2,79.2 79.2,72 			"/>
		</g>
	</g>
	<g>
		<g>
			<path d="M87.1,5H12.9C8.5,5,5,8.5,5,12.9v74.2c0,4.4,3.5,7.9,7.9,7.9h74.2c4.4,0,7.9-3.5,7.9-7.9V12.9C95,8.5,91.5,5,87.1,5z
				 M84.5,81.8c0,1.5-1.2,2.6-2.6,2.6H18.2c-1.5,0-2.6-1.2-2.6-2.6V18.2c0-1.5,1.2-2.6,2.6-2.6h63.6c1.5,0,2.6,1.2,2.6,2.6V81.8z"/>
		</g>
	</g>
	<g>
		<g>
			<polygon points="34,48.3 20.8,61.5 20.8,79.2 64.9,79.2 			"/>
		</g>
	</g>
	<g>
		<g>
			<path d="M20.8,20.8V54l11.3-11.3c1-1,2.7-1,3.7,0l19.6,19.2l8.7-8.7c1-1,2.7-1,3.7,0l11.3,11.3V20.8H20.8z M58.1,47.2
				c-5.8,0-10.5-4.7-10.5-10.5s4.7-10.5,10.5-10.5c5.8,0,10.5,4.7,10.5,10.5S63.9,47.2,58.1,47.2z"/>
		</g>
	</g>
</g>
</svg>
