<?xml version="1.0" encoding="utf-8"?>

<svg version="1.1" id="Calque_1" xmlns="http://www.w3.org/2000/svg" xmlns:xlink="http://www.w3.org/1999/xlink" x="0px" y="0px"
	 viewBox="0 0 100 100" style="enable-background:new 0 0 100 100;" xml:space="preserve">
<g>
	<path d="M17,65.9c-6.9,0.7-12,7-12,13.9c0,1,0.8,1.9,1.9,1.9h22c1.5,0,2.6-1.2,2.6-2.6C31.5,71.3,24.9,65.1,17,65.9z"/>
	<path d="M50,65.8c-7.3,0-13.2,5.9-13.2,13.2c0,1.5,1.2,2.6,2.6,2.6h21.1c1.5,0,2.6-1.2,2.6-2.6C63.2,71.7,57.3,65.8,50,65.8z"/>
	<path d="M81.6,65.8c-7.3,0-13.2,5.9-13.2,13.2c0,1.5,1.2,2.6,2.6,2.6h21.3c1.5,0,2.6-1.2,2.6-2.6C95,71.7,88.9,65.8,81.6,65.8z"/>
	<path d="M18.4,65.8c4.4,0,7.9-3.5,7.9-7.9c0-4.4-3.5-7.9-7.9-7.9s-7.9,3.5-7.9,7.9C10.4,62.3,14,65.8,18.4,65.8z"/>
	<path d="M57.9,57.9c0-4.4-3.5-7.9-7.9-7.9s-7.9,3.5-7.9,7.9c0,4.4,3.5,7.9,7.9,7.9S57.9,62.3,57.9,57.9z"/>
	<path d="M44.7,26.3c0-4.4-3.5-7.9-7.9-7.9s-7.9,3.5-7.9,7.9c0,4.4,3.5,7.9,7.9,7.9S44.7,30.6,44.7,26.3z"/>
	<path d="M71.1,26.3c0-4.4-3.5-7.9-7.9-7.9s-7.9,3.5-7.9,7.9c0,4.4,3.5,7.9,7.9,7.9S71.1,30.6,71.1,26.3z"/>
	<path d="M89.6,57.9c0-4.4-3.5-7.9-7.9-7.9s-7.9,3.5-7.9,7.9c0,4.4,3.5,7.9,7.9,7.9S89.6,62.3,89.6,57.9z"/>
	<path d="M68.5,57.9c0-5.3,3.2-9.9,7.8-12c-0.7-6.6-6.3-11.7-13-11.7c-6.4,0-11.7,4.6-12.9,10.6c7.1,0.1,12.9,6,12.9,13.2
		c0,2.4-0.7,4.7-1.9,6.6c1.8,1.4,3.3,3.1,4.5,5.1c1.2-2,2.7-3.7,4.5-5.1C69.2,62.6,68.5,60.3,68.5,57.9z"/>
	<path d="M36.8,57.9c0-7.2,5.8-13,12.9-13.2c-1.2-6-6.5-10.6-12.9-10.6c-6.8,0-12.3,5.2-13,11.7c4.6,2.1,7.8,6.7,7.8,12
		c0,2.4-0.7,4.7-1.9,6.6c1.8,1.4,3.3,3.1,4.5,5.1c1.2-2,2.7-3.7,4.5-5.1C37.5,62.6,36.8,60.3,36.8,57.9z"/>
</g>
</svg>
