<?xml version="1.0" encoding="utf-8"?>

<svg version="1.1" id="Calque_1" xmlns="http://www.w3.org/2000/svg" xmlns:xlink="http://www.w3.org/1999/xlink" x="0px" y="0px"
	 viewBox="0 0 100 100" style="enable-background:new 0 0 100 100;" xml:space="preserve">
<g>
	<path d="M72.6,52.6h7.2V56h5.3v-3.4h7.2c0.8,0,1.6-0.4,2.1-1c0.5-0.6,0.7-1.5,0.5-2.3L85,9.8c-0.3-1.2-1.3-2-2.6-2s-2.3,0.8-2.6,2
		L70,49.4c-0.2,0.8,0,1.6,0.5,2.3C71,52.3,71.8,52.6,72.6,52.6z"/>
	<path d="M7.6,52.6h7.2V56h5.3v-3.4h7.2c0.8,0,1.6-0.4,2.1-1s0.7-1.5,0.5-2.3L20.1,9.8c-0.3-1.2-1.3-2-2.6-2c-1.2,0-2.3,0.8-2.6,2
		L5.1,49.4c-0.2,0.8,0,1.6,0.5,2.3C6.1,52.3,6.8,52.6,7.6,52.6z"/>
	<path d="M38.7,52.6h8.7V56h5.3v-3.4h8.7c0.8,0,1.6-0.4,2.1-1c0.5-0.6,0.7-1.5,0.5-2.3L52.5,7c-0.3-1.2-1.4-2-2.5-2s-2.2,0.8-2.5,2
		L36.2,49.3c-0.2,0.8,0,1.6,0.5,2.3C37.1,52.3,37.9,52.6,38.7,52.6z"/>
	<path d="M86.5,75.4H95V63.9c0-1.5-1.2-2.6-2.6-2.6H7.6c-1.5,0-2.6,1.2-2.6,2.6v11.5h8.5c1.5,0,2.6,1.2,2.6,2.6s-1.2,2.6-2.6,2.6H5
		v11.7C5,93.8,6.2,95,7.6,95h84.7c1.5,0,2.6-1.2,2.6-2.6V80.7h-8.5c-1.5,0-2.6-1.2-2.6-2.6S85.1,75.4,86.5,75.4z M33.9,80.7h-8.8
		c-1.5,0-2.6-1.2-2.6-2.6s1.2-2.6,2.6-2.6h8.8c1.5,0,2.6,1.2,2.6,2.6S35.4,80.7,33.9,80.7z M54.4,80.7h-8.8c-1.5,0-2.6-1.2-2.6-2.6
		s1.2-2.6,2.6-2.6h8.8c1.5,0,2.6,1.2,2.6,2.6S55.8,80.7,54.4,80.7z M74.8,80.7h-8.8c-1.5,0-2.6-1.2-2.6-2.6s1.2-2.6,2.6-2.6h8.8
		c1.5,0,2.6,1.2,2.6,2.6S76.3,80.7,74.8,80.7z"/>
</g>
</svg>
