<?xml version="1.0" encoding="utf-8"?>

<svg version="1.1" id="Calque_1" xmlns="http://www.w3.org/2000/svg" xmlns:xlink="http://www.w3.org/1999/xlink" x="0px" y="0px"
	 viewBox="0 0 100 100" style="enable-background:new 0 0 100 100;" xml:space="preserve">
<g>
	<g>
		<path d="M93,42.4l-10.5-2.6c-0.6-1.8-1.3-3.6-2.2-5.4l5.4-9c0.6-1.1,0.5-2.4-0.4-3.2l-7.5-7.5c-0.8-0.8-2.2-1-3.2-0.4l-9,5.4
			c-1.7-0.9-3.5-1.6-5.4-2.2L57.7,7c-0.3-1.2-1.4-2-2.6-2H44.6c-1.2,0-2.3,0.8-2.6,2l-2.5,10.5c-1.8,0.6-3.6,1.3-5.4,2.2l-9-5.4
			c-1.1-0.6-2.4-0.5-3.2,0.4l-7.5,7.5c-0.8,0.8-1,2.2-0.4,3.2l5.4,9c-0.9,1.7-1.6,3.5-2.2,5.4L7,42.4c-1.2,0.3-2,1.3-2,2.5v10.5
			c0,1.2,0.8,2.3,2,2.5l10.2,2.6c0.6,1.8,1.3,3.6,2.2,5.4l-5.4,9c-0.6,1.1-0.5,2.4,0.4,3.2l7.5,7.5c0.8,0.8,2.2,1,3.2,0.4l9-5.4
			c1.7,0.9,3.5,1.6,5.4,2.2L42,93c0.3,1.2,1.4,2,2.6,2h10.5c1.2,0,2.3-0.8,2.6-2l2.5-10.2c1.8-0.6,3.6-1.3,5.4-2.2l9,5.4
			c1.1,0.6,2.4,0.5,3.2-0.4l7.5-7.5c0.8-0.8,1-2.2,0.4-3.2l-5.4-9c0.9-1.7,1.6-3.5,2.2-5.4L93,58c1.2-0.3,2-1.3,2-2.5V44.9
			C95,43.7,94.2,42.6,93,42.4z M49.8,63.4c-7.3,0-13.2-5.9-13.2-13.2S42.5,37,49.8,37S63,42.9,63,50.2S57.1,63.4,49.8,63.4z"/>
	</g>
</g>
</svg>
