<?xml version="1.0" encoding="utf-8"?>

<svg version="1.1" id="Calque_1" xmlns="http://www.w3.org/2000/svg" xmlns:xlink="http://www.w3.org/1999/xlink" x="0px" y="0px"
	 viewBox="0 0 100 100" style="enable-background:new 0 0 100 100;" xml:space="preserve">
<g>
	<path d="M27.9,29.3l-7.8,0.6c-2.2,0.2-4.1,1.3-5.3,3.1l-9,13.6c-0.9,1.4-1.1,3.1-0.4,4.6c0.7,1.5,2,2.6,3.7,2.8l7.1,1.1
		C17.9,46.3,21.9,37.4,27.9,29.3L27.9,29.3z"/>
	<path d="M44.8,83.8l1.1,7.1c0.3,1.6,1.3,3,2.8,3.7c0.6,0.3,1.3,0.4,2,0.4c0.9,0,1.9-0.3,2.7-0.8l13.6-9c1.8-1.2,3-3.1,3.1-5.3
		l0.6-7.8C62.6,78.1,53.7,82.1,44.8,83.8L44.8,83.8z"/>
	<path d="M42.2,78.8c0.2,0,0.5,0,0.7-0.1c3.7-0.6,7.3-1.7,10.7-3L24.3,46.4c-1.4,3.4-2.4,7-3,10.7c-0.2,1.5,0.2,3,1.3,4l16.4,16.4
		C39.8,78.3,40.9,78.8,42.2,78.8z"/>
	<path d="M87.8,44.9C95,31,95.3,16.4,94.9,9.5c-0.1-2.4-2-4.2-4.4-4.4C89.4,5,88.1,5,86.6,5c-7.7,0-19.9,1.2-31.5,7.2
		C45.9,17,33.8,27.5,26.6,41.3c0.1,0.1,0.2,0.1,0.2,0.2l31.6,31.6c0.1,0.1,0.1,0.2,0.2,0.2C72.5,66.2,83,54.1,87.8,44.9L87.8,44.9z
		 M57.3,24c5.1-5.1,13.5-5.1,18.6,0c2.5,2.5,3.9,5.8,3.9,9.3s-1.4,6.8-3.9,9.3c-2.6,2.6-5.9,3.9-9.3,3.9c-3.4,0-6.8-1.3-9.3-3.9
		c-2.5-2.5-3.9-5.8-3.9-9.3S54.8,26.5,57.3,24L57.3,24z"/>
	<path d="M61.1,38.9c3.1,3.1,8.1,3.1,11.2,0c1.5-1.5,2.3-3.5,2.3-5.6s-0.8-4.1-2.3-5.6c-1.5-1.5-3.6-2.3-5.6-2.3
		c-2,0-4.1,0.8-5.6,2.3c-1.5,1.5-2.3,3.5-2.3,5.6C58.7,35.5,59.6,37.4,61.1,38.9L61.1,38.9z"/>
	<path d="M7.7,79.2c0.7,0,1.3-0.3,1.9-0.8l8.6-8.6c1-1,1-2.7,0-3.7c-1-1-2.7-1-3.7,0l-8.6,8.6c-1,1-1,2.7,0,3.7
		C6.3,78.9,7,79.2,7.7,79.2z"/>
	<path d="M26.1,73.9c-1-1-2.7-1-3.7,0L5.8,90.5c-1,1-1,2.7,0,3.7C6.3,94.7,7,95,7.6,95s1.3-0.3,1.9-0.8l16.6-16.6
		C27.1,76.6,27.1,75,26.1,73.9L26.1,73.9z"/>
	<path d="M30.2,81.8l-8.6,8.6c-1,1-1,2.7,0,3.7c0.5,0.5,1.2,0.8,1.9,0.8s1.3-0.3,1.9-0.8l8.6-8.6c1-1,1-2.7,0-3.7
		C32.9,80.8,31.2,80.8,30.2,81.8L30.2,81.8z"/>
</g>
</svg>
