<?xml version="1.0" encoding="utf-8"?>

<svg version="1.1" id="Calque_1" xmlns="http://www.w3.org/2000/svg" xmlns:xlink="http://www.w3.org/1999/xlink" x="0px" y="0px"
	 viewBox="0 0 100 100" style="enable-background:new 0 0 100 100;" xml:space="preserve">
<g>
	<g>
		<g>
			<path d="M46.2,21.3c-0.9-3.5-4-6-7.7-6H21.9c-4.4,0-7.9,3.5-7.9,7.9v7.9h34.7L46.2,21.3z"/>
		</g>
	</g>
	<g>
		<g>
			<path d="M24.3,62.7c-1.5,0-2.6,1.2-2.6,2.6s1.2,2.6,2.6,2.6s2.6-1.2,2.6-2.6S25.8,62.7,24.3,62.7z"/>
		</g>
	</g>
	<g>
		<g>
			<path d="M24.3,46C13.7,46,5,54.7,5,65.4s8.7,19.3,19.3,19.3S43.7,76,43.7,65.4S35,46,24.3,46z M24.3,73.3c-4.4,0-7.9-3.5-7.9-7.9
				s3.5-7.9,7.9-7.9s7.9,3.5,7.9,7.9S28.7,73.3,24.3,73.3z"/>
		</g>
	</g>
	<g>
		<g>
			<path d="M80.9,56.6c-7.8,0-14.1,6.3-14.1,14.1s6.3,14.1,14.1,14.1S95,78.4,95,70.7S88.7,56.6,80.9,56.6z M80.9,73.3
				c-1.5,0-2.6-1.2-2.6-2.6s1.2-2.6,2.6-2.6s2.6,1.2,2.6,2.6S82.4,73.3,80.9,73.3z"/>
		</g>
	</g>
	<g>
		<g>
			<path d="M78.1,36.4h-9.8V19.7H63v16.7H14v6.7c3.2-1.5,6.7-2.3,10.4-2.3c10.5,0,19.5,6.6,23,15.9l0.3,0.8c0.8,2.5,1.3,5.1,1.3,7.9
				c0,0.9,0,1.8-0.1,2.6h13c0.7-4.8,3.1-9.1,6.7-12.1c0,0,3.2-2.3,5.3-3.2c2.1-0.9,4.7-1.4,7.2-1.4c1.8,0,3.5,0.2,5.1,0.7v-7.7
				C86,39.9,82.5,36.4,78.1,36.4z"/>
		</g>
	</g>
</g>
</svg>
