<?xml version="1.0" encoding="utf-8"?>

<svg version="1.1" id="Calque_1" xmlns="http://www.w3.org/2000/svg" xmlns:xlink="http://www.w3.org/1999/xlink" x="0px" y="0px"
	 viewBox="0 0 100 100" style="enable-background:new 0 0 100 100;" xml:space="preserve">
<g>
	<g>
		<path d="M67.6,16.7h-1.1l2.9-5.9h4.1c1.6,0,2.9-1.3,2.9-2.9c0-1.6-1.3-2.9-2.9-2.9h-47c-1.6,0-2.9,1.3-2.9,2.9s1.3,2.9,2.9,2.9
			h4.1l2.9,5.9h-1.1c-8.1,0-14.7,6.6-14.7,14.7v37.2c0,7.4,5.5,13.5,12.6,14.5L23.4,90c-1.1,1.1-1.1,3,0,4.2c1.1,1.1,3,1.1,4.2,0
			l10.9-10.9h23.1l10.9,10.9c1.1,1.1,3,1.1,4.2,0c1.1-1.1,1.1-3,0-4.2l-6.9-6.9c7.1-1,12.6-7.1,12.6-14.5V31.4
			C82.3,23.3,75.7,16.7,67.6,16.7z M35.3,57.8H23.6V34.3h11.7V57.8z M50,72.5c-1.6,0-2.9-1.3-2.9-2.9s1.3-2.9,2.9-2.9
			c1.6,0,2.9,1.3,2.9,2.9S51.6,72.5,50,72.5z M58.8,57.8H41.2V34.3h17.6V57.8z M59.9,16.7H40.1l-2.9-5.9h25.7L59.9,16.7z M76.4,57.8
			H64.7V34.3h11.7V57.8z"/>
	</g>
</g>
</svg>
