<?xml version="1.0" encoding="utf-8"?>

<svg version="1.1" id="Calque_1" xmlns="http://www.w3.org/2000/svg" xmlns:xlink="http://www.w3.org/1999/xlink" x="0px" y="0px"
	 viewBox="0 0 100 100" style="enable-background:new 0 0 100 100;" xml:space="preserve">
<g>
	<path d="M48.9,54.3v3.6c0,1.2-0.7,2.4-1.8,3c-1.3,0.7-2.8,0.4-3.8-0.6L41,57.9l-2.2,2.2l5.5,5.5c0.6,0.6,1,1.4,1,2.3v24.1
		c0,1.6,1.3,2.9,2.9,2.9h4.8c1.6,0,2.9-1.3,2.9-2.9V71.6c0-0.9,0.3-1.7,1-2.3l4.6-4.6L59,62.5l-1.4,1.4c-1,1-2.5,1.2-3.8,0.6
		c-1.1-0.6-1.8-1.8-1.8-3v-7.3L48.9,54.3L48.9,54.3z"/>
	<path d="M92.7,42c0-10.5-8.2-19.2-18.5-20C70.6,11.9,61,5,50,5s-20.6,6.9-24.2,17.1C15.5,22.9,7.3,31.5,7.3,42
		c0,5.4,2.1,10.4,5.9,14.2C13,57.2,13,58.1,13,59c0,9.7,7.9,17.6,17.6,17.6H41v-8.2l-5.9-5.9c-0.6-0.6-1-1.4-1-2.3s0.3-1.7,1-2.3
		l3.6-3.6c1.3-1.3,3.3-1.3,4.6,0l1.4,1.4v-2.4c0-1.8,1.5-3.3,3.3-3.3h5c1.8,0,3.3,1.5,3.3,3.3v6l0.5-0.5c0.6-0.6,1.4-1,2.3-1
		c0.9,0,1.7,0.3,2.3,1l3.6,3.6c0,0,0,0,0,0c1.3,1.3,1.3,3.3,0,4.6l-5,5v4.6h9.5C79.1,76.6,87,68.7,87,59c0-0.9-0.1-1.9-0.2-2.8
		C90.6,52.5,92.7,47.4,92.7,42z"/>
</g>
</svg>
