<?xml version="1.0" encoding="utf-8"?>

<svg version="1.1" id="Calque_1" xmlns="http://www.w3.org/2000/svg" xmlns:xlink="http://www.w3.org/1999/xlink" x="0px" y="0px"
	 viewBox="0 0 100 100" style="enable-background:new 0 0 100 100;" xml:space="preserve">
<g>
	<g>
		<path d="M93.5,73.8L58.1,15.3c-4.1-6.8-14-6.9-18.1,0L6.5,73.8c-4.2,7,0.9,16,9.1,16h68.9C92.7,89.8,97.7,80.8,93.5,73.8z
			 M49.1,79.2c-2.9,0-5.3-2.4-5.3-5.3s2.4-5.3,5.3-5.3c2.9,0,5.3,2.4,5.3,5.3S52,79.2,49.1,79.2z M54.4,52.9c0,2.9-2.4,5.3-5.3,5.3
			c-2.9,0-5.2-2.4-5.2-5.3V31.8c0-2.9,2.3-5.3,5.2-5.3c2.9,0,5.3,2.4,5.3,5.3V52.9z"/>
	</g>
</g>
</svg>
