<?xml version="1.0" encoding="utf-8"?>

<svg version="1.1" id="Calque_1" xmlns="http://www.w3.org/2000/svg" xmlns:xlink="http://www.w3.org/1999/xlink" x="0px" y="0px"
	 viewBox="0 0 100 100" style="enable-background:new 0 0 100 100;" xml:space="preserve">
<g>
	<path d="M10.9,26.1H5.6c-1.5,0-2.6,1.2-2.6,2.6v28.1c0,1.5,1.2,2.6,2.6,2.6h5.3c1.5,0,2.6-1.2,2.6-2.6V28.7
		C13.5,27.3,12.4,26.1,10.9,26.1z"/>
	<path d="M69.3,33.1h-6.2c-0.4-3.7-3.3-6.6-7-7v-5.3H36.8v5.3c-3.7,0.4-6.6,3.3-7,7H18.8v19.3h10.9c0.4,3.9,3.8,7,7.9,7h17.6
		c4.1,0,7.4-3.1,7.9-7h6.2c2.4,0,4.4,2,4.4,4.4V63c0,1.5,1.2,2.6,2.6,2.6h14.1c1.5,0,2.6-1.2,2.6-2.6v-6.2
		C93,43.8,82.4,33.1,69.3,33.1z"/>
	<path d="M85.4,72.1c-0.5-0.7-1.3-1.1-2.1-1.1s-1.6,0.4-2.1,1.1l-5.6,7.5c-2.2,2.9-2.6,6.8-0.9,10.1s5,5.3,8.6,5.3s7-2,8.6-5.3
		s1.3-7.2-0.9-10.1L85.4,72.1z"/>
	<path d="M31.5,15.5h29.9c2.9,0,5.3-2.4,5.3-5.3S64.3,5,61.4,5H31.5c-2.9,0-5.3,2.4-5.3,5.3S28.6,15.5,31.5,15.5z"/>
</g>
</svg>
