<?xml version="1.0" encoding="utf-8"?>

<svg version="1.1" id="Calque_1" xmlns="http://www.w3.org/2000/svg" xmlns:xlink="http://www.w3.org/1999/xlink" x="0px" y="0px"
	 viewBox="0 0 100 100" style="enable-background:new 0 0 100 100;" xml:space="preserve">
<path d="M92.2,89.4H79.1V70.9c7.7-0.9,13.5-7.6,13.1-15.5c0-0.2,0,0.1,0-5.4c0-1.6-1.3-2.8-2.8-2.8s-2.8,1.3-2.8,2.8v2.3
	c-2.7,0.3-5.3,1.4-7.5,3.1v-6.9c7.7-0.9,13.5-7.6,13.1-15.5c0-0.2,0,0.1,0-5.4c0-1.6-1.3-2.8-2.8-2.8s-2.8,1.3-2.8,2.8v2.3
	c-2.7,0.3-5.3,1.4-7.5,3.1v-5.6c6.1-6.2,5.7-16.2-1-21.8c-1-0.9-2.6-0.9-3.6,0c-6.7,5.6-7.1,15.7-1,21.8V33
	c-2.2-1.7-4.7-2.8-7.4-3.1v-2.3c0-1.6-1.3-2.8-2.8-2.8c-1.6,0-2.8,1.2-2.8,2.8v2.3c-2.7,0.3-5.3,1.4-7.5,3.1v-5.6
	c6.1-6.2,5.7-16.2-1-21.8c-1-0.9-2.6-0.9-3.6,0c-6.7,5.6-7.1,15.7-1,21.8V33c-2.2-1.7-4.7-2.8-7.4-3.1v-2.3c0-1.6-1.3-2.8-2.8-2.8
	c-1.7,0-2.9,1.3-2.9,2.8v2.3c-2.7,0.3-5.3,1.4-7.5,3.1v-5.6c6.1-6.2,5.7-16.2-1-21.8c-1-0.9-2.6-0.9-3.6,0c-6.7,5.6-7.1,15.7-1,21.8
	V33c-2.2-1.7-4.7-2.8-7.4-3.1v-2.3c0-1.6-1.3-2.8-2.8-2.8s-2.8,1.3-2.8,2.8v5c-0.6,8,5.2,15,13.1,15.9v6.9c-2.2-1.7-4.7-2.8-7.4-3.1
	V50c0-1.6-1.3-2.8-2.8-2.8S7.8,48.4,7.8,50v5c-0.6,8,5.2,15,13.1,15.9v18.5H7.8c-1.6,0-2.8,1.3-2.8,2.8c0,1.6,1.3,2.8,2.8,2.8h84.4
	c1.6,0,2.8-1.3,2.8-2.8C95,90.7,93.7,89.4,92.2,89.4z M36.9,42.4c2.5,3.4,6.2,5.6,10.3,6v6.9c-2.2-1.7-4.7-2.8-7.4-3.1V50
	c0-1.5-1.2-2.8-2.9-2.8c-1.6,0-2.8,1.3-2.8,2.8v2.3c-2.7,0.3-5.3,1.4-7.5,3.1v-6.9C30.7,48,34.4,45.8,36.9,42.4z M63.1,42.4
	c2.5,3.4,6.2,5.6,10.3,6v6.9c-2.2-1.7-4.7-2.8-7.4-3.1V50c0-1.5-1.2-2.8-2.9-2.8c-1.6,0-2.8,1.3-2.8,2.8v2.3
	c-2.7,0.3-5.3,1.4-7.5,3.1v-6.9C56.9,48,60.7,45.8,63.1,42.4L63.1,42.4z M26.6,70.9c4.1-0.5,7.9-2.7,10.3-6c2.5,3.4,6.2,5.6,10.3,6
	v18.5H26.6V70.9z M52.8,70.9c4.1-0.5,7.8-2.6,10.3-6c2.5,3.4,6.2,5.6,10.3,6v18.5H52.8L52.8,70.9z"/>
</svg>
