<?xml version="1.0" encoding="UTF-8" standalone="no"?>
<!-- Generator: Adobe Illustrator 19.0.0, SVG Export Plug-In . SVG Version: 6.00 Build 0)  -->

<svg
   xmlns:dc="http://purl.org/dc/elements/1.1/"
   xmlns:cc="http://creativecommons.org/ns#"
   xmlns:rdf="http://www.w3.org/1999/02/22-rdf-syntax-ns#"
   xmlns:svg="http://www.w3.org/2000/svg"
   xmlns="http://www.w3.org/2000/svg"
   xmlns:sodipodi="http://sodipodi.sourceforge.net/DTD/sodipodi-0.dtd"
   xmlns:inkscape="http://www.inkscape.org/namespaces/inkscape"
   version="1.1"
   id="Layer_1"
   x="0px"
   y="0px"
   viewBox="0 0 500 500"
   xml:space="preserve"
   inkscape:version="0.91 r13725"
   sodipodi:docname="south-africa.svg"
   width="500"
   height="500"><metadata
     id="metadata49"><rdf:RDF><cc:Work
         rdf:about=""><dc:format>image/svg+xml</dc:format><dc:type
           rdf:resource="http://purl.org/dc/dcmitype/StillImage" /><dc:title></dc:title></cc:Work></rdf:RDF></metadata><defs
     id="defs47" /><sodipodi:namedview
     pagecolor="#ffffff"
     bordercolor="#666666"
     borderopacity="1"
     objecttolerance="10"
     gridtolerance="10"
     guidetolerance="10"
     inkscape:pageopacity="0"
     inkscape:pageshadow="2"
     inkscape:window-width="1280"
     inkscape:window-height="1002"
     id="namedview45"
     showgrid="false"
     inkscape:zoom="0.4609375"
     inkscape:cx="219.11864"
     inkscape:cy="256"
     inkscape:window-x="-8"
     inkscape:window-y="49"
     inkscape:window-maximized="1"
     inkscape:current-layer="Layer_1" /><g
     id="g4177"
     transform="matrix(0.94730744,0,0,0.94730744,7.4888217,18.856866)"><path
       inkscape:connector-curvature="0"
       id="path3"
       d="m 482.445,325.689 -0.003,-13.615 -0.003,-13.615 -0.019,-108.918 -0.003,-13.615 -0.003,-13.615 -0.005,-28.706 C 482.406,120.998 475.68,109.35 464.76,103.048 L 273.602,-7.275 c -10.918,-6.302 -24.37,-6.3 -35.287,0.006 l -91.345,52.758 -8.673,5.01 -9.257,5.347 -71.722,41.422 -10.128,5.85 c -0.844,0.487 -1.652,1.016 -2.444,1.565 -1.678,1.163 -3.242,2.457 -4.675,3.869 -6.641,6.548 -10.521,15.559 -10.52,25.128 l 0.036,220.713 c 0.001,9.544 3.863,18.532 10.472,25.073 1.43,1.415 2.992,2.707 4.666,3.873 0.812,0.565 1.643,1.111 2.509,1.611 l 10.065,5.808 71.733,41.399 9.261,5.345 8.673,5.005 91.43,52.767 c 10.918,6.301 24.37,6.299 35.287,-0.006 L 464.808,384.879 c 10.917,-6.305 17.64,-17.955 17.639,-30.563 l -0.002,-28.627 z"
       style="fill:#f5f5f5" /><path
       inkscape:connector-curvature="0"
       id="path5"
       d="m 482.417,162.312 -0.005,-28.706 c -0.003,-12.607 -6.729,-24.255 -17.649,-30.557 L 273.602,-7.275 c -10.918,-6.302 -24.37,-6.3 -35.287,0.006 l -91.345,52.758 85.938,116.823 249.509,0 z"
       style="fill:#ff4b55" /><path
       inkscape:connector-curvature="0"
       id="path7"
       d="m 146.969,442.509 91.43,52.767 c 10.918,6.301 24.37,6.299 35.287,-0.006 L 464.811,384.881 c 10.917,-6.305 17.64,-17.955 17.639,-30.563 l -0.005,-28.631 -249.538,0 -85.938,116.822 z"
       style="fill:#41479b" /><path
       inkscape:connector-curvature="0"
       id="path9"
       d="m 40.072,108.552 c -6.641,6.548 -10.521,15.559 -10.52,25.128 l 0.036,220.713 c 10e-4,9.544 3.863,18.532 10.472,25.073 L 146.03,244 40.072,108.552 Z"
       style="fill:#464655" /><path
       inkscape:connector-curvature="0"
       id="path11"
       d="m 57.318,97.269 -10.128,5.85 c -0.844,0.487 -1.652,1.016 -2.444,1.565 -1.678,1.163 -3.242,2.457 -4.675,3.869 L 139.712,244 40.061,379.467 c 1.43,1.415 2.992,2.707 4.666,3.873 0.812,0.565 1.643,1.111 2.509,1.611 L 57.301,390.759 172.273,243.999 57.318,97.269 Z"
       style="fill:#ffe15a" /><polygon
       transform="translate(0,-12)"
       id="polygon13"
       points="129.04,67.845 57.318,109.269 165.26,256 57.302,402.76 129.035,444.158 227.391,310.459 482.44,310.459 482.422,201.541 227.391,201.541 "
       style="fill:#73af00" /></g><g
     id="g15"
     transform="translate(0,-12)" /><g
     id="g17"
     transform="translate(0,-12)" /><g
     id="g19"
     transform="translate(0,-12)" /><g
     id="g21"
     transform="translate(0,-12)" /><g
     id="g23"
     transform="translate(0,-12)" /><g
     id="g25"
     transform="translate(0,-12)" /><g
     id="g27"
     transform="translate(0,-12)" /><g
     id="g29"
     transform="translate(0,-12)" /><g
     id="g31"
     transform="translate(0,-12)" /><g
     id="g33"
     transform="translate(0,-12)" /><g
     id="g35"
     transform="translate(0,-12)" /><g
     id="g37"
     transform="translate(0,-12)" /><g
     id="g39"
     transform="translate(0,-12)" /><g
     id="g41"
     transform="translate(0,-12)" /><g
     id="g43"
     transform="translate(0,-12)" /></svg>