<?xml version="1.0" encoding="UTF-8" standalone="no"?>
<!-- Generator: Adobe Illustrator 19.0.0, SVG Export Plug-In . SVG Version: 6.00 Build 0)  -->

<svg
   xmlns:dc="http://purl.org/dc/elements/1.1/"
   xmlns:cc="http://creativecommons.org/ns#"
   xmlns:rdf="http://www.w3.org/1999/02/22-rdf-syntax-ns#"
   xmlns:svg="http://www.w3.org/2000/svg"
   xmlns="http://www.w3.org/2000/svg"
   xmlns:sodipodi="http://sodipodi.sourceforge.net/DTD/sodipodi-0.dtd"
   xmlns:inkscape="http://www.inkscape.org/namespaces/inkscape"
   version="1.1"
   id="Layer_1"
   x="0px"
   y="0px"
   viewBox="0 0 350.88306 350.88306"
   xml:space="preserve"
   inkscape:version="0.91 r13725"
   sodipodi:docname="zaf_parc.svg"
   width="350.88306"
   height="350.88306"><metadata
     id="metadata41"><rdf:RDF><cc:Work
         rdf:about=""><dc:format>image/svg+xml</dc:format><dc:type
           rdf:resource="http://purl.org/dc/dcmitype/StillImage" /><dc:title></dc:title></cc:Work></rdf:RDF></metadata><defs
     id="defs39" /><sodipodi:namedview
     pagecolor="#ffffff"
     bordercolor="#666666"
     borderopacity="1"
     objecttolerance="10"
     gridtolerance="10"
     guidetolerance="10"
     inkscape:pageopacity="0"
     inkscape:pageshadow="2"
     inkscape:window-width="1280"
     inkscape:window-height="1002"
     id="namedview37"
     showgrid="false"
     inkscape:zoom="1.3480274"
     inkscape:cx="261.98614"
     inkscape:cy="115.01081"
     inkscape:window-x="-8"
     inkscape:window-y="49"
     inkscape:window-maximized="1"
     inkscape:current-layer="Layer_1"
     fit-margin-top="0"
     fit-margin-left="0"
     fit-margin-right="0"
     fit-margin-bottom="0" /><g
     id="g7"
     transform="translate(-80.557963,-80.557965)" /><g
     id="g9"
     transform="translate(-80.557963,-80.557965)" /><g
     id="g11"
     transform="translate(-80.557963,-80.557965)" /><g
     id="g13"
     transform="translate(-80.557963,-80.557965)" /><g
     id="g15"
     transform="translate(-80.557963,-80.557965)" /><g
     id="g17"
     transform="translate(-80.557963,-80.557965)" /><g
     id="g19"
     transform="translate(-80.557963,-80.557965)" /><g
     id="g21"
     transform="translate(-80.557963,-80.557965)" /><g
     id="g23"
     transform="translate(-80.557963,-80.557965)" /><g
     id="g25"
     transform="translate(-80.557963,-80.557965)" /><g
     id="g27"
     transform="translate(-80.557963,-80.557965)" /><g
     id="g29"
     transform="translate(-80.557963,-80.557965)" /><g
     id="g31"
     transform="translate(-80.557963,-80.557965)" /><g
     id="g33"
     transform="translate(-80.557963,-80.557965)" /><g
     id="g35"
     transform="translate(-80.557963,-80.557965)" /><g
     id="g4167"
     transform="translate(-10.054123,-63.367737)"><circle
       r="175.44153"
       cy="238.80927"
       cx="185.49565"
       id="path4152"
       style="color:#000000;clip-rule:nonzero;display:inline;overflow:visible;visibility:visible;opacity:1;isolation:auto;mix-blend-mode:normal;color-interpolation:sRGB;color-interpolation-filters:linearRGB;solid-color:#000000;solid-opacity:1;fill:#73af00;fill-opacity:1;fill-rule:nonzero;stroke:none;stroke-width:2;stroke-linecap:round;stroke-linejoin:round;stroke-miterlimit:4;stroke-dasharray:none;stroke-dashoffset:0;stroke-opacity:1;color-rendering:auto;image-rendering:auto;shape-rendering:auto;text-rendering:auto;enable-background:accumulate" /><path
       sodipodi:nodetypes="csscscsscsssscscssscsscsssscccssssssssscsssssscssssssscsssssssssssssscccssssscscscsssssscscsssscssscc"
       inkscape:connector-curvature="0"
       id="path4165"
       d="m 178.84621,367.73387 c -2.8954,-1.06808 -4.63765,-2.69479 -5.86954,-5.48027 -2.54908,-5.76396 -6.17054,-20.88573 -10.89482,-45.49256 l -2.19582,-11.43705 -18.12834,0.18652 c -12.55921,0.12922 -19.12524,-0.008 -21.37337,-0.44649 -4.79224,-0.93483 -10.12934,-3.92942 -14.19671,-7.96561 -5.97906,-5.93326 -8.878922,-13.2741 -9.851752,-24.93922 l -0.35343,-4.23794 3.66301,-0.40609 c 2.014642,-0.22335 10.724722,-0.42543 19.355712,-0.44905 14.11429,-0.0386 15.98493,0.0587 18.59808,0.96812 5.21987,1.81652 9.61099,7.58661 11.72875,15.41197 l 0.70151,2.59218 2.89432,-0.29871 c 1.59188,-0.1643 3.03184,-0.43623 3.19991,-0.60432 0.63865,-0.63865 -1.68498,-8.55433 -3.68284,-12.54592 -3.51211,-7.017 -9.18781,-11.11614 -16.94909,-12.24108 -2.67491,-0.38771 -9.81849,-0.45604 -21.67721,-0.20734 l -17.687542,0.37092 0,-6.37087 c 0,-3.50397 -0.15309,-8.52758 -0.3402,-11.16356 l -0.34019,-4.79272 2.55678,-1.75911 c 9.595312,-6.60174 14.035092,-15.87907 13.360382,-27.91769 -0.37213,-6.63988 -1.35323,-10.48719 -4.1107,-16.11982 -4.5061,-9.20453 -14.374312,-15.96922 -25.436239,-17.43664 l -2.712436,-0.35981 0,-6.18762 0,-6.18764 2.983778,-2.38091 c 3.885755,-3.10067 8.764185,-9.20208 10.847045,-13.56634 2.57719,-5.40002 3.35537,-9.95248 3.40989,-19.94843 0.0437,-8.00017 -0.0622,-9.05986 -1.19555,-11.96901 -0.68388,-1.75545 -1.36947,-3.6705 -1.52355,-4.25565 -0.25217,-0.95771 -0.19119,-0.94409 0.61097,0.13633 1.57898,2.12672 4.9502,9.33215 6.158392,13.16257 1.7498,5.54743 2.03944,15.85922 0.63504,22.60814 -1.326622,6.37513 -3.864042,12.96866 -6.499642,16.88949 l -2.04389,3.04055 3.47111,0.70152 c 1.90912,0.38584 5.261772,1.41285 7.450342,2.28224 10.34623,4.10996 16.87249,10.55819 22.31567,22.04883 3.68701,7.78337 4.62744,11.9724 4.65477,20.73394 0.0211,6.77129 -0.10831,7.82375 -1.42554,11.59309 -1.77404,5.07645 -4.1665,9.92162 -6.556,13.27708 -0.99014,1.39042 -1.80012,2.58732 -1.79996,2.65979 1.6e-4,0.0725 3.6507,0.16063 8.11233,0.19592 12.29027,0.0972 23.01514,2.70849 31.22155,7.6018 4.5117,2.69023 12.86354,9.71438 16.25524,13.67114 3.34805,3.90583 8.13686,11.02683 8.56642,12.73833 0.40859,1.62794 1.06621,1.67105 1.46156,0.0958 0.57193,-2.27871 6.62287,-10.77237 10.52892,-14.77935 13.42429,-13.77115 26.15502,-19.17443 45.53835,-19.32774 4.46162,-0.0353 8.11217,-0.12351 8.11233,-0.19592 1.6e-4,-0.0725 -0.80983,-1.26937 -1.79997,-2.65979 -2.3895,-3.35546 -4.78196,-8.20063 -6.55599,-13.27708 -1.31725,-3.76934 -1.44667,-4.8218 -1.42555,-11.59309 0.0273,-8.76154 0.96776,-12.95057 4.65479,-20.73394 5.3906,-11.37968 12.08553,-18.01688 22.14961,-21.95862 3.04884,-1.19412 7.93535,-2.61618 9.94497,-2.89415 1.12085,-0.15503 1.08517,-0.2839 -0.88877,-3.21121 -2.64443,-3.92163 -5.18211,-10.50671 -6.51223,-16.89865 -1.44759,-6.95647 -1.10543,-17.06481 0.77428,-22.87412 1.44338,-4.46078 3.42362,-8.7809 5.48632,-11.96901 1.55066,-2.39669 1.44219,-1.48505 -0.37976,3.19174 -1.13331,2.90915 -1.23917,3.96884 -1.19553,11.96901 0.0545,9.99595 0.83268,14.54841 3.40987,19.94843 2.08287,4.36426 6.96129,10.46567 10.84706,13.56634 l 2.98376,2.38091 0,6.18764 0,6.18762 -2.71242,0.35981 c -11.06193,1.46742 -20.93013,8.23211 -25.43625,17.43664 -2.75747,5.63263 -3.73857,9.47994 -4.1107,16.11982 -0.36177,6.45507 0.62138,11.77118 3.0737,16.62025 1.81479,3.58845 6.33954,8.58172 10.15572,11.20732 l 2.38226,1.63905 -0.22008,10.5346 c -0.12107,5.79404 -0.26525,10.84406 -0.32044,11.22228 -0.0797,0.54661 -4.35809,0.71028 -20.85825,0.79793 l -20.7579,0.11024 -3.49507,1.72082 c -6.59403,3.24664 -11.33063,9.54699 -13.48751,17.94033 -1.2258,4.77016 -1.11917,5.60677 0.71464,5.60677 0.84116,0 2.23153,0.14043 3.08973,0.31207 1.51094,0.30219 1.58068,0.22407 2.20163,-2.46606 1.76405,-7.64226 6.85026,-13.97415 12.66,-15.76063 2.55304,-0.78505 4.98361,-0.96077 13.23457,-0.95681 5.55893,0.003 13.90959,0.20708 18.557,0.45424 l 8.44984,0.4494 -0.35265,4.22866 c -0.97086,11.64138 -3.86792,18.97879 -9.85099,24.94962 -3.91801,3.91001 -9.3147,6.93748 -14.15933,7.94323 -2.00406,0.41604 -8.83487,0.55702 -21.22566,0.43808 l -18.27063,-0.17541 -3.51461,17.82054 c -4.86247,24.65473 -8.15291,37.41499 -10.56237,40.96065 -2.04406,3.00798 -4.64109,3.97298 -11.04349,4.10351 -3.07677,0.0627 -6.30233,-0.15054 -7.1814,-0.47481 z"
       style="fill:#ffffff;fill-opacity:1" /></g></svg>