<svg height="512pt" viewBox="0 0 512 512" width="512pt" xmlns="http://www.w3.org/2000/svg"><path d="m452 122c-27.601562 0-50 22.402344-50 50v280h100v-280c0-27.609375-22.390625-50-50-50zm0 0" fill="#ececf1"/><path d="m60 122c-27.601562 0-50 22.402344-50 50v280h100c0-10.460938 0-266.328125 0-280 0-27.609375-22.390625-50-50-50zm0 0" fill="#ececf1"/><path d="m260 322h142c0-54.882812 0-108.527344 0-120h-268s91.441406 87.089844 126 120zm0 0" fill="#7fe881"/><path d="m110 262v190c0-27.609375-22.390625-50-50-50s-50 22.390625-50 50c0 29.078125 25.246094 50 52.851562 50h47.148438l126-120zm0 0" fill="#76e2f8"/><path d="m465.320312 403.71875c-33.359374-8.617188-63.320312 16.332031-63.320312 48.28125 0-7.824219 0-35.589844 0-70h-86l-120 120h256c27.621094 0 50-22.378906 50-50 0-24.109375-16.308594-43.019531-36.679688-48.28125zm0 0" fill="#76e2f8"/><path d="m402 322v60h-86l-120 120h-86l126-120-126-120v-60h24s91.441406 87.089844 126 120zm0 0" fill="#fed2a4"/><path d="m256 10c49.710938 0 90 40.289062 90 90 0 24.488281-21.828125 66.089844-43.988281 102-22.832031 37.019531-46.011719 68-46.011719 68s-23.179688-30.980469-46.011719-68c-22.160156-35.910156-43.988281-77.511719-43.988281-102 0-49.710938 40.289062-90 90-90zm0 0" fill="#ff637b"/><path d="m256 60c22.058594 0 40 17.941406 40 40s-17.941406 40-40 40-40-17.941406-40-40 17.941406-40 40-40zm0 0" fill="#ececf1"/><path d="m452 112c-33.144531 0-60 26.847656-60 60v20h-72.3125c24.097656-41.210938 36.3125-72.117188 36.3125-92 0-55.140625-44.859375-100-100-100s-100 44.859375-100 100c0 19.882812 12.214844 50.792969 36.3125 92-8.117188 0-65.292969 0-72.3125 0v-20c0-33.085938-26.914062-60-60-60-33.144531 0-60 26.847656-60 60v56c0 5.523438 4.476562 10 10 10s10-4.476562 10-10v-56c0-22.09375 17.902344-40 40-40 22.054688 0 40 17.945312 40 40v235.316406c-10.621094-9.519531-24.648438-15.316406-40-15.316406-15.355469 0-29.375 5.804688-40 15.328125v-99.328125c0-5.523438-4.476562-10-10-10s-10 4.476562-10 10v144c0 34.308594 29.617188 60 62.851562 60h389.148438c33.085938 0 60-26.914062 60-60v-280c0-33.085938-26.914062-60-60-60zm-40 60c0-22.09375 17.902344-40 40-40 22.054688 0 40 17.945312 40 40v235.042969c-6.875-6.121094-15.152344-10.675781-24.179688-13.003907-20.042968-5.183593-40.664062-.304687-55.820312 13.230469 0-8.550781 0-223.265625 0-235.269531zm-20 140h-128c-33.511719-31.910156-97.515625-92.871094-104.996094-100h45.429688c21.832031 34.875 43.335937 63.691406 43.558594 63.992188 1.890624 2.523437 4.855468 4.007812 8.007812 4.007812s6.117188-1.484375 8.007812-4.007812c.222657-.300782 21.730469-29.117188 43.558594-63.992188h84.433594zm-136-292c44.113281 0 80 35.886719 80 80 0 37.128906-58.570312 122.988281-80 152.988281-21.765625-30.476562-80-116.199219-80-152.988281 0-44.113281 35.886719-80 80-80zm-236 432c0-22.054688 17.945312-40 40-40s40 17.945312 40 40c0 5.523438 4.476562 10 10 10s10-4.476562 10-10v-166.667969l101.5 96.667969-115.5 110h-43.148438c-22.425781 0-42.851562-16.761719-42.851562-40zm222.894531-62.757812c1.984375-1.890626 3.105469-4.507813 3.105469-7.242188s-1.121094-5.355469-3.105469-7.242188l-122.894531-117.042968v-45.714844h10c.683594.652344 118.339844 112.707031 123.105469 117.242188 1.859375 1.769531 4.328125 2.757812 6.894531 2.757812h132v40h-76c-2.652344 0-5.195312 1.054688-7.070312 2.929688l-117.074219 117.070312h-56.855469zm209.105469 102.757812h-231.855469l100-100h71.855469v60c0 5.523438 4.476562 10 10 10s10-4.476562 10-10c0-25.863281 24.21875-45.46875 50.820312-38.597656 16.238282 4.195312 29.179688 19.191406 29.179688 38.597656 0 22.054688-17.945312 40-40 40zm0 0"/><path d="m256 150c27.570312 0 50-22.429688 50-50s-22.429688-50-50-50-50 22.429688-50 50 22.429688 50 50 50zm0-80c16.542969 0 30 13.457031 30 30s-13.457031 30-30 30-30-13.457031-30-30 13.457031-30 30-30zm0 0"/><path d="m10 278c5.519531 0 10-4.480469 10-10s-4.480469-10-10-10-10 4.480469-10 10 4.480469 10 10 10zm0 0"/></svg>