<?xml version="1.0" encoding="UTF-8" standalone="no"?>
<!-- Created with Inkscape (http://www.inkscape.org/) -->

<svg
   width="12.234331mm"
   height="12.057547mm"
   viewBox="0 0 12.234331 12.057546"
   version="1.1"
   id="svg52427"
   inkscape:version="1.1 (c68e22c387, 2021-05-23)"
   sodipodi:docname="logo_mviewer - small.svg"
   xmlns:inkscape="http://www.inkscape.org/namespaces/inkscape"
   xmlns:sodipodi="http://sodipodi.sourceforge.net/DTD/sodipodi-0.dtd"
   xmlns="http://www.w3.org/2000/svg"
   xmlns:svg="http://www.w3.org/2000/svg">
  <sodipodi:namedview
     id="namedview52429"
     pagecolor="#ffffff"
     bordercolor="#666666"
     borderopacity="1.0"
     inkscape:pageshadow="2"
     inkscape:pageopacity="0.0"
     inkscape:pagecheckerboard="0"
     inkscape:document-units="mm"
     showgrid="false"
     lock-margins="true"
     fit-margin-top="1"
     fit-margin-left="1"
     fit-margin-right="1"
     fit-margin-bottom="1"
     inkscape:zoom="5.6568542"
     inkscape:cx="-34.825009"
     inkscape:cy="5.568466"
     inkscape:window-width="2400"
     inkscape:window-height="1271"
     inkscape:window-x="2391"
     inkscape:window-y="-9"
     inkscape:window-maximized="1"
     inkscape:current-layer="layer1" />
  <defs
     id="defs52424" />
  <g
     inkscape:label="Calque 1"
     inkscape:groupmode="layer"
     id="layer1"
     transform="translate(-113.86069,-161.84779)">
    <rect
       style="display:inline;fill:#ffffff;fill-opacity:0;stroke-width:0.157772;stroke-linecap:round;paint-order:stroke markers fill"
       id="rect8733-0-9-9-0-9"
       width="3.3128982"
       height="10.037222"
       x="121.78212"
       y="162.86812"
       ry="1.6965749" />
    <rect
       style="display:inline;fill:#ffffff;fill-opacity:1;stroke-width:0.159389;stroke-linecap:round;paint-order:stroke markers fill"
       id="rect8733-0"
       width="3.3811202"
       height="10.037222"
       x="114.86069"
       y="162.84779"
       ry="1.6965749" />
    <path
       style="display:inline;fill:#ffffff;fill-opacity:1;stroke-width:0.0697873"
       d="m 116.11007,172.81152 c -0.44937,-0.16735 -0.80028,-0.44387 -1.00476,-0.79173 l -0.19577,-0.33306 -0.0177,-2.23319 -0.0177,-2.2332 1.47462,1.50043 c 0.81104,0.82524 1.55005,1.61324 1.64224,1.75112 0.34061,0.50938 0.28231,1.33827 -0.12923,1.83754 -0.40242,0.4882 -1.18596,0.71279 -1.7517,0.50209 z m 6.89481,0.0312 c -1.04314,-0.25395 -1.55132,-1.42479 -1.01667,-2.34241 0.11738,-0.20144 0.81032,-0.95339 1.63935,-1.77894 l 1.43605,-1.43 -0.002,2.16277 c -0.002,2.46172 -0.0123,2.51801 -0.56169,2.98824 -0.43997,0.3766 -0.98916,0.52361 -1.49551,0.40034 z m -3.38515,-3.2061 c -0.0962,-0.0315 -0.26892,-0.10655 -0.38383,-0.16677 -0.29649,-0.15541 -4.01982,-3.90601 -4.18036,-4.211 -0.30479,-0.57902 -0.20443,-1.31919 0.24499,-1.80675 0.48623,-0.52749 1.03443,-0.68608 1.7014,-0.49218 0.35568,0.10339 0.492,0.20531 1.22502,0.91588 0.87376,0.84701 1.23344,1.07231 1.71595,1.07488 0.56459,0.003 0.84622,-0.1633 1.70043,-1.00411 0.97244,-0.9572 1.12902,-1.04948 1.78027,-1.04917 0.73377,2.6e-4 1.27758,0.34802 1.5459,0.98832 0.15261,0.36418 0.12107,1.06549 -0.0629,1.39877 -0.20806,0.37689 -3.70382,3.95913 -4.07927,4.1802 -0.31529,0.18564 -0.90799,0.27002 -1.20758,0.17193 z"
       id="path8300-4-2" />
    <path
       id="path20956-4"
       style="display:inline;fill:#2ed2c5;fill-opacity:1;stroke-width:0.0697871"
       d="m 63.730469,42.234375 -5.427735,5.404297 c -3.133341,3.120189 -5.753662,5.963223 -6.197265,6.724609 -2.020411,3.467594 -0.09954,7.89274 3.841797,8.853516 h 0.002 c 1.91325,0.465092 3.988048,-0.09076 5.65039,-1.513672 2.076397,-1.777247 2.115488,-1.990821 2.123047,-11.294922 z M 57.552734,54.613281 A 2.5521546,2.5521546 0 0 1 60.105469,57.166016 2.5521546,2.5521546 0 0 1 57.552734,59.71875 2.5521546,2.5521546 0 0 1 55,57.166016 2.5521546,2.5521546 0 0 1 57.552734,54.613281 Z"
       transform="matrix(0.26458333,0,0,0.26458333,108.20177,156.11679)" />
  </g>
</svg>
