<?xml version="1.0" encoding="UTF-8" standalone="no"?>
<!-- Generator: Adobe Illustrator 18.0.0, SVG Export Plug-In . SVG Version: 6.00 Build 0)  -->

<svg
   xmlns:dc="http://purl.org/dc/elements/1.1/"
   xmlns:cc="http://creativecommons.org/ns#"
   xmlns:rdf="http://www.w3.org/1999/02/22-rdf-syntax-ns#"
   xmlns:svg="http://www.w3.org/2000/svg"
   xmlns="http://www.w3.org/2000/svg"
   xmlns:sodipodi="http://sodipodi.sourceforge.net/DTD/sodipodi-0.dtd"
   xmlns:inkscape="http://www.inkscape.org/namespaces/inkscape"
   version="1.1"
   id="Capa_1"
   x="0px"
   y="0px"
   viewBox="0 0 482.14 482.14"
   style="enable-background:new 0 0 482.14 482.14;"
   xml:space="preserve"
   inkscape:version="0.91 r13725"
   sodipodi:docname="icon_pdf.svg"><metadata
     id="metadata45"><rdf:RDF><cc:Work
         rdf:about=""><dc:format>image/svg+xml</dc:format><dc:type
           rdf:resource="http://purl.org/dc/dcmitype/StillImage" /><dc:title></dc:title></cc:Work></rdf:RDF></metadata><defs
     id="defs43" /><sodipodi:namedview
     pagecolor="#ffffff"
     bordercolor="#666666"
     borderopacity="1"
     objecttolerance="10"
     gridtolerance="10"
     guidetolerance="10"
     inkscape:pageopacity="0"
     inkscape:pageshadow="2"
     inkscape:window-width="1280"
     inkscape:window-height="1002"
     id="namedview41"
     showgrid="false"
     inkscape:zoom="0.48948437"
     inkscape:cx="241.07001"
     inkscape:cy="241.07001"
     inkscape:window-x="-8"
     inkscape:window-y="-8"
     inkscape:window-maximized="1"
     inkscape:current-layer="Capa_1" /><g
     id="g3"
     transform="matrix(0.96610162,0,0,0.96610162,8.1718852,10.215343)"
     style="fill:#ffffff;fill-opacity:1;stroke:none"><path
       id="path9"
       style="fill:#ffffff;fill-opacity:1;stroke:none"
       d="m 288.14844,86.387579 -122.55468,0 c -17.90409,0 -32.47607,14.582111 -32.47607,32.476061 l 0,120.09089 -3.17198,0 c -7.22619,0 -13.08663,5.85474 -13.08663,13.08726 l 0,79.36527 c 0,7.23188 5.85981,13.08599 13.08663,13.08599 l 3.17198,0 0,14.553 c 0,17.91358 14.57198,32.47607 32.47607,32.47607 l 167.22058,0 c 17.89269,0 32.46658,-14.56312 32.46658,-32.47607 l 0,-195.79623 -77.13248,-76.862241 z M 151.19075,266.36442 c 3.83523,-0.64806 9.22607,-1.13665 16.82123,-1.13665 7.67553,0 13.14612,1.46511 16.82186,4.40799 3.5112,2.77326 5.88069,7.35086 5.88069,12.73791 0,5.38578 -1.79546,9.96464 -5.06238,13.06637 -4.24913,3.99978 -10.53296,5.79526 -17.88383,5.79526 -1.63599,0 -3.10236,-0.081 -4.24913,-0.23987 l 0,19.67994 -12.32844,0 0,-54.31095 z m 181.62359,105.26892 -167.22058,0 c -6.93254,0 -12.5778,-5.64526 -12.5778,-12.58729 l 0,-14.553 155.88387,0 c 7.22745,0 13.08726,-5.85411 13.08726,-13.08599 l 0,-79.36527 c 0,-7.23252 -5.85981,-13.08726 -13.08726,-13.08726 l -155.88387,0 0,-120.09089 c 0,-6.9224 5.64589,-12.56766 12.5778,-12.56766 l 115.11395,-0.1203 0,42.5502 c 0,12.42843 10.08425,22.52218 22.52218,22.52218 l 41.68253,-0.11966 0.46895,187.91692 c 0,6.94266 -5.63512,12.58792 -12.56703,12.58792 z m -134.15024,-51.20732 0,-54.0616 c 4.57254,-0.72781 10.53234,-1.13665 16.82186,-1.13665 10.4526,0 17.23071,1.87522 22.5418,5.87436 5.71551,4.24914 9.30583,11.02218 9.30583,20.74634 0,10.53296 -3.83525,17.80472 -9.14697,22.29244 -5.79526,4.81746 -14.61692,7.10215 -25.39418,7.10215 -6.45408,0 -11.02662,-0.40884 -14.12834,-0.81704 z m 89.12613,-32.00774 0,10.12349 -19.76473,0 0,22.1336 -12.493,0 0,-55.03876 33.64373,0 0,10.20324 -21.15073,0 0,12.57843 19.76473,0 z m -70.99801,-13.63534 c -2.77834,0 -4.5738,0.23986 -5.63577,0.48859 l 0,36.00815 c 1.0626,0.24935 2.77833,0.24935 4.32951,0.24935 11.27091,0.0798 18.62177,-6.12435 18.62177,-19.27046 0.0798,-11.43166 -6.61863,-17.47563 -17.31551,-17.47563 z m -38.40612,7.91919 c 0,-5.06745 -3.51626,-8.08943 -9.72036,-8.08943 -2.53341,0 -4.24913,0.24998 -5.14655,0.48921 l 0,16.2586 c 1.0626,0.23923 2.36885,0.31897 4.16939,0.31897 6.61293,0 10.69752,-3.34095 10.69752,-8.97735 z M 485.31202,238.95484 A 244.24201,244.24201 0 0 1 241.07,483.19686 244.24201,244.24201 0 0 1 -3.1720105,238.95484 244.24201,244.24201 0 0 1 241.07,-5.2871677 244.24201,244.24201 0 0 1 485.31202,238.95484 Z"
       inkscape:connector-curvature="0" /></g><g
     id="g11" /><g
     id="g13" /><g
     id="g15" /><g
     id="g17" /><g
     id="g19" /><g
     id="g21" /><g
     id="g23" /><g
     id="g25" /><g
     id="g27" /><g
     id="g29" /><g
     id="g31" /><g
     id="g33" /><g
     id="g35" /><g
     id="g37" /><g
     id="g39" /></svg>