<?xml version="1.0" encoding="UTF-8" standalone="no"?>
<!-- Created with Inkscape (http://www.inkscape.org/) -->

<svg
   width="100"
   height="100"
   viewBox="0 0 26.458334 26.458334"
   version="1.1"
   id="svg5"
   inkscape:version="1.1 (c68e22c387, 2021-05-23)"
   sodipodi:docname="icon_population.svg"
   xmlns:inkscape="http://www.inkscape.org/namespaces/inkscape"
   xmlns:sodipodi="http://sodipodi.sourceforge.net/DTD/sodipodi-0.dtd"
   xmlns="http://www.w3.org/2000/svg"
   xmlns:svg="http://www.w3.org/2000/svg">
  <sodipodi:namedview
     id="namedview7"
     pagecolor="#ffffff"
     bordercolor="#666666"
     borderopacity="1.0"
     inkscape:pageshadow="2"
     inkscape:pageopacity="0.0"
     inkscape:pagecheckerboard="0"
     inkscape:document-units="mm"
     showgrid="false"
     fit-margin-top="0"
     fit-margin-left="0"
     fit-margin-right="0"
     fit-margin-bottom="0"
     units="px"
     inkscape:zoom="4.0920134"
     inkscape:cx="43.988125"
     inkscape:cy="34.823932"
     inkscape:window-width="2400"
     inkscape:window-height="1271"
     inkscape:window-x="2391"
     inkscape:window-y="-9"
     inkscape:window-maximized="1"
     inkscape:current-layer="layer1" />
  <defs
     id="defs2" />
  <g
     inkscape:label="Calque 1"
     inkscape:groupmode="layer"
     id="layer1"
     transform="translate(-93.253528,-118.43077)">
    <rect
       style="fill:#f36262;fill-opacity:0.260383;stroke:none;stroke-width:1.065;stroke-linecap:round;stroke-linejoin:round;stroke-opacity:0.436102"
       id="rect1192"
       width="22.953756"
       height="22.953756"
       x="95.005814"
       y="120.18306"
       ry="7.2417488" />
    <path
       style="fill:#f36262;fill-opacity:1;stroke-width:0.0272005"
       d="m 109.1465,137.66112 -0.0795,-0.0795 v -1.37571 c 0,-1.33945 -10e-4,-1.37716 -0.0543,-1.43012 -0.032,-0.032 -0.0908,-0.0544 -0.14281,-0.0546 -0.11875,-2e-4 -0.26178,-0.0426 -0.35732,-0.10604 l -0.0785,-0.0521 0.10591,-0.054 c 0.15016,-0.0766 0.38124,-0.33131 0.46742,-0.51521 l 0.0733,-0.15648 0.008,-1.84402 0.008,-1.84401 1.06688,0.008 1.06689,0.008 0.18226,0.0863 c 0.23189,0.10985 0.41036,0.28832 0.52022,0.5202 l 0.0863,0.18227 0.008,1.5981 c 0.005,1.04065 -0.002,1.63458 -0.0203,1.70264 -0.068,0.25267 -0.28375,0.42331 -0.58717,0.46448 -0.26137,0.0355 -0.24167,-0.0805 -0.25715,1.51505 l -0.0136,1.40231 -0.0642,0.0519 c -0.0603,0.0488 -0.1187,0.052 -0.96091,0.052 h -0.8967 z m -7.2829,-0.0106 c -0.0591,-0.063 -0.0592,-0.0642 -0.0592,-1.41579 0,-1.13411 -0.007,-1.36526 -0.0398,-1.42977 -0.0462,-0.0893 -0.09,-0.11065 -0.22763,-0.11102 -0.13239,-3e-4 -0.35671,-0.1074 -0.44504,-0.21237 -0.16318,-0.19393 -0.16082,-0.16399 -0.15222,-1.93682 l 0.008,-1.61904 0.0889,-0.18051 c 0.11271,-0.22887 0.34958,-0.45476 0.56979,-0.54338 0.15381,-0.0619 0.181,-0.0635 1.21063,-0.0718 l 1.0533,-0.008 0.008,1.8579 0.008,1.85791 0.0733,0.15647 c 0.0828,0.1767 0.30033,0.42115 0.44327,0.49812 0.0525,0.0282 0.0954,0.0595 0.0954,0.0693 0,0.0353 -0.1995,0.11165 -0.34273,0.13108 -0.27551,0.0374 -0.25568,-0.077 -0.25568,1.47624 0,1.43087 -0.005,1.48211 -0.12363,1.52796 -0.0242,0.009 -0.45094,0.0169 -0.94828,0.0169 h -0.90425 z m 3.52138,0.007 -0.0716,-0.0564 v -1.558 c 0,-1.07011 -0.009,-1.58508 -0.0302,-1.64449 -0.0364,-0.10442 -0.12441,-0.15342 -0.32346,-0.1801 -0.29882,-0.04 -0.52613,-0.21741 -0.6127,-0.47806 -0.0365,-0.10969 -0.041,-0.36656 -0.0342,-1.95929 l 0.008,-1.83306 0.0631,-0.15614 c 0.12763,-0.31605 0.38977,-0.57815 0.70561,-0.70554 0.15323,-0.0618 0.17748,-0.0631 1.29857,-0.0716 0.78525,-0.006 1.19345,0.001 1.30563,0.0227 0.44169,0.085 0.80671,0.43438 0.92392,0.88436 0.0629,0.24137 0.0624,3.64161 -6.2e-4,3.82631 -0.0884,0.25932 -0.30987,0.42996 -0.61054,0.47032 -0.19906,0.0267 -0.28706,0.0757 -0.32345,0.18014 -0.0207,0.0594 -0.0302,0.57438 -0.0302,1.64449 v 1.55799 l -0.0716,0.0564 c -0.0696,0.0548 -0.10088,0.0564 -1.09795,0.0564 -0.99708,0 -1.02833,-0.001 -1.09796,-0.0564 z m -2.75091,-8.10685 c -0.22529,-0.0318 -0.56585,-0.20502 -0.72598,-0.36928 -0.25399,-0.26054 -0.40347,-0.61425 -0.40243,-0.95225 7.1e-4,-0.28746 0.13631,-0.65352 0.32765,-0.88565 0.11555,-0.14018 0.3834,-0.31013 0.58874,-0.37356 0.21044,-0.065 0.57653,-0.0728 0.78681,-0.0168 0.58404,0.15551 0.96204,0.66464 0.96204,1.2958 0,0.81066 -0.71643,1.41752 -1.53683,1.30177 z m 7.11144,-0.021 c -0.3787,-0.12119 -0.6639,-0.36895 -0.83189,-0.72269 -0.0803,-0.16908 -0.1,-0.24571 -0.11181,-0.43529 -0.0269,-0.43144 0.0803,-0.74451 0.35641,-1.04033 0.18472,-0.19795 0.39735,-0.31452 0.68399,-0.37497 0.23705,-0.05 0.33304,-0.0503 0.56233,-0.001 0.51252,0.10862 0.87334,0.45152 1.0012,0.95145 0.0904,0.3535 0.0601,0.63967 -0.10237,0.96687 -0.0914,0.18404 -0.35431,0.45317 -0.53838,0.55109 -0.29619,0.15756 -0.71986,0.20143 -1.01948,0.10555 z m -3.46964,-1.09041 c -0.71034,-0.10768 -1.23455,-0.71435 -1.23455,-1.42876 0,-0.65885 0.40949,-1.20463 1.04046,-1.38676 0.20533,-0.0592 0.59718,-0.0593 0.80091,-9e-5 0.6376,0.18536 1.04188,0.72349 1.04188,1.38685 0,0.87171 -0.79256,1.55854 -1.6487,1.42876 z"
       id="path1046" />
  </g>
</svg>
