<?xml version="1.0" encoding="UTF-8" standalone="no"?>
<!-- Created with Inkscape (http://www.inkscape.org/) -->

<svg
   width="100"
   height="100"
   viewBox="0 0 26.458334 26.458334"
   version="1.1"
   id="svg5"
   inkscape:version="1.1 (c68e22c387, 2021-05-23)"
   sodipodi:docname="icon_population.svg"
   xmlns:inkscape="http://www.inkscape.org/namespaces/inkscape"
   xmlns:sodipodi="http://sodipodi.sourceforge.net/DTD/sodipodi-0.dtd"
   xmlns="http://www.w3.org/2000/svg"
   xmlns:svg="http://www.w3.org/2000/svg">
  <sodipodi:namedview
     id="namedview7"
     pagecolor="#ffffff"
     bordercolor="#666666"
     borderopacity="1.0"
     inkscape:pageshadow="2"
     inkscape:pageopacity="0.0"
     inkscape:pagecheckerboard="0"
     inkscape:document-units="mm"
     showgrid="false"
     fit-margin-top="0"
     fit-margin-left="0"
     fit-margin-right="0"
     fit-margin-bottom="0"
     units="px"
     inkscape:zoom="5.7869809"
     inkscape:cx="47.347659"
     inkscape:cy="41.2132"
     inkscape:window-width="2400"
     inkscape:window-height="1271"
     inkscape:window-x="2391"
     inkscape:window-y="-9"
     inkscape:window-maximized="1"
     inkscape:current-layer="layer1" />
  <defs
     id="defs2" />
  <g
     inkscape:label="Calque 1"
     inkscape:groupmode="layer"
     id="layer1"
     transform="translate(-93.253528,-118.43077)">
    <rect
       style="fill:#2f989c;fill-opacity:0.2172524;stroke:none;stroke-width:1.065;stroke-linecap:round;stroke-linejoin:round;stroke-opacity:0.436102"
       id="rect1192"
       width="22.953756"
       height="22.953756"
       x="95.005814"
       y="120.18306"
       ry="7.2417488" />
    <path
       id="path4308"
       style="fill:#2f989c;stroke-width:0.102579;fill-opacity:1"
       d="M 47.818359 29.46875 C 38.886788 29.473203 39.084586 29.520597 38.160156 29.992188 C 37.56832 30.294133 36.727888 31.1143 36.40625 31.705078 C 35.838716 32.75042 35.823965 32.933386 35.816406 38.900391 L 35.808594 44.392578 L 33.089844 46.855469 C 31.594285 48.209484 30.230184 49.491913 30.058594 49.705078 C 29.886814 49.918319 29.648289 50.332528 29.527344 50.626953 C 29.312289 51.152648 29.30758 51.28432 29.277344 57.792969 L 29.248047 64.423828 L 27.839844 64.466797 C 26.087995 64.519446 25.579463 64.729936 25.154297 65.576172 C 24.542845 66.793218 25.056892 68.290615 26.228516 68.705078 L 26.230469 68.705078 C 26.579281 68.827535 29.977543 68.850152 48.900391 68.853516 C 64.901549 68.856161 71.27551 68.824202 71.570312 68.742188 C 72.199528 68.567536 72.800558 67.907432 72.945312 67.228516 C 73.180399 66.126519 72.784254 65.197768 71.878906 64.724609 C 71.536443 64.545838 71.235765 64.500813 70.058594 64.466797 L 68.648438 64.423828 L 68.648438 48.916016 C 68.648438 32.19274 68.667601 32.874055 68.123047 31.806641 C 67.8211 31.214804 67.000934 30.374372 66.410156 30.052734 C 65.294666 29.445591 65.843206 29.46875 52.234375 29.46875 C 50.555906 29.46875 49.094298 29.468114 47.818359 29.46875 z M 40.230469 33.878906 L 52.232422 33.878906 L 64.234375 33.878906 L 64.234375 49.164062 L 64.234375 64.447266 L 61.054688 64.447266 L 57.873047 64.447266 L 57.873047 58.003906 C 57.873047 52.557947 57.849522 51.479529 57.71875 51.039062 C 57.375531 49.883246 57.009963 49.503865 51.521484 44.621094 C 48.668546 42.082952 46.169821 39.895514 45.96875 39.761719 C 44.929758 39.069952 43.296698 38.875876 42.160156 39.308594 C 41.839426 39.430748 41.308532 39.712555 40.980469 39.935547 C 40.652519 40.158426 40.348971 40.341683 40.306641 40.341797 C 40.263554 40.341948 40.230469 38.886547 40.230469 37.109375 L 40.230469 33.878906 z "
       transform="matrix(0.26458333,0,0,0.26458333,93.253528,118.43077)" />
  </g>
</svg>
