<?xml version="1.0" encoding="utf-8"?>
<!-- Generated by IcoMoon.io -->
<!DOCTYPE svg PUBLIC "-//W3C//DTD SVG 1.1//EN" "http://www.w3.org/Graphics/SVG/1.1/DTD/svg11.dtd">
<svg version="1.1" xmlns="http://www.w3.org/2000/svg" xmlns:xlink="http://www.w3.org/1999/xlink" width="48" height="48" viewBox="0 0 48 48">
<path fill="#ffffff" d="M10.286 41.143h20.571v-10.286h-20.571v10.286zM34.286 41.143h3.429v-24q0-0.375-0.268-1.031t-0.536-0.924l-7.527-7.527q-0.268-0.268-0.911-0.536t-1.045-0.268v11.143q0 1.071-0.75 1.821t-1.821 0.75h-15.429q-1.071 0-1.821-0.75t-0.75-1.821v-11.143h-3.429v34.286h3.429v-11.143q0-1.071 0.75-1.821t1.821-0.75h22.286q1.071 0 1.821 0.75t0.75 1.821v11.143zM24 16.286v-8.571q0-0.348-0.254-0.603t-0.603-0.254h-5.143q-0.348 0-0.603 0.254t-0.254 0.603v8.571q0 0.348 0.254 0.603t0.603 0.254h5.143q0.348 0 0.603-0.254t0.254-0.603zM41.143 17.143v24.857q0 1.071-0.75 1.821t-1.821 0.75h-36q-1.071 0-1.821-0.75t-0.75-1.821v-36q0-1.071 0.75-1.821t1.821-0.75h24.857q1.071 0 2.357 0.536t2.036 1.286l7.5 7.5q0.75 0.75 1.286 2.036t0.536 2.357z"></path>
</svg>
