<?xml version="1.0" encoding="UTF-8" standalone="no"?>
<!-- Generated by IcoMoon.io -->

<svg
   xmlns:dc="http://purl.org/dc/elements/1.1/"
   xmlns:cc="http://creativecommons.org/ns#"
   xmlns:rdf="http://www.w3.org/1999/02/22-rdf-syntax-ns#"
   xmlns:svg="http://www.w3.org/2000/svg"
   xmlns="http://www.w3.org/2000/svg"
   xmlns:sodipodi="http://sodipodi.sourceforge.net/DTD/sodipodi-0.dtd"
   xmlns:inkscape="http://www.inkscape.org/namespaces/inkscape"
   version="1.1"
   width="14"
   height="14"
   viewBox="0 0 14 14"
   id="svg2"
   inkscape:version="0.91 r13725"
   sodipodi:docname="floppy.svg">
  <metadata
     id="metadata10">
    <rdf:RDF>
      <cc:Work
         rdf:about="">
        <dc:format>image/svg+xml</dc:format>
        <dc:type
           rdf:resource="http://purl.org/dc/dcmitype/StillImage" />
        <dc:title />
      </cc:Work>
    </rdf:RDF>
  </metadata>
  <defs
     id="defs8" />
  <sodipodi:namedview
     pagecolor="#ffffff"
     bordercolor="#666666"
     borderopacity="1"
     objecttolerance="10"
     gridtolerance="10"
     guidetolerance="10"
     inkscape:pageopacity="0"
     inkscape:pageshadow="2"
     inkscape:window-width="1280"
     inkscape:window-height="962"
     id="namedview6"
     showgrid="false"
     inkscape:zoom="4.9166667"
     inkscape:cx="24"
     inkscape:cy="24"
     inkscape:window-x="-8"
     inkscape:window-y="-8"
     inkscape:window-maximized="1"
     inkscape:current-layer="svg2" />
  <path
     d="m 4.1684166,12.210443 6.0286274,0 0,-3.0144599 -6.0286274,0 0,3.0144599 z m 7.0335454,0 1.004917,0 0,-7.0335447 q 0,-0.1098991 -0.07854,-0.3021494 -0.07854,-0.1922502 -0.157083,-0.2707914 L 9.7653596,2.398062 q -0.07854,-0.078541 -0.266982,-0.1570825 -0.18844,-0.078541 -0.306252,-0.078541 l 0,3.2656162 q 0,0.3138719 -0.219798,0.5336702 -0.219798,0.2197983 -0.53367,0.2197983 l -4.521691,0 q -0.313871,0 -0.53367,-0.2197983 -0.219798,-0.2197983 -0.219798,-0.5336702 l 0,-3.2656162 -1.004918,0 0,10.0480048 1.004918,0 0,-3.2656162 q 0,-0.3138719 0.219798,-0.5336702 0.219799,-0.2197983 0.53367,-0.2197983 l 6.5312334,0 q 0.313872,0 0.53367,0.2197983 0.219798,0.2197983 0.219798,0.5336702 l 0,3.2656162 z m -3.0144614,-7.2847009 0,-2.5118547 q 0,-0.1019864 -0.07444,-0.1767178 -0.07444,-0.074731 -0.176718,-0.074438 l -1.50723,0 q -0.101986,0 -0.176718,0.074438 -0.07473,0.074438 -0.07444,0.1767178 l 0,2.5118547 q 0,0.1019864 0.07444,0.1767179 0.07444,0.074731 0.176718,0.074438 l 1.50723,0 q 0.101987,0 0.176718,-0.074438 0.07473,-0.074438 0.07444,-0.1767179 z m 5.0240034,0.2511562 0,7.2847007 q 0,0.313872 -0.219798,0.533671 -0.219799,0.219798 -0.533671,0.219798 l -10.5503174,0 q -0.313872,0 -0.53367,-0.219798 -0.219798,-0.219799 -0.219798,-0.533671 l 0,-10.550317 q 0,-0.3138719 0.219798,-0.5336702 0.219798,-0.2197982 0.53367,-0.2197982 l 7.284701,0 q 0.313872,0 0.690753,0.1570825 0.3768814,0.1570825 0.5966794,0.3768807 l 2.197983,2.1979828 q 0.219798,0.2197983 0.37688,0.5966791 0.157083,0.3768807 0.157083,0.6907527 z"
     id="path4"
     inkscape:connector-curvature="0"
     style="fill:#ffffff" />
</svg>
