<?xml version="1.0" encoding="UTF-8" standalone="no"?>
<svg
   xmlns:dc="http://purl.org/dc/elements/1.1/"
   xmlns:cc="http://creativecommons.org/ns#"
   xmlns:rdf="http://www.w3.org/1999/02/22-rdf-syntax-ns#"
   xmlns:svg="http://www.w3.org/2000/svg"
   xmlns="http://www.w3.org/2000/svg"
   xmlns:sodipodi="http://sodipodi.sourceforge.net/DTD/sodipodi-0.dtd"
   xmlns:inkscape="http://www.inkscape.org/namespaces/inkscape"
   version="1.1"
   id="Layer_1"
   x="0px"
   y="0px"
   width="14"
   height="14"
   viewBox="0 0 14 14"
   xml:space="preserve"
   inkscape:version="0.91 r13725"
   sodipodi:docname="measure.svg"><metadata
   id="metadata9"><rdf:RDF><cc:Work
       rdf:about=""><dc:format>image/svg+xml</dc:format><dc:type
         rdf:resource="http://purl.org/dc/dcmitype/StillImage" /><dc:title></dc:title></cc:Work></rdf:RDF></metadata><defs
   id="defs7" /><sodipodi:namedview
   pagecolor="#ffffff"
   bordercolor="#666666"
   borderopacity="1"
   objecttolerance="10"
   gridtolerance="10"
   guidetolerance="10"
   inkscape:pageopacity="0"
   inkscape:pageshadow="2"
   inkscape:window-width="1280"
   inkscape:window-height="962"
   id="namedview5"
   showgrid="false"
   inkscape:zoom="8.9001173"
   inkscape:cx="44.819449"
   inkscape:cy="22.909626"
   inkscape:window-x="-8"
   inkscape:window-y="-8"
   inkscape:window-maximized="1"
   inkscape:current-layer="Layer_1" />&gt;
 <path
   d="m 1.8512632,12.208714 0.4167984,0 0,0.780063 0.7348579,0 0,-0.780063 0.4167984,0 0,0.780063 0.7348579,0 0,-0.780063 0.4167984,0 0,0.780063 0.7348506,0 0,-0.780063 0.4168057,0 0,0.780063 0.7348579,0 0,-0.780063 0.4167984,0 0,0.780063 0.734851,0 0,-0.780063 0.4168056,0 0,0.780063 0.734851,0 0,-0.780063 0.4168057,0 0,0.780063 0.7348505,0 0,-0.780063 0.4168064,0 0,0.780063 0.73485,0 0,-0.780063 0.416799,0 0,0.780063 1.413083,0 -11.4337341,-11.9783947 0,11.9783947 0.3905719,0 0,-0.780063 z m 0.9255714,-7.1150307 5.3154463,5.5686277 -5.3154463,0 0,-5.5686277 z"
   id="path3"
   inkscape:connector-curvature="0"
   style="fill:#ffffff" /></svg>