<?xml version="1.0" encoding="UTF-8" standalone="no"?>
<!-- Generator: Adobe Illustrator 16.0.0, SVG Export Plug-In . SVG Version: 6.00 Build 0)  -->

<svg
   xmlns:dc="http://purl.org/dc/elements/1.1/"
   xmlns:cc="http://creativecommons.org/ns#"
   xmlns:rdf="http://www.w3.org/1999/02/22-rdf-syntax-ns#"
   xmlns:svg="http://www.w3.org/2000/svg"
   xmlns="http://www.w3.org/2000/svg"
   xmlns:sodipodi="http://sodipodi.sourceforge.net/DTD/sodipodi-0.dtd"
   xmlns:inkscape="http://www.inkscape.org/namespaces/inkscape"
   version="1.1"
   id="Capa_1"
   x="0px"
   y="0px"
   width="14"
   height="14"
   viewBox="0 0 14 14"
   xml:space="preserve"
   inkscape:version="0.91 r13725"
   sodipodi:docname="picture.svg"><metadata
     id="metadata41"><rdf:RDF><cc:Work
         rdf:about=""><dc:format>image/svg+xml</dc:format><dc:type
           rdf:resource="http://purl.org/dc/dcmitype/StillImage" /><dc:title></dc:title></cc:Work></rdf:RDF></metadata><defs
     id="defs39" /><sodipodi:namedview
     pagecolor="#ffffff"
     bordercolor="#666666"
     borderopacity="1"
     objecttolerance="10"
     gridtolerance="10"
     guidetolerance="10"
     inkscape:pageopacity="0"
     inkscape:pageshadow="2"
     inkscape:window-width="1280"
     inkscape:window-height="962"
     id="namedview37"
     showgrid="false"
     inkscape:snap-grids="true"
     inkscape:zoom="47.554874"
     inkscape:cx="7"
     inkscape:cy="7.9197009"
     inkscape:window-x="-8"
     inkscape:window-y="-8"
     inkscape:window-maximized="1"
     inkscape:current-layer="Capa_1" /><g
     id="g3"
     transform="matrix(0.02734375,0,0,0.02734375,0.01381255,0.11677975)"><path
       d="m 0,48 0,416 512,0 0,-416 -512,0 z m 480,384 -448,0 0,-352 448,0 0,352 z M 352,160 c 0,26.51 21.49,48 48,48 26.51,0 48,-21.49 48,-48 0,-26.51 -21.49,-48 -48,-48 -26.51,0 -48,21.49 -48,48 z m 96,240 -384,0 96,-256 128,160 64,-48 96,144 z"
       id="path5"
       inkscape:connector-curvature="0"
       style="fill:#ffffff" /></g><g
     id="g7"
     transform="matrix(0.02734375,0,0,0.02734375,0,-46.68749)" /><g
     id="g9"
     transform="matrix(0.02734375,0,0,0.02734375,0,-46.68749)" /><g
     id="g11"
     transform="matrix(0.02734375,0,0,0.02734375,0,-46.68749)" /><g
     id="g13"
     transform="matrix(0.02734375,0,0,0.02734375,0,-46.68749)" /><g
     id="g15"
     transform="matrix(0.02734375,0,0,0.02734375,0,-46.68749)" /><g
     id="g17"
     transform="matrix(0.02734375,0,0,0.02734375,0,-46.68749)" /><g
     id="g19"
     transform="matrix(0.02734375,0,0,0.02734375,0,-46.68749)" /><g
     id="g21"
     transform="matrix(0.02734375,0,0,0.02734375,0,-46.68749)" /><g
     id="g23"
     transform="matrix(0.02734375,0,0,0.02734375,0,-46.68749)" /><g
     id="g25"
     transform="matrix(0.02734375,0,0,0.02734375,0,-46.68749)" /><g
     id="g27"
     transform="matrix(0.02734375,0,0,0.02734375,0,-46.68749)" /><g
     id="g29"
     transform="matrix(0.02734375,0,0,0.02734375,0,-46.68749)" /><g
     id="g31"
     transform="matrix(0.02734375,0,0,0.02734375,0,-46.68749)" /><g
     id="g33"
     transform="matrix(0.02734375,0,0,0.02734375,0,-46.68749)" /><g
     id="g35"
     transform="matrix(0.02734375,0,0,0.02734375,0,-46.68749)" /></svg>