<?xml version="1.0" encoding="utf-8"?>
<!-- Generator: Adobe Illustrator 23.0.1, SVG Export Plug-In . SVG Version: 6.00 Build 0)  -->
<svg version="1.1" id="Calque_1" xmlns="http://www.w3.org/2000/svg" xmlns:xlink="http://www.w3.org/1999/xlink" x="0px" y="0px"
	 viewBox="0 0 329.7 133.8" style="enable-background:new 0 0 329.7 133.8;" xml:space="preserve">
<style type="text/css">
	.st0{opacity:0.68;fill:#009AA3;}
	.st1{fill:#1E1C33;}
	.st2{fill:#FFFFFF;}
</style>
<polygon class="st0" points="107.8,54.6 11.7,71 11.4,43.9 107.5,27.5 "/>
<g>
	<g>
		<path class="st0" d="M14.5,37L14,38.7c-0.1,0.4-0.3,0.7-0.7,0.9C13,39.9,12.6,40,12.2,40c-0.4,0-0.7-0.2-0.9-0.4
			c-0.2-0.3-0.3-0.6-0.2-1l4.1-16.3c0.1-0.4,0.3-0.7,0.7-0.9c0.3-0.3,0.7-0.4,1.1-0.4l0.6-0.1c0.4-0.1,0.8-0.1,1.1,0
			c0.3,0.1,0.6,0.4,0.7,0.7l4.1,14.9c0.1,0.3,0,0.7-0.2,1c-0.2,0.3-0.5,0.6-0.9,0.7c-0.4,0.1-0.8,0.2-1.1,0
			c-0.3-0.1-0.6-0.4-0.7-0.7L20.2,36L14.5,37z M14.5,18.3c-0.2-0.2-0.3-0.6-0.2-0.9c0.1-0.4,0.3-0.7,0.6-1c0.3-0.3,0.7-0.4,1.1-0.4
			c0.4,0,0.7,0.1,1,0.4l1.7,1.9c0.2,0.2,0.3,0.6,0.2,0.9c-0.1,0.4-0.3,0.7-0.6,1c-0.3,0.3-0.7,0.4-1.1,0.4c-0.4,0-0.7-0.1-1-0.4
			L14.5,18.3z M15.1,34.3l4.4-0.7l-2.2-7.9L15.1,34.3z"/>
		<path class="st0" d="M47.8,16.7c0.1-0.4,0.3-0.7,0.7-0.9c0.3-0.3,0.7-0.4,1.1-0.4c0.4,0,0.7,0.2,0.9,0.4c0.2,0.3,0.3,0.6,0.2,1
			l-4.1,16.3c-0.1,0.4-0.3,0.7-0.7,0.9c-0.3,0.3-0.7,0.4-1.1,0.4l-0.6,0.1c-0.4,0.1-0.8,0.1-1.1,0c-0.3-0.1-0.6-0.4-0.7-0.7
			l-4.1-14.9c-0.1-0.3,0-0.7,0.2-1c0.2-0.3,0.5-0.6,0.9-0.7c0.4-0.1,0.8-0.2,1.1,0c0.3,0.1,0.6,0.4,0.7,0.7l3.3,12L47.8,16.7z"/>
		<path class="st0" d="M52.2,20.1c0-1.4,0.6-2.8,1.7-4c1.1-1.2,2.5-2,4.2-2.2c1.6-0.3,3,0,4.2,0.8s1.7,2,1.7,3.4v7.8
			c0,1.4-0.6,2.8-1.7,4s-2.5,2-4.2,2.2c-1.6,0.3-3,0-4.2-0.8c-1.1-0.8-1.7-2-1.7-3.4V20.1z M61,18.6c0-0.7-0.3-1.3-0.9-1.7
			c-0.6-0.4-1.3-0.5-2.1-0.4c-0.8,0.1-1.5,0.5-2.1,1.1c-0.6,0.6-0.9,1.3-0.9,2v7.8c0,0.7,0.3,1.3,0.9,1.7c0.6,0.4,1.3,0.5,2.1,0.4
			c0.8-0.1,1.5-0.5,2.1-1.1c0.6-0.6,0.9-1.3,0.9-2V18.6z"/>
		<path class="st0" d="M74.6,12.4c0-0.4,0.1-0.7,0.4-1c0.3-0.3,0.6-0.5,1-0.6c0.4-0.1,0.7,0,1,0.2c0.3,0.2,0.4,0.5,0.4,0.8v11.8
			c0,1.4-0.6,2.8-1.7,4c-1.1,1.2-2.5,2-4.2,2.2c-1.6,0.3-3,0-4.2-0.8s-1.7-2-1.7-3.4V13.9c0-0.4,0.1-0.7,0.4-1
			c0.3-0.3,0.6-0.5,1-0.6c0.4-0.1,0.7,0,1,0.2c0.3,0.2,0.4,0.5,0.4,0.8v11.8c0,0.7,0.3,1.3,0.9,1.7c0.6,0.4,1.3,0.5,2.1,0.4
			c0.8-0.1,1.5-0.5,2.1-1.1c0.6-0.6,0.9-1.3,0.9-2V12.4z"/>
		<path class="st0" d="M91.1,21.3c0,1.4-0.6,2.8-1.7,4c-1.1,1.2-2.8,2-4.9,2.4c-1.9,0.3-3.5,0.1-4.6-0.7l0,0c0,0,0,0,0,0
			c-0.3-0.2-0.4-0.5-0.4-0.8s0.1-0.7,0.4-1c0.3-0.3,0.6-0.5,1-0.6c0.4-0.1,0.8,0,1,0.2c0,0,0,0,0,0c0.6,0.4,1.4,0.5,2.5,0.3
			c1.3-0.2,2.2-0.6,2.8-1.2c0.6-0.6,0.9-1.3,0.9-2c0-0.7-0.3-1.3-0.9-1.7c-0.6-0.4-1.3-0.5-2.1-0.4c-1.6,0.3-3,0-4.2-0.8
			c-1.1-0.8-1.7-2-1.7-3.4s0.6-2.8,1.7-4c1.1-1.2,2.8-2,4.9-2.4c1.9-0.3,3.5-0.1,4.6,0.7l0,0c0,0,0,0,0,0c0.3,0.2,0.4,0.5,0.4,0.9
			c0,0.4-0.1,0.7-0.4,1c-0.3,0.3-0.6,0.5-1,0.6c-0.4,0.1-0.7,0-1-0.2c0,0,0,0,0,0c-0.6-0.4-1.4-0.5-2.5-0.3
			c-1.3,0.2-2.2,0.6-2.8,1.2c-0.6,0.6-0.9,1.3-0.9,2s0.3,1.3,0.9,1.7c0.6,0.4,1.3,0.5,2.1,0.4c1.6-0.3,3,0,4.2,0.8
			C90.6,18.7,91.1,19.8,91.1,21.3z"/>
	</g>
</g>
<g>
	<path class="st1" d="M20.3,83.3c0.3,0,0.6,0.1,0.9,0.3c0.2,0.2,0.4,0.5,0.4,0.8s-0.1,0.6-0.4,0.8c-0.2,0.2-0.5,0.3-0.9,0.3h-2.5
		v12.4c0,0.3-0.1,0.6-0.4,0.8C17.3,98.9,17,99,16.6,99s-0.6-0.1-0.9-0.3c-0.2-0.2-0.4-0.5-0.4-0.8V85.6H13c-0.3,0-0.6-0.1-0.9-0.3
		c-0.2-0.2-0.4-0.5-0.4-0.8s0.1-0.6,0.4-0.8c0.2-0.2,0.5-0.3,0.9-0.3H20.3z"/>
	<path class="st1" d="M32.4,83.3c0.3,0,0.6,0.1,0.9,0.3c0.2,0.2,0.4,0.5,0.4,0.8s-0.1,0.6-0.4,0.8c-0.2,0.2-0.5,0.3-0.9,0.3h-6.1
		v4.5h4.9c0.3,0,0.6,0.1,0.9,0.3c0.2,0.2,0.4,0.5,0.4,0.8S32.3,91.7,32,92c-0.2,0.2-0.5,0.3-0.9,0.3h-4.9v4.5h6.1
		c0.3,0,0.6,0.1,0.9,0.3s0.4,0.5,0.4,0.8s-0.1,0.6-0.4,0.8C33,98.9,32.7,99,32.4,99H25c-0.3,0-0.6-0.1-0.9-0.3
		c-0.2-0.2-0.4-0.5-0.4-0.8V84.4c0-0.3,0.1-0.6,0.4-0.8c0.2-0.2,0.5-0.3,0.9-0.3H32.4z M29.6,82.5c-0.2,0.3-0.5,0.4-0.8,0.5
		c-0.3,0.1-0.6,0-0.9-0.2c-0.3-0.2-0.4-0.4-0.5-0.7c-0.1-0.3,0-0.6,0.2-0.8l1.4-1.9c0.2-0.3,0.5-0.4,0.8-0.5c0.3-0.1,0.6,0,0.9,0.2
		c0.3,0.2,0.4,0.4,0.5,0.7s0,0.6-0.2,0.8L29.6,82.5z"/>
	<path class="st1" d="M44.4,96.8c0.3,0,0.6,0.1,0.9,0.3s0.4,0.5,0.4,0.8s-0.1,0.6-0.4,0.8C45,98.9,44.8,99,44.4,99H37
		c-0.3,0-0.6-0.1-0.9-0.3c-0.2-0.2-0.4-0.5-0.4-0.8V84.4c0-0.3,0.1-0.6,0.4-0.8c0.2-0.2,0.5-0.3,0.9-0.3c0.3,0,0.6,0.1,0.9,0.3
		c0.2,0.2,0.4,0.5,0.4,0.8v12.4H44.4z"/>
	<path class="st1" d="M56.5,83.3c0.3,0,0.6,0.1,0.9,0.3c0.2,0.2,0.4,0.5,0.4,0.8s-0.1,0.6-0.4,0.8c-0.2,0.2-0.5,0.3-0.9,0.3h-6.1
		v4.5h4.9c0.3,0,0.6,0.1,0.9,0.3c0.2,0.2,0.4,0.5,0.4,0.8s-0.1,0.6-0.4,0.8c-0.2,0.2-0.5,0.3-0.9,0.3h-4.9v4.5h6.1
		c0.3,0,0.6,0.1,0.9,0.3s0.4,0.5,0.4,0.8s-0.1,0.6-0.4,0.8c-0.2,0.2-0.5,0.3-0.9,0.3h-7.4c-0.3,0-0.6-0.1-0.9-0.3
		c-0.2-0.2-0.4-0.5-0.4-0.8V84.4c0-0.3,0.1-0.6,0.4-0.8c0.2-0.2,0.5-0.3,0.9-0.3H56.5z M53.7,82.5c-0.2,0.3-0.5,0.4-0.8,0.5
		c-0.3,0.1-0.6,0-0.9-0.2c-0.3-0.2-0.4-0.4-0.5-0.7c-0.1-0.3,0-0.6,0.2-0.8l1.4-1.9c0.2-0.3,0.5-0.4,0.8-0.5c0.3-0.1,0.6,0,0.9,0.2
		c0.3,0.2,0.4,0.4,0.5,0.7s0,0.6-0.2,0.8L53.7,82.5z"/>
	<path class="st1" d="M62.4,94.5c0,0.6,0.2,1.2,0.7,1.6s1.3,0.7,2.4,0.7c0.9,0,1.6-0.2,2.1-0.7c0,0,0,0,0,0c0.2-0.2,0.5-0.3,0.9-0.3
		c0.3,0,0.6,0.1,0.9,0.3c0.2,0.2,0.4,0.5,0.4,0.8s-0.1,0.6-0.4,0.8c0,0,0,0,0,0l0,0c-1,0.9-2.2,1.3-3.8,1.3c-1.8,0-3.1-0.4-4.1-1.3
		s-1.4-1.9-1.4-3.2v-6.7c0-1.2,0.5-2.3,1.4-3.2c1-0.9,2.3-1.3,4.1-1.3c1.6,0,2.9,0.4,3.8,1.3l0,0c0,0,0,0,0,0
		c0.2,0.2,0.4,0.5,0.4,0.8s-0.1,0.6-0.4,0.8c-0.2,0.2-0.5,0.3-0.9,0.3c-0.3,0-0.6-0.1-0.9-0.3c0,0,0,0,0,0c-0.5-0.4-1.2-0.7-2.1-0.7
		c-1.1,0-1.9,0.2-2.4,0.7c-0.5,0.4-0.7,1-0.7,1.6V94.5z"/>
	<path class="st1" d="M74.4,97.9c0,0.3-0.1,0.6-0.4,0.8c-0.2,0.2-0.5,0.3-0.9,0.3c-0.3,0-0.6-0.1-0.9-0.3c-0.2-0.2-0.4-0.5-0.4-0.8
		V84.4c0-0.3,0.1-0.6,0.4-0.8c0.2-0.2,0.5-0.3,0.9-0.3c0.3,0,0.6,0.1,0.9,0.3c0.2,0.2,0.4,0.5,0.4,0.8v5.6h4.9v-5.6
		c0-0.3,0.1-0.6,0.4-0.8c0.2-0.2,0.5-0.3,0.9-0.3c0.3,0,0.6,0.1,0.9,0.3c0.2,0.2,0.4,0.5,0.4,0.8v13.5c0,0.3-0.1,0.6-0.4,0.8
		c-0.2,0.2-0.5,0.3-0.9,0.3c-0.3,0-0.6-0.1-0.9-0.3c-0.2-0.2-0.4-0.5-0.4-0.8v-5.6h-4.9V97.9z"/>
	<path class="st1" d="M86.5,96.8l-0.4,1.4c-0.1,0.3-0.3,0.5-0.6,0.7S85,99.1,84.7,99c-0.3-0.1-0.6-0.2-0.8-0.5
		c-0.2-0.3-0.2-0.5-0.2-0.8l3.4-13.4c0.1-0.3,0.3-0.5,0.6-0.7c0.3-0.2,0.6-0.2,0.9-0.2h0.5c0.3,0,0.6,0,0.9,0.2
		c0.3,0.2,0.5,0.4,0.6,0.7L94,97.7c0.1,0.3,0,0.6-0.2,0.8c-0.2,0.3-0.4,0.4-0.8,0.5c-0.3,0.1-0.6,0-0.9-0.1
		c-0.3-0.2-0.5-0.4-0.6-0.7l-0.4-1.4H86.5z M87.1,94.5h3.6l-1.8-7.1L87.1,94.5z"/>
	<path class="st1" d="M98.5,97.9c0,0.3-0.1,0.6-0.4,0.8c-0.2,0.2-0.5,0.3-0.9,0.3c-0.3,0-0.6-0.1-0.9-0.3c-0.2-0.2-0.4-0.5-0.4-0.8
		V84.4c0-0.3,0.1-0.6,0.4-0.8c0.2-0.2,0.5-0.3,0.9-0.3h3.7c1.4,0,2.5,0.4,3.5,1.3c1,0.9,1.4,1.9,1.4,3.2c0,1.2-0.5,2.3-1.4,3.2
		c-0.5,0.5-1.1,0.8-1.7,1l2.9,5.2l0,0c0.2,0.2,0.2,0.4,0.2,0.7c0,0.3-0.1,0.6-0.4,0.8c-0.2,0.2-0.5,0.3-0.9,0.3
		c-0.3,0-0.6-0.1-0.9-0.3c-0.1-0.1-0.2-0.2-0.2-0.3l-3.3-6.1h-1.7V97.9z M98.5,85.6v4.5h2.5c0.7,0,1.3-0.2,1.7-0.7s0.7-1,0.7-1.6
		c0-0.6-0.2-1.2-0.7-1.6c-0.5-0.4-1.1-0.7-1.7-0.7H98.5z"/>
	<path class="st1" d="M114.2,92.3c-0.3,0-0.6-0.1-0.9-0.3c-0.2-0.2-0.4-0.5-0.4-0.8s0.1-0.6,0.4-0.8c0.2-0.2,0.5-0.3,0.9-0.3h2.5
		c0.3,0,0.6,0.1,0.9,0.3c0.2,0.2,0.4,0.5,0.4,0.8v3.4c0,1.2-0.5,2.3-1.4,3.2S114.3,99,113,99s-2.5-0.4-3.5-1.3s-1.4-1.9-1.4-3.2
		v-6.7c0-1.2,0.5-2.3,1.4-3.2c1-0.9,2.3-1.3,4.1-1.3c1.6,0,2.9,0.4,3.8,1.3l0,0c0,0,0,0,0,0c0.2,0.2,0.4,0.5,0.4,0.8
		s-0.1,0.6-0.4,0.8c-0.2,0.2-0.5,0.3-0.9,0.3c-0.3,0-0.6-0.1-0.9-0.3c0,0,0,0,0,0c-0.5-0.4-1.2-0.7-2.1-0.7c-1.1,0-1.9,0.2-2.4,0.7
		c-0.5,0.4-0.7,1-0.7,1.6v6.7c0,0.6,0.2,1.2,0.7,1.6s1.1,0.7,1.7,0.7s1.3-0.2,1.7-0.7s0.7-1,0.7-1.6v-2.2H114.2z"/>
	<path class="st1" d="M128.7,83.3c0.3,0,0.6,0.1,0.9,0.3c0.2,0.2,0.4,0.5,0.4,0.8s-0.1,0.6-0.4,0.8c-0.2,0.2-0.5,0.3-0.9,0.3h-6.1
		v4.5h4.9c0.3,0,0.6,0.1,0.9,0.3c0.2,0.2,0.4,0.5,0.4,0.8s-0.1,0.6-0.4,0.8c-0.2,0.2-0.5,0.3-0.9,0.3h-4.9v4.5h6.1
		c0.3,0,0.6,0.1,0.9,0.3s0.4,0.5,0.4,0.8s-0.1,0.6-0.4,0.8c-0.2,0.2-0.5,0.3-0.9,0.3h-7.4c-0.3,0-0.6-0.1-0.9-0.3
		c-0.2-0.2-0.4-0.5-0.4-0.8V84.4c0-0.3,0.1-0.6,0.4-0.8c0.2-0.2,0.5-0.3,0.9-0.3H128.7z"/>
	<path class="st1" d="M164.8,96.8c0.3,0,0.6,0.1,0.9,0.3c0.2,0.2,0.4,0.5,0.4,0.8s-0.1,0.6-0.4,0.8c-0.2,0.2-0.5,0.3-0.9,0.3h-7.4
		c-0.3,0-0.6-0.1-0.9-0.3c-0.2-0.2-0.4-0.5-0.4-0.8V84.4c0-0.3,0.1-0.6,0.4-0.8c0.2-0.2,0.5-0.3,0.9-0.3s0.6,0.1,0.9,0.3
		c0.2,0.2,0.4,0.5,0.4,0.8v12.4H164.8z"/>
	<path class="st1" d="M176.9,83.3c0.3,0,0.6,0.1,0.9,0.3c0.2,0.2,0.4,0.5,0.4,0.8s-0.1,0.6-0.4,0.8c-0.2,0.2-0.5,0.3-0.9,0.3h-6.1
		v4.5h4.9c0.3,0,0.6,0.1,0.9,0.3c0.2,0.2,0.4,0.5,0.4,0.8s-0.1,0.6-0.4,0.8c-0.2,0.2-0.5,0.3-0.9,0.3h-4.9v4.5h6.1
		c0.3,0,0.6,0.1,0.9,0.3c0.2,0.2,0.4,0.5,0.4,0.8s-0.1,0.6-0.4,0.8c-0.2,0.2-0.5,0.3-0.9,0.3h-7.4c-0.3,0-0.6-0.1-0.9-0.3
		c-0.2-0.2-0.4-0.5-0.4-0.8V84.4c0-0.3,0.1-0.6,0.4-0.8c0.2-0.2,0.5-0.3,0.9-0.3H176.9z"/>
	<path class="st1" d="M190.2,94.5c0,1.2-0.5,2.3-1.4,3.2s-2.3,1.3-4.1,1.3c-1.6,0-2.9-0.4-3.8-1.3l0,0c0,0,0,0,0,0
		c-0.2-0.2-0.4-0.5-0.4-0.8s0.1-0.6,0.4-0.8c0.2-0.2,0.5-0.3,0.9-0.3s0.6,0.1,0.9,0.3c0,0,0,0,0,0c0.5,0.4,1.2,0.7,2.1,0.7
		c1.1,0,1.9-0.2,2.4-0.7s0.7-1,0.7-1.6c0-0.6-0.2-1.2-0.7-1.6c-0.5-0.4-1.1-0.7-1.7-0.7c-1.4,0-2.5-0.4-3.5-1.3s-1.4-1.9-1.4-3.2
		c0-1.2,0.5-2.3,1.4-3.2c1-0.9,2.3-1.3,4.1-1.3c1.6,0,2.9,0.4,3.8,1.3l0,0c0,0,0,0,0,0c0.2,0.2,0.4,0.5,0.4,0.8s-0.1,0.6-0.4,0.8
		c-0.2,0.2-0.5,0.3-0.9,0.3s-0.6-0.1-0.9-0.3c0,0,0,0,0,0c-0.5-0.4-1.2-0.7-2.1-0.7c-1.1,0-1.9,0.2-2.4,0.7c-0.5,0.4-0.7,1-0.7,1.6
		c0,0.6,0.2,1.2,0.7,1.6s1.1,0.7,1.7,0.7c1.4,0,2.5,0.4,3.5,1.3C189.7,92.2,190.2,93.3,190.2,94.5z"/>
	<path class="st1" d="M206.9,97.9c0,0.3-0.1,0.6-0.4,0.8c-0.2,0.2-0.5,0.3-0.9,0.3s-0.6-0.1-0.9-0.3c-0.2-0.2-0.4-0.5-0.4-0.8V84.4
		c0-0.3,0.1-0.6,0.4-0.8c0.2-0.2,0.5-0.3,0.9-0.3h3.7c1.4,0,2.5,0.4,3.5,1.3c1,0.9,1.4,1.9,1.4,3.2c0,1.2-0.5,2.3-1.4,3.2
		c-0.5,0.5-1.1,0.8-1.7,1l2.9,5.2l0,0c0.2,0.2,0.2,0.4,0.2,0.7c0,0.3-0.1,0.6-0.4,0.8c-0.2,0.2-0.5,0.3-0.9,0.3s-0.6-0.1-0.9-0.3
		c-0.1-0.1-0.2-0.2-0.2-0.3l-3.3-6.1h-1.7V97.9z M206.9,85.6v4.5h2.5c0.7,0,1.3-0.2,1.7-0.7s0.7-1,0.7-1.6c0-0.6-0.2-1.2-0.7-1.6
		c-0.5-0.4-1.1-0.7-1.7-0.7H206.9z"/>
	<path class="st1" d="M225,83.3c0.3,0,0.6,0.1,0.9,0.3c0.2,0.2,0.4,0.5,0.4,0.8s-0.1,0.6-0.4,0.8c-0.2,0.2-0.5,0.3-0.9,0.3h-6.1v4.5
		h4.9c0.3,0,0.6,0.1,0.9,0.3c0.2,0.2,0.4,0.5,0.4,0.8s-0.1,0.6-0.4,0.8c-0.2,0.2-0.5,0.3-0.9,0.3h-4.9v4.5h6.1
		c0.3,0,0.6,0.1,0.9,0.3c0.2,0.2,0.4,0.5,0.4,0.8s-0.1,0.6-0.4,0.8c-0.2,0.2-0.5,0.3-0.9,0.3h-7.4c-0.3,0-0.6-0.1-0.9-0.3
		c-0.2-0.2-0.4-0.5-0.4-0.8V84.4c0-0.3,0.1-0.6,0.4-0.8c0.2-0.2,0.5-0.3,0.9-0.3H225z"/>
	<path class="st1" d="M238.3,94.5c0,1.2-0.5,2.3-1.4,3.2s-2.3,1.3-4.1,1.3c-1.6,0-2.9-0.4-3.8-1.3l0,0c0,0,0,0,0,0
		c-0.2-0.2-0.4-0.5-0.4-0.8s0.1-0.6,0.4-0.8c0.2-0.2,0.5-0.3,0.9-0.3s0.6,0.1,0.9,0.3c0,0,0,0,0,0c0.5,0.4,1.2,0.7,2.1,0.7
		c1.1,0,1.9-0.2,2.4-0.7s0.7-1,0.7-1.6c0-0.6-0.2-1.2-0.7-1.6c-0.5-0.4-1.1-0.7-1.7-0.7c-1.4,0-2.5-0.4-3.5-1.3s-1.4-1.9-1.4-3.2
		c0-1.2,0.5-2.3,1.4-3.2c1-0.9,2.3-1.3,4.1-1.3c1.6,0,2.9,0.4,3.8,1.3l0,0c0,0,0,0,0,0c0.2,0.2,0.4,0.5,0.4,0.8s-0.1,0.6-0.4,0.8
		c-0.2,0.2-0.5,0.3-0.9,0.3s-0.6-0.1-0.9-0.3c0,0,0,0,0,0c-0.5-0.4-1.2-0.7-2.1-0.7c-1.1,0-1.9,0.2-2.4,0.7c-0.5,0.4-0.7,1-0.7,1.6
		c0,0.6,0.2,1.2,0.7,1.6s1.1,0.7,1.7,0.7c1.4,0,2.5,0.4,3.5,1.3C237.8,92.2,238.3,93.3,238.3,94.5z"/>
	<path class="st1" d="M250.4,94.5c0,1.2-0.5,2.3-1.4,3.2s-2.3,1.3-4.1,1.3c-1.6,0-2.9-0.4-3.8-1.3l0,0c0,0,0,0,0,0
		c-0.2-0.2-0.4-0.5-0.4-0.8s0.1-0.6,0.4-0.8c0.2-0.2,0.5-0.3,0.9-0.3s0.6,0.1,0.9,0.3c0,0,0,0,0,0c0.5,0.4,1.2,0.7,2.1,0.7
		c1.1,0,1.9-0.2,2.4-0.7s0.7-1,0.7-1.6c0-0.6-0.2-1.2-0.7-1.6c-0.5-0.4-1.1-0.7-1.7-0.7c-1.4,0-2.5-0.4-3.5-1.3s-1.4-1.9-1.4-3.2
		c0-1.2,0.5-2.3,1.4-3.2c1-0.9,2.3-1.3,4.1-1.3c1.6,0,2.9,0.4,3.8,1.3l0,0c0,0,0,0,0,0c0.2,0.2,0.4,0.5,0.4,0.8s-0.1,0.6-0.4,0.8
		c-0.2,0.2-0.5,0.3-0.9,0.3s-0.6-0.1-0.9-0.3c0,0,0,0,0,0c-0.5-0.4-1.2-0.7-2.1-0.7c-1.1,0-1.9,0.2-2.4,0.7c-0.5,0.4-0.7,1-0.7,1.6
		c0,0.6,0.2,1.2,0.7,1.6s1.1,0.7,1.7,0.7c1.4,0,2.5,0.4,3.5,1.3C249.9,92.2,250.4,93.3,250.4,94.5z"/>
	<path class="st1" d="M252.6,87.8c0-1.2,0.5-2.3,1.4-3.2c1-0.9,2.1-1.3,3.5-1.3c1.4,0,2.5,0.4,3.5,1.3c1,0.9,1.4,1.9,1.4,3.2v6.7
		c0,1.2-0.5,2.3-1.4,3.2s-2.1,1.3-3.5,1.3c-1.4,0-2.5-0.4-3.5-1.3s-1.4-1.9-1.4-3.2V87.8z M259.9,87.8c0-0.6-0.2-1.2-0.7-1.6
		c-0.5-0.4-1.1-0.7-1.7-0.7c-0.7,0-1.3,0.2-1.7,0.7c-0.5,0.4-0.7,1-0.7,1.6v6.7c0,0.6,0.2,1.2,0.7,1.6s1.1,0.7,1.7,0.7
		c0.7,0,1.3-0.2,1.7-0.7s0.7-1,0.7-1.6V87.8z"/>
	<path class="st1" d="M272,84.4c0-0.3,0.1-0.6,0.4-0.8c0.2-0.2,0.5-0.3,0.9-0.3s0.6,0.1,0.9,0.3c0.2,0.2,0.4,0.5,0.4,0.8v10.1
		c0,1.2-0.5,2.3-1.4,3.2s-2.1,1.3-3.5,1.3c-1.4,0-2.5-0.4-3.5-1.3s-1.4-1.9-1.4-3.2V84.4c0-0.3,0.1-0.6,0.4-0.8
		c0.2-0.2,0.5-0.3,0.9-0.3s0.6,0.1,0.9,0.3c0.2,0.2,0.4,0.5,0.4,0.8v10.1c0,0.6,0.2,1.2,0.7,1.6s1.1,0.7,1.7,0.7
		c0.7,0,1.3-0.2,1.7-0.7s0.7-1,0.7-1.6V84.4z"/>
	<path class="st1" d="M279.1,97.9c0,0.3-0.1,0.6-0.4,0.8c-0.2,0.2-0.5,0.3-0.9,0.3s-0.6-0.1-0.9-0.3c-0.2-0.2-0.4-0.5-0.4-0.8V84.4
		c0-0.3,0.1-0.6,0.4-0.8c0.2-0.2,0.5-0.3,0.9-0.3h3.7c1.4,0,2.5,0.4,3.5,1.3c1,0.9,1.4,1.9,1.4,3.2c0,1.2-0.5,2.3-1.4,3.2
		c-0.5,0.5-1.1,0.8-1.7,1l2.9,5.2l0,0c0.2,0.2,0.2,0.4,0.2,0.7c0,0.3-0.1,0.6-0.4,0.8c-0.2,0.2-0.5,0.3-0.9,0.3s-0.6-0.1-0.9-0.3
		c-0.1-0.1-0.2-0.2-0.2-0.3l-3.3-6.1h-1.7V97.9z M279.1,85.6v4.5h2.5c0.7,0,1.3-0.2,1.7-0.7s0.7-1,0.7-1.6c0-0.6-0.2-1.2-0.7-1.6
		c-0.5-0.4-1.1-0.7-1.7-0.7H279.1z"/>
	<path class="st1" d="M291.2,94.5c0,0.6,0.2,1.2,0.7,1.6s1.3,0.7,2.4,0.7c0.9,0,1.6-0.2,2.1-0.7c0,0,0,0,0,0
		c0.2-0.2,0.5-0.3,0.9-0.3s0.6,0.1,0.9,0.3c0.2,0.2,0.4,0.5,0.4,0.8s-0.1,0.6-0.4,0.8c0,0,0,0,0,0l0,0c-1,0.9-2.2,1.3-3.8,1.3
		c-1.8,0-3.1-0.4-4.1-1.3s-1.4-1.9-1.4-3.2v-6.7c0-1.2,0.5-2.3,1.4-3.2c1-0.9,2.3-1.3,4.1-1.3c1.6,0,2.9,0.4,3.8,1.3l0,0
		c0,0,0,0,0,0c0.2,0.2,0.4,0.5,0.4,0.8s-0.1,0.6-0.4,0.8c-0.2,0.2-0.5,0.3-0.9,0.3s-0.6-0.1-0.9-0.3c0,0,0,0,0,0
		c-0.5-0.4-1.2-0.7-2.1-0.7c-1.1,0-1.9,0.2-2.4,0.7c-0.5,0.4-0.7,1-0.7,1.6V94.5z"/>
	<path class="st1" d="M309.3,83.3c0.3,0,0.6,0.1,0.9,0.3c0.2,0.2,0.4,0.5,0.4,0.8s-0.1,0.6-0.4,0.8c-0.2,0.2-0.5,0.3-0.9,0.3h-6.1
		v4.5h4.9c0.3,0,0.6,0.1,0.9,0.3c0.2,0.2,0.4,0.5,0.4,0.8s-0.1,0.6-0.4,0.8c-0.2,0.2-0.5,0.3-0.9,0.3h-4.9v4.5h6.1
		c0.3,0,0.6,0.1,0.9,0.3c0.2,0.2,0.4,0.5,0.4,0.8s-0.1,0.6-0.4,0.8c-0.2,0.2-0.5,0.3-0.9,0.3H302c-0.3,0-0.6-0.1-0.9-0.3
		c-0.2-0.2-0.4-0.5-0.4-0.8V84.4c0-0.3,0.1-0.6,0.4-0.8c0.2-0.2,0.5-0.3,0.9-0.3H309.3z"/>
	<path class="st1" d="M322.6,94.5c0,1.2-0.5,2.3-1.4,3.2s-2.3,1.3-4.1,1.3c-1.6,0-2.9-0.4-3.8-1.3l0,0c0,0,0,0,0,0
		c-0.2-0.2-0.4-0.5-0.4-0.8s0.1-0.6,0.4-0.8c0.2-0.2,0.5-0.3,0.9-0.3s0.6,0.1,0.9,0.3c0,0,0,0,0,0c0.5,0.4,1.2,0.7,2.1,0.7
		c1.1,0,1.9-0.2,2.4-0.7s0.7-1,0.7-1.6c0-0.6-0.2-1.2-0.7-1.6c-0.5-0.4-1.1-0.7-1.7-0.7c-1.4,0-2.5-0.4-3.5-1.3s-1.4-1.9-1.4-3.2
		c0-1.2,0.5-2.3,1.4-3.2c1-0.9,2.3-1.3,4.1-1.3c1.6,0,2.9,0.4,3.8,1.3l0,0c0,0,0,0,0,0c0.2,0.2,0.4,0.5,0.4,0.8s-0.1,0.6-0.4,0.8
		c-0.2,0.2-0.5,0.3-0.9,0.3s-0.6-0.1-0.9-0.3c0,0,0,0,0,0c-0.5-0.4-1.2-0.7-2.1-0.7c-1.1,0-1.9,0.2-2.4,0.7c-0.5,0.4-0.7,1-0.7,1.6
		c0,0.6,0.2,1.2,0.7,1.6s1.1,0.7,1.7,0.7c1.4,0,2.5,0.4,3.5,1.3C322.1,92.2,322.6,93.3,322.6,94.5z"/>
	<path class="st1" d="M14.2,122.9c0,0.3-0.1,0.6-0.4,0.8c-0.2,0.2-0.5,0.3-0.9,0.3c-0.3,0-0.6-0.1-0.9-0.3c-0.2-0.2-0.4-0.5-0.4-0.8
		v-13.5c0-0.3,0.1-0.6,0.4-0.8c0.2-0.2,0.5-0.3,0.9-0.3h3.7c1.4,0,2.5,0.4,3.5,1.3c1,0.9,1.4,1.9,1.4,3.2c0,1.2-0.5,2.3-1.4,3.2
		s-2.1,1.3-3.5,1.3h-2.5V122.9z M14.2,110.6v4.5h2.5c0.7,0,1.3-0.2,1.7-0.7s0.7-1,0.7-1.6c0-0.6-0.2-1.2-0.7-1.6
		c-0.5-0.4-1.1-0.7-1.7-0.7H14.2z"/>
	<path class="st1" d="M23.8,112.8c0-1.2,0.5-2.3,1.4-3.2c1-0.9,2.1-1.3,3.5-1.3s2.5,0.4,3.5,1.3c1,0.9,1.4,1.9,1.4,3.2v6.7
		c0,1.2-0.5,2.3-1.4,3.2S30,124,28.7,124s-2.5-0.4-3.5-1.3s-1.4-1.9-1.4-3.2V112.8z M31.1,112.8c0-0.6-0.2-1.2-0.7-1.6
		c-0.5-0.4-1.1-0.7-1.7-0.7s-1.3,0.2-1.7,0.7c-0.5,0.4-0.7,1-0.7,1.6v6.7c0,0.6,0.2,1.2,0.7,1.6s1.1,0.7,1.7,0.7s1.3-0.2,1.7-0.7
		s0.7-1,0.7-1.6V112.8z"/>
	<path class="st1" d="M43.2,109.4c0-0.3,0.1-0.6,0.4-0.8c0.2-0.2,0.5-0.3,0.9-0.3c0.3,0,0.6,0.1,0.9,0.3c0.2,0.2,0.4,0.5,0.4,0.8
		v10.1c0,1.2-0.5,2.3-1.4,3.2s-2.1,1.3-3.5,1.3s-2.5-0.4-3.5-1.3s-1.4-1.9-1.4-3.2v-10.1c0-0.3,0.1-0.6,0.4-0.8
		c0.2-0.2,0.5-0.3,0.9-0.3c0.3,0,0.6,0.1,0.9,0.3c0.2,0.2,0.4,0.5,0.4,0.8v10.1c0,0.6,0.2,1.2,0.7,1.6s1.1,0.7,1.7,0.7
		s1.3-0.2,1.7-0.7s0.7-1,0.7-1.6V109.4z"/>
	<path class="st1" d="M50.3,122.9c0,0.3-0.1,0.6-0.4,0.8c-0.2,0.2-0.5,0.3-0.9,0.3c-0.3,0-0.6-0.1-0.9-0.3c-0.2-0.2-0.4-0.5-0.4-0.8
		v-13.5c0-0.3,0.1-0.6,0.4-0.8c0.2-0.2,0.5-0.3,0.9-0.3h3.7c1.4,0,2.5,0.4,3.5,1.3c1,0.9,1.4,1.9,1.4,3.2c0,1.2-0.5,2.3-1.4,3.2
		c-0.5,0.5-1.1,0.8-1.7,1l2.9,5.2l0,0c0.2,0.2,0.2,0.4,0.2,0.7c0,0.3-0.1,0.6-0.4,0.8c-0.2,0.2-0.5,0.3-0.9,0.3
		c-0.3,0-0.6-0.1-0.9-0.3c-0.1-0.1-0.2-0.2-0.2-0.3l-3.3-6.1h-1.7V122.9z M50.3,110.6v4.5h2.5c0.7,0,1.3-0.2,1.7-0.7s0.7-1,0.7-1.6
		c0-0.6-0.2-1.2-0.7-1.6c-0.5-0.4-1.1-0.7-1.7-0.7H50.3z"/>
	<path class="st1" d="M74.4,119.5c0,0.6,0.2,1.2,0.7,1.6s1.3,0.7,2.4,0.7c0.9,0,1.6-0.2,2.1-0.7c0,0,0,0,0,0
		c0.2-0.2,0.5-0.3,0.9-0.3c0.3,0,0.6,0.1,0.9,0.3c0.2,0.2,0.4,0.5,0.4,0.8s-0.1,0.6-0.4,0.8c0,0,0,0,0,0l0,0c-1,0.9-2.2,1.3-3.8,1.3
		c-1.8,0-3.1-0.4-4.1-1.3s-1.4-1.9-1.4-3.2v-6.7c0-1.2,0.5-2.3,1.4-3.2c1-0.9,2.3-1.3,4.1-1.3c1.6,0,2.9,0.4,3.8,1.3l0,0
		c0,0,0,0,0,0c0.2,0.2,0.4,0.5,0.4,0.8s-0.1,0.6-0.4,0.8c-0.2,0.2-0.5,0.3-0.9,0.3c-0.3,0-0.6-0.1-0.9-0.3c0,0,0,0,0,0
		c-0.5-0.4-1.2-0.7-2.1-0.7c-1.1,0-1.9,0.2-2.4,0.7c-0.5,0.4-0.7,1-0.7,1.6V119.5z"/>
	<path class="st1" d="M86.4,122.9c0,0.3-0.1,0.6-0.4,0.8c-0.2,0.2-0.5,0.3-0.9,0.3c-0.3,0-0.6-0.1-0.9-0.3c-0.2-0.2-0.4-0.5-0.4-0.8
		v-13.5c0-0.3,0.1-0.6,0.4-0.8c0.2-0.2,0.5-0.3,0.9-0.3h3.7c1.4,0,2.5,0.4,3.5,1.3c1,0.9,1.4,1.9,1.4,3.2c0,1.2-0.5,2.3-1.4,3.2
		c-0.5,0.5-1.1,0.8-1.7,1l2.9,5.2l0,0c0.2,0.2,0.2,0.4,0.2,0.7c0,0.3-0.1,0.6-0.4,0.8c-0.2,0.2-0.5,0.3-0.9,0.3
		c-0.3,0-0.6-0.1-0.9-0.3c-0.1-0.1-0.2-0.2-0.2-0.3l-3.3-6.1h-1.7V122.9z M86.4,110.6v4.5h2.5c0.7,0,1.3-0.2,1.7-0.7s0.7-1,0.7-1.6
		c0-0.6-0.2-1.2-0.7-1.6c-0.5-0.4-1.1-0.7-1.7-0.7H86.4z"/>
	<path class="st1" d="M104.6,108.3c0.3,0,0.6,0.1,0.9,0.3c0.2,0.2,0.4,0.5,0.4,0.8s-0.1,0.6-0.4,0.8c-0.2,0.2-0.5,0.3-0.9,0.3h-6.1
		v4.5h4.9c0.3,0,0.6,0.1,0.9,0.3c0.2,0.2,0.4,0.5,0.4,0.8s-0.1,0.6-0.4,0.8c-0.2,0.2-0.5,0.3-0.9,0.3h-4.9v4.5h6.1
		c0.3,0,0.6,0.1,0.9,0.3s0.4,0.5,0.4,0.8s-0.1,0.6-0.4,0.8c-0.2,0.2-0.5,0.3-0.9,0.3h-7.4c-0.3,0-0.6-0.1-0.9-0.3
		c-0.2-0.2-0.4-0.5-0.4-0.8v-13.5c0-0.3,0.1-0.6,0.4-0.8c0.2-0.2,0.5-0.3,0.9-0.3H104.6z M101.9,107.5c-0.2,0.3-0.5,0.4-0.8,0.5
		c-0.3,0.1-0.6,0-0.9-0.2c-0.3-0.2-0.4-0.4-0.5-0.7c-0.1-0.3,0-0.6,0.2-0.8l1.4-1.9c0.2-0.3,0.5-0.4,0.8-0.5c0.3-0.1,0.6,0,0.9,0.2
		c0.3,0.2,0.4,0.4,0.5,0.7s0,0.6-0.2,0.8L101.9,107.5z"/>
	<path class="st1" d="M116.7,108.3c0.3,0,0.6,0.1,0.9,0.3c0.2,0.2,0.4,0.5,0.4,0.8s-0.1,0.6-0.4,0.8c-0.2,0.2-0.5,0.3-0.9,0.3h-6.1
		v4.5h4.9c0.3,0,0.6,0.1,0.9,0.3c0.2,0.2,0.4,0.5,0.4,0.8s-0.1,0.6-0.4,0.8c-0.2,0.2-0.5,0.3-0.9,0.3h-4.9v4.5h6.1
		c0.3,0,0.6,0.1,0.9,0.3s0.4,0.5,0.4,0.8s-0.1,0.6-0.4,0.8c-0.2,0.2-0.5,0.3-0.9,0.3h-7.4c-0.3,0-0.6-0.1-0.9-0.3
		c-0.2-0.2-0.4-0.5-0.4-0.8v-13.5c0-0.3,0.1-0.6,0.4-0.8c0.2-0.2,0.5-0.3,0.9-0.3H116.7z"/>
	<path class="st1" d="M122.6,122.9c0,0.3-0.1,0.6-0.4,0.8c-0.2,0.2-0.5,0.3-0.9,0.3c-0.3,0-0.6-0.1-0.9-0.3
		c-0.2-0.2-0.4-0.5-0.4-0.8v-13.5c0-0.3,0.1-0.6,0.4-0.8c0.2-0.2,0.5-0.3,0.9-0.3h3.7c1.4,0,2.5,0.4,3.5,1.3c1,0.9,1.4,1.9,1.4,3.2
		c0,1.2-0.5,2.3-1.4,3.2c-0.5,0.5-1.1,0.8-1.7,1l2.9,5.2l0,0c0.2,0.2,0.2,0.4,0.2,0.7c0,0.3-0.1,0.6-0.4,0.8
		c-0.2,0.2-0.5,0.3-0.9,0.3c-0.3,0-0.6-0.1-0.9-0.3c-0.1-0.1-0.2-0.2-0.2-0.3l-3.3-6.1h-1.7V122.9z M122.6,110.6v4.5h2.5
		c0.7,0,1.3-0.2,1.7-0.7s0.7-1,0.7-1.6c0-0.6-0.2-1.2-0.7-1.6c-0.5-0.4-1.1-0.7-1.7-0.7H122.6z"/>
	<path class="st1" d="M151.8,109.2c0.1-0.3,0.3-0.5,0.6-0.7c0.3-0.2,0.6-0.2,0.9-0.1c0.3,0.1,0.6,0.2,0.8,0.5
		c0.2,0.3,0.2,0.5,0.2,0.8l-3.4,13.4c-0.1,0.3-0.3,0.5-0.6,0.7s-0.6,0.2-0.9,0.2h-0.5c-0.3,0-0.6,0-0.9-0.2s-0.5-0.4-0.6-0.7
		l-3.4-13.4c-0.1-0.3,0-0.6,0.2-0.8c0.2-0.3,0.4-0.4,0.8-0.5c0.3-0.1,0.6,0,0.9,0.1c0.3,0.2,0.5,0.4,0.6,0.7l2.7,10.8L151.8,109.2z"
		/>
	<path class="st1" d="M156.2,112.8c0-1.2,0.5-2.3,1.4-3.2c1-0.9,2.1-1.3,3.5-1.3c1.4,0,2.5,0.4,3.5,1.3c1,0.9,1.4,1.9,1.4,3.2v6.7
		c0,1.2-0.5,2.3-1.4,3.2s-2.1,1.3-3.5,1.3c-1.4,0-2.5-0.4-3.5-1.3s-1.4-1.9-1.4-3.2V112.8z M163.6,112.8c0-0.6-0.2-1.2-0.7-1.6
		c-0.5-0.4-1.1-0.7-1.7-0.7c-0.7,0-1.3,0.2-1.7,0.7c-0.5,0.4-0.7,1-0.7,1.6v6.7c0,0.6,0.2,1.2,0.7,1.6s1.1,0.7,1.7,0.7
		c0.7,0,1.3-0.2,1.7-0.7s0.7-1,0.7-1.6V112.8z"/>
	<path class="st1" d="M176.9,108.3c0.3,0,0.6,0.1,0.9,0.3c0.2,0.2,0.4,0.5,0.4,0.8s-0.1,0.6-0.4,0.8c-0.2,0.2-0.5,0.3-0.9,0.3h-2.5
		v12.4c0,0.3-0.1,0.6-0.4,0.8c-0.2,0.2-0.5,0.3-0.9,0.3c-0.3,0-0.6-0.1-0.9-0.3c-0.2-0.2-0.4-0.5-0.4-0.8v-12.4h-2.5
		c-0.3,0-0.6-0.1-0.9-0.3c-0.2-0.2-0.4-0.5-0.4-0.8s0.1-0.6,0.4-0.8c0.2-0.2,0.5-0.3,0.9-0.3H176.9z"/>
	<path class="st1" d="M182.8,122.9c0,0.3-0.1,0.6-0.4,0.8c-0.2,0.2-0.5,0.3-0.9,0.3s-0.6-0.1-0.9-0.3c-0.2-0.2-0.4-0.5-0.4-0.8
		v-13.5c0-0.3,0.1-0.6,0.4-0.8c0.2-0.2,0.5-0.3,0.9-0.3h3.7c1.4,0,2.5,0.4,3.5,1.3c1,0.9,1.4,1.9,1.4,3.2c0,1.2-0.5,2.3-1.4,3.2
		c-0.5,0.5-1.1,0.8-1.7,1l2.9,5.2l0,0c0.2,0.2,0.2,0.4,0.2,0.7c0,0.3-0.1,0.6-0.4,0.8c-0.2,0.2-0.5,0.3-0.9,0.3s-0.6-0.1-0.9-0.3
		c-0.1-0.1-0.2-0.2-0.2-0.3l-3.3-6.1h-1.7V122.9z M182.8,110.6v4.5h2.5c0.7,0,1.3-0.2,1.7-0.7s0.7-1,0.7-1.6c0-0.6-0.2-1.2-0.7-1.6
		c-0.5-0.4-1.1-0.7-1.7-0.7H182.8z"/>
	<path class="st1" d="M201,108.3c0.3,0,0.6,0.1,0.9,0.3c0.2,0.2,0.4,0.5,0.4,0.8s-0.1,0.6-0.4,0.8c-0.2,0.2-0.5,0.3-0.9,0.3h-6.1
		v4.5h4.9c0.3,0,0.6,0.1,0.9,0.3c0.2,0.2,0.4,0.5,0.4,0.8s-0.1,0.6-0.4,0.8c-0.2,0.2-0.5,0.3-0.9,0.3h-4.9v4.5h6.1
		c0.3,0,0.6,0.1,0.9,0.3c0.2,0.2,0.4,0.5,0.4,0.8s-0.1,0.6-0.4,0.8c-0.2,0.2-0.5,0.3-0.9,0.3h-7.4c-0.3,0-0.6-0.1-0.9-0.3
		c-0.2-0.2-0.4-0.5-0.4-0.8v-13.5c0-0.3,0.1-0.6,0.4-0.8c0.2-0.2,0.5-0.3,0.9-0.3H201z"/>
	<path class="st1" d="M225,108.3c0.3,0,0.6,0.1,0.9,0.3c0.2,0.2,0.4,0.5,0.4,0.8s-0.1,0.6-0.4,0.8c-0.2,0.2-0.5,0.3-0.9,0.3h-2.5
		v12.4c0,0.3-0.1,0.6-0.4,0.8c-0.2,0.2-0.5,0.3-0.9,0.3c-0.3,0-0.6-0.1-0.9-0.3c-0.2-0.2-0.4-0.5-0.4-0.8v-12.4h-2.5
		c-0.3,0-0.6-0.1-0.9-0.3c-0.2-0.2-0.4-0.5-0.4-0.8s0.1-0.6,0.4-0.8c0.2-0.2,0.5-0.3,0.9-0.3H225z"/>
	<path class="st1" d="M237.1,108.3c0.3,0,0.6,0.1,0.9,0.3c0.2,0.2,0.4,0.5,0.4,0.8s-0.1,0.6-0.4,0.8c-0.2,0.2-0.5,0.3-0.9,0.3h-6.1
		v4.5h4.9c0.3,0,0.6,0.1,0.9,0.3c0.2,0.2,0.4,0.5,0.4,0.8s-0.1,0.6-0.4,0.8c-0.2,0.2-0.5,0.3-0.9,0.3h-4.9v4.5h6.1
		c0.3,0,0.6,0.1,0.9,0.3c0.2,0.2,0.4,0.5,0.4,0.8s-0.1,0.6-0.4,0.8c-0.2,0.2-0.5,0.3-0.9,0.3h-7.4c-0.3,0-0.6-0.1-0.9-0.3
		c-0.2-0.2-0.4-0.5-0.4-0.8v-13.5c0-0.3,0.1-0.6,0.4-0.8c0.2-0.2,0.5-0.3,0.9-0.3H237.1z"/>
	<path class="st1" d="M243,122.9c0,0.3-0.1,0.6-0.4,0.8c-0.2,0.2-0.5,0.3-0.9,0.3s-0.6-0.1-0.9-0.3c-0.2-0.2-0.4-0.5-0.4-0.8v-13.5
		c0-0.3,0.1-0.6,0.4-0.8c0.2-0.2,0.5-0.3,0.9-0.3s0.6,0.1,0.9,0.3c0.1,0.1,0.2,0.2,0.2,0.3l2.6,4.7l2.6-4.7c0.1-0.1,0.1-0.2,0.2-0.3
		c0.2-0.2,0.5-0.3,0.9-0.3s0.6,0.1,0.9,0.3c0.2,0.2,0.4,0.5,0.4,0.8v13.5c0,0.3-0.1,0.6-0.4,0.8c-0.2,0.2-0.5,0.3-0.9,0.3
		s-0.6-0.1-0.9-0.3c-0.2-0.2-0.4-0.5-0.4-0.8v-8.7l-1.1,2l-1.4,2.5l-1.4-2.5l-1.1-2V122.9z"/>
	<path class="st1" d="M255,122.9c0,0.3-0.1,0.6-0.4,0.8c-0.2,0.2-0.5,0.3-0.9,0.3s-0.6-0.1-0.9-0.3c-0.2-0.2-0.4-0.5-0.4-0.8v-13.5
		c0-0.3,0.1-0.6,0.4-0.8c0.2-0.2,0.5-0.3,0.9-0.3h3.7c1.4,0,2.5,0.4,3.5,1.3c1,0.9,1.4,1.9,1.4,3.2c0,1.2-0.5,2.3-1.4,3.2
		s-2.1,1.3-3.5,1.3H255V122.9z M255,110.6v4.5h2.5c0.7,0,1.3-0.2,1.7-0.7s0.7-1,0.7-1.6c0-0.6-0.2-1.2-0.7-1.6
		c-0.5-0.4-1.1-0.7-1.7-0.7H255z"/>
	<path class="st1" d="M273.2,121.8c0.3,0,0.6,0.1,0.9,0.3c0.2,0.2,0.4,0.5,0.4,0.8s-0.1,0.6-0.4,0.8c-0.2,0.2-0.5,0.3-0.9,0.3h-7.4
		c-0.3,0-0.6-0.1-0.9-0.3c-0.2-0.2-0.4-0.5-0.4-0.8v-13.5c0-0.3,0.1-0.6,0.4-0.8c0.2-0.2,0.5-0.3,0.9-0.3s0.6,0.1,0.9,0.3
		c0.2,0.2,0.4,0.5,0.4,0.8v12.4H273.2z"/>
	<path class="st1" d="M279.2,121.8l-0.4,1.4c-0.1,0.3-0.3,0.5-0.6,0.7s-0.6,0.2-0.9,0.1c-0.3-0.1-0.6-0.2-0.8-0.5
		c-0.2-0.3-0.2-0.5-0.2-0.8l3.4-13.4c0.1-0.3,0.3-0.5,0.6-0.7c0.3-0.2,0.6-0.2,0.9-0.2h0.5c0.3,0,0.6,0,0.9,0.2
		c0.3,0.2,0.5,0.4,0.6,0.7l3.4,13.4c0.1,0.3,0,0.6-0.2,0.8c-0.2,0.3-0.4,0.4-0.8,0.5c-0.3,0.1-0.6,0-0.9-0.1s-0.5-0.4-0.6-0.7
		l-0.4-1.4H279.2z M279.8,119.5h3.6l-1.8-7.1L279.8,119.5z"/>
	<path class="st1" d="M297.3,108.3c0.3,0,0.6,0.1,0.9,0.3c0.2,0.2,0.4,0.5,0.4,0.8s-0.1,0.6-0.4,0.8c-0.2,0.2-0.5,0.3-0.9,0.3h-2.5
		v12.4c0,0.3-0.1,0.6-0.4,0.8c-0.2,0.2-0.5,0.3-0.9,0.3c-0.3,0-0.6-0.1-0.9-0.3c-0.2-0.2-0.4-0.5-0.4-0.8v-12.4h-2.5
		c-0.3,0-0.6-0.1-0.9-0.3c-0.2-0.2-0.4-0.5-0.4-0.8s0.1-0.6,0.4-0.8c0.2-0.2,0.5-0.3,0.9-0.3H297.3z"/>
	<path class="st1" d="M309.3,108.3c0.3,0,0.6,0.1,0.9,0.3c0.2,0.2,0.4,0.5,0.4,0.8s-0.1,0.6-0.4,0.8c-0.2,0.2-0.5,0.3-0.9,0.3h-6.1
		v4.5h4.9c0.3,0,0.6,0.1,0.9,0.3c0.2,0.2,0.4,0.5,0.4,0.8s-0.1,0.6-0.4,0.8c-0.2,0.2-0.5,0.3-0.9,0.3h-4.9v4.5h6.1
		c0.3,0,0.6,0.1,0.9,0.3c0.2,0.2,0.4,0.5,0.4,0.8s-0.1,0.6-0.4,0.8c-0.2,0.2-0.5,0.3-0.9,0.3H302c-0.3,0-0.6-0.1-0.9-0.3
		c-0.2-0.2-0.4-0.5-0.4-0.8v-13.5c0-0.3,0.1-0.6,0.4-0.8c0.2-0.2,0.5-0.3,0.9-0.3H309.3z"/>
</g>
<g>
	<path class="st2" d="M20.3,49.1c1.2-0.2,2.2,0,3.1,0.6c0.8,0.6,1.3,1.4,1.3,2.5v5.8c0,1.1-0.4,2-1.3,2.9c-0.8,0.9-1.9,1.4-3.1,1.6
		L17,63.1c-0.3,0.1-0.6,0-0.8-0.2c-0.2-0.2-0.3-0.4-0.3-0.6V50.8c0-0.3,0.1-0.5,0.3-0.7c0.2-0.2,0.5-0.4,0.8-0.4L20.3,49.1z
		 M22.4,52.5c0-0.5-0.2-1-0.6-1.3s-0.9-0.4-1.5-0.3l-2.2,0.4V61l2.2-0.4c0.6-0.1,1.1-0.4,1.5-0.8s0.6-0.9,0.6-1.5V52.5z"/>
	<path class="st2" d="M33.5,46.8c0.3-0.1,0.6,0,0.8,0.2c0.2,0.2,0.3,0.4,0.3,0.6c0,0.3-0.1,0.5-0.3,0.7c-0.2,0.2-0.5,0.4-0.8,0.4
		l-5.4,0.9v3.8l4.3-0.7c0.3-0.1,0.6,0,0.8,0.2c0.2,0.2,0.3,0.4,0.3,0.6c0,0.3-0.1,0.5-0.3,0.7c-0.2,0.2-0.5,0.4-0.8,0.4l-4.3,0.7
		v3.8l5.4-0.9c0.3-0.1,0.6,0,0.8,0.2c0.2,0.2,0.3,0.4,0.3,0.6s-0.1,0.5-0.3,0.7c-0.2,0.2-0.5,0.4-0.8,0.4L27,61.4
		c-0.3,0.1-0.6,0-0.8-0.2c-0.2-0.2-0.3-0.4-0.3-0.6V49.1c0-0.3,0.1-0.5,0.3-0.7c0.2-0.2,0.5-0.4,0.8-0.4L33.5,46.8z"/>
	<path class="st2" d="M52.5,44.5c0-0.3,0.1-0.5,0.3-0.7c0.2-0.2,0.5-0.4,0.8-0.4s0.6,0,0.8,0.2c0.2,0.2,0.3,0.4,0.3,0.6v8.7
		c0,1.1-0.4,2-1.3,2.9c-0.8,0.9-2.1,1.5-3.6,1.7c-1.4,0.2-2.5,0.1-3.4-0.5l0,0c0,0,0,0,0,0c-0.2-0.1-0.3-0.4-0.3-0.6
		s0.1-0.5,0.3-0.7c0.2-0.2,0.5-0.4,0.8-0.4c0.3-0.1,0.6,0,0.8,0.1c0,0,0,0,0,0c0.4,0.3,1,0.4,1.9,0.2c1-0.2,1.7-0.5,2.1-0.9
		c0.4-0.4,0.6-0.9,0.6-1.5V44.5z"/>
	<path class="st2" d="M56,46.8c0-1.1,0.4-2,1.3-2.9c0.8-0.9,1.9-1.4,3.1-1.7c1.2-0.2,2.2,0,3.1,0.6c0.8,0.6,1.3,1.4,1.3,2.5v5.8
		c0,1.1-0.4,2-1.3,2.9c-0.8,0.9-1.9,1.4-3.1,1.6c-1.2,0.2-2.2,0-3.1-0.6c-0.8-0.6-1.3-1.4-1.3-2.5V46.8z M62.5,45.7
		c0-0.5-0.2-1-0.6-1.3c-0.4-0.3-0.9-0.4-1.5-0.3c-0.6,0.1-1.1,0.4-1.5,0.8c-0.4,0.4-0.6,0.9-0.6,1.5v5.8c0,0.5,0.2,0.9,0.6,1.3
		c0.4,0.3,0.9,0.4,1.5,0.3c0.6-0.1,1.1-0.4,1.5-0.8c0.4-0.4,0.6-0.9,0.6-1.5V45.7z"/>
	<path class="st2" d="M72.5,41.1c0-0.3,0.1-0.5,0.3-0.7c0.2-0.2,0.5-0.4,0.8-0.4s0.6,0,0.8,0.2c0.2,0.2,0.3,0.4,0.3,0.6v8.7
		c0,1.1-0.4,2-1.3,2.9c-0.8,0.9-1.9,1.4-3.1,1.6c-1.2,0.2-2.2,0-3.1-0.6c-0.8-0.6-1.3-1.4-1.3-2.5v-8.7c0-0.3,0.1-0.5,0.3-0.7
		c0.2-0.2,0.5-0.4,0.8-0.4c0.3-0.1,0.6,0,0.8,0.2c0.2,0.2,0.3,0.4,0.3,0.6v8.7c0,0.5,0.2,0.9,0.6,1.3c0.4,0.3,0.9,0.4,1.5,0.3
		c0.6-0.1,1.1-0.4,1.5-0.8c0.4-0.4,0.6-0.9,0.6-1.5V41.1z"/>
	<path class="st2" d="M83.6,38.2c0.3-0.1,0.6,0,0.8,0.2c0.2,0.2,0.3,0.4,0.3,0.6c0,0.3-0.1,0.5-0.3,0.7c-0.2,0.2-0.5,0.4-0.8,0.4
		l-5.4,0.9v3.8l4.3-0.7c0.3-0.1,0.6,0,0.8,0.2c0.2,0.2,0.3,0.4,0.3,0.6c0,0.3-0.1,0.5-0.3,0.7c-0.2,0.2-0.5,0.4-0.8,0.4l-4.3,0.7
		v3.8l5.4-0.9c0.3-0.1,0.6,0,0.8,0.2c0.2,0.2,0.3,0.4,0.3,0.6s-0.1,0.5-0.3,0.7c-0.2,0.2-0.5,0.4-0.8,0.4L77,52.8
		c-0.3,0.1-0.6,0-0.8-0.2C76.1,52.5,76,52.3,76,52V40.5c0-0.3,0.1-0.5,0.3-0.7c0.2-0.2,0.5-0.4,0.8-0.4L83.6,38.2z"/>
	<path class="st2" d="M88.1,50c0,0.3-0.1,0.5-0.3,0.7c-0.2,0.2-0.5,0.4-0.8,0.4c-0.3,0.1-0.6,0-0.8-0.2c-0.2-0.2-0.3-0.4-0.3-0.6
		V38.8c0-0.3,0.1-0.5,0.3-0.7c0.2-0.2,0.5-0.4,0.8-0.4l3.3-0.6c1.2-0.2,2.2,0,3.1,0.6c0.8,0.6,1.3,1.4,1.3,2.5s-0.4,2-1.3,2.9
		c-0.4,0.5-0.9,0.8-1.5,1.1l2.5,4l0,0c0.1,0.1,0.2,0.3,0.2,0.5c0,0.3-0.1,0.5-0.3,0.7c-0.2,0.2-0.5,0.4-0.8,0.4
		c-0.3,0.1-0.5,0-0.8-0.2c-0.1-0.1-0.2-0.1-0.2-0.2l-3-4.7l-1.5,0.3V50z M88.1,39.4v3.8l2.2-0.4c0.6-0.1,1.1-0.4,1.5-0.8
		c0.4-0.4,0.6-0.9,0.6-1.5s-0.2-1-0.6-1.3c-0.4-0.3-0.9-0.4-1.5-0.3L88.1,39.4z"/>
	<path class="st2" d="M101.4,43.9c0,0.3-0.1,0.5-0.3,0.7c-0.2,0.2-0.5,0.4-0.8,0.4c-0.3,0.1-0.6,0-0.8-0.2c-0.2-0.2-0.3-0.4-0.3-0.6
		v-7.7c0-0.3,0.1-0.5,0.3-0.7c0.2-0.2,0.5-0.4,0.8-0.4c0.3-0.1,0.6,0,0.8,0.2c0.2,0.2,0.3,0.4,0.3,0.6V43.9z M99.6,48.7
		c-0.2-0.2-0.3-0.4-0.3-0.6s0.1-0.5,0.3-0.7c0.2-0.2,0.5-0.4,0.8-0.4c0.3-0.1,0.6,0,0.8,0.2c0.2,0.2,0.3,0.4,0.3,0.6
		s-0.1,0.5-0.3,0.7c-0.2,0.2-0.5,0.4-0.8,0.4C100,48.9,99.8,48.8,99.6,48.7z"/>
</g>
<g>
	<path class="st1" d="M141.6,96.3c0.3,0,0.6,0.1,0.9,0.3c0.2,0.2,0.4,0.5,0.4,0.7s-0.1,0.5-0.4,0.7c-0.2,0.2-0.5,0.3-0.9,0.3h-7.2
		c-0.3,0-0.6-0.1-0.9-0.3c-0.2-0.2-0.4-0.5-0.4-0.7c0-0.2,0.1-0.4,0.2-0.6l0,0l6.3-10.9h-5.3c-0.3,0-0.6-0.1-0.9-0.3
		c-0.2-0.2-0.4-0.5-0.4-0.7c0-0.3,0.1-0.5,0.4-0.7c0.2-0.2,0.5-0.3,0.9-0.3h7.2c0.3,0,0.6,0.1,0.9,0.3c0.2,0.2,0.4,0.5,0.4,0.7
		c0,0.2-0.1,0.4-0.2,0.6l0,0l-6.3,10.9H141.6z"/>
</g>
</svg>
