<?xml version="1.0" encoding="utf-8"?>
<!-- Generator: Adobe Illustrator 23.0.1, SVG Export Plug-In . SVG Version: 6.00 Build 0)  -->
<svg version="1.1" id="Calque_1" xmlns="http://www.w3.org/2000/svg" xmlns:xlink="http://www.w3.org/1999/xlink" x="0px" y="0px"
	 viewBox="0 0 460.2 83.3" style="enable-background:new 0 0 460.2 83.3;" xml:space="preserve">
<style type="text/css">
	.st0{opacity:0.68;fill:#009AA3;enable-background:new    ;}
	.st1{fill:#FFFFFF;}
	.st2{fill:#1E1C33;}
</style>
<g>
	<polygon class="st0" points="107.8,56.2 11.7,72.6 11.4,45.5 107.5,29.1 	"/>
	<g>
		<g>
			<path class="st0" d="M14.5,38.6L14,40.3c-0.1,0.4-0.3,0.7-0.7,0.9c-0.3,0.3-0.7,0.4-1.1,0.4c-0.4,0-0.7-0.2-0.9-0.4
				c-0.2-0.3-0.3-0.6-0.2-1l4.1-16.3c0.1-0.4,0.3-0.7,0.7-0.9c0.3-0.3,0.7-0.4,1.1-0.4l0.6-0.1c0.4-0.1,0.8-0.1,1.1,0
				c0.3,0.1,0.6,0.4,0.7,0.7l4.1,14.9c0.1,0.3,0,0.7-0.2,1s-0.5,0.6-0.9,0.7c-0.4,0.1-0.8,0.2-1.1,0c-0.3-0.1-0.6-0.4-0.7-0.7
				l-0.4-1.5L14.5,38.6z M14.5,19.9c-0.2-0.2-0.3-0.6-0.2-0.9c0.1-0.4,0.3-0.7,0.6-1s0.7-0.4,1.1-0.4s0.7,0.1,1,0.4l1.7,1.9
				c0.2,0.2,0.3,0.6,0.2,0.9c-0.1,0.4-0.3,0.7-0.6,1c-0.3,0.3-0.7,0.4-1.1,0.4s-0.7-0.1-1-0.4L14.5,19.9z M15.1,35.9l4.4-0.7
				l-2.2-7.9L15.1,35.9z"/>
			<path class="st0" d="M47.8,18.3c0.1-0.4,0.3-0.7,0.7-0.9c0.3-0.3,0.7-0.4,1.1-0.4c0.4,0,0.7,0.2,0.9,0.4c0.2,0.3,0.3,0.6,0.2,1
				l-4.1,16.3c-0.1,0.4-0.3,0.7-0.7,0.9c-0.3,0.3-0.7,0.4-1.1,0.4l-0.6,0.1c-0.4,0.1-0.8,0.1-1.1,0s-0.6-0.4-0.7-0.7l-4.1-14.9
				c-0.1-0.3,0-0.7,0.2-1s0.5-0.6,0.9-0.7s0.8-0.2,1.1,0c0.3,0.1,0.6,0.4,0.7,0.7l3.3,12L47.8,18.3z"/>
			<path class="st0" d="M52.2,21.7c0-1.4,0.6-2.8,1.7-4c1.1-1.2,2.5-2,4.2-2.2c1.6-0.3,3,0,4.2,0.8c1.2,0.8,1.7,2,1.7,3.4v7.8
				c0,1.4-0.6,2.8-1.7,4s-2.5,2-4.2,2.2c-1.6,0.3-3,0-4.2-0.8c-1.1-0.8-1.7-2-1.7-3.4C52.2,29.5,52.2,21.7,52.2,21.7z M61,20.2
				c0-0.7-0.3-1.3-0.9-1.7c-0.6-0.4-1.3-0.5-2.1-0.4s-1.5,0.5-2.1,1.1s-0.9,1.3-0.9,2V29c0,0.7,0.3,1.3,0.9,1.7
				c0.6,0.4,1.3,0.5,2.1,0.4s1.5-0.5,2.1-1.1s0.9-1.3,0.9-2V20.2z"/>
			<path class="st0" d="M74.6,14c0-0.4,0.1-0.7,0.4-1s0.6-0.5,1-0.6s0.7,0,1,0.2s0.4,0.5,0.4,0.8v11.8c0,1.4-0.6,2.8-1.7,4
				s-2.5,2-4.2,2.2c-1.6,0.3-3,0-4.2-0.8s-1.7-2-1.7-3.4V15.5c0-0.4,0.1-0.7,0.4-1s0.6-0.5,1-0.6s0.7,0,1,0.2s0.4,0.5,0.4,0.8v11.8
				c0,0.7,0.3,1.3,0.9,1.7c0.6,0.4,1.3,0.5,2.1,0.4c0.8-0.1,1.5-0.5,2.1-1.1s0.9-1.3,0.9-2V14H74.6z"/>
			<path class="st0" d="M91.1,22.9c0,1.4-0.6,2.8-1.7,4s-2.8,2-4.9,2.4c-1.9,0.3-3.5,0.1-4.6-0.7l0,0l0,0c-0.3-0.2-0.4-0.5-0.4-0.8
				s0.1-0.7,0.4-1s0.6-0.5,1-0.6s0.8,0,1,0.2l0,0c0.6,0.4,1.4,0.5,2.5,0.3c1.3-0.2,2.2-0.6,2.8-1.2c0.6-0.6,0.9-1.3,0.9-2
				s-0.3-1.3-0.9-1.7c-0.6-0.4-1.3-0.5-2.1-0.4c-1.6,0.3-3,0-4.2-0.8c-1.1-0.8-1.7-2-1.7-3.4s0.6-2.8,1.7-4s2.8-2,4.9-2.4
				c1.9-0.3,3.5-0.1,4.6,0.7l0,0l0,0c0.3,0.2,0.4,0.5,0.4,0.9s-0.1,0.7-0.4,1s-0.6,0.5-1,0.6s-0.7,0-1-0.2l0,0
				c-0.6-0.4-1.4-0.5-2.5-0.3c-1.3,0.2-2.2,0.6-2.8,1.2c-0.6,0.6-0.9,1.3-0.9,2c0,0.7,0.3,1.3,0.9,1.7c0.6,0.4,1.3,0.5,2.1,0.4
				c1.6-0.3,3,0,4.2,0.8C90.6,20.3,91.1,21.4,91.1,22.9z"/>
		</g>
	</g>
	<g>
		<path class="st1" d="M20.3,50.7c1.2-0.2,2.2,0,3.1,0.6c0.8,0.6,1.3,1.4,1.3,2.5v5.8c0,1.1-0.4,2-1.3,2.9c-0.8,0.9-1.9,1.4-3.1,1.6
			L17,64.7c-0.3,0.1-0.6,0-0.8-0.2c-0.2-0.2-0.3-0.4-0.3-0.6V52.4c0-0.3,0.1-0.5,0.3-0.7s0.5-0.4,0.8-0.4L20.3,50.7z M22.4,54.1
			c0-0.5-0.2-1-0.6-1.3s-0.9-0.4-1.5-0.3l-2.2,0.4v9.7l2.2-0.4c0.6-0.1,1.1-0.4,1.5-0.8s0.6-0.9,0.6-1.5V54.1z"/>
		<path class="st1" d="M33.5,48.4c0.3-0.1,0.6,0,0.8,0.2s0.3,0.4,0.3,0.6c0,0.3-0.1,0.5-0.3,0.7s-0.5,0.4-0.8,0.4l-5.4,0.9V55
			l4.3-0.7c0.3-0.1,0.6,0,0.8,0.2s0.3,0.4,0.3,0.6c0,0.3-0.1,0.5-0.3,0.7s-0.5,0.4-0.8,0.4l-4.3,0.7v3.8l5.4-0.9
			c0.3-0.1,0.6,0,0.8,0.2s0.3,0.4,0.3,0.6s-0.1,0.5-0.3,0.7s-0.5,0.4-0.8,0.4L27,63c-0.3,0.1-0.6,0-0.8-0.2
			c-0.2-0.2-0.3-0.4-0.3-0.6V50.7c0-0.3,0.1-0.5,0.3-0.7c0.2-0.2,0.5-0.4,0.8-0.4L33.5,48.4z"/>
		<path class="st1" d="M52.5,46.1c0-0.3,0.1-0.5,0.3-0.7s0.5-0.4,0.8-0.4s0.6,0,0.8,0.2s0.3,0.4,0.3,0.6v8.7c0,1.1-0.4,2-1.3,2.9
			c-0.8,0.9-2.1,1.5-3.6,1.7c-1.4,0.2-2.5,0.1-3.4-0.5l0,0l0,0c-0.2-0.1-0.3-0.4-0.3-0.6s0.1-0.5,0.3-0.7s0.5-0.4,0.8-0.4
			c0.3-0.1,0.6,0,0.8,0.1l0,0c0.4,0.3,1,0.4,1.9,0.2c1-0.2,1.7-0.5,2.1-0.9c0.4-0.4,0.6-0.9,0.6-1.5L52.5,46.1L52.5,46.1z"/>
		<path class="st1" d="M56,48.4c0-1.1,0.4-2,1.3-2.9c0.8-0.9,1.9-1.4,3.1-1.7c1.2-0.2,2.2,0,3.1,0.6c0.8,0.6,1.3,1.4,1.3,2.5v5.8
			c0,1.1-0.4,2-1.3,2.9c-0.8,0.9-1.9,1.4-3.1,1.6c-1.2,0.2-2.2,0-3.1-0.6C56.5,56,56,55.2,56,54.1V48.4z M62.5,47.3
			c0-0.5-0.2-1-0.6-1.3c-0.4-0.3-0.9-0.4-1.5-0.3c-0.6,0.1-1.1,0.4-1.5,0.8c-0.4,0.4-0.6,0.9-0.6,1.5v5.8c0,0.5,0.2,0.9,0.6,1.3
			c0.4,0.3,0.9,0.4,1.5,0.3c0.6-0.1,1.1-0.4,1.5-0.8c0.4-0.4,0.6-0.9,0.6-1.5V47.3z"/>
		<path class="st1" d="M72.5,42.7c0-0.3,0.1-0.5,0.3-0.7c0.2-0.2,0.5-0.4,0.8-0.4s0.6,0,0.8,0.2c0.2,0.2,0.3,0.4,0.3,0.6v8.7
			c0,1.1-0.4,2-1.3,2.9c-0.8,0.9-1.9,1.4-3.1,1.6c-1.2,0.2-2.2,0-3.1-0.6c-0.8-0.6-1.3-1.4-1.3-2.5v-8.7c0-0.3,0.1-0.5,0.3-0.7
			c0.2-0.2,0.5-0.4,0.8-0.4c0.3-0.1,0.6,0,0.8,0.2c0.2,0.2,0.3,0.4,0.3,0.6v8.7c0,0.5,0.2,0.9,0.6,1.3c0.4,0.3,0.9,0.4,1.5,0.3
			c0.6-0.1,1.1-0.4,1.5-0.8c0.4-0.4,0.6-0.9,0.6-1.5v-8.8H72.5z"/>
		<path class="st1" d="M83.6,39.8c0.3-0.1,0.6,0,0.8,0.2c0.2,0.2,0.3,0.4,0.3,0.6c0,0.3-0.1,0.5-0.3,0.7c-0.2,0.2-0.5,0.4-0.8,0.4
			l-5.4,0.9v3.8l4.3-0.7c0.3-0.1,0.6,0,0.8,0.2c0.2,0.2,0.3,0.4,0.3,0.6c0,0.3-0.1,0.5-0.3,0.7c-0.2,0.2-0.5,0.4-0.8,0.4l-4.3,0.7
			v3.8l5.4-0.9c0.3-0.1,0.6,0,0.8,0.2c0.2,0.2,0.3,0.4,0.3,0.6s-0.1,0.5-0.3,0.7c-0.2,0.2-0.5,0.4-0.8,0.4L77,54.4
			c-0.3,0.1-0.6,0-0.8-0.2c-0.1-0.1-0.2-0.3-0.2-0.6V42.1c0-0.3,0.1-0.5,0.3-0.7c0.2-0.2,0.5-0.4,0.8-0.4L83.6,39.8z"/>
		<path class="st1" d="M88.1,51.6c0,0.3-0.1,0.5-0.3,0.7c-0.2,0.2-0.5,0.4-0.8,0.4c-0.3,0.1-0.6,0-0.8-0.2c-0.2-0.2-0.3-0.4-0.3-0.6
			V40.4c0-0.3,0.1-0.5,0.3-0.7c0.2-0.2,0.5-0.4,0.8-0.4l3.3-0.6c1.2-0.2,2.2,0,3.1,0.6c0.8,0.6,1.3,1.4,1.3,2.5s-0.4,2-1.3,2.9
			c-0.4,0.5-0.9,0.8-1.5,1.1l2.5,4l0,0c0.1,0.1,0.2,0.3,0.2,0.5c0,0.3-0.1,0.5-0.3,0.7c-0.2,0.2-0.5,0.4-0.8,0.4
			c-0.3,0.1-0.5,0-0.8-0.2c-0.1-0.1-0.2-0.1-0.2-0.2l-3-4.7L88,46.6v5H88.1z M88.1,41v3.8l2.2-0.4c0.6-0.1,1.1-0.4,1.5-0.8
			c0.4-0.4,0.6-0.9,0.6-1.5s-0.2-1-0.6-1.3s-0.9-0.4-1.5-0.3L88.1,41z"/>
		<path class="st1" d="M101.4,45.5c0,0.3-0.1,0.5-0.3,0.7c-0.2,0.2-0.5,0.4-0.8,0.4c-0.3,0.1-0.6,0-0.8-0.2
			c-0.2-0.2-0.3-0.4-0.3-0.6v-7.7c0-0.3,0.1-0.5,0.3-0.7c0.2-0.2,0.5-0.4,0.8-0.4c0.3-0.1,0.6,0,0.8,0.2c0.2,0.2,0.3,0.4,0.3,0.6
			V45.5z M99.6,50.3c-0.2-0.2-0.3-0.4-0.3-0.6s0.1-0.5,0.3-0.7c0.2-0.2,0.5-0.4,0.8-0.4c0.3-0.1,0.6,0,0.8,0.2
			c0.2,0.2,0.3,0.4,0.3,0.6s-0.1,0.5-0.3,0.7c-0.2,0.2-0.5,0.4-0.8,0.4C100,50.5,99.8,50.4,99.6,50.3z"/>
	</g>
</g>
<g>
	<g>
		<path class="st2" d="M134.6,23.5c0.3,0,0.6,0.1,0.9,0.3c0.2,0.2,0.4,0.5,0.4,0.8s-0.1,0.6-0.4,0.8c-0.2,0.2-0.5,0.3-0.9,0.3h-2.5
			v12.4c0,0.3-0.1,0.6-0.4,0.8c-0.1,0.2-0.4,0.3-0.8,0.3c-0.4,0-0.6-0.1-0.9-0.3c-0.2-0.2-0.4-0.5-0.4-0.8V25.8h-2.3
			c-0.3,0-0.6-0.1-0.9-0.3c-0.2-0.2-0.4-0.5-0.4-0.8s0.1-0.6,0.4-0.8c0.2-0.2,0.5-0.3,0.9-0.3L134.6,23.5L134.6,23.5z"/>
		<path class="st2" d="M146.7,23.5c0.3,0,0.6,0.1,0.9,0.3c0.2,0.2,0.4,0.5,0.4,0.8s-0.1,0.6-0.4,0.8c-0.2,0.2-0.5,0.3-0.9,0.3h-6.1
			v4.5h4.9c0.3,0,0.6,0.1,0.9,0.3c0.2,0.2,0.4,0.5,0.4,0.8s-0.2,0.6-0.5,0.9c-0.2,0.2-0.5,0.3-0.9,0.3h-4.9V37h6.1
			c0.3,0,0.6,0.1,0.9,0.3s0.4,0.5,0.4,0.8s-0.1,0.6-0.4,0.8c-0.2,0.2-0.5,0.3-0.8,0.3h-7.4c-0.3,0-0.6-0.1-0.9-0.3
			c-0.2-0.2-0.4-0.5-0.4-0.8V24.6c0-0.3,0.1-0.6,0.4-0.8c0.2-0.2,0.5-0.3,0.9-0.3C139.3,23.5,146.7,23.5,146.7,23.5z M143.9,22.7
			c-0.2,0.3-0.5,0.4-0.8,0.5s-0.6,0-0.9-0.2c-0.3-0.2-0.4-0.4-0.5-0.7c-0.1-0.3,0-0.6,0.2-0.8l1.4-1.9c0.2-0.3,0.5-0.4,0.8-0.5
			s0.6,0,0.9,0.2c0.3,0.2,0.4,0.4,0.5,0.7c0.1,0.3,0,0.6-0.2,0.8L143.9,22.7z"/>
		<path class="st2" d="M158.7,37c0.3,0,0.6,0.1,0.9,0.3s0.4,0.5,0.4,0.8s-0.1,0.6-0.4,0.8c-0.3,0.2-0.5,0.3-0.9,0.3h-7.4
			c-0.3,0-0.6-0.1-0.9-0.3c-0.2-0.2-0.4-0.5-0.4-0.8V24.6c0-0.3,0.1-0.6,0.4-0.8c0.2-0.2,0.5-0.3,0.9-0.3c0.3,0,0.6,0.1,0.9,0.3
			c0.2,0.2,0.4,0.5,0.4,0.8V37H158.7z"/>
		<path class="st2" d="M170.8,23.5c0.3,0,0.6,0.1,0.9,0.3c0.2,0.2,0.4,0.5,0.4,0.8s-0.1,0.6-0.4,0.8c-0.2,0.2-0.5,0.3-0.9,0.3h-6.1
			v4.5h4.9c0.3,0,0.6,0.1,0.9,0.3c0.2,0.2,0.4,0.5,0.4,0.8s-0.1,0.6-0.4,0.8c-0.2,0.2-0.5,0.3-0.9,0.3h-4.9v4.5h6.1
			c0.3,0,0.6,0.1,0.9,0.3s0.4,0.5,0.4,0.8s-0.1,0.6-0.4,0.8c-0.2,0.2-0.5,0.3-0.9,0.3h-7.4c-0.3,0-0.6-0.1-0.9-0.3
			c-0.2-0.2-0.4-0.5-0.4-0.8V24.6c0-0.3,0.1-0.6,0.4-0.8c0.2-0.2,0.5-0.3,0.9-0.3C163.4,23.5,170.8,23.5,170.8,23.5z M168,22.7
			c-0.2,0.3-0.5,0.4-0.8,0.5c-0.3,0.1-0.6,0-0.9-0.2s-0.4-0.4-0.5-0.7c-0.1-0.3,0-0.6,0.2-0.8l1.4-1.9c0.2-0.3,0.5-0.4,0.8-0.5
			c0.3-0.1,0.6,0,0.9,0.2s0.4,0.4,0.5,0.7c0.1,0.3,0,0.6-0.2,0.8L168,22.7z"/>
		<path class="st2" d="M176.7,34.7c0,0.6,0.2,1.2,0.7,1.6s1.3,0.7,2.4,0.7c0.9,0,1.6-0.2,2.1-0.7l0,0c0.2-0.2,0.5-0.3,0.9-0.3
			c0.3,0,0.6,0.1,0.9,0.3c0.2,0.2,0.4,0.5,0.4,0.8s-0.1,0.6-0.4,0.8l0,0l0,0c-1,0.9-2.2,1.3-3.8,1.3c-1.8,0-3.1-0.4-4.1-1.3
			s-1.4-1.9-1.4-3.2V28c0-1.2,0.5-2.3,1.4-3.2c1-0.9,2.3-1.3,4.1-1.3c1.6,0,2.9,0.4,3.8,1.3l0,0l0,0c0.2,0.2,0.4,0.5,0.4,0.8
			s-0.1,0.6-0.4,0.8c-0.2,0.2-0.5,0.3-0.9,0.3c-0.3,0-0.6-0.1-0.9-0.3l0,0c-0.5-0.4-1.2-0.7-2.1-0.7c-1.1,0-1.9,0.2-2.4,0.7
			c-0.5,0.4-0.7,1-0.7,1.6C176.7,28,176.7,34.7,176.7,34.7z"/>
		<path class="st2" d="M188.7,38.1c0,0.3-0.1,0.6-0.4,0.8c-0.2,0.2-0.5,0.3-0.9,0.3c-0.3,0-0.6-0.1-0.9-0.3
			c-0.2-0.2-0.4-0.5-0.4-0.8V24.6c0-0.3,0.1-0.6,0.4-0.8c0.2-0.2,0.5-0.3,0.9-0.3c0.3,0,0.6,0.1,0.9,0.3c0.2,0.2,0.4,0.5,0.4,0.8
			v5.6h4.9v-5.6c0-0.3,0.1-0.6,0.4-0.8c0.2-0.2,0.5-0.3,0.9-0.3c0.3,0,0.6,0.1,0.9,0.3c0.2,0.2,0.4,0.5,0.4,0.8v13.5
			c0,0.3-0.1,0.6-0.4,0.8c-0.2,0.2-0.5,0.3-0.9,0.3c-0.3,0-0.6-0.1-0.9-0.3c-0.2-0.2-0.4-0.5-0.4-0.8v-5.6h-4.9V38.1z"/>
		<path class="st2" d="M200.8,37l-0.4,1.4c-0.1,0.3-0.3,0.5-0.6,0.7c-0.3,0.2-0.5,0.2-0.8,0.1s-0.6-0.2-0.8-0.5
			c-0.2-0.3-0.2-0.5-0.2-0.8l3.4-13.4c0.1-0.3,0.3-0.5,0.6-0.7c0.3-0.2,0.6-0.2,0.9-0.2h0.5c0.3,0,0.6,0,0.9,0.2s0.5,0.4,0.6,0.7
			l3.4,13.4c0.1,0.3,0,0.6-0.2,0.8c-0.2,0.3-0.4,0.4-0.8,0.5c-0.3,0.1-0.6,0-0.9-0.1c-0.3-0.2-0.5-0.4-0.6-0.7l-0.4-1.4H200.8z
			 M201.4,34.7h3.6l-1.8-7.1L201.4,34.7z"/>
		<path class="st2" d="M212.8,38.1c0,0.3-0.1,0.6-0.4,0.8c-0.2,0.2-0.5,0.3-0.9,0.3c-0.3,0-0.6-0.1-0.9-0.3
			c-0.2-0.2-0.4-0.5-0.4-0.8V24.6c0-0.3,0.1-0.6,0.4-0.8c0.2-0.2,0.5-0.3,0.9-0.3h3.7c1.4,0,2.5,0.4,3.5,1.3s1.4,1.9,1.4,3.2
			c0,1.2-0.5,2.3-1.4,3.2c-0.5,0.5-1.1,0.8-1.7,1l2.9,5.2l0,0c0.2,0.2,0.2,0.4,0.2,0.7c0,0.3-0.1,0.6-0.4,0.8
			c-0.2,0.2-0.5,0.3-0.9,0.3c-0.3,0-0.6-0.1-0.9-0.3c-0.1-0.1-0.2-0.2-0.2-0.3l-3.3-6.1h-1.7v5.6H212.8z M212.8,25.8v4.5h2.5
			c0.7,0,1.3-0.2,1.7-0.7s0.7-1,0.7-1.6s-0.2-1.2-0.7-1.6s-1.1-0.7-1.7-0.7L212.8,25.8L212.8,25.8z"/>
		<path class="st2" d="M228.5,32.5c-0.3,0-0.6-0.1-0.9-0.3c-0.2-0.2-0.4-0.5-0.4-0.8s0.1-0.6,0.4-0.8c0.2-0.2,0.5-0.3,0.9-0.3h2.5
			c0.3,0,0.6,0.1,0.9,0.3c0.2,0.2,0.4,0.5,0.4,0.8v3.4c0,1.2-0.5,2.3-1.4,3.2c-0.9,0.9-2.3,1.2-3.6,1.2s-2.5-0.4-3.5-1.3
			s-1.4-1.9-1.4-3.2V28c0-1.2,0.5-2.3,1.4-3.2c1-0.9,2.3-1.3,4.1-1.3c1.6,0,2.9,0.4,3.8,1.3l0,0l0,0c0.2,0.2,0.4,0.5,0.4,0.8
			s-0.1,0.6-0.4,0.8c-0.2,0.2-0.5,0.3-0.9,0.3c-0.3,0-0.6-0.1-0.9-0.3l0,0c-0.5-0.4-1.2-0.7-2.1-0.7c-1.1,0-1.9,0.2-2.4,0.7
			c-0.5,0.4-0.7,1-0.7,1.6v6.7c0,0.6,0.2,1.2,0.7,1.6s1.1,0.7,1.7,0.7c0.6,0,1.3-0.2,1.7-0.7s0.7-1,0.7-1.6v-2.2
			C229.5,32.5,228.5,32.5,228.5,32.5z"/>
		<path class="st2" d="M243,23.5c0.3,0,0.6,0.1,0.9,0.3c0.2,0.2,0.4,0.5,0.4,0.8s-0.1,0.6-0.4,0.8c-0.2,0.2-0.5,0.3-0.9,0.3h-6.1
			v4.5h4.9c0.3,0,0.6,0.1,0.9,0.3c0.2,0.2,0.4,0.5,0.4,0.8s-0.1,0.6-0.4,0.8c-0.2,0.2-0.5,0.3-0.9,0.3h-4.9v4.5h6.1
			c0.3,0,0.6,0.1,0.9,0.3s0.4,0.5,0.4,0.8s-0.1,0.6-0.4,0.8c-0.2,0.2-0.5,0.3-0.9,0.3h-7.4c-0.3,0-0.6-0.1-0.9-0.3
			c-0.2-0.2-0.4-0.5-0.4-0.8V24.6c0-0.3,0.1-0.6,0.4-0.8c0.2-0.2,0.5-0.3,0.9-0.3C235.6,23.5,243,23.5,243,23.5z"/>
		<path class="st2" d="M279.1,37c0.3,0,0.6,0.1,0.9,0.3c0.2,0.2,0.4,0.5,0.4,0.8s-0.1,0.6-0.4,0.8c-0.2,0.2-0.5,0.3-0.9,0.3h-7.4
			c-0.3,0-0.6-0.1-0.9-0.3c-0.2-0.2-0.4-0.5-0.4-0.8V24.6c0-0.3,0.1-0.6,0.4-0.8c0.2-0.2,0.5-0.3,0.9-0.3s0.6,0.1,0.9,0.3
			c0.2,0.2,0.4,0.5,0.4,0.8V37H279.1z"/>
		<path class="st2" d="M291.2,23.5c0.3,0,0.6,0.1,0.9,0.3c0.2,0.2,0.4,0.5,0.4,0.8s-0.1,0.6-0.4,0.8c-0.2,0.2-0.5,0.3-0.9,0.3h-6.1
			v4.5h4.9c0.3,0,0.6,0.1,0.9,0.3c0.2,0.2,0.4,0.5,0.4,0.8s-0.1,0.6-0.4,0.8c-0.2,0.2-0.5,0.3-0.9,0.3h-4.9v4.5h6.1
			c0.3,0,0.6,0.1,0.9,0.3c0.2,0.2,0.4,0.5,0.4,0.8s-0.1,0.6-0.4,0.8c-0.2,0.2-0.5,0.3-0.9,0.3h-7.4c-0.3,0-0.6-0.1-0.9-0.3
			c-0.2-0.2-0.4-0.5-0.4-0.8V24.6c0-0.3,0.1-0.6,0.4-0.8c0.2-0.2,0.5-0.3,0.9-0.3C283.8,23.5,291.2,23.5,291.2,23.5z"/>
		<path class="st2" d="M304.5,34.7c0,1.2-0.5,2.3-1.4,3.2s-2.3,1.3-4.1,1.3c-1.6,0-2.9-0.4-3.8-1.3l0,0l0,0
			c-0.2-0.2-0.4-0.5-0.4-0.8s0.1-0.6,0.4-0.8c0.2-0.2,0.5-0.3,0.9-0.3s0.6,0.1,0.9,0.3l0,0c0.5,0.4,1.2,0.7,2.1,0.7
			c1.1,0,1.9-0.2,2.4-0.7s0.7-1,0.7-1.6s-0.2-1.2-0.7-1.6s-1.1-0.7-1.7-0.7c-1.4,0-2.5-0.4-3.5-1.3s-1.4-1.9-1.4-3.2
			c0-1.2,0.5-2.3,1.4-3.2c1-0.9,2.3-1.3,4.1-1.3c1.6,0,2.9,0.4,3.8,1.3l0,0l0,0c0.2,0.2,0.4,0.5,0.4,0.8s-0.1,0.6-0.4,0.8
			c-0.2,0.2-0.5,0.3-0.9,0.3s-0.6-0.1-0.9-0.3l0,0c-0.5-0.4-1.2-0.7-2.1-0.7c-1.1,0-1.9,0.2-2.4,0.7c-0.5,0.4-0.7,1-0.7,1.6
			s0.2,1.2,0.7,1.6s1.1,0.7,1.7,0.7c1.4,0,2.5,0.4,3.5,1.3C304,32.4,304.5,33.5,304.5,34.7z"/>
		<path class="st2" d="M321.2,38.1c0,0.3-0.1,0.6-0.4,0.8c-0.2,0.2-0.5,0.3-0.9,0.3s-0.6-0.1-0.9-0.3c-0.2-0.2-0.4-0.5-0.4-0.8V24.6
			c0-0.3,0.1-0.6,0.4-0.8c0.2-0.2,0.5-0.3,0.9-0.3h3.7c1.4,0,2.5,0.4,3.5,1.3s1.4,1.9,1.4,3.2c0,1.2-0.5,2.3-1.4,3.2
			c-0.5,0.5-1.1,0.8-1.7,1l2.9,5.2l0,0c0.2,0.2,0.2,0.4,0.2,0.7c0,0.3-0.1,0.6-0.4,0.8c-0.2,0.2-0.5,0.3-0.9,0.3s-0.6-0.1-0.9-0.3
			c-0.1-0.1-0.2-0.2-0.2-0.3l-3.3-6.1h-1.7L321.2,38.1L321.2,38.1z M321.2,25.8v4.5h2.5c0.7,0,1.3-0.2,1.7-0.7s0.7-1,0.7-1.6
			s-0.2-1.2-0.7-1.6s-1.1-0.7-1.7-0.7L321.2,25.8L321.2,25.8z"/>
		<path class="st2" d="M339.3,23.5c0.3,0,0.6,0.1,0.9,0.3c0.2,0.2,0.4,0.5,0.4,0.8s-0.1,0.6-0.4,0.8c-0.2,0.2-0.5,0.3-0.9,0.3h-6.1
			v4.5h4.9c0.3,0,0.6,0.1,0.9,0.3c0.2,0.2,0.4,0.5,0.4,0.8s-0.1,0.6-0.4,0.8c-0.2,0.2-0.5,0.3-0.9,0.3h-4.9v4.5h6.1
			c0.3,0,0.6,0.1,0.9,0.3c0.2,0.2,0.4,0.5,0.4,0.8s-0.1,0.6-0.4,0.8c-0.2,0.2-0.5,0.3-0.9,0.3h-7.4c-0.3,0-0.6-0.1-0.9-0.3
			c-0.2-0.2-0.4-0.5-0.4-0.8V24.6c0-0.3,0.1-0.6,0.4-0.8c0.2-0.2,0.5-0.3,0.9-0.3C331.9,23.5,339.3,23.5,339.3,23.5z"/>
		<path class="st2" d="M352.6,34.7c0,1.2-0.5,2.3-1.4,3.2s-2.3,1.3-4.1,1.3c-1.6,0-2.9-0.4-3.8-1.3l0,0l0,0
			c-0.2-0.2-0.4-0.5-0.4-0.8s0.1-0.6,0.4-0.8c0.2-0.2,0.5-0.3,0.9-0.3s0.6,0.1,0.9,0.3l0,0c0.5,0.4,1.2,0.7,2.1,0.7
			c1.1,0,1.9-0.2,2.4-0.7s0.7-1,0.7-1.6s-0.2-1.2-0.7-1.6s-1.1-0.7-1.7-0.7c-1.4,0-2.5-0.4-3.5-1.3s-1.4-1.9-1.4-3.2
			c0-1.2,0.5-2.3,1.4-3.2c1-0.9,2.3-1.3,4.1-1.3c1.6,0,2.9,0.4,3.8,1.3l0,0l0,0c0.2,0.2,0.4,0.5,0.4,0.8s-0.1,0.6-0.4,0.8
			c-0.2,0.2-0.5,0.3-0.9,0.3s-0.6-0.1-0.9-0.3l0,0c-0.5-0.4-1.2-0.7-2.1-0.7c-1.1,0-1.9,0.2-2.4,0.7c-0.5,0.4-0.7,1-0.7,1.6
			s0.2,1.2,0.7,1.6s1.1,0.7,1.7,0.7c1.4,0,2.5,0.4,3.5,1.3C352.1,32.4,352.6,33.5,352.6,34.7z"/>
		<path class="st2" d="M364.7,34.7c0,1.2-0.5,2.3-1.4,3.2s-2.3,1.3-4.1,1.3c-1.6,0-2.9-0.4-3.8-1.3l0,0l0,0
			c-0.2-0.2-0.4-0.5-0.4-0.8s0.1-0.6,0.4-0.8c0.2-0.2,0.5-0.3,0.9-0.3s0.6,0.1,0.9,0.3l0,0c0.5,0.4,1.2,0.7,2.1,0.7
			c1.1,0,1.9-0.2,2.4-0.7s0.7-1,0.7-1.6s-0.2-1.2-0.7-1.6s-1.1-0.7-1.7-0.7c-1.4,0-2.5-0.4-3.5-1.3s-1.4-1.9-1.4-3.2
			c0-1.2,0.5-2.3,1.4-3.2c1-0.9,2.3-1.3,4.1-1.3c1.6,0,2.9,0.4,3.8,1.3l0,0l0,0c0.2,0.2,0.4,0.5,0.4,0.8s-0.1,0.6-0.4,0.8
			c-0.2,0.2-0.5,0.3-0.9,0.3s-0.6-0.1-0.9-0.3l0,0c-0.5-0.4-1.2-0.7-2.1-0.7c-1.1,0-1.9,0.2-2.4,0.7c-0.5,0.4-0.7,1-0.7,1.6
			s0.2,1.2,0.7,1.6s1.1,0.7,1.7,0.7c1.4,0,2.5,0.4,3.5,1.3C364.2,32.4,364.7,33.5,364.7,34.7z"/>
		<path class="st2" d="M366.9,28c0-1.2,0.5-2.3,1.4-3.2c1-0.9,2.1-1.3,3.5-1.3s2.5,0.4,3.5,1.3s1.4,1.9,1.4,3.2v6.7
			c0,1.2-0.5,2.3-1.4,3.2s-2.1,1.3-3.5,1.3s-2.5-0.4-3.5-1.3s-1.4-1.9-1.4-3.2V28z M374.2,28c0-0.6-0.2-1.2-0.7-1.6
			s-1.1-0.7-1.7-0.7c-0.7,0-1.3,0.2-1.7,0.7c-0.5,0.4-0.7,1-0.7,1.6v6.7c0,0.6,0.2,1.2,0.7,1.6c0.5,0.4,1.1,0.7,1.7,0.7
			c0.7,0,1.3-0.2,1.7-0.7s0.7-1,0.7-1.6V28z"/>
		<path class="st2" d="M386.3,24.6c0-0.3,0.1-0.6,0.4-0.8c0.2-0.2,0.5-0.3,0.9-0.3s0.6,0.1,0.9,0.3c0.2,0.2,0.4,0.5,0.4,0.8v10.1
			c0,1.2-0.5,2.3-1.4,3.2s-2.1,1.3-3.5,1.3s-2.5-0.4-3.5-1.3s-1.4-1.9-1.4-3.2V24.6c0-0.3,0.1-0.6,0.4-0.8c0.2-0.2,0.5-0.3,0.9-0.3
			s0.6,0.1,0.9,0.3c0.2,0.2,0.4,0.5,0.4,0.8v10.1c0,0.6,0.2,1.2,0.7,1.6s1.1,0.7,1.7,0.7c0.7,0,1.3-0.2,1.7-0.7s0.7-1,0.7-1.6V24.6
			H386.3z"/>
		<path class="st2" d="M393.4,38.1c0,0.3-0.1,0.6-0.4,0.8c-0.2,0.2-0.5,0.3-0.9,0.3s-0.6-0.1-0.9-0.3c-0.2-0.2-0.4-0.5-0.4-0.8V24.6
			c0-0.3,0.1-0.6,0.4-0.8c0.2-0.2,0.5-0.3,0.9-0.3h3.7c1.4,0,2.5,0.4,3.5,1.3s1.4,1.9,1.4,3.2c0,1.2-0.5,2.3-1.4,3.2
			c-0.5,0.5-1.1,0.8-1.7,1l2.9,5.2l0,0c0.2,0.2,0.2,0.4,0.2,0.7c0,0.3-0.1,0.6-0.4,0.8c-0.2,0.2-0.5,0.3-0.9,0.3s-0.6-0.1-0.9-0.3
			c-0.1-0.1-0.2-0.2-0.2-0.3l-3.3-6.1h-1.7L393.4,38.1L393.4,38.1z M393.4,25.8v4.5h2.5c0.7,0,1.3-0.2,1.7-0.7s0.7-1,0.7-1.6
			s-0.2-1.2-0.7-1.6s-1.1-0.7-1.7-0.7L393.4,25.8L393.4,25.8z"/>
		<path class="st2" d="M405.5,34.7c0,0.6,0.2,1.2,0.7,1.6s1.3,0.7,2.4,0.7c0.9,0,1.6-0.2,2.1-0.7l0,0c0.2-0.2,0.5-0.3,0.9-0.3
			s0.6,0.1,0.9,0.3c0.2,0.2,0.4,0.5,0.4,0.8s-0.1,0.6-0.4,0.8l0,0l0,0c-1,0.9-2.2,1.3-3.8,1.3c-1.8,0-3.1-0.4-4.1-1.3
			s-1.4-1.9-1.4-3.2V28c0-1.2,0.5-2.3,1.4-3.2c1-0.9,2.3-1.3,4.1-1.3c1.6,0,2.9,0.4,3.8,1.3l0,0l0,0c0.2,0.2,0.4,0.5,0.4,0.8
			s-0.1,0.6-0.4,0.8c-0.2,0.2-0.5,0.3-0.9,0.3s-0.6-0.1-0.9-0.3l0,0c-0.5-0.4-1.2-0.7-2.1-0.7c-1.1,0-1.9,0.2-2.4,0.7
			c-0.5,0.4-0.7,1-0.7,1.6V34.7z"/>
		<path class="st2" d="M423.6,23.5c0.3,0,0.6,0.1,0.9,0.3c0.2,0.2,0.4,0.5,0.4,0.8s-0.1,0.6-0.4,0.8c-0.2,0.2-0.5,0.3-0.9,0.3h-6.1
			v4.5h4.9c0.3,0,0.6,0.1,0.9,0.3c0.2,0.2,0.4,0.5,0.4,0.8s-0.1,0.6-0.4,0.8c-0.2,0.2-0.5,0.3-0.9,0.3h-4.9v4.5h6.1
			c0.3,0,0.6,0.1,0.9,0.3c0.2,0.2,0.4,0.5,0.4,0.8s-0.1,0.6-0.4,0.8c-0.2,0.2-0.5,0.3-0.9,0.3h-7.3c-0.3,0-0.6-0.1-0.9-0.3
			c-0.2-0.2-0.4-0.5-0.4-0.8V24.6c0-0.3,0.1-0.6,0.4-0.8c0.2-0.2,0.5-0.3,0.9-0.3C416.3,23.5,423.6,23.5,423.6,23.5z"/>
		<path class="st2" d="M436.9,34.7c0,1.2-0.5,2.3-1.4,3.2s-2.3,1.3-4.1,1.3c-1.6,0-2.9-0.4-3.8-1.3l0,0l0,0
			c-0.2-0.2-0.4-0.5-0.4-0.8s0.1-0.6,0.4-0.8c0.2-0.2,0.5-0.3,0.9-0.3s0.6,0.1,0.9,0.3l0,0c0.5,0.4,1.2,0.7,2.1,0.7
			c1.1,0,1.9-0.2,2.4-0.7s0.7-1,0.7-1.6s-0.2-1.2-0.7-1.6s-1.1-0.7-1.7-0.7c-1.4,0-2.5-0.4-3.5-1.3s-1.4-1.9-1.4-3.2
			c0-1.2,0.5-2.3,1.4-3.2c1-0.9,2.3-1.3,4.1-1.3c1.6,0,2.9,0.4,3.8,1.3l0,0l0,0c0.2,0.2,0.4,0.5,0.4,0.8s-0.1,0.6-0.4,0.8
			c-0.2,0.2-0.5,0.3-0.9,0.3s-0.6-0.1-0.9-0.3l0,0c-0.5-0.4-1.2-0.7-2.1-0.7c-1.1,0-1.9,0.2-2.4,0.7c-0.5,0.4-0.7,1-0.7,1.6
			s0.2,1.2,0.7,1.6s1.1,0.7,1.7,0.7c1.4,0,2.5,0.4,3.5,1.3C436.4,32.4,436.9,33.5,436.9,34.7z"/>
		<path class="st2" d="M128.5,63.1c0,0.3-0.1,0.6-0.4,0.8c-0.2,0.2-0.5,0.3-0.9,0.3c-0.3,0-0.6-0.1-0.9-0.3
			c-0.2-0.2-0.4-0.5-0.4-0.8V49.6c0-0.3,0.1-0.6,0.4-0.8c0.2-0.2,0.5-0.3,0.9-0.3h3.7c1.4,0,2.5,0.4,3.5,1.3s1.4,1.9,1.4,3.2
			c0,1.2-0.5,2.3-1.4,3.2c-0.9,0.9-2.1,1.3-3.5,1.3h-2.5L128.5,63.1L128.5,63.1z M128.5,50.8v4.5h2.5c0.7,0,1.3-0.2,1.7-0.7
			c0.4-0.5,0.7-1,0.7-1.6s-0.2-1.2-0.7-1.6s-1.1-0.7-1.7-0.7L128.5,50.8L128.5,50.8z"/>
		<path class="st2" d="M138.1,53c0-1.2,0.5-2.3,1.4-3.2c1-0.9,2.1-1.3,3.5-1.3c1.4,0,2.5,0.4,3.5,1.3s1.4,1.9,1.4,3.2v6.7
			c0,1.2-0.5,2.3-1.4,3.2c-0.9,0.9-2.2,1.3-3.5,1.3c-1.3,0-2.5-0.4-3.5-1.3s-1.4-1.9-1.4-3.2C138.1,59.7,138.1,53,138.1,53z
			 M145.4,53c0-0.6-0.2-1.2-0.7-1.6s-1.1-0.7-1.7-0.7c-0.6,0-1.3,0.2-1.7,0.7c-0.5,0.4-0.7,1-0.7,1.6v6.7c0,0.6,0.2,1.2,0.7,1.6
			s1.1,0.7,1.7,0.7c0.6,0,1.3-0.2,1.7-0.7c0.4-0.5,0.7-1,0.7-1.6V53z"/>
		<path class="st2" d="M157.5,49.6c0-0.3,0.1-0.6,0.4-0.8c0.2-0.2,0.5-0.3,0.9-0.3c0.3,0,0.6,0.1,0.9,0.3c0.2,0.2,0.4,0.5,0.4,0.8
			v10.1c0,1.2-0.5,2.3-1.4,3.2c-0.9,0.9-2.1,1.3-3.5,1.3c-1.4,0-2.5-0.4-3.5-1.3s-1.4-1.9-1.4-3.2V49.6c0-0.3,0.1-0.6,0.4-0.8
			c0.2-0.2,0.5-0.3,0.9-0.3c0.3,0,0.6,0.1,0.9,0.3c0.2,0.2,0.4,0.5,0.4,0.8v10.1c0,0.6,0.2,1.2,0.7,1.6s1.1,0.7,1.7,0.7
			s1.3-0.2,1.7-0.7c0.4-0.5,0.7-1,0.7-1.6V49.6H157.5z"/>
		<path class="st2" d="M164.6,63.1c0,0.3-0.1,0.6-0.4,0.8c-0.2,0.2-0.5,0.3-0.9,0.3c-0.3,0-0.6-0.1-0.9-0.3
			c-0.2-0.2-0.4-0.5-0.4-0.8V49.6c0-0.3,0.1-0.6,0.4-0.8c0.2-0.2,0.5-0.3,0.9-0.3h3.7c1.4,0,2.5,0.4,3.5,1.3s1.4,1.9,1.4,3.2
			c0,1.2-0.5,2.3-1.4,3.2c-0.5,0.5-1.1,0.8-1.7,1l2.9,5.2l0,0c0.2,0.2,0.2,0.4,0.2,0.7c0,0.3-0.1,0.6-0.4,0.8
			c-0.2,0.2-0.5,0.3-0.9,0.3c-0.3,0-0.6-0.1-0.9-0.3c-0.1-0.1-0.2-0.2-0.2-0.3l-3.3-6.1h-1.7v5.6H164.6z M164.6,50.8v4.5h2.5
			c0.7,0,1.3-0.2,1.7-0.7c0.4-0.5,0.7-1,0.7-1.6s-0.2-1.2-0.7-1.6s-1.1-0.7-1.7-0.7L164.6,50.8L164.6,50.8z"/>
		<path class="st2" d="M188.7,59.7c0,0.6,0.2,1.2,0.7,1.6s1.3,0.7,2.4,0.7c0.9,0,1.6-0.2,2.1-0.7l0,0c0.2-0.2,0.5-0.3,0.9-0.3
			c0.3,0,0.6,0.1,0.9,0.3c0.2,0.2,0.4,0.5,0.4,0.8s-0.1,0.6-0.4,0.8l0,0l0,0c-1,0.9-2.2,1.3-3.8,1.3c-1.8,0-3.1-0.4-4.1-1.3
			s-1.4-1.9-1.4-3.2V53c0-1.2,0.5-2.3,1.4-3.2c1-0.9,2.3-1.3,4.1-1.3c1.6,0,2.9,0.4,3.8,1.3l0,0l0,0c0.2,0.2,0.4,0.5,0.4,0.8
			s-0.1,0.6-0.4,0.8c-0.2,0.2-0.5,0.3-0.9,0.3c-0.3,0-0.6-0.1-0.9-0.3l0,0c-0.5-0.4-1.2-0.7-2.1-0.7c-1.1,0-1.9,0.2-2.4,0.7
			c-0.5,0.4-0.7,1-0.7,1.6V59.7z"/>
		<path class="st2" d="M200.7,63.1c0,0.3-0.1,0.6-0.4,0.8c-0.2,0.2-0.5,0.3-0.9,0.3c-0.3,0-0.6-0.1-0.9-0.3
			c-0.2-0.2-0.4-0.5-0.4-0.8V49.6c0-0.3,0.1-0.6,0.4-0.8c0.2-0.2,0.5-0.3,0.9-0.3h3.7c1.4,0,2.5,0.4,3.5,1.3s1.4,1.9,1.4,3.2
			c0,1.2-0.5,2.3-1.4,3.2c-0.5,0.5-1.1,0.8-1.7,1l2.9,5.2l0,0c0.2,0.2,0.2,0.4,0.2,0.7c0,0.3-0.1,0.6-0.4,0.8
			c-0.2,0.2-0.5,0.3-0.9,0.3c-0.3,0-0.6-0.1-0.9-0.3c-0.1-0.1-0.2-0.2-0.2-0.3l-3.3-6.1h-1.7v5.6H200.7z M200.7,50.8v4.5h2.5
			c0.7,0,1.3-0.2,1.7-0.7s0.7-1,0.7-1.6s-0.2-1.2-0.7-1.6s-1.1-0.7-1.7-0.7L200.7,50.8L200.7,50.8z"/>
		<path class="st2" d="M218.9,48.5c0.3,0,0.6,0.1,0.9,0.3c0.2,0.2,0.4,0.5,0.4,0.8s-0.1,0.6-0.4,0.8c-0.2,0.2-0.5,0.3-0.9,0.3h-6.1
			v4.5h4.9c0.3,0,0.6,0.1,0.9,0.3c0.2,0.2,0.4,0.5,0.4,0.8s-0.1,0.6-0.4,0.8c-0.2,0.2-0.5,0.3-0.9,0.3h-4.9v4.5h6.1
			c0.3,0,0.6,0.1,0.9,0.3s0.4,0.5,0.4,0.8s-0.1,0.6-0.4,0.8c-0.2,0.2-0.5,0.3-0.9,0.3h-7.4c-0.3,0-0.6-0.1-0.9-0.3
			c-0.2-0.2-0.4-0.5-0.4-0.8V49.5c0-0.3,0.1-0.6,0.4-0.8c0.2-0.2,0.5-0.3,0.9-0.3L218.9,48.5L218.9,48.5z M216.2,47.7
			c-0.2,0.3-0.5,0.4-0.8,0.5s-0.6,0-0.9-0.2s-0.4-0.4-0.5-0.7c-0.1-0.3,0-0.6,0.2-0.8l1.4-1.9c0.2-0.3,0.5-0.4,0.8-0.5
			s0.6,0,0.9,0.2s0.4,0.4,0.5,0.7c0.1,0.3,0,0.6-0.2,0.8L216.2,47.7z"/>
		<path class="st2" d="M231,48.5c0.3,0,0.6,0.1,0.9,0.3c0.2,0.2,0.4,0.5,0.4,0.8s-0.1,0.6-0.4,0.8c-0.2,0.2-0.5,0.3-0.9,0.3h-6.1
			v4.5h4.9c0.3,0,0.6,0.1,0.9,0.3c0.2,0.2,0.4,0.5,0.4,0.8s-0.1,0.6-0.4,0.8c-0.2,0.2-0.5,0.3-0.9,0.3h-4.9v4.5h6.1
			c0.3,0,0.6,0.1,0.9,0.3s0.4,0.5,0.4,0.8s-0.1,0.6-0.4,0.8c-0.2,0.2-0.5,0.3-0.9,0.3h-7.4c-0.3,0-0.6-0.1-0.9-0.3
			c-0.2-0.2-0.4-0.5-0.4-0.8V49.5c0-0.3,0.1-0.6,0.4-0.8c0.2-0.2,0.5-0.3,0.9-0.3L231,48.5L231,48.5z"/>
		<path class="st2" d="M236.9,63.1c0,0.3-0.1,0.6-0.4,0.8c-0.2,0.2-0.5,0.3-0.9,0.3c-0.3,0-0.6-0.1-0.9-0.3
			c-0.2-0.2-0.4-0.5-0.4-0.8V49.6c0-0.3,0.1-0.6,0.4-0.8c0.2-0.2,0.5-0.3,0.9-0.3h3.7c1.4,0,2.5,0.4,3.5,1.3s1.4,1.9,1.4,3.2
			c0,1.2-0.5,2.3-1.4,3.2c-0.5,0.5-1.1,0.8-1.7,1l2.9,5.2l0,0c0.2,0.2,0.2,0.4,0.2,0.7c0,0.3-0.1,0.6-0.4,0.8
			c-0.2,0.2-0.5,0.3-0.9,0.3c-0.3,0-0.6-0.1-0.9-0.3c-0.1-0.1-0.2-0.2-0.2-0.3l-3.3-6.1h-1.7L236.9,63.1L236.9,63.1z M236.9,50.8
			v4.5h2.5c0.7,0,1.3-0.2,1.7-0.7s0.7-1,0.7-1.6s-0.2-1.2-0.7-1.6s-1.1-0.7-1.7-0.7L236.9,50.8L236.9,50.8z"/>
		<path class="st2" d="M266.1,49.4c0.1-0.3,0.3-0.5,0.6-0.7c0.3-0.2,0.6-0.2,0.9-0.1c0.3,0.1,0.6,0.2,0.8,0.5
			c0.2,0.3,0.2,0.5,0.2,0.8l-3.4,13.4c-0.1,0.3-0.3,0.5-0.6,0.7c-0.3,0.2-0.6,0.2-0.9,0.2h-0.5c-0.3,0-0.6,0-0.9-0.2
			s-0.5-0.4-0.6-0.7l-3.4-13.4c-0.1-0.3,0-0.6,0.2-0.8c0.2-0.3,0.4-0.4,0.8-0.5c0.3-0.1,0.6,0,0.9,0.1c0.3,0.2,0.5,0.4,0.6,0.7
			l2.7,10.8L266.1,49.4z"/>
		<path class="st2" d="M270.5,53c0-1.2,0.5-2.3,1.4-3.2c1-0.9,2.1-1.3,3.5-1.3s2.5,0.4,3.5,1.3s1.4,1.9,1.4,3.2v6.7
			c0,1.2-0.5,2.3-1.4,3.2s-2.1,1.3-3.5,1.3s-2.5-0.4-3.5-1.3s-1.4-1.9-1.4-3.2V53z M277.9,53c0-0.6-0.2-1.2-0.7-1.6
			s-1.1-0.7-1.7-0.7c-0.7,0-1.3,0.2-1.7,0.7c-0.5,0.4-0.7,1-0.7,1.6v6.7c0,0.6,0.2,1.2,0.7,1.6s1.1,0.7,1.7,0.7
			c0.7,0,1.3-0.2,1.7-0.7s0.7-1,0.7-1.6V53z"/>
		<path class="st2" d="M291.2,48.5c0.3,0,0.6,0.1,0.9,0.3c0.2,0.2,0.4,0.5,0.4,0.8s-0.1,0.6-0.4,0.8c-0.2,0.2-0.5,0.3-0.9,0.3h-2.5
			v12.4c0,0.3-0.1,0.6-0.4,0.8c-0.2,0.2-0.5,0.3-0.9,0.3c-0.3,0-0.6-0.1-0.9-0.3c-0.2-0.2-0.4-0.5-0.4-0.8V50.7h-2.5
			c-0.3,0-0.6-0.1-0.9-0.3c-0.2-0.2-0.4-0.5-0.4-0.8s0.1-0.6,0.4-0.8c0.2-0.2,0.5-0.3,0.9-0.3H291.2z"/>
		<path class="st2" d="M297.1,63.1c0,0.3-0.1,0.6-0.4,0.8c-0.2,0.2-0.5,0.3-0.9,0.3s-0.6-0.1-0.9-0.3c-0.2-0.2-0.4-0.5-0.4-0.8V49.6
			c0-0.3,0.1-0.6,0.4-0.8c0.2-0.2,0.5-0.3,0.9-0.3h3.7c1.4,0,2.5,0.4,3.5,1.3s1.4,1.9,1.4,3.2c0,1.2-0.5,2.3-1.4,3.2
			c-0.5,0.5-1.1,0.8-1.7,1l2.9,5.2l0,0c0.2,0.2,0.2,0.4,0.2,0.7c0,0.3-0.1,0.6-0.4,0.8c-0.2,0.2-0.5,0.3-0.9,0.3s-0.6-0.1-0.9-0.3
			c-0.1-0.1-0.2-0.2-0.2-0.3l-3.3-6.1H297L297.1,63.1L297.1,63.1z M297.1,50.8v4.5h2.5c0.7,0,1.3-0.2,1.7-0.7s0.7-1,0.7-1.6
			s-0.2-1.2-0.7-1.6s-1.1-0.7-1.7-0.7L297.1,50.8L297.1,50.8z"/>
		<path class="st2" d="M315.3,48.5c0.3,0,0.6,0.1,0.9,0.3c0.2,0.2,0.4,0.5,0.4,0.8s-0.1,0.6-0.4,0.8c-0.2,0.2-0.5,0.3-0.9,0.3h-6.1
			v4.5h4.9c0.3,0,0.6,0.1,0.9,0.3c0.2,0.2,0.4,0.5,0.4,0.8s-0.1,0.6-0.4,0.8c-0.2,0.2-0.5,0.3-0.9,0.3h-4.9v4.5h6.1
			c0.3,0,0.6,0.1,0.9,0.3c0.2,0.2,0.4,0.5,0.4,0.8s-0.1,0.6-0.4,0.8c-0.2,0.2-0.5,0.3-0.9,0.3h-7.4c-0.3,0-0.6-0.1-0.9-0.3
			c-0.2-0.2-0.4-0.5-0.4-0.8V49.5c0-0.3,0.1-0.6,0.4-0.8c0.2-0.2,0.5-0.3,0.9-0.3L315.3,48.5L315.3,48.5z"/>
		<path class="st2" d="M339.3,48.5c0.3,0,0.6,0.1,0.9,0.3c0.2,0.2,0.4,0.5,0.4,0.8s-0.1,0.6-0.4,0.8c-0.2,0.2-0.5,0.3-0.9,0.3h-2.5
			v12.4c0,0.3-0.1,0.6-0.4,0.8c-0.2,0.2-0.5,0.3-0.9,0.3c-0.3,0-0.6-0.1-0.9-0.3c-0.2-0.2-0.4-0.5-0.4-0.8V50.7h-2.5
			c-0.3,0-0.6-0.1-0.9-0.3c-0.2-0.2-0.4-0.5-0.4-0.8s0.1-0.6,0.4-0.8c0.2-0.2,0.5-0.3,0.9-0.3H339.3z"/>
		<path class="st2" d="M351.4,48.5c0.3,0,0.6,0.1,0.9,0.3c0.2,0.2,0.4,0.5,0.4,0.8s-0.1,0.6-0.4,0.8c-0.2,0.2-0.5,0.3-0.9,0.3h-6.1
			v4.5h4.9c0.3,0,0.6,0.1,0.9,0.3c0.2,0.2,0.4,0.5,0.4,0.8s-0.1,0.6-0.4,0.8c-0.2,0.2-0.5,0.3-0.9,0.3h-4.9v4.5h6.1
			c0.3,0,0.6,0.1,0.9,0.3c0.2,0.2,0.4,0.5,0.4,0.8s-0.1,0.6-0.4,0.8c-0.2,0.2-0.5,0.3-0.9,0.3H344c-0.3,0-0.6-0.1-0.9-0.3
			c-0.2-0.2-0.4-0.5-0.4-0.8V49.5c0-0.3,0.1-0.6,0.4-0.8c0.2-0.2,0.5-0.3,0.9-0.3L351.4,48.5L351.4,48.5z"/>
		<path class="st2" d="M357.3,63.1c0,0.3-0.1,0.6-0.4,0.8c-0.2,0.2-0.5,0.3-0.9,0.3s-0.6-0.1-0.9-0.3c-0.2-0.2-0.4-0.5-0.4-0.8V49.6
			c0-0.3,0.1-0.6,0.4-0.8c0.2-0.2,0.5-0.3,0.9-0.3s0.6,0.1,0.9,0.3c0.1,0.1,0.2,0.2,0.2,0.3l2.6,4.7l2.6-4.7
			c0.1-0.1,0.1-0.2,0.2-0.3c0.2-0.2,0.5-0.3,0.9-0.3s0.6,0.1,0.9,0.3c0.2,0.2,0.4,0.5,0.4,0.8v13.5c0,0.3-0.1,0.6-0.4,0.8
			c-0.2,0.2-0.5,0.3-0.9,0.3s-0.6-0.1-0.9-0.3c-0.2-0.2-0.4-0.5-0.4-0.8v-8.7l-1.1,2l-1.4,2.5l-1.4-2.5l-1.1-2v8.7H357.3z"/>
		<path class="st2" d="M369.3,63.1c0,0.3-0.1,0.6-0.4,0.8c-0.2,0.2-0.5,0.3-0.9,0.3s-0.6-0.1-0.9-0.3c-0.2-0.2-0.4-0.5-0.4-0.8V49.6
			c0-0.3,0.1-0.6,0.4-0.8c0.2-0.2,0.5-0.3,0.9-0.3h3.7c1.4,0,2.5,0.4,3.5,1.3s1.4,1.9,1.4,3.2c0,1.2-0.5,2.3-1.4,3.2
			s-2.1,1.3-3.5,1.3h-2.4V63.1z M369.3,50.8v4.5h2.5c0.7,0,1.3-0.2,1.7-0.7s0.7-1,0.7-1.6s-0.2-1.2-0.7-1.6s-1.1-0.7-1.7-0.7
			L369.3,50.8L369.3,50.8z"/>
		<path class="st2" d="M387.5,62c0.3,0,0.6,0.1,0.9,0.3c0.2,0.2,0.4,0.5,0.4,0.8s-0.1,0.6-0.4,0.8c-0.2,0.2-0.5,0.3-0.9,0.3h-7.4
			c-0.3,0-0.6-0.1-0.9-0.3c-0.2-0.2-0.4-0.5-0.4-0.8V49.6c0-0.3,0.1-0.6,0.4-0.8c0.2-0.2,0.5-0.3,0.9-0.3s0.6,0.1,0.9,0.3
			c0.2,0.2,0.4,0.5,0.4,0.8V62C381.4,62,387.5,62,387.5,62z"/>
		<path class="st2" d="M393.5,62l-0.4,1.4c-0.1,0.3-0.3,0.5-0.6,0.7s-0.6,0.2-0.9,0.1s-0.6-0.2-0.8-0.5c-0.2-0.3-0.2-0.5-0.2-0.8
			l3.4-13.4c0.1-0.3,0.3-0.5,0.6-0.7c0.3-0.2,0.6-0.2,0.9-0.2h0.5c0.3,0,0.6,0,0.9,0.2s0.5,0.4,0.6,0.7l3.4,13.4
			c0.1,0.3,0,0.6-0.2,0.8c-0.2,0.3-0.4,0.4-0.8,0.5c-0.3,0.1-0.6,0-0.9-0.1s-0.5-0.4-0.6-0.7L398,62H393.5z M394.1,59.7h3.6
			l-1.8-7.1L394.1,59.7z"/>
		<path class="st2" d="M411.6,48.5c0.3,0,0.6,0.1,0.9,0.3c0.2,0.2,0.4,0.5,0.4,0.8s-0.1,0.6-0.4,0.8c-0.2,0.2-0.5,0.3-0.9,0.3h-2.5
			v12.4c0,0.3-0.1,0.6-0.4,0.8c-0.2,0.2-0.5,0.3-0.9,0.3c-0.3,0-0.6-0.1-0.9-0.3c-0.2-0.2-0.4-0.5-0.4-0.8V50.7H404
			c-0.3,0-0.6-0.1-0.9-0.3c-0.2-0.2-0.4-0.5-0.4-0.8s0.1-0.6,0.4-0.8c0.2-0.2,0.5-0.3,0.9-0.3H411.6z"/>
		<path class="st2" d="M423.6,48.5c0.3,0,0.6,0.1,0.9,0.3c0.2,0.2,0.4,0.5,0.4,0.8s-0.1,0.6-0.4,0.8c-0.2,0.2-0.5,0.3-0.9,0.3h-6.1
			v4.5h4.9c0.3,0,0.6,0.1,0.9,0.3c0.2,0.2,0.4,0.5,0.4,0.8s-0.1,0.6-0.4,0.8c-0.2,0.2-0.5,0.3-0.9,0.3h-4.9v4.5h6.1
			c0.3,0,0.6,0.1,0.9,0.3c0.2,0.2,0.4,0.5,0.4,0.8s-0.1,0.6-0.4,0.8c-0.2,0.2-0.5,0.3-0.9,0.3h-7.3c-0.3,0-0.6-0.1-0.9-0.3
			c-0.2-0.2-0.4-0.5-0.4-0.8V49.5c0-0.3,0.1-0.6,0.4-0.8c0.2-0.2,0.5-0.3,0.9-0.3L423.6,48.5L423.6,48.5z"/>
	</g>
	<g>
		<path class="st2" d="M255.9,36.5c0.3,0,0.6,0.1,0.9,0.3c0.2,0.2,0.4,0.5,0.4,0.7s-0.1,0.5-0.4,0.7c-0.2,0.2-0.5,0.3-0.9,0.3h-7.2
			c-0.3,0-0.6-0.1-0.9-0.3c-0.2-0.2-0.4-0.5-0.4-0.7s0.1-0.4,0.2-0.6l0,0l6.3-10.9h-5.3c-0.3,0-0.6-0.1-0.9-0.3
			c-0.2-0.2-0.4-0.5-0.4-0.7c0-0.3,0.1-0.5,0.4-0.7c0.2-0.2,0.5-0.3,0.9-0.3h7.2c0.3,0,0.6,0.1,0.9,0.3c0.2,0.2,0.4,0.5,0.4,0.7
			s-0.1,0.4-0.2,0.6l0,0l-6.3,10.9H255.9z"/>
	</g>
</g>
</svg>
