<?xml version="1.0" encoding="utf-8"?>
<!-- Generator: Adobe Illustrator 23.0.1, SVG Export Plug-In . SVG Version: 6.00 Build 0)  -->
<svg version="1.1" id="Calque_1" xmlns="http://www.w3.org/2000/svg" xmlns:xlink="http://www.w3.org/1999/xlink" x="0px" y="0px"
	 viewBox="0 0 192 54.4" style="enable-background:new 0 0 192 54.4;" xml:space="preserve">
<style type="text/css">
	.st0{fill:#1D1C33;}
	.st1{opacity:0.93;fill:#1D1C33;}
	.st2{fill:#4EACBE;}
	.st3{fill:#4899A4;}
</style>
<g>
	<path class="st0" d="M67.4,16.6c0-0.4-0.1-0.6-0.3-0.8s-0.5-0.4-1-0.6s-0.9-0.4-1.1-0.6s-0.5-0.4-0.6-0.7s-0.2-0.5-0.2-0.9
		c0-0.6,0.2-1,0.6-1.4s0.9-0.5,1.5-0.5c0.4,0,0.8,0.1,1.1,0.3s0.6,0.4,0.8,0.8s0.3,0.7,0.3,1.1h-0.9c0-0.4-0.1-0.8-0.3-1
		s-0.5-0.4-0.9-0.4c-0.4,0-0.6,0.1-0.8,0.3s-0.3,0.5-0.3,0.9c0,0.3,0.1,0.6,0.3,0.8s0.5,0.4,1,0.5c0.7,0.2,1.2,0.5,1.5,0.9
		s0.5,0.8,0.5,1.3c0,0.6-0.2,1-0.6,1.4s-0.9,0.5-1.5,0.5c-0.4,0-0.8-0.1-1.1-0.3s-0.6-0.4-0.8-0.8S64,16.7,64,16.3h0.9
		c0,0.4,0.1,0.8,0.4,1s0.6,0.4,1,0.4c0.4,0,0.7-0.1,0.9-0.3S67.4,16.9,67.4,16.6z"/>
	<path class="st0" d="M72.9,15.1h-2.5v2.5h2.9v0.8h-3.8v-7.1h3.8V12h-2.9v2.3h2.5V15.1z M71.8,9.3h1.1l-1.3,1.4l-0.7,0L71.8,9.3z"/>
	<path class="st0" d="M75.4,17.6h2.8v0.8h-3.7v-7.1h0.9V17.6z"/>
	<path class="st0" d="M82.6,15.1h-2.5v2.5h2.9v0.8h-3.8v-7.1H83V12h-2.9v2.3h2.5V15.1z"/>
	<path class="st0" d="M88.6,16.1c0,0.8-0.3,1.3-0.6,1.8c-0.4,0.4-0.9,0.6-1.6,0.6c-0.7,0-1.3-0.3-1.7-0.8S84,16.4,84,15.5v-1.3
		c0-0.9,0.2-1.7,0.6-2.2c0.4-0.5,1-0.8,1.8-0.8c0.7,0,1.2,0.2,1.6,0.6c0.4,0.4,0.6,1,0.6,1.8h-0.9c0-0.6-0.2-1-0.4-1.2
		s-0.5-0.4-0.9-0.4c-0.5,0-0.9,0.2-1.1,0.6s-0.4,0.9-0.4,1.7v1.3c0,0.7,0.1,1.3,0.4,1.7c0.2,0.4,0.6,0.6,1.1,0.6s0.8-0.1,1-0.3
		s0.3-0.6,0.4-1.2H88.6z"/>
	<path class="st0" d="M93.9,12H92v6.3h-0.9V12h-1.9v-0.8h4.6V12z"/>
	<path class="st0" d="M95.9,18.4H95v-7.1h0.9V18.4z"/>
	<path class="st0" d="M102,15.4c0,1-0.2,1.7-0.6,2.2s-1,0.8-1.8,0.8c-0.7,0-1.3-0.3-1.7-0.8c-0.4-0.5-0.6-1.2-0.7-2.2v-1.3
		c0-1,0.2-1.7,0.6-2.2s1-0.8,1.8-0.8c0.7,0,1.3,0.3,1.8,0.8c0.4,0.5,0.6,1.3,0.6,2.2V15.4z M101.2,14.2c0-0.8-0.1-1.3-0.4-1.7
		c-0.2-0.4-0.6-0.5-1.1-0.5c-0.5,0-0.9,0.2-1.1,0.6c-0.3,0.4-0.4,0.9-0.4,1.6v1.3c0,0.7,0.1,1.3,0.4,1.7c0.3,0.4,0.6,0.6,1.1,0.6
		s0.9-0.2,1.1-0.5s0.4-0.9,0.4-1.6V14.2z"/>
	<path class="st0" d="M108.1,18.4h-0.9l-2.8-5.5v5.5h-0.9v-7.1h0.9l2.9,5.5v-5.5h0.9V18.4z"/>
	<path class="st0" d="M114.3,18.4h-0.9l-2.8-5.5v5.5h-0.9v-7.1h0.9l2.9,5.5v-5.5h0.9V18.4z"/>
	<path class="st0" d="M119.2,15.1h-2.5v2.5h2.9v0.8h-3.8v-7.1h3.8V12h-2.9v2.3h2.5V15.1z"/>
	<path class="st0" d="M121.4,17.6h3.4v0.8h-4.4v-0.7l3.2-5.6h-3.2v-0.8h4.2V12L121.4,17.6z"/>
	<path class="st0" d="M132.5,11.3v5.1c0,0.7-0.2,1.2-0.6,1.6s-0.9,0.6-1.6,0.6c-0.7,0-1.2-0.2-1.6-0.6s-0.6-0.9-0.6-1.6v-5.1h0.9v5
		c0,0.5,0.1,0.8,0.3,1.1c0.2,0.2,0.5,0.4,1,0.4c0.5,0,0.8-0.1,1-0.4c0.2-0.2,0.3-0.6,0.3-1.1v-5H132.5z"/>
	<path class="st0" d="M138.6,18.4h-0.9l-2.8-5.5v5.5h-0.9v-7.1h0.9l2.9,5.5v-5.5h0.9V18.4z"/>
	<path class="st0" d="M143.5,15.1H141v2.5h2.9v0.8h-3.8v-7.1h3.8V12H141v2.3h2.5V15.1z"/>
	<path class="st0" d="M150.8,15.3h-2.2v1.9h2.6v1.2h-4.1v-7.1h4.1v1.2h-2.6v1.7h2.2V15.3z"/>
	<path class="st0" d="M157,18.4h-1.4l-2.1-4.7v4.7h-1.4v-7.1h1.4l2.1,4.7v-4.7h1.4V18.4z"/>
	<path class="st0" d="M162.7,12.5h-1.8v5.9h-1.4v-5.9h-1.7v-1.2h4.9V12.5z"/>
	<path class="st0" d="M165,18.4h-1.4v-7.1h1.4V18.4z"/>
	<path class="st0" d="M170.6,12.5h-1.8v5.9h-1.4v-5.9h-1.7v-1.2h4.9V12.5z"/>
	<path class="st0" d="M175.1,15.3h-2.2v1.9h2.6v1.2h-4.1v-7.1h4.1v1.2h-2.6v1.7h2.2V15.3z M173.9,9.3h1.6l-1.4,1.5h-1.2L173.9,9.3z"
		/>
	<path class="st0" d="M65.2,27.6v2.8h-0.9v-7.1h2.3c0.7,0,1.2,0.2,1.6,0.6c0.4,0.4,0.6,0.9,0.6,1.6c0,0.7-0.2,1.2-0.5,1.6
		c-0.4,0.4-0.9,0.6-1.5,0.6H65.2z M65.2,26.8h1.4c0.4,0,0.7-0.1,0.9-0.4c0.2-0.2,0.3-0.6,0.3-1c0-0.4-0.1-0.8-0.3-1S67,24,66.6,24
		h-1.4V26.8z"/>
	<path class="st0" d="M74.5,27.4c0,1-0.2,1.7-0.6,2.2s-1,0.8-1.8,0.8c-0.7,0-1.3-0.3-1.7-0.8c-0.4-0.5-0.6-1.2-0.7-2.2v-1.3
		c0-1,0.2-1.7,0.6-2.2c0.4-0.5,1-0.8,1.8-0.8c0.7,0,1.3,0.3,1.8,0.8c0.4,0.5,0.6,1.3,0.6,2.2V27.4z M73.6,26.2
		c0-0.8-0.1-1.3-0.4-1.7C73,24.2,72.6,24,72.1,24c-0.5,0-0.9,0.2-1.1,0.6s-0.4,0.9-0.4,1.6v1.3c0,0.7,0.1,1.3,0.4,1.7
		s0.6,0.6,1.1,0.6s0.9-0.2,1.1-0.5s0.4-0.9,0.4-1.6V26.2z"/>
	<path class="st0" d="M80.1,23.3v5.1c0,0.7-0.2,1.2-0.6,1.6c-0.4,0.4-0.9,0.6-1.6,0.6c-0.7,0-1.2-0.2-1.6-0.6
		c-0.4-0.4-0.6-0.9-0.6-1.6v-5.1h0.9v5c0,0.5,0.1,0.8,0.3,1.1c0.2,0.2,0.5,0.4,1,0.4c0.5,0,0.8-0.1,1-0.4c0.2-0.2,0.3-0.6,0.3-1.1
		v-5H80.1z"/>
	<path class="st0" d="M83.6,27.5h-1.2v2.9h-0.9v-7.1h2c0.7,0,1.2,0.2,1.6,0.5c0.4,0.4,0.5,0.9,0.5,1.6c0,0.4-0.1,0.8-0.3,1.2
		c-0.2,0.3-0.5,0.6-0.8,0.7l1.4,3v0.1h-1L83.6,27.5z M82.4,26.7h1.1c0.4,0,0.7-0.1,0.9-0.4c0.2-0.2,0.3-0.6,0.3-1
		c0-0.9-0.4-1.4-1.2-1.4h-1.1V26.7z"/>
	<path class="st0" d="M91.1,29l1.6-5.7h1l-2.2,7.1h-0.8l-2.2-7.1h1L91.1,29z"/>
	<path class="st0" d="M99.3,27.4c0,1-0.2,1.7-0.6,2.2s-1,0.8-1.8,0.8c-0.7,0-1.3-0.3-1.7-0.8c-0.4-0.5-0.6-1.2-0.7-2.2v-1.3
		c0-1,0.2-1.7,0.6-2.2c0.4-0.5,1-0.8,1.8-0.8c0.7,0,1.3,0.3,1.8,0.8c0.4,0.5,0.6,1.3,0.6,2.2V27.4z M98.4,26.2
		c0-0.8-0.1-1.3-0.4-1.7c-0.2-0.4-0.6-0.5-1.1-0.5c-0.5,0-0.9,0.2-1.1,0.6c-0.3,0.4-0.4,0.9-0.4,1.6v1.3c0,0.7,0.1,1.3,0.4,1.7
		c0.3,0.4,0.6,0.6,1.1,0.6s0.9-0.2,1.1-0.5s0.4-0.9,0.4-1.6V26.2z"/>
	<path class="st0" d="M101.6,30.4h-0.9v-7.1h0.9V30.4z"/>
	<path class="st0" d="M105.3,27.5H104v2.9h-0.9v-7.1h2c0.7,0,1.2,0.2,1.6,0.5c0.4,0.4,0.5,0.9,0.5,1.6c0,0.4-0.1,0.8-0.3,1.2
		c-0.2,0.3-0.5,0.6-0.8,0.7l1.4,3v0.1h-1L105.3,27.5z M104,26.7h1.1c0.4,0,0.7-0.1,0.9-0.4c0.2-0.2,0.3-0.6,0.3-1
		c0-0.9-0.4-1.4-1.2-1.4H104V26.7z"/>
	<path class="st0" d="M114.1,27.1h-2.5v2.5h2.9v0.8h-3.8v-7.1h3.8V24h-2.9v2.3h2.5V27.1z"/>
	<path class="st0" d="M119.9,24h-1.9v6.3h-0.9V24h-1.9v-0.8h4.6V24z"/>
	<path class="st0" d="M127.1,24h-1.9v6.3h-0.9V24h-1.9v-0.8h4.6V24z"/>
	<path class="st0" d="M131.5,27.1H129v2.5h2.9v0.8h-3.8v-7.1h3.8V24H129v2.3h2.5V27.1z M130.4,21.3h1.1l-1.3,1.4l-0.7,0L130.4,21.3z
		"/>
	<path class="st0" d="M134,29.6h2.8v0.8h-3.7v-7.1h0.9V29.6z"/>
	<path class="st0" d="M141.2,27.1h-2.5v2.5h2.9v0.8h-3.8v-7.1h3.8V24h-2.9v2.3h2.5V27.1z M140.1,21.3h1.1l-1.3,1.4l-0.7,0
		L140.1,21.3z"/>
	<path class="st0" d="M147.2,28.1c0,0.8-0.3,1.3-0.6,1.8c-0.4,0.4-0.9,0.6-1.6,0.6c-0.7,0-1.3-0.3-1.7-0.8c-0.4-0.5-0.6-1.3-0.6-2.2
		v-1.3c0-0.9,0.2-1.7,0.6-2.2c0.4-0.5,1-0.8,1.8-0.8c0.7,0,1.2,0.2,1.6,0.6c0.4,0.4,0.6,1,0.6,1.8h-0.9c0-0.6-0.2-1-0.4-1.2
		s-0.5-0.4-0.9-0.4c-0.5,0-0.9,0.2-1.1,0.6c-0.3,0.4-0.4,0.9-0.4,1.7v1.3c0,0.7,0.1,1.3,0.4,1.7c0.2,0.4,0.6,0.6,1.1,0.6
		s0.8-0.1,1-0.3s0.3-0.6,0.4-1.2H147.2z"/>
	<path class="st0" d="M153.1,30.4h-0.9v-3.3h-2.9v3.3h-0.9v-7.1h0.9v3.1h2.9v-3.1h0.9V30.4z"/>
	<path class="st0" d="M158.1,28.5h-2.4l-0.6,1.9h-0.9l2.3-7.1h0.8l2.3,7.1h-0.9L158.1,28.5z M155.9,27.8h1.9l-1-3.2L155.9,27.8z"/>
	<path class="st0" d="M162.7,27.5h-1.2v2.9h-0.9v-7.1h2c0.7,0,1.2,0.2,1.6,0.5c0.4,0.4,0.5,0.9,0.5,1.6c0,0.4-0.1,0.8-0.3,1.2
		c-0.2,0.3-0.5,0.6-0.8,0.7l1.4,3v0.1h-1L162.7,27.5z M161.4,26.7h1.1c0.4,0,0.7-0.1,0.9-0.4c0.2-0.2,0.3-0.6,0.3-1
		c0-0.9-0.4-1.4-1.2-1.4h-1.1V26.7z"/>
	<path class="st0" d="M170.3,29.5l-0.2,0.2c-0.4,0.5-1.1,0.8-2,0.8c-0.8,0-1.4-0.3-1.8-0.8c-0.4-0.5-0.7-1.2-0.7-2.2v-1.4
		c0-1,0.2-1.7,0.6-2.2c0.4-0.5,1-0.7,1.8-0.7c0.7,0,1.2,0.2,1.6,0.6c0.4,0.4,0.6,0.9,0.6,1.6h-0.9c0-0.4-0.2-0.8-0.4-1
		c-0.2-0.2-0.5-0.4-1-0.4c-0.5,0-0.9,0.2-1.1,0.5c-0.2,0.3-0.4,0.9-0.4,1.6v1.5c0,0.7,0.1,1.3,0.4,1.6c0.3,0.4,0.7,0.6,1.2,0.6
		c0.5,0,0.8-0.1,1.1-0.3l0.1-0.1v-1.6h-1.3v-0.8h2.2V29.5z"/>
	<path class="st0" d="M175.1,27.1h-2.5v2.5h2.9v0.8h-3.8v-7.1h3.8V24h-2.9v2.3h2.5V27.1z"/>
	<path class="st0" d="M178.8,27.5h-1.2v2.9h-0.9v-7.1h2c0.7,0,1.2,0.2,1.6,0.5c0.4,0.4,0.5,0.9,0.5,1.6c0,0.4-0.1,0.8-0.3,1.2
		c-0.2,0.3-0.5,0.6-0.8,0.7l1.4,3v0.1h-1L178.8,27.5z M177.6,26.7h1.1c0.4,0,0.7-0.1,0.9-0.4c0.2-0.2,0.3-0.6,0.3-1
		c0-0.9-0.4-1.4-1.2-1.4h-1.1V26.7z"/>
	<path class="st0" d="M65.2,41.6H68v0.8h-3.7v-7.1h0.9V41.6z"/>
	<path class="st0" d="M72.5,39.1H70v2.5h2.9v0.8h-3.8v-7.1h3.8V36H70v2.3h2.5V39.1z"/>
	<path class="st0" d="M77.5,35.3l1.9,5.8l1.9-5.8h1.2v7.1h-0.9v-2.8l0.1-2.8l-1.9,5.5H79l-1.9-5.5l0.1,2.8v2.8h-0.9v-7.1H77.5z"/>
	<path class="st0" d="M88.5,39.4c0,1-0.2,1.7-0.6,2.2s-1,0.8-1.8,0.8c-0.7,0-1.3-0.3-1.7-0.8c-0.4-0.5-0.6-1.2-0.7-2.2v-1.3
		c0-1,0.2-1.7,0.6-2.2c0.4-0.5,1-0.8,1.8-0.8c0.7,0,1.3,0.3,1.8,0.8c0.4,0.5,0.6,1.3,0.6,2.2V39.4z M87.6,38.2
		c0-0.8-0.1-1.3-0.4-1.7C87,36.2,86.6,36,86.1,36c-0.5,0-0.9,0.2-1.1,0.6c-0.3,0.4-0.4,0.9-0.4,1.6v1.3c0,0.7,0.1,1.3,0.4,1.7
		c0.3,0.4,0.6,0.6,1.1,0.6s0.9-0.2,1.1-0.5s0.4-0.9,0.4-1.6V38.2z"/>
	<path class="st0" d="M89.9,42.4v-7.1h1.7c0.8,0,1.5,0.3,1.9,0.8c0.5,0.5,0.7,1.2,0.7,2.2v1.2c0,0.9-0.2,1.7-0.7,2.2
		c-0.5,0.5-1.1,0.8-2,0.8H89.9z M90.8,36v5.6h0.7c0.6,0,1.1-0.2,1.4-0.5s0.4-0.9,0.4-1.6v-1.3c0-0.7-0.1-1.3-0.4-1.6
		c-0.3-0.4-0.7-0.5-1.3-0.5H90.8z"/>
	<path class="st0" d="M99,39.1h-2.5v2.5h2.9v0.8h-3.8v-7.1h3.8V36h-2.9v2.3H99V39.1z M98,34.7l-0.8,0L96,33.3H97L98,34.7z"/>
	<path class="st0" d="M101.5,41.6h2.8v0.8h-3.7v-7.1h0.9V41.6z"/>
	<path class="st0" d="M108.7,39.1h-2.5v2.5h2.9v0.8h-3.8v-7.1h3.8V36h-2.9v2.3h2.5V39.1z"/>
	<path class="st0" d="M112.6,42.4v-7.1h1.7c0.8,0,1.5,0.3,1.9,0.8c0.5,0.5,0.7,1.2,0.7,2.2v1.2c0,0.9-0.2,1.7-0.7,2.2
		c-0.5,0.5-1.1,0.8-2,0.8H112.6z M113.5,36v5.6h0.7c0.6,0,1.1-0.2,1.4-0.5s0.4-0.9,0.4-1.6v-1.3c0-0.7-0.1-1.3-0.4-1.6
		c-0.3-0.4-0.7-0.5-1.3-0.5H113.5z"/>
	<path class="st0" d="M121.7,39.1h-2.5v2.5h2.9v0.8h-3.8v-7.1h3.8V36h-2.9v2.3h2.5V39.1z"/>
	<path class="st0" d="M129.5,36h-1.9v6.3h-0.9V36h-1.9v-0.8h4.6V36z"/>
	<path class="st0" d="M134,39.1h-2.5v2.5h2.9v0.8h-3.8v-7.1h3.8V36h-2.9v2.3h2.5V39.1z"/>
	<path class="st0" d="M136.7,35.3l1.9,5.8l1.9-5.8h1.2v7.1h-0.9v-2.8l0.1-2.8l-1.9,5.5h-0.7l-1.9-5.5l0.1,2.8v2.8h-0.9v-7.1H136.7z"
		/>
	<path class="st0" d="M144,39.6v2.8h-0.9v-7.1h2.3c0.7,0,1.2,0.2,1.6,0.6c0.4,0.4,0.6,0.9,0.6,1.6c0,0.7-0.2,1.2-0.5,1.6
		c-0.4,0.4-0.9,0.6-1.5,0.6H144z M144,38.8h1.4c0.4,0,0.7-0.1,0.9-0.4c0.2-0.2,0.3-0.6,0.3-1c0-0.4-0.1-0.8-0.3-1s-0.5-0.4-0.9-0.4
		H144V38.8z"/>
	<path class="st0" d="M149.5,41.6h2.8v0.8h-3.7v-7.1h0.9V41.6z"/>
	<path class="st0" d="M156.8,40.5h-2.4l-0.6,1.9h-0.9l2.3-7.1h0.8l2.3,7.1h-0.9L156.8,40.5z M154.6,39.8h1.9l-1-3.2L154.6,39.8z"/>
	<path class="st0" d="M162.7,36h-1.9v6.3H160V36h-1.9v-0.8h4.6V36z"/>
	<path class="st0" d="M167.2,39.1h-2.5v2.5h2.9v0.8h-3.8v-7.1h3.8V36h-2.9v2.3h2.5V39.1z"/>
</g>
<g>
	<g>
		<g>
			<path class="st1" d="M34,44.2c-4.4,0-8.5-0.6-11.6-1.6C18,41,17,39.1,17,37.8c0-1.8,1.6-3,2.9-3.7c0.5-0.3,1.1-0.1,1.4,0.4
				c0.3,0.5,0.1,1.1-0.4,1.4c-1.2,0.7-1.9,1.4-1.9,2c0,0.7,1.1,1.9,4,2.9c2.9,1,6.8,1.5,11,1.5s8.1-0.5,11-1.5c3-1,4-2.2,4-2.9
				c0-0.6-0.7-1.3-1.9-2c-0.5-0.3-0.7-0.9-0.4-1.4c0.3-0.5,0.9-0.7,1.4-0.4c1.3,0.7,2.9,2,2.9,3.7c0,1.4-0.9,3.3-5.4,4.8
				C42.5,43.6,38.4,44.2,34,44.2z"/>
			<path class="st0" d="M48.1,34c-0.5-0.3-1.1-0.1-1.4,0.4c-0.3,0.5-0.1,1.1,0.4,1.4c1.2,0.7,1.9,1.4,1.9,2c0,0.7-1.1,1.9-4,2.9
				c-2.9,1-6.8,1.5-11,1.5v2c0,0,0,0,0,0c4.4,0,8.5-0.6,11.6-1.6c4.4-1.5,5.4-3.4,5.4-4.8C51,36,49.4,34.8,48.1,34z"/>
		</g>
		<g>
			<path class="st1" d="M34,40.1c-2.8,0-5.5-0.3-7.5-0.9c-2.5-0.7-3.7-1.7-3.7-3c0-1.3,1.3-2.3,3.7-3c2-0.6,4.7-0.9,7.5-0.9
				s5.5,0.3,7.5,0.9c2.5,0.7,3.7,1.7,3.7,3c0,1.3-1.3,2.3-3.7,3C39.5,39.8,36.9,40.1,34,40.1z M24.8,36.2c0.1,0.2,0.8,0.7,2.6,1.2
				c1.8,0.5,4.2,0.7,6.6,0.7c2.5,0,4.8-0.3,6.6-0.7c1.8-0.5,2.5-1,2.6-1.2c-0.1-0.2-0.8-0.7-2.6-1.2c-1.8-0.5-4.2-0.7-6.6-0.7
				c-2.5,0-4.8,0.3-6.6,0.7C25.6,35.5,24.9,36,24.8,36.2z M43.3,36.3L43.3,36.3L43.3,36.3z"/>
			<path class="st0" d="M41.5,33.2c-2-0.6-4.7-0.9-7.5-0.9c0,0,0,0,0,0v2c2.5,0,4.8,0.3,6.6,0.7c1.8,0.5,2.5,1,2.6,1.2
				c-0.1,0.2-0.8,0.7-2.6,1.2c-1.8,0.5-4.2,0.7-6.6,0.7v2c0,0,0,0,0,0c2.8,0,5.5-0.3,7.5-0.9c2.5-0.7,3.7-1.7,3.7-3
				C45.3,34.9,44,33.9,41.5,33.2z"/>
		</g>
	</g>
	<g>
		<path class="st2" d="M34,10.2c-5.1,0-9.3,4.2-9.3,9.3c0,3.2,3.8,10.1,7.1,15.4c0.3,0.6,0.9,1,1.5,1.2c1.2,0.3,2.3-0.2,2.9-1.1
			c3.2-5.3,7.1-12.3,7.1-15.5C43.3,14.4,39.1,10.2,34,10.2z M35,22.4c-2.8,0.7-5.3-1.8-4.6-4.6c0.3-1.2,1.3-2.2,2.6-2.6
			c2.8-0.8,5.3,1.8,4.6,4.6C37.3,21.1,36.3,22.1,35,22.4z"/>
		<path class="st3" d="M34,10.2C34,10.2,34,10.2,34,10.2l0,4.9c2.6,0,4.5,2.6,3.4,5.3c-0.6,1.3-1.9,2.1-3.4,2.1h0v13.6h0
			c0.9,0,1.7-0.5,2.2-1.2c3.2-5.3,7.1-12.3,7.1-15.5C43.3,14.4,39.1,10.2,34,10.2z"/>
	</g>
	<g>
		<path class="st2" d="M11,29.8C11,29.8,11,29.8,11,29.8C11,29.8,11,29.8,11,29.8C11,29.8,11,29.8,11,29.8C11,29.8,11,29.8,11,29.8z
			 M11.1,29.6C11,29.6,11,29.6,11.1,29.6C11,29.6,11,29.6,11.1,29.6C11,29.6,11.1,29.6,11.1,29.6C11.1,29.6,11.1,29.6,11.1,29.6z
			 M11.1,29.4c0,0.1,0,0.1,0,0.1L11.1,29.4L11.1,29.4z M12.2,31.3L12.2,31.3c-0.2,0-0.5-0.1-0.5-0.4l0.1,0.1c0-0.1,0-0.1,0-0.2
			c0-0.1-0.1-0.2-0.1-0.2l-0.1,0.1c-0.1-0.1-0.1-0.3-0.2-0.4c0,0,0.1-0.1,0.1-0.1c0,0-0.1-0.1-0.1-0.1c0,0,0.1-0.1,0.1-0.1
			c0,0,0,0,0,0L11.4,30l0,0c0-0.1,0.1-0.1,0.1-0.2c0-0.1-0.2-0.1-0.2-0.2l0.2,0c0-0.2-0.4-0.2-0.4-0.3c0-0.1,0-0.3,0-0.4
			c0.1-0.9,0.3-1.9,0.8-2.7c0-0.1,0.1-0.1,0.2-0.1c0.4-0.1,0.9,0.1,1,0.5c0,0.2,0.1,0.6-0.3,0.7c-0.1,0-0.1,0-0.3,0
			c-0.2,0-0.3,0.1-0.4,0.3c-0.1,0.3-0.3,1.5-0.3,1.8c0,0.3-0.1,0.7,0,1.1c0,0.2,0.2,0.5,0.4,0.4c0.1,0,0.1-0.2,0.2-0.3l0,0.2
			c0-0.1,0.5-0.5,0.5-0.5c0.1,0,0.2,0.1,0.3,0.1c-0.2,0.2-0.1,0.4-0.2,0.4c-0.1,0.1-0.2,0.1-0.2,0.2c-0.1,0.1,0,0.2-0.1,0.2l-0.1,0
			c-0.1,0-0.1,0-0.1,0.1c0,0-0.2-0.1-0.2-0.1C12.2,31.2,12.2,31.3,12.2,31.3z M11.1,30.5C11.1,30.5,11.1,30.5,11.1,30.5
			C11.1,30.5,11.1,30.5,11.1,30.5C11.1,30.5,11,30.4,11.1,30.5C11.1,30.4,11.1,30.4,11.1,30.5z M11.2,29.9
			C11.2,29.9,11.1,29.9,11.2,29.9C11.1,29.9,11.1,29.9,11.2,29.9C11.2,29.9,11.2,29.8,11.2,29.9C11.2,29.9,11.2,29.9,11.2,29.9z
			 M11.2,29.6c0,0.1,0,0.1,0,0.2c0,0,0,0,0,0l0,0C11.1,29.7,11.2,29.6,11.2,29.6L11.2,29.6z M11.2,30.1
			C11.2,30.1,11.2,30.1,11.2,30.1C11.2,30.1,11.2,30.1,11.2,30.1C11.2,30.1,11.2,30.1,11.2,30.1C11.2,30.1,11.2,30.1,11.2,30.1z
			 M11.2,29.4C11.2,29.4,11.2,29.4,11.2,29.4C11.2,29.4,11.2,29.4,11.2,29.4C11.2,29.4,11.2,29.4,11.2,29.4
			C11.2,29.4,11.2,29.4,11.2,29.4z M11.2,30.9C11.2,30.9,11.2,30.9,11.2,30.9C11.2,30.8,11.2,30.8,11.2,30.9
			C11.2,30.8,11.3,30.8,11.2,30.9C11.3,30.8,11.2,30.9,11.2,30.9z M11.3,30.6L11.3,30.6L11.3,30.6L11.3,30.6z M11.3,30
			C11.3,30,11.3,30,11.3,30C11.2,30,11.2,30,11.3,30C11.2,30,11.2,29.9,11.3,30C11.3,29.9,11.3,30,11.3,30z M11.3,30.9
			C11.3,30.9,11.3,31,11.3,30.9C11.3,31,11.3,31,11.3,30.9C11.3,30.9,11.3,30.9,11.3,30.9C11.3,30.9,11.3,30.9,11.3,30.9z
			 M11.4,30.4C11.4,30.4,11.4,30.4,11.4,30.4C11.3,30.4,11.3,30.4,11.4,30.4C11.3,30.4,11.3,30.4,11.4,30.4
			C11.4,30.4,11.4,30.4,11.4,30.4z M11.4,30.8C11.4,30.8,11.4,30.8,11.4,30.8C11.4,30.8,11.3,30.8,11.4,30.8
			C11.3,30.8,11.3,30.7,11.4,30.8C11.4,30.7,11.4,30.8,11.4,30.8z M11.5,31l0,0.1L11.5,31L11.5,31z M11.4,30.4
			C11.4,30.5,11.4,30.5,11.4,30.4C11.4,30.5,11.4,30.5,11.4,30.4C11.4,30.4,11.4,30.4,11.4,30.4C11.4,30.4,11.4,30.4,11.4,30.4z
			 M11.4,30.6C11.4,30.6,11.4,30.6,11.4,30.6C11.4,30.6,11.4,30.6,11.4,30.6C11.4,30.6,11.4,30.6,11.4,30.6
			C11.4,30.6,11.4,30.6,11.4,30.6z M11.5,31.1C11.5,31.1,11.5,31.1,11.5,31.1C11.5,31.2,11.5,31.1,11.5,31.1
			C11.5,31.1,11.5,31.1,11.5,31.1C11.5,31.1,11.5,31.1,11.5,31.1z M11.6,31.1C11.6,31.1,11.6,31.1,11.6,31.1
			C11.6,31.1,11.6,31.1,11.6,31.1C11.6,31.1,11.6,31.1,11.6,31.1C11.6,31.1,11.6,31.1,11.6,31.1z M11.6,29.6L11.6,29.6l0-0.1
			C11.6,29.5,11.6,29.6,11.6,29.6z M12.5,31.3C12.5,31.3,12.5,31.3,12.5,31.3C12.5,31.3,12.5,31.4,12.5,31.3
			C12.5,31.3,12.5,31.3,12.5,31.3z M12.6,30.5C12.6,30.5,12.6,30.5,12.6,30.5c0-0.2,0-0.2,0.1-0.3L12.6,30.5z M12.7,30.4
			C12.7,30.4,12.7,30.4,12.7,30.4C12.7,30.5,12.7,30.4,12.7,30.4C12.6,30.4,12.6,30.4,12.7,30.4C12.7,30.4,12.7,30.4,12.7,30.4z
			 M12.7,30.1C12.7,30,12.7,30,12.7,30.1C12.8,30,12.7,30.1,12.7,30.1z M12.8,29.9C12.8,29.9,12.8,29.9,12.8,29.9l0.1-0.1
			C12.9,29.8,12.9,29.9,12.8,29.9z M12.9,30.1C12.9,30.1,12.9,30.1,12.9,30.1C12.8,30.1,12.8,30.1,12.9,30.1
			C12.8,30.1,12.8,30.1,12.9,30.1C12.8,30.1,12.9,30.1,12.9,30.1z M12.8,30.6C12.8,30.6,12.8,30.6,12.8,30.6
			C12.9,30.6,12.9,30.6,12.8,30.6C12.9,30.5,12.8,30.6,12.8,30.6z M12.8,30.2C12.8,30.2,12.9,30.1,12.8,30.2
			C12.9,30.2,12.8,30.2,12.8,30.2z M12.9,29.7L12.9,29.7L12.9,29.7L12.9,29.7z M13,30.2C13,30.2,13,30.2,13,30.2
			C13,30.2,12.9,30.2,13,30.2C12.9,30.2,12.9,30.2,13,30.2C13,30.2,13,30.2,13,30.2z M13,30C13,30,13,30,13,30C13,30,13,30,13,30
			C13,29.9,12.9,29.9,13,30C13,29.9,13,29.9,13,30z M13.1,29.6C13,29.6,13,29.6,13.1,29.6c-0.1-0.1-0.1-0.2,0-0.3L13.1,29.6z
			 M13.1,29.7C13.1,29.7,13.1,29.7,13.1,29.7C13,29.7,13,29.7,13.1,29.7C13,29.7,13,29.7,13.1,29.7C13,29.7,13.1,29.7,13.1,29.7z
			 M13.1,30C13.1,30.1,13.1,30.1,13.1,30C13,30.1,13,30.1,13.1,30C13,30,13,30,13.1,30C13.1,30,13.1,30,13.1,30z M13.1,29.9
			C13.1,29.9,13.1,29.9,13.1,29.9C13.1,29.9,13.1,29.9,13.1,29.9z M13.4,29.6C13.4,29.6,13.4,29.6,13.4,29.6c0,0.2,0,0.4,0,0.6
			c0,0-0.2,0-0.3-0.1L13.4,29.6z M13.2,29.7C13.2,29.8,13.2,29.8,13.2,29.7C13.2,29.8,13.1,29.8,13.2,29.7
			C13.1,29.7,13.1,29.7,13.2,29.7C13.2,29.7,13.2,29.7,13.2,29.7z M13.2,30.4C13.2,30.4,13.2,30.4,13.2,30.4
			C13.2,30.4,13.2,30.4,13.2,30.4C13.2,30.4,13.2,30.3,13.2,30.4C13.2,30.3,13.2,30.4,13.2,30.4z M13.3,30.7
			C13.3,30.7,13.3,30.7,13.3,30.7C13.2,30.7,13.2,30.7,13.3,30.7C13.2,30.7,13.2,30.7,13.3,30.7C13.2,30.7,13.3,30.7,13.3,30.7z
			 M13.3,30.5C13.3,30.5,13.3,30.5,13.3,30.5C13.3,30.5,13.3,30.5,13.3,30.5C13.3,30.5,13.3,30.5,13.3,30.5z M13.3,30.2
			C13.3,30.2,13.3,30.2,13.3,30.2C13.3,30.3,13.3,30.2,13.3,30.2C13.3,30.2,13.3,30.2,13.3,30.2C13.3,30.2,13.3,30.2,13.3,30.2z
			 M13.3,29.8C13.3,29.8,13.3,29.8,13.3,29.8C13.4,29.8,13.4,29.8,13.3,29.8C13.4,29.7,13.3,29.7,13.3,29.8
			C13.3,29.7,13.3,29.8,13.3,29.8z M13.5,29.7C13.5,29.7,13.5,29.8,13.5,29.7C13.5,29.8,13.5,29.8,13.5,29.7
			C13.5,29.7,13.5,29.7,13.5,29.7C13.5,29.7,13.5,29.7,13.5,29.7z"/>
		<path class="st2" d="M13.5,25.5c0,0,0.5,0.2,0.7,0.3c0.1,0,0.2,0.1,0.2,0.2c0,0.2,0.1,0.4,0,0.6c0.1,0.8,0.2,1.3,0.4,2l0,0.2
			c0,0.2,0.2,0.9,0.2,1c0,0,0,0,0.1,0l0.1-0.1l0.6-0.5l0.1,0l0.6,0.2c0,0,0,0,0,0c0,0.1-0.1,0.2-0.2,0.3c-0.2,0.2-1,1-1.1,1.1
			c-0.5,0-0.8,0-0.9-0.6l-1-4.9L13.5,25.5z"/>
		<path class="st2" d="M16.2,25.8c0.1-0.1,0.1-0.1,0.2-0.1c0.2,0,0.5,0.1,0.7,0.2c0.2,1.3,0.5,2.6,0.7,3.9c0,0,0.1,0.3,0.1,0.3
			c0,0.1,0,0.1-0.1,0.1c-0.1,0-0.1-0.1-0.1,0c-0.2,0-0.7-0.1-0.8-0.2L16.2,25.8z"/>
		<path class="st2" d="M18.2,28.3C18.2,28.3,18.2,28.3,18.2,28.3C18.2,28.3,18.2,28.3,18.2,28.3C18.2,28.3,18.2,28.3,18.2,28.3
			C18.2,28.3,18.2,28.3,18.2,28.3z M18.3,28.1C18.2,28.1,18.2,28.1,18.3,28.1C18.2,28.1,18.2,28.1,18.3,28.1
			C18.3,28.1,18.3,28.1,18.3,28.1C18.3,28.1,18.3,28.1,18.3,28.1z M18.3,27.9c0,0.1,0,0.1,0,0.1L18.3,27.9L18.3,27.9z M19.4,29.8
			L19.4,29.8c-0.2,0-0.5-0.1-0.5-0.4l0.1,0.1c0-0.1,0-0.1,0-0.2c0-0.1-0.1-0.2-0.1-0.2l-0.1,0.1c-0.1-0.1-0.1-0.3-0.2-0.4
			c0,0,0.1-0.1,0.1-0.1c0,0-0.1-0.1-0.1-0.1c0,0,0.1-0.1,0.1-0.1c0,0,0,0,0,0l-0.1,0.1l0,0c0-0.1,0.1-0.1,0.1-0.2
			c0-0.1-0.2-0.1-0.2-0.2l0.2,0c0-0.2-0.4-0.2-0.4-0.3c0-0.1,0-0.3,0-0.4c0.1-0.9,0.3-1.9,0.8-2.7c0-0.1,0.1-0.1,0.2-0.1
			c0.4-0.1,0.9,0.1,1,0.5c0,0.2,0.1,0.6-0.3,0.7c-0.1,0-0.1,0-0.3,0c-0.2,0-0.3,0.1-0.4,0.3c-0.1,0.3-0.3,1.5-0.3,1.8
			c0,0.3-0.1,0.7,0,1.1c0,0.2,0.2,0.5,0.4,0.4c0.1,0,0.1-0.2,0.2-0.3l0,0.2c0-0.1,0.5-0.5,0.5-0.5c0.1,0,0.2,0.1,0.3,0.1
			c-0.2,0.2-0.1,0.4-0.2,0.4c-0.1,0.1-0.2,0.1-0.2,0.2c-0.1,0.1,0,0.2-0.1,0.2l-0.1,0c-0.1,0-0.1,0-0.1,0.1c0,0-0.2-0.1-0.2-0.1
			C19.5,29.8,19.4,29.8,19.4,29.8z M18.3,29C18.3,29,18.3,29,18.3,29C18.3,29,18.3,29,18.3,29C18.3,29,18.3,28.9,18.3,29
			C18.3,28.9,18.3,28.9,18.3,29z M18.4,28.4C18.4,28.4,18.3,28.4,18.4,28.4C18.3,28.4,18.3,28.4,18.4,28.4
			C18.4,28.4,18.4,28.4,18.4,28.4C18.4,28.4,18.4,28.4,18.4,28.4z M18.4,28.1c0,0.1,0,0.1,0,0.2c0,0,0,0,0,0l0,0
			C18.4,28.2,18.4,28.1,18.4,28.1L18.4,28.1z M18.4,28.6C18.4,28.6,18.4,28.6,18.4,28.6C18.4,28.6,18.4,28.6,18.4,28.6
			C18.4,28.6,18.4,28.6,18.4,28.6C18.4,28.6,18.4,28.6,18.4,28.6z M18.4,27.9C18.4,27.9,18.4,27.9,18.4,27.9
			C18.4,27.9,18.4,27.9,18.4,27.9C18.4,27.9,18.4,27.9,18.4,27.9C18.4,27.9,18.4,27.9,18.4,27.9z M18.4,29.4
			C18.4,29.4,18.4,29.4,18.4,29.4C18.4,29.3,18.4,29.3,18.4,29.4C18.5,29.3,18.5,29.3,18.4,29.4C18.5,29.3,18.5,29.4,18.4,29.4z
			 M18.5,29.2L18.5,29.2L18.5,29.2L18.5,29.2z M18.5,28.5C18.5,28.5,18.5,28.5,18.5,28.5C18.5,28.5,18.5,28.5,18.5,28.5
			C18.4,28.5,18.5,28.4,18.5,28.5C18.5,28.4,18.5,28.5,18.5,28.5z M18.5,29.4C18.5,29.4,18.5,29.5,18.5,29.4
			C18.5,29.5,18.5,29.5,18.5,29.4C18.5,29.4,18.5,29.4,18.5,29.4C18.5,29.4,18.5,29.4,18.5,29.4z M18.6,28.9
			C18.6,28.9,18.6,28.9,18.6,28.9C18.6,28.9,18.5,28.9,18.6,28.9C18.5,28.9,18.5,28.9,18.6,28.9C18.6,28.9,18.6,28.9,18.6,28.9z
			 M18.6,29.3C18.6,29.3,18.6,29.3,18.6,29.3C18.6,29.3,18.6,29.3,18.6,29.3C18.5,29.3,18.6,29.3,18.6,29.3
			C18.6,29.3,18.6,29.3,18.6,29.3z M18.7,29.5l0,0.1L18.7,29.5L18.7,29.5z M18.6,29C18.6,29,18.6,29,18.6,29
			C18.6,29,18.6,29,18.6,29C18.6,28.9,18.6,28.9,18.6,29C18.6,28.9,18.6,28.9,18.6,29z M18.6,29.1C18.6,29.2,18.6,29.1,18.6,29.1
			C18.6,29.1,18.6,29.1,18.6,29.1C18.6,29.1,18.7,29.1,18.6,29.1C18.7,29.1,18.7,29.1,18.6,29.1z M18.7,29.6
			C18.7,29.6,18.7,29.7,18.7,29.6C18.7,29.7,18.7,29.6,18.7,29.6C18.7,29.6,18.7,29.6,18.7,29.6C18.7,29.6,18.7,29.6,18.7,29.6z
			 M18.8,29.6C18.8,29.6,18.8,29.6,18.8,29.6C18.8,29.6,18.8,29.6,18.8,29.6C18.8,29.6,18.8,29.6,18.8,29.6
			C18.8,29.6,18.8,29.6,18.8,29.6z M18.8,28.1L18.8,28.1l0-0.1C18.8,28,18.8,28.1,18.8,28.1z M19.7,29.8
			C19.7,29.8,19.7,29.8,19.7,29.8C19.7,29.8,19.7,29.9,19.7,29.8C19.7,29.8,19.7,29.8,19.7,29.8z M19.8,29C19.8,29,19.8,29,19.8,29
			c0-0.2,0-0.2,0.1-0.3L19.8,29z M19.9,28.9C19.9,28.9,19.9,29,19.9,28.9C19.9,29,19.9,28.9,19.9,28.9
			C19.9,28.9,19.9,28.9,19.9,28.9C19.9,28.9,19.9,28.9,19.9,28.9z M19.9,28.6C19.9,28.5,20,28.5,19.9,28.6
			C20,28.5,19.9,28.6,19.9,28.6z M20,28.4C20,28.4,20,28.4,20,28.4l0.1-0.1C20.1,28.3,20.1,28.4,20,28.4z M20.1,28.6
			C20.1,28.6,20.1,28.6,20.1,28.6C20,28.6,20,28.6,20.1,28.6C20,28.6,20,28.6,20.1,28.6C20.1,28.6,20.1,28.6,20.1,28.6z M20,29.1
			C20,29.1,20,29.1,20,29.1C20.1,29.1,20.1,29.1,20,29.1C20.1,29,20,29.1,20,29.1z M20.1,28.7C20.1,28.7,20.1,28.7,20.1,28.7
			C20.1,28.7,20.1,28.7,20.1,28.7z M20.1,28.2L20.1,28.2L20.1,28.2L20.1,28.2z M20.2,28.7C20.2,28.7,20.2,28.7,20.2,28.7
			C20.2,28.7,20.2,28.7,20.2,28.7C20.2,28.7,20.2,28.7,20.2,28.7C20.2,28.7,20.2,28.7,20.2,28.7z M20.2,28.5
			C20.2,28.5,20.2,28.5,20.2,28.5C20.2,28.5,20.2,28.5,20.2,28.5C20.2,28.5,20.2,28.4,20.2,28.5C20.2,28.4,20.2,28.4,20.2,28.5z
			 M20.3,28.1C20.2,28.1,20.2,28.1,20.3,28.1c-0.1-0.1-0.1-0.2,0-0.3L20.3,28.1z M20.3,28.2C20.3,28.2,20.3,28.2,20.3,28.2
			C20.2,28.2,20.2,28.2,20.3,28.2C20.2,28.2,20.2,28.2,20.3,28.2C20.3,28.2,20.3,28.2,20.3,28.2z M20.3,28.6
			C20.3,28.6,20.3,28.6,20.3,28.6C20.3,28.6,20.2,28.6,20.3,28.6C20.2,28.5,20.2,28.5,20.3,28.6C20.3,28.5,20.3,28.5,20.3,28.6z
			 M20.3,28.4C20.3,28.4,20.3,28.4,20.3,28.4C20.3,28.4,20.3,28.4,20.3,28.4z M20.6,28.1C20.6,28.1,20.6,28.1,20.6,28.1
			c0,0.2,0,0.4,0,0.6c0,0-0.2,0-0.3-0.1L20.6,28.1z M20.4,28.2C20.4,28.3,20.4,28.3,20.4,28.2C20.4,28.3,20.4,28.3,20.4,28.2
			C20.3,28.2,20.4,28.2,20.4,28.2C20.4,28.2,20.4,28.2,20.4,28.2z M20.4,28.9C20.4,28.9,20.4,28.9,20.4,28.9
			C20.4,28.9,20.4,28.9,20.4,28.9C20.4,28.9,20.4,28.8,20.4,28.9C20.4,28.9,20.4,28.9,20.4,28.9z M20.5,29.2
			C20.5,29.2,20.5,29.2,20.5,29.2C20.5,29.2,20.4,29.2,20.5,29.2C20.4,29.2,20.4,29.2,20.5,29.2C20.5,29.2,20.5,29.2,20.5,29.2z
			 M20.5,29C20.5,29,20.5,29,20.5,29C20.5,29,20.5,29,20.5,29C20.5,29,20.5,29,20.5,29z M20.5,28.7C20.5,28.7,20.5,28.8,20.5,28.7
			C20.5,28.8,20.5,28.7,20.5,28.7C20.5,28.7,20.5,28.7,20.5,28.7C20.5,28.7,20.5,28.7,20.5,28.7z M20.5,28.3
			C20.5,28.3,20.5,28.3,20.5,28.3C20.6,28.3,20.6,28.3,20.5,28.3C20.6,28.2,20.6,28.2,20.5,28.3C20.5,28.2,20.5,28.3,20.5,28.3z
			 M20.7,28.2C20.7,28.2,20.7,28.3,20.7,28.2C20.7,28.3,20.7,28.3,20.7,28.2C20.7,28.2,20.7,28.2,20.7,28.2
			C20.7,28.2,20.7,28.2,20.7,28.2z"/>
		<path class="st2" d="M21.4,28.4c-0.2-1.2-0.2-2.4-0.5-4.1c0,0,0.1,0,0.1,0c0.2,0,0.1,0,0.3,0.1c0.4,0.2,0.5,0.1,0.6,0.6
			c0,0.1,0,0.3,0,0.4c0,0.3-0.1,0.5,0,0.8c0,0,0.1,0,0.1,0c0,0,0,0,0-0.1l0.8-2c0-0.2,0-0.4,0.3-0.5c0.2-0.1,0.4,0.2,0.5,0.5
			c0,0,0,0,0,0c0,0,0,0.1,0,0.1c0,0.1,0,0.1,0,0.2L22.6,27c0,0,0,0,0,0c0,0,0,0,0,0c0.1,0.5,0.9,1,1.2,1.2l0.8,0.4l0.1,0
			c0,0.1-0.1,0.1-0.1,0.1l0,0c-0.8,0.2-1.7-0.5-2.3-1c-0.2,0.3-0.1,0.6,0,1c0,0.2,0.1,0.4,0.2,0.6c0,0,0.2,0.4,0.2,0.4
			c0,0,0,0,0,0.1l-0.1,0c-0.3-0.3-0.3-0.2-0.6-0.3C21.6,29.3,21.5,28.8,21.4,28.4z"/>
	</g>
</g>
</svg>
