<?xml version="1.0" encoding="utf-8"?>
<!-- Generator: Adobe Illustrator 23.0.1, SVG Export Plug-In . SVG Version: 6.00 Build 0)  -->
<svg version="1.1" xmlns="http://www.w3.org/2000/svg" xmlns:xlink="http://www.w3.org/1999/xlink" x="0px" y="0px"
	 viewBox="0 0 213.1 33.7" style="enable-background:new 0 0 213.1 33.7;" xml:space="preserve">
<style type="text/css">
	.st0{display:none;}
	.st1{display:inline;fill:#1E1C33;}
	.st2{display:inline;opacity:0.68;fill:#009AA3;}
	.st3{display:inline;}
	.st4{fill:#FFFFFF;}
	.st5{fill:#FFFFFF;stroke:#FFFFFF;stroke-miterlimit:10;}
	.st6{opacity:0.68;fill:#009AA3;}
	.st7{fill:#1E1C33;}
</style>
<g id="back_x5F_fonce" class="st0">
	<rect x="-74.4" y="-208.6" class="st1" width="391.6" height="325.9"/>
	<polygon class="st2" points="256.7,-13 4.2,30.9 3.9,-45.1 256.5,-89 	"/>
	<g class="st3">
		<path class="st4" d="M38-31.9c0.8-0.1,1.4,0,2,0.4c0.6,0.4,0.8,1,0.8,1.7c0,0.7-0.3,1.4-0.8,2c-0.6,0.6-1.2,1-2,1.1l-5.6,1L32.5,3
			c0,0.7-0.3,1.4-0.8,2c-0.6,0.6-1.2,1-2,1.1s-1.4,0-2-0.4c-0.6-0.4-0.8-1-0.8-1.7l-0.1-28.7l-5.6,1c-0.8,0.1-1.4,0-2-0.4
			c-0.6-0.4-0.8-1-0.8-1.7c0-0.7,0.3-1.4,0.8-2c0.6-0.6,1.2-1,2-1.1L38-31.9z"/>
		<path class="st4" d="M66.2-36.8c0.8-0.1,1.4,0,2,0.4c0.6,0.4,0.8,1,0.8,1.7c0,0.7-0.3,1.4-0.8,2c-0.6,0.6-1.2,1-2,1.1l-14.1,2.4
			l0,10.4l11.3-2c0.8-0.1,1.4,0,2,0.4c0.6,0.4,0.8,1,0.8,1.7s-0.3,1.4-0.8,2c-0.6,0.6-1.2,1-2,1.1l-11.3,2l0,10.4l14.1-2.4
			c0.8-0.1,1.4,0,2,0.4c0.6,0.4,0.8,1,0.8,1.7c0,0.7-0.3,1.4-0.8,2c-0.6,0.6-1.2,1-2,1.1L49.4,2.7c-0.8,0.1-1.4,0-2-0.4
			s-0.8-1-0.8-1.7l-0.1-31.3c0-0.7,0.3-1.4,0.8-2s1.2-1,2-1.1L66.2-36.8z"/>
		<path class="st4" d="M80.3-5.3c0,0.7-0.3,1.4-0.8,2c-0.6,0.6-1.2,1-2,1.1c-0.8,0.1-1.4,0-2-0.4c-0.6-0.4-0.8-1-0.8-1.7l-0.1-31.3
			c0-0.7,0.3-1.4,0.8-2c0.6-0.6,1.2-1,2-1.1c0.8-0.1,1.4,0,2,0.4c0.2,0.2,0.4,0.4,0.5,0.6l5.9,9.9l5.9-12c0.1-0.3,0.3-0.5,0.6-0.8
			c0.5-0.6,1.2-1,2-1.1c0.8-0.1,1.4,0,2,0.4c0.6,0.4,0.8,1,0.8,1.7l0.1,31.3c0,0.7-0.3,1.4-0.8,2c-0.6,0.6-1.2,1-2,1.1
			c-0.8,0.1-1.4,0-2-0.4c-0.6-0.4-0.8-1-0.8-1.7l-0.1-20.3l-2.5,5l-3.1,6.4l-3.2-5.3l-2.5-4.2L80.3-5.3z"/>
		<path class="st4" d="M108.5-10.2c0,0.7-0.3,1.4-0.8,2s-1.2,1-2,1.1c-0.8,0.1-1.4,0-2-0.4s-0.8-1-0.8-1.7l-0.1-31.3
			c0-0.7,0.3-1.4,0.8-2s1.2-1,2-1.1l8.4-1.5c3.1-0.5,5.8,0,8,1.7c2.2,1.7,3.3,3.9,3.3,6.8c0,2.9-1.1,5.5-3.3,8
			c-2.2,2.4-4.8,3.9-8,4.4l-5.6,1L108.5-10.2z M108.4-39l0,10.4l5.6-1c1.6-0.3,2.9-1,4-2.2c1.1-1.2,1.6-2.5,1.6-4
			c0-1.4-0.6-2.6-1.7-3.4c-1.1-0.8-2.4-1.1-4-0.8L108.4-39z"/>
		<path class="st4" d="M150.7-20.2c0.8-0.1,1.4,0,2,0.4c0.6,0.4,0.8,1,0.8,1.7c0,0.7-0.3,1.4-0.8,2c-0.6,0.6-1.2,1-2,1.1L133.8-12
			c-0.8,0.1-1.4,0-2-0.4c-0.6-0.4-0.8-1-0.8-1.7l-0.1-31.3c0-0.7,0.3-1.4,0.8-2c0.6-0.6,1.2-1,2-1.1c0.8-0.1,1.4,0,2,0.4
			s0.8,1,0.8,1.7l0.1,28.7L150.7-20.2z"/>
		<path class="st4" d="M164.9-22.7l-0.8,3.4c-0.2,0.7-0.6,1.3-1.3,1.8c-0.7,0.5-1.4,0.7-2.1,0.7c-0.7,0-1.3-0.3-1.7-0.9
			c-0.4-0.5-0.5-1.2-0.4-1.9l7.7-32.6c0.2-0.7,0.6-1.3,1.3-1.8c0.7-0.5,1.4-0.8,2.1-0.8l1.1-0.2c0.8-0.2,1.5-0.2,2.1,0
			c0.7,0.3,1.1,0.7,1.3,1.4l7.9,29.9c0.2,0.7,0.1,1.3-0.4,2c-0.4,0.7-1,1.2-1.7,1.5c-0.8,0.3-1.5,0.3-2.1,0
			c-0.7-0.3-1.1-0.7-1.3-1.4l-0.8-3.1L164.9-22.7z M166.2-28.1l8.3-1.4l-4.2-15.9L166.2-28.1z"/>
		<path class="st4" d="M206.9-61.3c0.8-0.1,1.4,0,2,0.4c0.6,0.4,0.8,1,0.8,1.7c0,0.7-0.3,1.4-0.8,2c-0.6,0.6-1.2,1-2,1.1l-5.6,1
			l0.1,28.7c0,0.7-0.3,1.4-0.8,2c-0.6,0.6-1.2,1-2,1.1c-0.8,0.1-1.4,0-2-0.4c-0.6-0.4-0.8-1-0.8-1.7l-0.1-28.7l-5.6,1
			c-0.8,0.1-1.4,0-2-0.4c-0.6-0.4-0.8-1-0.8-1.7c0-0.7,0.3-1.4,0.8-2c0.6-0.6,1.2-1,2-1.1L206.9-61.3z"/>
		<path class="st4" d="M235-66.2c0.8-0.1,1.4,0,2,0.4c0.6,0.4,0.8,1,0.8,1.7c0,0.7-0.3,1.4-0.8,2c-0.6,0.6-1.2,1-2,1.1L221-58.5
			l0,10.4l11.3-2c0.8-0.1,1.4,0,2,0.4c0.6,0.4,0.8,1,0.8,1.7s-0.3,1.4-0.8,2c-0.6,0.6-1.2,1-2,1.1l-11.3,2l0,10.4l14.1-2.4
			c0.8-0.1,1.4,0,2,0.4c0.6,0.4,0.8,1,0.8,1.7c0,0.7-0.3,1.4-0.8,2c-0.6,0.6-1.2,1-2,1.1l-16.9,2.9c-0.8,0.1-1.4,0-2-0.4
			c-0.6-0.4-0.8-1-0.8-1.7l-0.1-31.3c0-0.7,0.3-1.4,0.8-2c0.6-0.6,1.2-1,2-1.1L235-66.2z"/>
	</g>
	<g class="st3">
		<path class="st4" d="M9.7-58.7c0,0.7-0.3,1.4-0.8,2c-0.6,0.6-1.2,1-2,1.1c-0.8,0.1-1.5,0-2-0.4c-0.6-0.4-0.8-1-0.8-1.7L3.8-89.5
			c0-0.7,0.3-1.4,0.8-2c0.6-0.6,1.2-1,2-1.1c0.8-0.1,1.5,0,2,0.4C9-92,9.1-91.8,9.3-91.6l6,10.1l6-12.2c0.1-0.3,0.3-0.5,0.6-0.8
			c0.6-0.6,1.2-1,2-1.1c0.8-0.1,1.5,0,2,0.4s0.8,1,0.8,1.7l0.1,31.8c0,0.7-0.3,1.4-0.8,2s-1.2,1-2,1.1c-0.8,0.1-1.5,0-2-0.4
			s-0.8-1-0.8-1.7L21-81.2l-2.5,5.1l-3.2,6.5L12.1-75l-2.5-4.2L9.7-58.7z"/>
		<path class="st4" d="M50.2-98.1c0.2-0.7,0.6-1.4,1.3-1.9c0.7-0.5,1.4-0.7,2.2-0.7c0.7,0,1.3,0.3,1.7,0.9c0.4,0.6,0.5,1.2,0.4,1.9
			L48-64.8c-0.2,0.7-0.6,1.4-1.3,1.9c-0.7,0.5-1.4,0.8-2.2,0.8l-1.1,0.2c-0.8,0.2-1.5,0.2-2.2,0c-0.7-0.3-1.1-0.7-1.3-1.4l-8-30.3
			c-0.2-0.7-0.1-1.4,0.4-2.1c0.4-0.7,1-1.2,1.7-1.5c0.8-0.3,1.5-0.3,2.2,0c0.7,0.3,1.1,0.7,1.3,1.4l6.4,24.3L50.2-98.1z"/>
		<path class="st4" d="M81.1-73.8c0.8-0.1,1.5,0,2,0.4c0.6,0.4,0.8,1,0.8,1.7s-0.3,1.4-0.8,2c-0.6,0.6-1.2,1-2,1.1l-17.1,3
			c-0.8,0.1-1.5,0-2-0.4s-0.8-1-0.8-1.7s0.3-1.4,0.8-2c0.6-0.6,1.2-1,2-1.1l5.7-1l-0.1-26.5l-5.7,1c-0.8,0.1-1.5,0-2-0.4
			c-0.6-0.4-0.8-1-0.8-1.7s0.3-1.4,0.8-2c0.6-0.6,1.2-1,2-1.1l17.1-3c0.8-0.1,1.5,0,2,0.4c0.6,0.4,0.8,1,0.8,1.7s-0.3,1.4-0.8,2
			c-0.6,0.6-1.2,1-2,1.1l-5.7,1l0.1,26.5L81.1-73.8z"/>
		<path class="st4" d="M109.6-110.6c0.8-0.1,1.5,0,2,0.4c0.6,0.4,0.8,1,0.8,1.7s-0.3,1.4-0.8,2c-0.6,0.6-1.2,1-2,1.1l-14.3,2.5
			l0,10.6l11.4-2c0.8-0.1,1.5,0,2,0.4c0.6,0.4,0.8,1,0.8,1.7s-0.3,1.4-0.8,2c-0.6,0.6-1.2,1-2,1.1l-11.4,2l0,10.6l14.3-2.5
			c0.8-0.1,1.5,0,2,0.4c0.6,0.4,0.8,1,0.8,1.7s-0.3,1.4-0.8,2c-0.6,0.6-1.2,1-2,1.1l-17.1,3c-0.8,0.1-1.5,0-2-0.4s-0.8-1-0.8-1.7
			l-0.1-31.8c0-0.7,0.3-1.4,0.8-2s1.2-1,2-1.1L109.6-110.6z"/>
		<path class="st4" d="M118.2-109.4c0-0.7,0.3-1.4,0.8-2s1.2-1,2-1.1s1.5,0,2,0.4c0.6,0.4,0.8,1,0.8,1.7l0.1,27.8
			c0,0.4,0.1,0.7,0.4,0.9c0.3,0.2,0.6,0.3,1,0.2s0.7-0.3,1-0.6c0.3-0.3,0.4-0.6,0.4-1l-0.1-19.9c0-0.7,0.3-1.4,0.8-2
			c0.6-0.6,1.2-1,2-1.1s1.5,0,2,0.4c0.6,0.4,0.8,1,0.8,1.7l0.1,19.9c0,0.4,0.1,0.7,0.4,0.9c0.3,0.2,0.6,0.3,1,0.2
			c0.4-0.1,0.7-0.3,1-0.6c0.3-0.3,0.4-0.6,0.4-1l-0.1-27.8c0-0.7,0.3-1.4,0.8-2s1.2-1,2-1.1c0.8-0.1,1.5,0,2,0.4
			c0.6,0.4,0.8,1,0.8,1.7l0.1,27.8c0,1.8-0.7,3.5-2.1,5.1c-1.4,1.5-3.1,2.5-5.1,2.8c-1.6,0.3-3.1,0.1-4.3-0.6
			c-1.2,1.1-2.7,1.8-4.3,2c-2,0.3-3.7,0-5.1-1.1c-1.4-1-2.1-2.5-2.1-4.3L118.2-109.4z"/>
		<path class="st4" d="M166.8-120.5c0.8-0.1,1.5,0,2,0.4c0.6,0.4,0.8,1,0.8,1.7s-0.3,1.4-0.8,2c-0.6,0.6-1.2,1-2,1.1l-14.3,2.5
			l0,10.6l11.4-2c0.8-0.1,1.5,0,2,0.4c0.6,0.4,0.8,1,0.8,1.7s-0.3,1.4-0.8,2c-0.6,0.6-1.2,1-2,1.1l-11.4,2l0,10.6l14.3-2.5
			c0.8-0.1,1.5,0,2,0.4s0.8,1,0.8,1.7s-0.3,1.4-0.8,2s-1.2,1-2,1.1l-17.1,3c-0.8,0.1-1.5,0-2-0.4c-0.6-0.4-0.8-1-0.8-1.7l-0.1-31.8
			c0-0.7,0.3-1.4,0.8-2c0.6-0.6,1.2-1,2-1.1L166.8-120.5z"/>
		<path class="st4" d="M181.2-88.5c0,0.7-0.3,1.4-0.8,2s-1.2,1-2,1.1c-0.8,0.1-1.5,0-2-0.4s-0.8-1-0.8-1.7l-0.1-31.8
			c0-0.7,0.3-1.4,0.8-2c0.6-0.6,1.2-1,2-1.1l8.6-1.5c3.2-0.5,5.9,0,8.1,1.7c2.2,1.7,3.4,4,3.4,6.9c0,2.9-1.1,5.6-3.3,8.1
			c-1.2,1.3-2.4,2.3-3.9,3.1l6.7,11.2l0,0.1c0.4,0.4,0.6,0.9,0.6,1.5c0,0.7-0.3,1.4-0.8,2c-0.6,0.6-1.2,1-2,1.1s-1.4,0-2-0.4
			c-0.2-0.2-0.4-0.4-0.6-0.6l-7.8-13.1l-3.9,0.7L181.2-88.5z M181.1-117.7l0,10.6l5.7-1c1.6-0.3,2.9-1,4-2.3c1.1-1.2,1.7-2.6,1.7-4
			c0-1.5-0.6-2.6-1.7-3.5c-1.1-0.8-2.5-1.1-4-0.8L181.1-117.7z"/>
	</g>
	<g class="st3">
		<path class="st5" d="M224.1-130c0,0.5-0.2,0.9-0.7,1.2c-1.9,1.2-3.8,2.5-5.7,3.7c-3.2,2-5,3-5.4,3.1c-0.9,0.1-1.4-0.4-1.5-1.3
			c0-0.5,0.2-0.9,0.7-1.2c1.9-1.2,3.8-2.5,5.7-3.7c3.2-2,5-3,5.4-3.1C223.6-131.4,224.1-131,224.1-130z M226.6-114.6
			c0,0.9-0.4,1.3-1.3,1.4l-12.5,0.7c-0.9,0.1-1.4-0.4-1.5-1.2c0-0.9,0.4-1.3,1.3-1.4l12.5-0.7C226.1-115.9,226.6-115.5,226.6-114.6z
			 M225.9-98.9c0.1,0.9-0.4,1.4-1.3,1.5c-0.4,0-2.4-0.8-5.7-2.5c-2-1-4-2-6.1-3.1c-0.5-0.2-0.8-0.6-0.8-1.1
			c-0.1-0.9,0.4-1.4,1.3-1.5c0.4,0,2.4,0.8,5.7,2.5c2,1,4,2,6.1,3.1C225.6-99.7,225.8-99.3,225.9-98.9z"/>
	</g>
</g>
<g id="Calque_3">
	<rect x="97.8" y="1.8" class="st6" width="113.6" height="29.9"/>
	<rect x="97.8" y="1.8" class="st6" width="113.6" height="29.9"/>
	<g>
		<path class="st4" d="M6.3,24.3c0,0.3-0.1,0.6-0.4,0.9c-0.2,0.2-0.5,0.4-0.9,0.4c-0.3,0-0.6-0.1-0.9-0.4c-0.2-0.2-0.4-0.5-0.4-0.9
			V9.1c0-0.3,0.1-0.6,0.4-0.9C4.4,8,4.7,7.9,5.1,7.9c0.3,0,0.6,0.1,0.9,0.4C6,8.3,6.1,8.5,6.2,8.6l2.6,5.3l2.6-5.3
			c0.1-0.1,0.1-0.2,0.3-0.3C12,8,12.3,7.9,12.6,7.9c0.3,0,0.6,0.1,0.9,0.4c0.2,0.2,0.4,0.5,0.4,0.9v15.1c0,0.3-0.1,0.6-0.4,0.9
			c-0.2,0.2-0.5,0.4-0.9,0.4c-0.3,0-0.6-0.1-0.9-0.4c-0.2-0.2-0.4-0.5-0.4-0.9v-9.8l-1.1,2.2l-1.4,2.8l-1.4-2.8l-1.1-2.2V24.3z"/>
		<path class="st4" d="M24.2,8.9c0.1-0.3,0.3-0.6,0.6-0.8c0.3-0.2,0.6-0.2,1-0.2c0.3,0.1,0.6,0.3,0.8,0.6c0.2,0.3,0.2,0.6,0.2,1
			l-3.5,15.1c-0.1,0.3-0.3,0.6-0.6,0.8c-0.3,0.2-0.6,0.3-1,0.2h-0.5c-0.3,0.1-0.7,0-1-0.2c-0.3-0.2-0.5-0.4-0.6-0.8L16.2,9.4
			c-0.1-0.3,0-0.7,0.2-1c0.2-0.3,0.4-0.5,0.8-0.6c0.3-0.1,0.7,0,1,0.2c0.3,0.2,0.5,0.4,0.6,0.8L21.4,21L24.2,8.9z"/>
		<path class="st4" d="M37.8,23c0.3,0,0.6,0.1,0.9,0.4c0.2,0.2,0.4,0.5,0.4,0.9c0,0.3-0.1,0.6-0.4,0.9c-0.2,0.2-0.5,0.4-0.9,0.4
			h-7.6c-0.3,0-0.6-0.1-0.9-0.4c-0.2-0.2-0.4-0.5-0.4-0.9c0-0.3,0.1-0.6,0.4-0.9c0.2-0.2,0.5-0.4,0.9-0.4h2.5V10.4h-2.5
			c-0.3,0-0.6-0.1-0.9-0.4C29.1,9.8,29,9.5,29,9.1s0.1-0.6,0.4-0.9c0.2-0.2,0.5-0.4,0.9-0.4h7.6c0.3,0,0.6,0.1,0.9,0.4
			c0.2,0.2,0.4,0.5,0.4,0.9S39,9.8,38.7,10c-0.2,0.2-0.5,0.4-0.9,0.4h-2.5V23H37.8z"/>
		<path class="st4" d="M50.4,7.9c0.3,0,0.6,0.1,0.9,0.4c0.2,0.2,0.4,0.5,0.4,0.9s-0.1,0.6-0.4,0.9c-0.2,0.2-0.5,0.4-0.9,0.4h-6.3v5
			h5c0.3,0,0.6,0.1,0.9,0.4c0.2,0.2,0.4,0.5,0.4,0.9s-0.1,0.6-0.4,0.9c-0.2,0.2-0.5,0.4-0.9,0.4h-5v5h6.3c0.3,0,0.6,0.1,0.9,0.4
			c0.2,0.2,0.4,0.5,0.4,0.9c0,0.3-0.1,0.6-0.4,0.9c-0.2,0.2-0.5,0.4-0.9,0.4h-7.6c-0.3,0-0.6-0.1-0.9-0.4c-0.2-0.2-0.4-0.5-0.4-0.9
			V9.1c0-0.3,0.1-0.6,0.4-0.9c0.2-0.2,0.5-0.4,0.9-0.4H50.4z"/>
		<path class="st4" d="M54.2,9.1c0-0.3,0.1-0.6,0.4-0.9c0.2-0.2,0.5-0.4,0.9-0.4c0.3,0,0.6,0.1,0.9,0.4c0.2,0.2,0.4,0.5,0.4,0.9
			v13.2c0,0.2,0.1,0.3,0.2,0.4c0.1,0.1,0.3,0.2,0.4,0.2c0.2,0,0.3-0.1,0.4-0.2c0.1-0.1,0.2-0.3,0.2-0.4v-9.5c0-0.3,0.1-0.6,0.4-0.9
			c0.2-0.2,0.5-0.4,0.9-0.4c0.3,0,0.6,0.1,0.9,0.4c0.2,0.2,0.4,0.5,0.4,0.9v9.5c0,0.2,0.1,0.3,0.2,0.4c0.1,0.1,0.3,0.2,0.4,0.2
			s0.3-0.1,0.4-0.2c0.1-0.1,0.2-0.3,0.2-0.4V9.1c0-0.3,0.1-0.6,0.4-0.9C62.4,8,62.7,7.9,63,7.9c0.3,0,0.6,0.1,0.9,0.4
			c0.2,0.2,0.4,0.5,0.4,0.9v13.2c0,0.9-0.3,1.6-0.9,2.2c-0.6,0.6-1.4,0.9-2.2,0.9c-0.7,0-1.3-0.2-1.9-0.6c-0.5,0.4-1.2,0.6-1.9,0.6
			c-0.9,0-1.6-0.3-2.2-0.9s-0.9-1.4-0.9-2.2V9.1z"/>
		<path class="st4" d="M75.6,7.9c0.3,0,0.6,0.1,0.9,0.4c0.2,0.2,0.4,0.5,0.4,0.9s-0.1,0.6-0.4,0.9c-0.2,0.2-0.5,0.4-0.9,0.4h-6.3v5
			h5c0.3,0,0.6,0.1,0.9,0.4c0.2,0.2,0.4,0.5,0.4,0.9s-0.1,0.6-0.4,0.9C75,17.8,74.7,18,74.4,18h-5v5h6.3c0.3,0,0.6,0.1,0.9,0.4
			c0.2,0.2,0.4,0.5,0.4,0.9c0,0.3-0.1,0.6-0.4,0.9c-0.2,0.2-0.5,0.4-0.9,0.4h-7.6c-0.3,0-0.6-0.1-0.9-0.4c-0.2-0.2-0.4-0.5-0.4-0.9
			V9.1c0-0.3,0.1-0.6,0.4-0.9c0.2-0.2,0.5-0.4,0.9-0.4H75.6z"/>
		<path class="st4" d="M81.9,24.3c0,0.3-0.1,0.6-0.4,0.9c-0.2,0.2-0.5,0.4-0.9,0.4c-0.3,0-0.6-0.1-0.9-0.4c-0.2-0.2-0.4-0.5-0.4-0.9
			V9.1c0-0.3,0.1-0.6,0.4-0.9C80,8,80.3,7.9,80.7,7.9h3.8c1.4,0,2.6,0.5,3.6,1.5c1,1,1.5,2.2,1.5,3.6c0,1.4-0.5,2.6-1.5,3.6
			c-0.5,0.5-1.1,0.9-1.7,1.1l2.9,5.9l0,0c0.2,0.2,0.3,0.5,0.3,0.8c0,0.3-0.1,0.6-0.4,0.9c-0.2,0.2-0.5,0.4-0.9,0.4
			c-0.3,0-0.6-0.1-0.9-0.4c-0.1-0.1-0.2-0.2-0.3-0.3L83.7,18h-1.7V24.3z M81.9,10.4v5h2.5c0.7,0,1.3-0.2,1.8-0.7
			c0.5-0.5,0.7-1.1,0.7-1.8c0-0.7-0.2-1.3-0.7-1.8c-0.5-0.5-1.1-0.7-1.8-0.7H81.9z"/>
		<path class="st4" d="M113.4,7.9c0.3,0,0.6,0.1,0.9,0.4c0.2,0.2,0.4,0.5,0.4,0.9s-0.1,0.6-0.4,0.9c-0.2,0.2-0.5,0.4-0.9,0.4h-2.5
			v13.9c0,0.3-0.1,0.6-0.4,0.9c-0.2,0.2-0.5,0.4-0.9,0.4c-0.3,0-0.6-0.1-0.9-0.4c-0.2-0.2-0.4-0.5-0.4-0.9V10.4h-2.5
			c-0.3,0-0.6-0.1-0.9-0.4c-0.2-0.2-0.4-0.5-0.4-0.9s0.1-0.6,0.4-0.9c0.2-0.2,0.5-0.4,0.9-0.4H113.4z"/>
		<path class="st4" d="M126,7.9c0.3,0,0.6,0.1,0.9,0.4c0.2,0.2,0.4,0.5,0.4,0.9s-0.1,0.6-0.4,0.9s-0.5,0.4-0.9,0.4h-6.3v5h5
			c0.3,0,0.6,0.1,0.9,0.4c0.2,0.2,0.4,0.5,0.4,0.9s-0.1,0.6-0.4,0.9s-0.5,0.4-0.9,0.4h-5v5h6.3c0.3,0,0.6,0.1,0.9,0.4
			c0.2,0.2,0.4,0.5,0.4,0.9c0,0.3-0.1,0.6-0.4,0.9c-0.2,0.2-0.5,0.4-0.9,0.4h-7.6c-0.3,0-0.6-0.1-0.9-0.4c-0.2-0.2-0.4-0.5-0.4-0.9
			V9.1c0-0.3,0.1-0.6,0.4-0.9c0.2-0.2,0.5-0.4,0.9-0.4H126z"/>
		<path class="st4" d="M132.3,24.3c0,0.3-0.1,0.6-0.4,0.9c-0.2,0.2-0.5,0.4-0.9,0.4c-0.3,0-0.6-0.1-0.9-0.4
			c-0.2-0.2-0.4-0.5-0.4-0.9V9.1c0-0.3,0.1-0.6,0.4-0.9c0.2-0.2,0.5-0.4,0.9-0.4c0.3,0,0.6,0.1,0.9,0.4c0.1,0.1,0.2,0.2,0.2,0.3
			l2.6,5.3l2.6-5.3c0.1-0.1,0.1-0.2,0.3-0.3c0.2-0.2,0.5-0.4,0.9-0.4s0.6,0.1,0.9,0.4c0.2,0.2,0.4,0.5,0.4,0.9v15.1
			c0,0.3-0.1,0.6-0.4,0.9c-0.2,0.2-0.5,0.4-0.9,0.4s-0.6-0.1-0.9-0.4c-0.2-0.2-0.4-0.5-0.4-0.9v-9.8l-1.1,2.2l-1.4,2.8l-1.4-2.8
			l-1.1-2.2V24.3z"/>
		<path class="st4" d="M144.9,24.3c0,0.3-0.1,0.6-0.4,0.9c-0.2,0.2-0.5,0.4-0.9,0.4c-0.3,0-0.6-0.1-0.9-0.4
			c-0.2-0.2-0.4-0.5-0.4-0.9V9.1c0-0.3,0.1-0.6,0.4-0.9c0.2-0.2,0.5-0.4,0.9-0.4h3.8c1.4,0,2.6,0.5,3.6,1.5c1,1,1.5,2.2,1.5,3.6
			c0,1.4-0.5,2.6-1.5,3.6c-1,1-2.2,1.5-3.6,1.5h-2.5V24.3z M144.9,10.4v5h2.5c0.7,0,1.3-0.2,1.8-0.7c0.5-0.5,0.7-1.1,0.7-1.8
			c0-0.7-0.2-1.3-0.7-1.8c-0.5-0.5-1.1-0.7-1.8-0.7H144.9z"/>
		<path class="st4" d="M163.8,23c0.3,0,0.6,0.1,0.9,0.4c0.2,0.2,0.4,0.5,0.4,0.9c0,0.3-0.1,0.6-0.4,0.9c-0.2,0.2-0.5,0.4-0.9,0.4
			h-7.6c-0.3,0-0.6-0.1-0.9-0.4c-0.2-0.2-0.4-0.5-0.4-0.9V9.1c0-0.3,0.1-0.6,0.4-0.9c0.2-0.2,0.5-0.4,0.9-0.4c0.3,0,0.6,0.1,0.9,0.4
			c0.2,0.2,0.4,0.5,0.4,0.9V23H163.8z"/>
		<path class="st4" d="M170.2,23l-0.4,1.5c-0.1,0.3-0.3,0.6-0.6,0.8c-0.3,0.2-0.6,0.2-1,0.2c-0.3-0.1-0.6-0.3-0.8-0.6
			c-0.2-0.3-0.2-0.6-0.2-1l3.5-15.1c0.1-0.3,0.3-0.6,0.6-0.8c0.3-0.2,0.6-0.3,1-0.2h0.5c0.3-0.1,0.7,0,1,0.2
			c0.3,0.2,0.5,0.4,0.6,0.8l3.5,15.1c0.1,0.3,0,0.7-0.2,1s-0.4,0.5-0.8,0.6c-0.3,0.1-0.7,0-1-0.2c-0.3-0.2-0.5-0.4-0.6-0.8l-0.4-1.5
			H170.2z M170.8,20.5h3.7l-1.9-8L170.8,20.5z"/>
		<path class="st4" d="M189.1,7.9c0.3,0,0.6,0.1,0.9,0.4c0.2,0.2,0.4,0.5,0.4,0.9s-0.1,0.6-0.4,0.9c-0.2,0.2-0.5,0.4-0.9,0.4h-2.5
			v13.9c0,0.3-0.1,0.6-0.4,0.9c-0.2,0.2-0.5,0.4-0.9,0.4s-0.6-0.1-0.9-0.4c-0.2-0.2-0.4-0.5-0.4-0.9V10.4h-2.5
			c-0.3,0-0.6-0.1-0.9-0.4c-0.2-0.2-0.4-0.5-0.4-0.9s0.1-0.6,0.4-0.9c0.2-0.2,0.5-0.4,0.9-0.4H189.1z"/>
		<path class="st4" d="M201.7,7.9c0.3,0,0.6,0.1,0.9,0.4c0.2,0.2,0.4,0.5,0.4,0.9s-0.1,0.6-0.4,0.9c-0.2,0.2-0.5,0.4-0.9,0.4h-6.3v5
			h5c0.3,0,0.6,0.1,0.9,0.4c0.2,0.2,0.4,0.5,0.4,0.9s-0.1,0.6-0.4,0.9s-0.5,0.4-0.9,0.4h-5v5h6.3c0.3,0,0.6,0.1,0.9,0.4
			c0.2,0.2,0.4,0.5,0.4,0.9c0,0.3-0.1,0.6-0.4,0.9c-0.2,0.2-0.5,0.4-0.9,0.4h-7.6c-0.3,0-0.6-0.1-0.9-0.4c-0.2-0.2-0.4-0.5-0.4-0.9
			V9.1c0-0.3,0.1-0.6,0.4-0.9c0.2-0.2,0.5-0.4,0.9-0.4H201.7z"/>
	</g>
</g>
<g id="back_x5F_clair" class="st0">
	<polygon class="st2" points="256.7,-13 4.2,30.9 3.9,-45.1 256.5,-89 	"/>
	<g class="st3">
		<path class="st4" d="M38-31.9c0.8-0.1,1.4,0,2,0.4c0.6,0.4,0.8,1,0.8,1.7c0,0.7-0.3,1.4-0.8,2c-0.6,0.6-1.2,1-2,1.1l-5.6,1L32.5,3
			c0,0.7-0.3,1.4-0.8,2c-0.6,0.6-1.2,1-2,1.1s-1.4,0-2-0.4c-0.6-0.4-0.8-1-0.8-1.7l-0.1-28.7l-5.6,1c-0.8,0.1-1.4,0-2-0.4
			c-0.6-0.4-0.8-1-0.8-1.7c0-0.7,0.3-1.4,0.8-2c0.6-0.6,1.2-1,2-1.1L38-31.9z"/>
		<path class="st4" d="M66.2-36.8c0.8-0.1,1.4,0,2,0.4c0.6,0.4,0.8,1,0.8,1.7c0,0.7-0.3,1.4-0.8,2c-0.6,0.6-1.2,1-2,1.1l-14.1,2.4
			l0,10.4l11.3-2c0.8-0.1,1.4,0,2,0.4c0.6,0.4,0.8,1,0.8,1.7s-0.3,1.4-0.8,2c-0.6,0.6-1.2,1-2,1.1l-11.3,2l0,10.4l14.1-2.4
			c0.8-0.1,1.4,0,2,0.4c0.6,0.4,0.8,1,0.8,1.7c0,0.7-0.3,1.4-0.8,2c-0.6,0.6-1.2,1-2,1.1L49.4,2.7c-0.8,0.1-1.4,0-2-0.4
			s-0.8-1-0.8-1.7l-0.1-31.3c0-0.7,0.3-1.4,0.8-2s1.2-1,2-1.1L66.2-36.8z"/>
		<path class="st4" d="M80.3-5.3c0,0.7-0.3,1.4-0.8,2c-0.6,0.6-1.2,1-2,1.1c-0.8,0.1-1.4,0-2-0.4c-0.6-0.4-0.8-1-0.8-1.7l-0.1-31.3
			c0-0.7,0.3-1.4,0.8-2c0.6-0.6,1.2-1,2-1.1c0.8-0.1,1.4,0,2,0.4c0.2,0.2,0.4,0.4,0.5,0.6l5.9,9.9l5.9-12c0.1-0.3,0.3-0.5,0.6-0.8
			c0.5-0.6,1.2-1,2-1.1c0.8-0.1,1.4,0,2,0.4c0.6,0.4,0.8,1,0.8,1.7l0.1,31.3c0,0.7-0.3,1.4-0.8,2c-0.6,0.6-1.2,1-2,1.1
			c-0.8,0.1-1.4,0-2-0.4c-0.6-0.4-0.8-1-0.8-1.7l-0.1-20.3l-2.5,5l-3.1,6.4l-3.2-5.3l-2.5-4.2L80.3-5.3z"/>
		<path class="st4" d="M108.5-10.2c0,0.7-0.3,1.4-0.8,2s-1.2,1-2,1.1c-0.8,0.1-1.4,0-2-0.4s-0.8-1-0.8-1.7l-0.1-31.3
			c0-0.7,0.3-1.4,0.8-2s1.2-1,2-1.1l8.4-1.5c3.1-0.5,5.8,0,8,1.7c2.2,1.7,3.3,3.9,3.3,6.8c0,2.9-1.1,5.5-3.3,8
			c-2.2,2.4-4.8,3.9-8,4.4l-5.6,1L108.5-10.2z M108.4-39l0,10.4l5.6-1c1.6-0.3,2.9-1,4-2.2c1.1-1.2,1.6-2.5,1.6-4
			c0-1.4-0.6-2.6-1.7-3.4c-1.1-0.8-2.4-1.1-4-0.8L108.4-39z"/>
		<path class="st4" d="M150.7-20.2c0.8-0.1,1.4,0,2,0.4c0.6,0.4,0.8,1,0.8,1.7c0,0.7-0.3,1.4-0.8,2c-0.6,0.6-1.2,1-2,1.1L133.8-12
			c-0.8,0.1-1.4,0-2-0.4c-0.6-0.4-0.8-1-0.8-1.7l-0.1-31.3c0-0.7,0.3-1.4,0.8-2c0.6-0.6,1.2-1,2-1.1c0.8-0.1,1.4,0,2,0.4
			s0.8,1,0.8,1.7l0.1,28.7L150.7-20.2z"/>
		<path class="st4" d="M164.9-22.7l-0.8,3.4c-0.2,0.7-0.6,1.3-1.3,1.8c-0.7,0.5-1.4,0.7-2.1,0.7c-0.7,0-1.3-0.3-1.7-0.9
			c-0.4-0.5-0.5-1.2-0.4-1.9l7.7-32.6c0.2-0.7,0.6-1.3,1.3-1.8c0.7-0.5,1.4-0.8,2.1-0.8l1.1-0.2c0.8-0.2,1.5-0.2,2.1,0
			c0.7,0.3,1.1,0.7,1.3,1.4l7.9,29.9c0.2,0.7,0.1,1.3-0.4,2c-0.4,0.7-1,1.2-1.7,1.5c-0.8,0.3-1.5,0.3-2.1,0
			c-0.7-0.3-1.1-0.7-1.3-1.4l-0.8-3.1L164.9-22.7z M166.2-28.1l8.3-1.4l-4.2-15.9L166.2-28.1z"/>
		<path class="st4" d="M206.9-61.3c0.8-0.1,1.4,0,2,0.4c0.6,0.4,0.8,1,0.8,1.7c0,0.7-0.3,1.4-0.8,2c-0.6,0.6-1.2,1-2,1.1l-5.6,1
			l0.1,28.7c0,0.7-0.3,1.4-0.8,2c-0.6,0.6-1.2,1-2,1.1c-0.8,0.1-1.4,0-2-0.4c-0.6-0.4-0.8-1-0.8-1.7l-0.1-28.7l-5.6,1
			c-0.8,0.1-1.4,0-2-0.4c-0.6-0.4-0.8-1-0.8-1.7c0-0.7,0.3-1.4,0.8-2c0.6-0.6,1.2-1,2-1.1L206.9-61.3z"/>
		<path class="st4" d="M235-66.2c0.8-0.1,1.4,0,2,0.4c0.6,0.4,0.8,1,0.8,1.7c0,0.7-0.3,1.4-0.8,2c-0.6,0.6-1.2,1-2,1.1L221-58.5
			l0,10.4l11.3-2c0.8-0.1,1.4,0,2,0.4c0.6,0.4,0.8,1,0.8,1.7s-0.3,1.4-0.8,2c-0.6,0.6-1.2,1-2,1.1l-11.3,2l0,10.4l14.1-2.4
			c0.8-0.1,1.4,0,2,0.4c0.6,0.4,0.8,1,0.8,1.7c0,0.7-0.3,1.4-0.8,2c-0.6,0.6-1.2,1-2,1.1l-16.9,2.9c-0.8,0.1-1.4,0-2-0.4
			c-0.6-0.4-0.8-1-0.8-1.7l-0.1-31.3c0-0.7,0.3-1.4,0.8-2c0.6-0.6,1.2-1,2-1.1L235-66.2z"/>
	</g>
	<g class="st3">
		<path class="st7" d="M9.7-58.7c0,0.7-0.3,1.4-0.8,2c-0.6,0.6-1.2,1-2,1.1c-0.8,0.1-1.5,0-2-0.4c-0.6-0.4-0.8-1-0.8-1.7L3.8-89.5
			c0-0.7,0.3-1.4,0.8-2c0.6-0.6,1.2-1,2-1.1c0.8-0.1,1.5,0,2,0.4C9-92,9.1-91.8,9.3-91.6l6,10.1l6-12.2c0.1-0.3,0.3-0.5,0.6-0.8
			c0.6-0.6,1.2-1,2-1.1c0.8-0.1,1.5,0,2,0.4s0.8,1,0.8,1.7l0.1,31.8c0,0.7-0.3,1.4-0.8,2s-1.2,1-2,1.1c-0.8,0.1-1.5,0-2-0.4
			s-0.8-1-0.8-1.7L21-81.2l-2.5,5.1l-3.2,6.5L12.1-75l-2.5-4.2L9.7-58.7z"/>
		<path class="st7" d="M50.2-98.1c0.2-0.7,0.6-1.4,1.3-1.9c0.7-0.5,1.4-0.7,2.2-0.7c0.7,0,1.3,0.3,1.7,0.9c0.4,0.6,0.5,1.2,0.4,1.9
			L48-64.8c-0.2,0.7-0.6,1.4-1.3,1.9c-0.7,0.5-1.4,0.8-2.2,0.8l-1.1,0.2c-0.8,0.2-1.5,0.2-2.2,0c-0.7-0.3-1.1-0.7-1.3-1.4l-8-30.3
			c-0.2-0.7-0.1-1.4,0.4-2.1c0.4-0.7,1-1.2,1.7-1.5c0.8-0.3,1.5-0.3,2.2,0c0.7,0.3,1.1,0.7,1.3,1.4l6.4,24.3L50.2-98.1z"/>
		<path class="st7" d="M81.1-73.8c0.8-0.1,1.5,0,2,0.4c0.6,0.4,0.8,1,0.8,1.7s-0.3,1.4-0.8,2c-0.6,0.6-1.2,1-2,1.1l-17.1,3
			c-0.8,0.1-1.5,0-2-0.4s-0.8-1-0.8-1.7s0.3-1.4,0.8-2c0.6-0.6,1.2-1,2-1.1l5.7-1l-0.1-26.5l-5.7,1c-0.8,0.1-1.5,0-2-0.4
			c-0.6-0.4-0.8-1-0.8-1.7s0.3-1.4,0.8-2c0.6-0.6,1.2-1,2-1.1l17.1-3c0.8-0.1,1.5,0,2,0.4c0.6,0.4,0.8,1,0.8,1.7s-0.3,1.4-0.8,2
			c-0.6,0.6-1.2,1-2,1.1l-5.7,1l0.1,26.5L81.1-73.8z"/>
		<path class="st7" d="M109.6-110.6c0.8-0.1,1.5,0,2,0.4c0.6,0.4,0.8,1,0.8,1.7s-0.3,1.4-0.8,2c-0.6,0.6-1.2,1-2,1.1l-14.3,2.5
			l0,10.6l11.4-2c0.8-0.1,1.5,0,2,0.4c0.6,0.4,0.8,1,0.8,1.7s-0.3,1.4-0.8,2c-0.6,0.6-1.2,1-2,1.1l-11.4,2l0,10.6l14.3-2.5
			c0.8-0.1,1.5,0,2,0.4c0.6,0.4,0.8,1,0.8,1.7s-0.3,1.4-0.8,2c-0.6,0.6-1.2,1-2,1.1l-17.1,3c-0.8,0.1-1.5,0-2-0.4s-0.8-1-0.8-1.7
			l-0.1-31.8c0-0.7,0.3-1.4,0.8-2s1.2-1,2-1.1L109.6-110.6z"/>
		<path class="st7" d="M118.2-109.4c0-0.7,0.3-1.4,0.8-2s1.2-1,2-1.1s1.5,0,2,0.4c0.6,0.4,0.8,1,0.8,1.7l0.1,27.8
			c0,0.4,0.1,0.7,0.4,0.9c0.3,0.2,0.6,0.3,1,0.2s0.7-0.3,1-0.6c0.3-0.3,0.4-0.6,0.4-1l-0.1-19.9c0-0.7,0.3-1.4,0.8-2
			c0.6-0.6,1.2-1,2-1.1s1.5,0,2,0.4c0.6,0.4,0.8,1,0.8,1.7l0.1,19.9c0,0.4,0.1,0.7,0.4,0.9c0.3,0.2,0.6,0.3,1,0.2
			c0.4-0.1,0.7-0.3,1-0.6c0.3-0.3,0.4-0.6,0.4-1l-0.1-27.8c0-0.7,0.3-1.4,0.8-2s1.2-1,2-1.1c0.8-0.1,1.5,0,2,0.4
			c0.6,0.4,0.8,1,0.8,1.7l0.1,27.8c0,1.8-0.7,3.5-2.1,5.1c-1.4,1.5-3.1,2.5-5.1,2.8c-1.6,0.3-3.1,0.1-4.3-0.6
			c-1.2,1.1-2.7,1.8-4.3,2c-2,0.3-3.7,0-5.1-1.1c-1.4-1-2.1-2.5-2.1-4.3L118.2-109.4z"/>
		<path class="st7" d="M166.8-120.5c0.8-0.1,1.5,0,2,0.4c0.6,0.4,0.8,1,0.8,1.7s-0.3,1.4-0.8,2c-0.6,0.6-1.2,1-2,1.1l-14.3,2.5
			l0,10.6l11.4-2c0.8-0.1,1.5,0,2,0.4c0.6,0.4,0.8,1,0.8,1.7s-0.3,1.4-0.8,2c-0.6,0.6-1.2,1-2,1.1l-11.4,2l0,10.6l14.3-2.5
			c0.8-0.1,1.5,0,2,0.4s0.8,1,0.8,1.7s-0.3,1.4-0.8,2s-1.2,1-2,1.1l-17.1,3c-0.8,0.1-1.5,0-2-0.4c-0.6-0.4-0.8-1-0.8-1.7l-0.1-31.8
			c0-0.7,0.3-1.4,0.8-2c0.6-0.6,1.2-1,2-1.1L166.8-120.5z"/>
		<path class="st7" d="M181.2-88.5c0,0.7-0.3,1.4-0.8,2s-1.2,1-2,1.1c-0.8,0.1-1.5,0-2-0.4s-0.8-1-0.8-1.7l-0.1-31.8
			c0-0.7,0.3-1.4,0.8-2c0.6-0.6,1.2-1,2-1.1l8.6-1.5c3.2-0.5,5.9,0,8.1,1.7c2.2,1.7,3.4,4,3.4,6.9c0,2.9-1.1,5.6-3.3,8.1
			c-1.2,1.3-2.4,2.3-3.9,3.1l6.7,11.2l0,0.1c0.4,0.4,0.6,0.9,0.6,1.5c0,0.7-0.3,1.4-0.8,2c-0.6,0.6-1.2,1-2,1.1s-1.4,0-2-0.4
			c-0.2-0.2-0.4-0.4-0.6-0.6l-7.8-13.1l-3.9,0.7L181.2-88.5z M181.1-117.7l0,10.6l5.7-1c1.6-0.3,2.9-1,4-2.3c1.1-1.2,1.7-2.6,1.7-4
			c0-1.5-0.6-2.6-1.7-3.5c-1.1-0.8-2.5-1.1-4-0.8L181.1-117.7z"/>
	</g>
	<g class="st3">
		<path class="st7" d="M224.1-130c0,0.5-0.2,0.9-0.7,1.2c-1.9,1.2-3.8,2.5-5.7,3.7c-3.2,2-5,3-5.4,3.1c-0.9,0.1-1.4-0.4-1.5-1.3
			c0-0.5,0.2-0.9,0.7-1.2c1.9-1.2,3.8-2.5,5.7-3.7c3.2-2,5-3,5.4-3.1C223.6-131.4,224.1-131,224.1-130z M226.6-114.6
			c0,0.9-0.4,1.3-1.3,1.4l-12.5,0.7c-0.9,0.1-1.4-0.4-1.5-1.2c0-0.9,0.4-1.3,1.3-1.4l12.5-0.7C226.1-115.9,226.6-115.5,226.6-114.6z
			 M225.9-98.9c0.1,0.9-0.4,1.4-1.3,1.5c-0.4,0-2.4-0.8-5.7-2.5c-2-1-4-2-6.1-3.1c-0.5-0.2-0.8-0.6-0.8-1.1
			c-0.1-0.9,0.4-1.4,1.3-1.5c0.4,0,2.4,0.8,5.7,2.5c2,1,4,2,6.1,3.1C225.6-99.7,225.8-99.3,225.9-98.9z"/>
	</g>
</g>
</svg>
