<?xml version="1.0" encoding="utf-8"?>
<!-- Generator: Adobe Illustrator 23.0.1, SVG Export Plug-In . SVG Version: 6.00 Build 0)  -->
<svg version="1.1" xmlns="http://www.w3.org/2000/svg" xmlns:xlink="http://www.w3.org/1999/xlink" x="0px" y="0px"
	 viewBox="0 0 262.3 168" style="enable-background:new 0 0 262.3 168;" xml:space="preserve">
<style type="text/css">
	.st0{display:none;}
	.st1{display:inline;fill:#1E1C33;}
	.st2{display:inline;opacity:0.68;fill:#009AA3;}
	.st3{display:inline;}
	.st4{fill:#FFFFFF;}
	.st5{fill:#FFFFFF;stroke:#FFFFFF;stroke-miterlimit:10;}
	.st6{opacity:0.68;fill:#009AA3;}
	.st7{fill:#1E1C33;}
</style>
<g id="back_x5F_fonce" class="st0">
	<rect x="-74.4" y="-74.3" class="st1" width="391.6" height="325.9"/>
	<polygon class="st2" points="256.7,121.3 4.2,165.2 3.9,89.2 256.5,45.3 	"/>
	<g class="st3">
		<path class="st4" d="M38,102.4c0.8-0.1,1.4,0,2,0.4c0.6,0.4,0.8,1,0.8,1.7c0,0.7-0.3,1.4-0.8,2c-0.6,0.6-1.2,1-2,1.1l-5.6,1
			l0.1,28.7c0,0.7-0.3,1.4-0.8,2c-0.6,0.6-1.2,1-2,1.1s-1.4,0-2-0.4c-0.6-0.4-0.8-1-0.8-1.7l-0.1-28.7l-5.6,1c-0.8,0.1-1.4,0-2-0.4
			c-0.6-0.4-0.8-1-0.8-1.7c0-0.7,0.3-1.4,0.8-2c0.6-0.6,1.2-1,2-1.1L38,102.4z"/>
		<path class="st4" d="M66.2,97.5c0.8-0.1,1.4,0,2,0.4c0.6,0.4,0.8,1,0.8,1.7c0,0.7-0.3,1.4-0.8,2c-0.6,0.6-1.2,1-2,1.1l-14.1,2.4
			l0,10.4l11.3-2c0.8-0.1,1.4,0,2,0.4c0.6,0.4,0.8,1,0.8,1.7s-0.3,1.4-0.8,2c-0.6,0.6-1.2,1-2,1.1l-11.3,2l0,10.4l14.1-2.4
			c0.8-0.1,1.4,0,2,0.4c0.6,0.4,0.8,1,0.8,1.7c0,0.7-0.3,1.4-0.8,2c-0.6,0.6-1.2,1-2,1.1L49.4,137c-0.8,0.1-1.4,0-2-0.4
			s-0.8-1-0.8-1.7l-0.1-31.3c0-0.7,0.3-1.4,0.8-2s1.2-1,2-1.1L66.2,97.5z"/>
		<path class="st4" d="M80.3,129c0,0.7-0.3,1.4-0.8,2c-0.6,0.6-1.2,1-2,1.1c-0.8,0.1-1.4,0-2-0.4c-0.6-0.4-0.8-1-0.8-1.7l-0.1-31.3
			c0-0.7,0.3-1.4,0.8-2c0.6-0.6,1.2-1,2-1.1c0.8-0.1,1.4,0,2,0.4c0.2,0.2,0.4,0.4,0.5,0.6l5.9,9.9l5.9-12c0.1-0.3,0.3-0.5,0.6-0.8
			c0.5-0.6,1.2-1,2-1.1c0.8-0.1,1.4,0,2,0.4c0.6,0.4,0.8,1,0.8,1.7l0.1,31.3c0,0.7-0.3,1.4-0.8,2c-0.6,0.6-1.2,1-2,1.1
			c-0.8,0.1-1.4,0-2-0.4c-0.6-0.4-0.8-1-0.8-1.7l-0.1-20.3l-2.5,5l-3.1,6.4l-3.2-5.3l-2.5-4.2L80.3,129z"/>
		<path class="st4" d="M108.5,124.1c0,0.7-0.3,1.4-0.8,2s-1.2,1-2,1.1c-0.8,0.1-1.4,0-2-0.4s-0.8-1-0.8-1.7l-0.1-31.3
			c0-0.7,0.3-1.4,0.8-2s1.2-1,2-1.1l8.4-1.5c3.1-0.5,5.8,0,8,1.7c2.2,1.7,3.3,3.9,3.3,6.8c0,2.9-1.1,5.5-3.3,8
			c-2.2,2.4-4.8,3.9-8,4.4l-5.6,1L108.5,124.1z M108.4,95.4l0,10.4l5.6-1c1.6-0.3,2.9-1,4-2.2c1.1-1.2,1.6-2.5,1.6-4
			c0-1.4-0.6-2.6-1.7-3.4c-1.1-0.8-2.4-1.1-4-0.8L108.4,95.4z"/>
		<path class="st4" d="M150.7,114.1c0.8-0.1,1.4,0,2,0.4c0.6,0.4,0.8,1,0.8,1.7c0,0.7-0.3,1.4-0.8,2c-0.6,0.6-1.2,1-2,1.1l-16.9,2.9
			c-0.8,0.1-1.4,0-2-0.4c-0.6-0.4-0.8-1-0.8-1.7l-0.1-31.3c0-0.7,0.3-1.4,0.8-2c0.6-0.6,1.2-1,2-1.1c0.8-0.1,1.4,0,2,0.4
			s0.8,1,0.8,1.7l0.1,28.7L150.7,114.1z"/>
		<path class="st4" d="M164.9,111.6l-0.8,3.4c-0.2,0.7-0.6,1.3-1.3,1.8c-0.7,0.5-1.4,0.7-2.1,0.7c-0.7,0-1.3-0.3-1.7-0.9
			c-0.4-0.5-0.5-1.2-0.4-1.9l7.7-32.6c0.2-0.7,0.6-1.3,1.3-1.8c0.7-0.5,1.4-0.8,2.1-0.8l1.1-0.2c0.8-0.2,1.5-0.2,2.1,0
			c0.7,0.3,1.1,0.7,1.3,1.4l7.9,29.9c0.2,0.7,0.1,1.3-0.4,2c-0.4,0.7-1,1.2-1.7,1.5c-0.8,0.3-1.5,0.3-2.1,0
			c-0.7-0.3-1.1-0.7-1.3-1.4l-0.8-3.1L164.9,111.6z M166.2,106.2l8.3-1.4l-4.2-15.9L166.2,106.2z"/>
		<path class="st4" d="M206.9,73c0.8-0.1,1.4,0,2,0.4c0.6,0.4,0.8,1,0.8,1.7c0,0.7-0.3,1.4-0.8,2c-0.6,0.6-1.2,1-2,1.1l-5.6,1
			l0.1,28.7c0,0.7-0.3,1.4-0.8,2c-0.6,0.6-1.2,1-2,1.1c-0.8,0.1-1.4,0-2-0.4c-0.6-0.4-0.8-1-0.8-1.7l-0.1-28.7l-5.6,1
			c-0.8,0.1-1.4,0-2-0.4c-0.6-0.4-0.8-1-0.8-1.7c0-0.7,0.3-1.4,0.8-2c0.6-0.6,1.2-1,2-1.1L206.9,73z"/>
		<path class="st4" d="M235,68.1c0.8-0.1,1.4,0,2,0.4c0.6,0.4,0.8,1,0.8,1.7c0,0.7-0.3,1.4-0.8,2c-0.6,0.6-1.2,1-2,1.1L221,75.8
			l0,10.4l11.3-2c0.8-0.1,1.4,0,2,0.4c0.6,0.4,0.8,1,0.8,1.7s-0.3,1.4-0.8,2c-0.6,0.6-1.2,1-2,1.1l-11.3,2l0,10.4l14.1-2.4
			c0.8-0.1,1.4,0,2,0.4c0.6,0.4,0.8,1,0.8,1.7c0,0.7-0.3,1.4-0.8,2c-0.6,0.6-1.2,1-2,1.1l-16.9,2.9c-0.8,0.1-1.4,0-2-0.4
			c-0.6-0.4-0.8-1-0.8-1.7l-0.1-31.3c0-0.7,0.3-1.4,0.8-2c0.6-0.6,1.2-1,2-1.1L235,68.1z"/>
	</g>
	<g class="st3">
		<path class="st4" d="M9.7,75.6c0,0.7-0.3,1.4-0.8,2c-0.6,0.6-1.2,1-2,1.1c-0.8,0.1-1.5,0-2-0.4c-0.6-0.4-0.8-1-0.8-1.7L3.8,44.8
			c0-0.7,0.3-1.4,0.8-2c0.6-0.6,1.2-1,2-1.1c0.8-0.1,1.5,0,2,0.4c0.2,0.2,0.4,0.4,0.5,0.6l6,10.1l6-12.2c0.1-0.3,0.3-0.5,0.6-0.8
			c0.6-0.6,1.2-1,2-1.1c0.8-0.1,1.5,0,2,0.4s0.8,1,0.8,1.7l0.1,31.8c0,0.7-0.3,1.4-0.8,2s-1.2,1-2,1.1c-0.8,0.1-1.5,0-2-0.4
			s-0.8-1-0.8-1.7L21,53.1l-2.5,5.1l-3.2,6.5l-3.2-5.4l-2.5-4.2L9.7,75.6z"/>
		<path class="st4" d="M50.2,36.2c0.2-0.7,0.6-1.4,1.3-1.9c0.7-0.5,1.4-0.7,2.2-0.7c0.7,0,1.3,0.3,1.7,0.9c0.4,0.6,0.5,1.2,0.4,1.9
			L48,69.5c-0.2,0.7-0.6,1.4-1.3,1.9c-0.7,0.5-1.4,0.8-2.2,0.8l-1.1,0.2c-0.8,0.2-1.5,0.2-2.2,0c-0.7-0.3-1.1-0.7-1.3-1.4l-8-30.3
			c-0.2-0.7-0.1-1.4,0.4-2.1c0.4-0.7,1-1.2,1.7-1.5c0.8-0.3,1.5-0.3,2.2,0c0.7,0.3,1.1,0.7,1.3,1.4l6.4,24.3L50.2,36.2z"/>
		<path class="st4" d="M81.1,60.6c0.8-0.1,1.5,0,2,0.4c0.6,0.4,0.8,1,0.8,1.7s-0.3,1.4-0.8,2c-0.6,0.6-1.2,1-2,1.1l-17.1,3
			c-0.8,0.1-1.5,0-2-0.4s-0.8-1-0.8-1.7s0.3-1.4,0.8-2c0.6-0.6,1.2-1,2-1.1l5.7-1L69.6,36l-5.7,1c-0.8,0.1-1.5,0-2-0.4
			c-0.6-0.4-0.8-1-0.8-1.7s0.3-1.4,0.8-2c0.6-0.6,1.2-1,2-1.1l17.1-3c0.8-0.1,1.5,0,2,0.4c0.6,0.4,0.8,1,0.8,1.7s-0.3,1.4-0.8,2
			c-0.6,0.6-1.2,1-2,1.1l-5.7,1l0.1,26.5L81.1,60.6z"/>
		<path class="st4" d="M109.6,23.8c0.8-0.1,1.5,0,2,0.4c0.6,0.4,0.8,1,0.8,1.7s-0.3,1.4-0.8,2c-0.6,0.6-1.2,1-2,1.1l-14.3,2.5
			l0,10.6l11.4-2c0.8-0.1,1.5,0,2,0.4c0.6,0.4,0.8,1,0.8,1.7s-0.3,1.4-0.8,2c-0.6,0.6-1.2,1-2,1.1l-11.4,2l0,10.6l14.3-2.5
			c0.8-0.1,1.5,0,2,0.4c0.6,0.4,0.8,1,0.8,1.7s-0.3,1.4-0.8,2c-0.6,0.6-1.2,1-2,1.1l-17.1,3c-0.8,0.1-1.5,0-2-0.4s-0.8-1-0.8-1.7
			l-0.1-31.8c0-0.7,0.3-1.4,0.8-2s1.2-1,2-1.1L109.6,23.8z"/>
		<path class="st4" d="M118.2,24.9c0-0.7,0.3-1.4,0.8-2s1.2-1,2-1.1s1.5,0,2,0.4c0.6,0.4,0.8,1,0.8,1.7l0.1,27.8
			c0,0.4,0.1,0.7,0.4,0.9c0.3,0.2,0.6,0.3,1,0.2s0.7-0.3,1-0.6c0.3-0.3,0.4-0.6,0.4-1l-0.1-19.9c0-0.7,0.3-1.4,0.8-2
			c0.6-0.6,1.2-1,2-1.1s1.5,0,2,0.4c0.6,0.4,0.8,1,0.8,1.7l0.1,19.9c0,0.4,0.1,0.7,0.4,0.9c0.3,0.2,0.6,0.3,1,0.2
			c0.4-0.1,0.7-0.3,1-0.6c0.3-0.3,0.4-0.6,0.4-1l-0.1-27.8c0-0.7,0.3-1.4,0.8-2s1.2-1,2-1.1c0.8-0.1,1.5,0,2,0.4
			c0.6,0.4,0.8,1,0.8,1.7l0.1,27.8c0,1.8-0.7,3.5-2.1,5.1c-1.4,1.5-3.1,2.5-5.1,2.8c-1.6,0.3-3.1,0.1-4.3-0.6
			c-1.2,1.1-2.7,1.8-4.3,2c-2,0.3-3.7,0-5.1-1.1c-1.4-1-2.1-2.5-2.1-4.3L118.2,24.9z"/>
		<path class="st4" d="M166.8,13.8c0.8-0.1,1.5,0,2,0.4c0.6,0.4,0.8,1,0.8,1.7s-0.3,1.4-0.8,2c-0.6,0.6-1.2,1-2,1.1l-14.3,2.5
			l0,10.6l11.4-2c0.8-0.1,1.5,0,2,0.4c0.6,0.4,0.8,1,0.8,1.7c0,0.7-0.3,1.4-0.8,2c-0.6,0.6-1.2,1-2,1.1l-11.4,2l0,10.6l14.3-2.5
			c0.8-0.1,1.5,0,2,0.4s0.8,1,0.8,1.7s-0.3,1.4-0.8,2s-1.2,1-2,1.1l-17.1,3c-0.8,0.1-1.5,0-2-0.4c-0.6-0.4-0.8-1-0.8-1.7L146.8,20
			c0-0.7,0.3-1.4,0.8-2c0.6-0.6,1.2-1,2-1.1L166.8,13.8z"/>
		<path class="st4" d="M181.2,45.8c0,0.7-0.3,1.4-0.8,2s-1.2,1-2,1.1c-0.8,0.1-1.5,0-2-0.4s-0.8-1-0.8-1.7L175.3,15
			c0-0.7,0.3-1.4,0.8-2c0.6-0.6,1.2-1,2-1.1l8.6-1.5c3.2-0.5,5.9,0,8.1,1.7c2.2,1.7,3.4,4,3.4,6.9c0,2.9-1.1,5.6-3.3,8.1
			c-1.2,1.3-2.4,2.3-3.9,3.1l6.7,11.2l0,0.1c0.4,0.4,0.6,0.9,0.6,1.5c0,0.7-0.3,1.4-0.8,2c-0.6,0.6-1.2,1-2,1.1s-1.4,0-2-0.4
			c-0.2-0.2-0.4-0.4-0.6-0.6l-7.8-13.1l-3.9,0.7L181.2,45.8z M181.1,16.6l0,10.6l5.7-1c1.6-0.3,2.9-1,4-2.3c1.1-1.2,1.7-2.6,1.7-4
			c0-1.5-0.6-2.6-1.7-3.5c-1.1-0.8-2.5-1.1-4-0.8L181.1,16.6z"/>
	</g>
	<g class="st3">
		<path class="st5" d="M224.1,4.3c0,0.5-0.2,0.9-0.7,1.2c-1.9,1.2-3.8,2.5-5.7,3.7c-3.2,2-5,3-5.4,3.1c-0.9,0.1-1.4-0.4-1.5-1.3
			c0-0.5,0.2-0.9,0.7-1.2c1.9-1.2,3.8-2.5,5.7-3.7c3.2-2,5-3,5.4-3.1C223.6,2.9,224.1,3.4,224.1,4.3z M226.6,19.7
			c0,0.9-0.4,1.3-1.3,1.4l-12.5,0.7c-0.9,0.1-1.4-0.4-1.5-1.2c0-0.9,0.4-1.3,1.3-1.4l12.5-0.7C226.1,18.4,226.6,18.8,226.6,19.7z
			 M225.9,35.5c0.1,0.9-0.4,1.4-1.3,1.5c-0.4,0-2.4-0.8-5.7-2.5c-2-1-4-2-6.1-3.1c-0.5-0.2-0.8-0.6-0.8-1.1
			c-0.1-0.9,0.4-1.4,1.3-1.5c0.4,0,2.4,0.8,5.7,2.5c2,1,4,2,6.1,3.1C225.6,34.6,225.8,35,225.9,35.5z"/>
	</g>
</g>
<g id="back_x5F_clair">
	<polygon class="st6" points="256.7,121.3 4.2,165.2 3.9,89.2 256.5,45.3 	"/>
	<g>
		<path class="st4" d="M38,102.4c0.8-0.1,1.4,0,2,0.4c0.6,0.4,0.8,1,0.8,1.7c0,0.7-0.3,1.4-0.8,2c-0.6,0.6-1.2,1-2,1.1l-5.6,1
			l0.1,28.7c0,0.7-0.3,1.4-0.8,2c-0.6,0.6-1.2,1-2,1.1s-1.4,0-2-0.4c-0.6-0.4-0.8-1-0.8-1.7l-0.1-28.7l-5.6,1c-0.8,0.1-1.4,0-2-0.4
			c-0.6-0.4-0.8-1-0.8-1.7c0-0.7,0.3-1.4,0.8-2c0.6-0.6,1.2-1,2-1.1L38,102.4z"/>
		<path class="st4" d="M66.2,97.5c0.8-0.1,1.4,0,2,0.4c0.6,0.4,0.8,1,0.8,1.7c0,0.7-0.3,1.4-0.8,2c-0.6,0.6-1.2,1-2,1.1l-14.1,2.4
			l0,10.4l11.3-2c0.8-0.1,1.4,0,2,0.4c0.6,0.4,0.8,1,0.8,1.7s-0.3,1.4-0.8,2c-0.6,0.6-1.2,1-2,1.1l-11.3,2l0,10.4l14.1-2.4
			c0.8-0.1,1.4,0,2,0.4c0.6,0.4,0.8,1,0.8,1.7c0,0.7-0.3,1.4-0.8,2c-0.6,0.6-1.2,1-2,1.1L49.4,137c-0.8,0.1-1.4,0-2-0.4
			s-0.8-1-0.8-1.7l-0.1-31.3c0-0.7,0.3-1.4,0.8-2s1.2-1,2-1.1L66.2,97.5z"/>
		<path class="st4" d="M80.3,129c0,0.7-0.3,1.4-0.8,2c-0.6,0.6-1.2,1-2,1.1c-0.8,0.1-1.4,0-2-0.4c-0.6-0.4-0.8-1-0.8-1.7l-0.1-31.3
			c0-0.7,0.3-1.4,0.8-2c0.6-0.6,1.2-1,2-1.1c0.8-0.1,1.4,0,2,0.4c0.2,0.2,0.4,0.4,0.5,0.6l5.9,9.9l5.9-12c0.1-0.3,0.3-0.5,0.6-0.8
			c0.5-0.6,1.2-1,2-1.1c0.8-0.1,1.4,0,2,0.4c0.6,0.4,0.8,1,0.8,1.7l0.1,31.3c0,0.7-0.3,1.4-0.8,2c-0.6,0.6-1.2,1-2,1.1
			c-0.8,0.1-1.4,0-2-0.4c-0.6-0.4-0.8-1-0.8-1.7l-0.1-20.3l-2.5,5l-3.1,6.4l-3.2-5.3l-2.5-4.2L80.3,129z"/>
		<path class="st4" d="M108.5,124.1c0,0.7-0.3,1.4-0.8,2s-1.2,1-2,1.1c-0.8,0.1-1.4,0-2-0.4s-0.8-1-0.8-1.7l-0.1-31.3
			c0-0.7,0.3-1.4,0.8-2s1.2-1,2-1.1l8.4-1.5c3.1-0.5,5.8,0,8,1.7c2.2,1.7,3.3,3.9,3.3,6.8c0,2.9-1.1,5.5-3.3,8
			c-2.2,2.4-4.8,3.9-8,4.4l-5.6,1L108.5,124.1z M108.4,95.4l0,10.4l5.6-1c1.6-0.3,2.9-1,4-2.2c1.1-1.2,1.6-2.5,1.6-4
			c0-1.4-0.6-2.6-1.7-3.4c-1.1-0.8-2.4-1.1-4-0.8L108.4,95.4z"/>
		<path class="st4" d="M150.7,114.1c0.8-0.1,1.4,0,2,0.4c0.6,0.4,0.8,1,0.8,1.7c0,0.7-0.3,1.4-0.8,2c-0.6,0.6-1.2,1-2,1.1l-16.9,2.9
			c-0.8,0.1-1.4,0-2-0.4c-0.6-0.4-0.8-1-0.8-1.7l-0.1-31.3c0-0.7,0.3-1.4,0.8-2c0.6-0.6,1.2-1,2-1.1c0.8-0.1,1.4,0,2,0.4
			s0.8,1,0.8,1.7l0.1,28.7L150.7,114.1z"/>
		<path class="st4" d="M164.9,111.6l-0.8,3.4c-0.2,0.7-0.6,1.3-1.3,1.8c-0.7,0.5-1.4,0.7-2.1,0.7c-0.7,0-1.3-0.3-1.7-0.9
			c-0.4-0.5-0.5-1.2-0.4-1.9l7.7-32.6c0.2-0.7,0.6-1.3,1.3-1.8c0.7-0.5,1.4-0.8,2.1-0.8l1.1-0.2c0.8-0.2,1.5-0.2,2.1,0
			c0.7,0.3,1.1,0.7,1.3,1.4l7.9,29.9c0.2,0.7,0.1,1.3-0.4,2c-0.4,0.7-1,1.2-1.7,1.5c-0.8,0.3-1.5,0.3-2.1,0
			c-0.7-0.3-1.1-0.7-1.3-1.4l-0.8-3.1L164.9,111.6z M166.2,106.2l8.3-1.4l-4.2-15.9L166.2,106.2z"/>
		<path class="st4" d="M206.9,73c0.8-0.1,1.4,0,2,0.4c0.6,0.4,0.8,1,0.8,1.7c0,0.7-0.3,1.4-0.8,2c-0.6,0.6-1.2,1-2,1.1l-5.6,1
			l0.1,28.7c0,0.7-0.3,1.4-0.8,2c-0.6,0.6-1.2,1-2,1.1c-0.8,0.1-1.4,0-2-0.4c-0.6-0.4-0.8-1-0.8-1.7l-0.1-28.7l-5.6,1
			c-0.8,0.1-1.4,0-2-0.4c-0.6-0.4-0.8-1-0.8-1.7c0-0.7,0.3-1.4,0.8-2c0.6-0.6,1.2-1,2-1.1L206.9,73z"/>
		<path class="st4" d="M235,68.1c0.8-0.1,1.4,0,2,0.4c0.6,0.4,0.8,1,0.8,1.7c0,0.7-0.3,1.4-0.8,2c-0.6,0.6-1.2,1-2,1.1L221,75.8
			l0,10.4l11.3-2c0.8-0.1,1.4,0,2,0.4c0.6,0.4,0.8,1,0.8,1.7s-0.3,1.4-0.8,2c-0.6,0.6-1.2,1-2,1.1l-11.3,2l0,10.4l14.1-2.4
			c0.8-0.1,1.4,0,2,0.4c0.6,0.4,0.8,1,0.8,1.7c0,0.7-0.3,1.4-0.8,2c-0.6,0.6-1.2,1-2,1.1l-16.9,2.9c-0.8,0.1-1.4,0-2-0.4
			c-0.6-0.4-0.8-1-0.8-1.7l-0.1-31.3c0-0.7,0.3-1.4,0.8-2c0.6-0.6,1.2-1,2-1.1L235,68.1z"/>
	</g>
	<g>
		<path class="st7" d="M9.7,75.6c0,0.7-0.3,1.4-0.8,2c-0.6,0.6-1.2,1-2,1.1c-0.8,0.1-1.5,0-2-0.4c-0.6-0.4-0.8-1-0.8-1.7L3.8,44.8
			c0-0.7,0.3-1.4,0.8-2c0.6-0.6,1.2-1,2-1.1c0.8-0.1,1.5,0,2,0.4c0.2,0.2,0.4,0.4,0.5,0.6l6,10.1l6-12.2c0.1-0.3,0.3-0.5,0.6-0.8
			c0.6-0.6,1.2-1,2-1.1c0.8-0.1,1.5,0,2,0.4s0.8,1,0.8,1.7l0.1,31.8c0,0.7-0.3,1.4-0.8,2s-1.2,1-2,1.1c-0.8,0.1-1.5,0-2-0.4
			s-0.8-1-0.8-1.7L21,53.1l-2.5,5.1l-3.2,6.5l-3.2-5.4l-2.5-4.2L9.7,75.6z"/>
		<path class="st7" d="M50.2,36.2c0.2-0.7,0.6-1.4,1.3-1.9c0.7-0.5,1.4-0.7,2.2-0.7c0.7,0,1.3,0.3,1.7,0.9c0.4,0.6,0.5,1.2,0.4,1.9
			L48,69.5c-0.2,0.7-0.6,1.4-1.3,1.9c-0.7,0.5-1.4,0.8-2.2,0.8l-1.1,0.2c-0.8,0.2-1.5,0.2-2.2,0c-0.7-0.3-1.1-0.7-1.3-1.4l-8-30.3
			c-0.2-0.7-0.1-1.4,0.4-2.1c0.4-0.7,1-1.2,1.7-1.5c0.8-0.3,1.5-0.3,2.2,0c0.7,0.3,1.1,0.7,1.3,1.4l6.4,24.3L50.2,36.2z"/>
		<path class="st7" d="M81.1,60.6c0.8-0.1,1.5,0,2,0.4c0.6,0.4,0.8,1,0.8,1.7s-0.3,1.4-0.8,2c-0.6,0.6-1.2,1-2,1.1l-17.1,3
			c-0.8,0.1-1.5,0-2-0.4s-0.8-1-0.8-1.7s0.3-1.4,0.8-2c0.6-0.6,1.2-1,2-1.1l5.7-1L69.6,36l-5.7,1c-0.8,0.1-1.5,0-2-0.4
			c-0.6-0.4-0.8-1-0.8-1.7s0.3-1.4,0.8-2c0.6-0.6,1.2-1,2-1.1l17.1-3c0.8-0.1,1.5,0,2,0.4c0.6,0.4,0.8,1,0.8,1.7s-0.3,1.4-0.8,2
			c-0.6,0.6-1.2,1-2,1.1l-5.7,1l0.1,26.5L81.1,60.6z"/>
		<path class="st7" d="M109.6,23.8c0.8-0.1,1.5,0,2,0.4c0.6,0.4,0.8,1,0.8,1.7s-0.3,1.4-0.8,2c-0.6,0.6-1.2,1-2,1.1l-14.3,2.5
			l0,10.6l11.4-2c0.8-0.1,1.5,0,2,0.4c0.6,0.4,0.8,1,0.8,1.7s-0.3,1.4-0.8,2c-0.6,0.6-1.2,1-2,1.1l-11.4,2l0,10.6l14.3-2.5
			c0.8-0.1,1.5,0,2,0.4c0.6,0.4,0.8,1,0.8,1.7s-0.3,1.4-0.8,2c-0.6,0.6-1.2,1-2,1.1l-17.1,3c-0.8,0.1-1.5,0-2-0.4s-0.8-1-0.8-1.7
			l-0.1-31.8c0-0.7,0.3-1.4,0.8-2s1.2-1,2-1.1L109.6,23.8z"/>
		<path class="st7" d="M118.2,24.9c0-0.7,0.3-1.4,0.8-2s1.2-1,2-1.1s1.5,0,2,0.4c0.6,0.4,0.8,1,0.8,1.7l0.1,27.8
			c0,0.4,0.1,0.7,0.4,0.9c0.3,0.2,0.6,0.3,1,0.2s0.7-0.3,1-0.6c0.3-0.3,0.4-0.6,0.4-1l-0.1-19.9c0-0.7,0.3-1.4,0.8-2
			c0.6-0.6,1.2-1,2-1.1s1.5,0,2,0.4c0.6,0.4,0.8,1,0.8,1.7l0.1,19.9c0,0.4,0.1,0.7,0.4,0.9c0.3,0.2,0.6,0.3,1,0.2
			c0.4-0.1,0.7-0.3,1-0.6c0.3-0.3,0.4-0.6,0.4-1l-0.1-27.8c0-0.7,0.3-1.4,0.8-2s1.2-1,2-1.1c0.8-0.1,1.5,0,2,0.4
			c0.6,0.4,0.8,1,0.8,1.7l0.1,27.8c0,1.8-0.7,3.5-2.1,5.1c-1.4,1.5-3.1,2.5-5.1,2.8c-1.6,0.3-3.1,0.1-4.3-0.6
			c-1.2,1.1-2.7,1.8-4.3,2c-2,0.3-3.7,0-5.1-1.1c-1.4-1-2.1-2.5-2.1-4.3L118.2,24.9z"/>
		<path class="st7" d="M166.8,13.8c0.8-0.1,1.5,0,2,0.4c0.6,0.4,0.8,1,0.8,1.7s-0.3,1.4-0.8,2c-0.6,0.6-1.2,1-2,1.1l-14.3,2.5
			l0,10.6l11.4-2c0.8-0.1,1.5,0,2,0.4c0.6,0.4,0.8,1,0.8,1.7c0,0.7-0.3,1.4-0.8,2c-0.6,0.6-1.2,1-2,1.1l-11.4,2l0,10.6l14.3-2.5
			c0.8-0.1,1.5,0,2,0.4s0.8,1,0.8,1.7s-0.3,1.4-0.8,2s-1.2,1-2,1.1l-17.1,3c-0.8,0.1-1.5,0-2-0.4c-0.6-0.4-0.8-1-0.8-1.7L146.8,20
			c0-0.7,0.3-1.4,0.8-2c0.6-0.6,1.2-1,2-1.1L166.8,13.8z"/>
		<path class="st7" d="M181.2,45.8c0,0.7-0.3,1.4-0.8,2s-1.2,1-2,1.1c-0.8,0.1-1.5,0-2-0.4s-0.8-1-0.8-1.7L175.3,15
			c0-0.7,0.3-1.4,0.8-2c0.6-0.6,1.2-1,2-1.1l8.6-1.5c3.2-0.5,5.9,0,8.1,1.7c2.2,1.7,3.4,4,3.4,6.9c0,2.9-1.1,5.6-3.3,8.1
			c-1.2,1.3-2.4,2.3-3.9,3.1l6.7,11.2l0,0.1c0.4,0.4,0.6,0.9,0.6,1.5c0,0.7-0.3,1.4-0.8,2c-0.6,0.6-1.2,1-2,1.1s-1.4,0-2-0.4
			c-0.2-0.2-0.4-0.4-0.6-0.6l-7.8-13.1l-3.9,0.7L181.2,45.8z M181.1,16.6l0,10.6l5.7-1c1.6-0.3,2.9-1,4-2.3c1.1-1.2,1.7-2.6,1.7-4
			c0-1.5-0.6-2.6-1.7-3.5c-1.1-0.8-2.5-1.1-4-0.8L181.1,16.6z"/>
	</g>
	<g>
		<path class="st7" d="M224.1,4.3c0,0.5-0.2,0.9-0.7,1.2c-1.9,1.2-3.8,2.5-5.7,3.7c-3.2,2-5,3-5.4,3.1c-0.9,0.1-1.4-0.4-1.5-1.3
			c0-0.5,0.2-0.9,0.7-1.2c1.9-1.2,3.8-2.5,5.7-3.7c3.2-2,5-3,5.4-3.1C223.6,2.9,224.1,3.4,224.1,4.3z M226.6,19.7
			c0,0.9-0.4,1.3-1.3,1.4l-12.5,0.7c-0.9,0.1-1.4-0.4-1.5-1.2c0-0.9,0.4-1.3,1.3-1.4l12.5-0.7C226.1,18.4,226.6,18.8,226.6,19.7z
			 M225.9,35.5c0.1,0.9-0.4,1.4-1.3,1.5c-0.4,0-2.4-0.8-5.7-2.5c-2-1-4-2-6.1-3.1c-0.5-0.2-0.8-0.6-0.8-1.1
			c-0.1-0.9,0.4-1.4,1.3-1.5c0.4,0,2.4,0.8,5.7,2.5c2,1,4,2,6.1,3.1C225.6,34.6,225.8,35,225.9,35.5z"/>
	</g>
</g>
</svg>
