<?xml version="1.0" encoding="UTF-8" standalone="no"?>
<!-- Created with Inkscape (http://www.inkscape.org/) -->

<svg
   xmlns:dc="http://purl.org/dc/elements/1.1/"
   xmlns:cc="http://creativecommons.org/ns#"
   xmlns:rdf="http://www.w3.org/1999/02/22-rdf-syntax-ns#"
   xmlns:svg="http://www.w3.org/2000/svg"
   xmlns="http://www.w3.org/2000/svg"
   xmlns:sodipodi="http://sodipodi.sourceforge.net/DTD/sodipodi-0.dtd"
   xmlns:inkscape="http://www.inkscape.org/namespaces/inkscape"
   width="100"
   height="100"
   viewBox="0 0 100 100"
   id="svg4185"
   version="1.1"
   inkscape:version="0.91 r13725"
   sodipodi:docname="graphique2.svg">
  <defs
     id="defs4187" />
  <sodipodi:namedview
     id="base"
     pagecolor="#ffffff"
     bordercolor="#666666"
     borderopacity="1.0"
     inkscape:pageopacity="0.0"
     inkscape:pageshadow="2"
     inkscape:zoom="3.3962195"
     inkscape:cx="52.765435"
     inkscape:cy="48.962521"
     inkscape:document-units="px"
     inkscape:current-layer="layer1"
     showgrid="false"
     units="px"
     inkscape:window-width="1280"
     inkscape:window-height="1002"
     inkscape:window-x="-8"
     inkscape:window-y="-8"
     inkscape:window-maximized="1" />
  <metadata
     id="metadata4190">
    <rdf:RDF>
      <cc:Work
         rdf:about="">
        <dc:format>image/svg+xml</dc:format>
        <dc:type
           rdf:resource="http://purl.org/dc/dcmitype/StillImage" />
        <dc:title></dc:title>
      </cc:Work>
    </rdf:RDF>
  </metadata>
  <g
     inkscape:label="Calque 1"
     inkscape:groupmode="layer"
     id="layer1"
     transform="translate(0,-952.36216)">
    <g
       id="g23"
       transform="matrix(0.15177341,0,0,0.15177341,12.816456,965.93815)" />
    <g
       id="g25"
       transform="matrix(0.15177341,0,0,0.15177341,12.816456,965.93815)" />
    <g
       id="g27"
       transform="matrix(0.15177341,0,0,0.15177341,12.816456,965.93815)" />
    <g
       id="g29"
       transform="matrix(0.15177341,0,0,0.15177341,12.816456,965.93815)" />
    <g
       id="g31"
       transform="matrix(0.15177341,0,0,0.15177341,12.816456,965.93815)" />
    <g
       id="g33"
       transform="matrix(0.15177341,0,0,0.15177341,12.816456,965.93815)" />
    <g
       id="g35"
       transform="matrix(0.15177341,0,0,0.15177341,12.816456,965.93815)" />
    <g
       id="g37"
       transform="matrix(0.15177341,0,0,0.15177341,12.816456,965.93815)" />
    <g
       id="g39"
       transform="matrix(0.15177341,0,0,0.15177341,12.816456,965.93815)" />
    <g
       id="g41"
       transform="matrix(0.15177341,0,0,0.15177341,12.816456,965.93815)" />
    <g
       id="g43"
       transform="matrix(0.15177341,0,0,0.15177341,12.816456,965.93815)" />
    <g
       id="g45"
       transform="matrix(0.15177341,0,0,0.15177341,12.816456,965.93815)" />
    <g
       id="g47"
       transform="matrix(0.15177341,0,0,0.15177341,12.816456,965.93815)" />
    <g
       id="g49"
       transform="matrix(0.15177341,0,0,0.15177341,12.816456,965.93815)" />
    <g
       id="g51"
       transform="matrix(0.15177341,0,0,0.15177341,12.816456,965.93815)" />
    <circle
       style="fill:#efefef;fill-opacity:1"
       cx="50"
       cy="1002.3622"
       r="47.474449"
       id="circle3" />
    <g
       id="g4201"
       transform="translate(-2.6510749,-2.421085)">
      <ellipse
         ry="19.29398"
         rx="19.293947"
         cy="997.30334"
         cx="60.373074"
         id="path4181"
         style="opacity:1;fill:#ffffff;fill-opacity:1;stroke:none;stroke-width:1.79999995;stroke-linecap:round;stroke-linejoin:round;stroke-miterlimit:4;stroke-dasharray:none;stroke-dashoffset:0;stroke-opacity:1" />
      <path
         style="fill:#2d4059;fill-opacity:1"
         inkscape:connector-curvature="0"
         d="m 60.453836,976.52575 c -11.234217,0 -20.373908,9.1397 -20.373908,20.37394 0,5.26791 2.009708,10.07521 5.302641,13.69571 l -2.792,2.792 c -0.680976,-0.4274 -1.469026,-0.6572 -2.29284,-0.6572 -1.155555,0 -2.241906,0.4498 -3.058744,1.2669 l -11.836798,11.8368 c -0.817061,0.8171 -1.267058,1.9035 -1.267058,3.0588 0,1.1555 0.449997,2.2417 1.266947,3.0587 0.81706,0.8172 1.903299,1.2671 3.058743,1.2671 1.155445,0 2.241795,-0.4499 3.058744,-1.267 l 11.83691,-11.8368 c 0.816949,-0.8171 1.266946,-1.9033 1.266946,-3.0588 0,-0.8843 -0.264417,-1.7278 -0.754498,-2.4413 l 2.761993,-2.762 c 3.634749,3.3625 8.492598,5.421 13.822922,5.421 11.234219,0 20.373909,-9.1397 20.373909,-20.37391 0,-11.23424 -9.13969,-20.37394 -20.373909,-20.37394 z m -18.350137,42.33605 -11.83691,11.8369 c -0.482329,0.4825 -1.123665,0.7481 -1.80597,0.7481 -0.682304,0 -1.323528,-0.2656 -1.80597,-0.7482 -0.48244,-0.4823 -0.748076,-1.1236 -0.748076,-1.8059 0,-0.6821 0.265636,-1.3235 0.748076,-1.8059 l 11.83691,-11.8369 c 0.48233,-0.4824 1.123666,-0.7481 1.80597,-0.7481 0.682194,0 1.323639,0.2656 1.80597,0.7482 0.48233,0.4823 0.748076,1.1237 0.748076,1.8059 0,0.6824 -0.265636,1.3235 -0.748076,1.8059 z m 18.350137,-3.3598 c -10.257377,0 -18.602264,-8.3449 -18.602264,-18.60231 0,-10.25739 8.344887,-18.60229 18.602264,-18.60229 10.257377,0 18.602266,8.3449 18.602266,18.60229 0,10.25741 -8.344889,18.60231 -18.602266,18.60231 z"
         id="path5" />
      <path
         style="fill:#ffd460;fill-opacity:1"
         inkscape:connector-curvature="0"
         d="m 71.969525,987.15563 c -1.465372,0 -2.657467,1.19221 -2.657467,2.65747 0,0.69538 0.268736,1.32885 0.70755,1.80299 L 63.4942,1004.0142 c -0.125123,-0.019 -0.252792,-0.029 -0.382897,-0.029 -0.305831,0 -0.59937,0.053 -0.873088,0.1481 l -3.957411,-4.9468 c 0.254009,-0.40714 0.401388,-0.88759 0.401388,-1.40193 0,-1.46526 -1.192095,-2.65746 -2.657466,-2.65746 -1.465372,0 -2.657467,1.1922 -2.657467,2.65746 0,0.40981 0.09335,0.79813 0.259657,1.14505 -1.11e-4,1.1e-4 -1.11e-4,1.1e-4 -2.21e-4,2.2e-4 l -2.657467,2.65746 c -1.11e-4,10e-5 -1.11e-4,2e-4 -2.21e-4,3e-4 -0.34691,-0.1664 -0.735233,-0.2597 -1.145036,-0.2597 -1.465371,0 -2.657466,1.1921 -2.657466,2.6574 0,1.4653 1.192095,2.6575 2.657466,2.6575 1.465371,0 2.657466,-1.1922 2.657466,-2.6575 0,-0.4097 -0.09334,-0.798 -0.259656,-1.145 1.1e-4,-10e-5 1.1e-4,-10e-5 2.21e-4,-3e-4 l 2.657467,-2.6574 c 1.1e-4,-10e-5 1.1e-4,-2e-4 2.21e-4,-3e-4 0.34691,0.1663 0.735232,0.2596 1.145036,0.2596 0.30583,0 0.599369,-0.053 0.873089,-0.148 l 3.957409,4.9468 c -0.254009,0.4073 -0.401388,0.8877 -0.401388,1.4021 0,1.4653 1.192095,2.6575 2.657467,2.6575 1.465371,0 2.657466,-1.1922 2.657466,-2.6575 0,-0.6953 -0.268736,-1.3289 -0.70755,-1.803 l 6.525408,-12.39807 c 0.125122,0.0182 0.252792,0.028 0.382898,0.028 1.46537,0 2.657465,-1.19221 2.657465,-2.65747 0,-1.46526 -1.192095,-2.65758 -2.657465,-2.65758 z m -22.145554,17.71647 c -0.48842,0 -0.885822,-0.3974 -0.885822,-0.8859 0,-0.4883 0.397402,-0.8857 0.885822,-0.8857 0.48842,0 0.885822,0.3974 0.885822,0.8857 0,0.4885 -0.397402,0.8859 -0.885822,0.8859 z m 5.314932,-7.08659 c 0,-0.48841 0.397402,-0.88582 0.885823,-0.88582 0.48842,0 0.885822,0.39741 0.885822,0.88582 0,0.48843 -0.397402,0.88583 -0.885822,0.88583 -0.488421,0 -0.885823,-0.3974 -0.885823,-0.88583 z m 7.9724,9.74409 c -0.48842,0 -0.885822,-0.3974 -0.885822,-0.8859 0,-0.4883 0.397402,-0.8858 0.885822,-0.8858 0.48842,0 0.885822,0.3975 0.885822,0.8858 0,0.4885 -0.397402,0.8859 -0.885822,0.8859 z m 8.858222,-16.83068 c -0.488421,0 -0.885823,-0.3974 -0.885823,-0.88582 0,-0.48841 0.397402,-0.88582 0.885823,-0.88582 0.488419,0 0.885821,0.39741 0.885821,0.88582 0,0.48842 -0.397402,0.88582 -0.885821,0.88582 z"
         id="path7" />
      <ellipse
         ry="19.293978"
         rx="19.293943"
         cy="997.14197"
         cx="60.373077"
         id="path4183"
         style="opacity:1;fill:none;fill-opacity:1;stroke:#2d4059;stroke-width:3;stroke-linecap:round;stroke-linejoin:round;stroke-miterlimit:4;stroke-dasharray:none;stroke-dashoffset:0;stroke-opacity:1" />
      <path
         inkscape:connector-curvature="0"
         id="path4185"
         d="m 42.532228,1014.3369 -3.067657,-0.3228 -12.270627,11.3019 -2.098923,2.7447 0.645822,3.3906 3.874935,0.8072 14.531006,-15.0154 z"
         style="fill:#2d4059;fill-opacity:1;fill-rule:evenodd;stroke:none;stroke-width:1px;stroke-linecap:butt;stroke-linejoin:miter;stroke-opacity:1" />
    </g>
  </g>
</svg>
