<?xml version="1.0" encoding="UTF-8" standalone="no"?>
<svg
   xmlns:dc="http://purl.org/dc/elements/1.1/"
   xmlns:cc="http://creativecommons.org/ns#"
   xmlns:rdf="http://www.w3.org/1999/02/22-rdf-syntax-ns#"
   xmlns:svg="http://www.w3.org/2000/svg"
   xmlns="http://www.w3.org/2000/svg"
   xmlns:sodipodi="http://sodipodi.sourceforge.net/DTD/sodipodi-0.dtd"
   xmlns:inkscape="http://www.inkscape.org/namespaces/inkscape"
   version="1.1"
   viewBox="0 0 512 512"
   enable-background="new 0 0 512 512"
   id="svg2"
   inkscape:version="0.91 r13725"
   sodipodi:docname="book.svg">
  <metadata
     id="metadata28">
    <rdf:RDF>
      <cc:Work
         rdf:about="">
        <dc:format>image/svg+xml</dc:format>
        <dc:type
           rdf:resource="http://purl.org/dc/dcmitype/StillImage" />
        <dc:title></dc:title>
      </cc:Work>
    </rdf:RDF>
  </metadata>
  <defs
     id="defs26" />
  <sodipodi:namedview
     pagecolor="#ffffff"
     bordercolor="#666666"
     borderopacity="1"
     objecttolerance="10"
     gridtolerance="10"
     guidetolerance="10"
     inkscape:pageopacity="0"
     inkscape:pageshadow="2"
     inkscape:window-width="1280"
     inkscape:window-height="1002"
     id="namedview24"
     showgrid="false"
     inkscape:zoom="0.4609375"
     inkscape:cx="-139.9322"
     inkscape:cy="256"
     inkscape:window-x="-8"
     inkscape:window-y="-8"
     inkscape:window-maximized="1"
     inkscape:current-layer="svg2" />
  <g
     id="g4"
     style="fill:#2d4059;fill-opacity:1">
    <g
       id="g6"
       style="fill:#2d4059;fill-opacity:1">
      <path
         d="m69,117.2c49.9-13.6 89.5-13.6 139.4,0l5.2-20.9c-54.1-14.6-97.8-14.6-150.9,0l6.3,20.9z"
         id="path8"
         style="fill:#2d4059;fill-opacity:1" />
      <path
         d="m63.8,171.5l5.2,19.8c49.9-13.6 89.5-13.6 139.4,0l6.2-19.8c-54-14.6-97.7-14.6-150.8,0z"
         id="path10"
         style="fill:#2d4059;fill-opacity:1" />
      <path
         d="m63.8,245.5l5.2,19.8c49.9-13.6 89.5-13.6 139.4,0l6.2-19.8c-54-14.6-97.7-14.6-150.8,0z"
         id="path12"
         style="fill:#2d4059;fill-opacity:1" />
      <path
         d="m62.8,319.5l6.2,19.8c49.9-13.6 89.5-13.6 139.4,0l5.2-19.8c-54-14.6-97.7-14.6-150.8,0z"
         id="path14"
         style="fill:#2d4059;fill-opacity:1" />
      <path
         d="m296.9,96.4l6.2,20.9c49.9-13.6 89.5-13.6 139.4,0l5.2-20.9c-54.1-14.6-97.8-14.6-150.8,0z"
         id="path16"
         style="fill:#2d4059;fill-opacity:1" />
      <path
         d="m296.9,170.4l5.2,20.9c51-13.6 89.5-13.6 140.4,0l5.2-20.9c-54.1-14.6-97.8-14.6-150.8,0z"
         id="path18"
         style="fill:#2d4059;fill-opacity:1" />
      <path
         d="m296.9,244.4l6.2,20.9c49.9-13.6 89.5-13.6 139.4,0l5.2-20.9c-54.1-14.6-97.8-14.6-150.8,0z"
         id="path20"
         style="fill:#2d4059;fill-opacity:1" />
      <path
         d="m493.5,38c-48.9-17.7-85.3-25-120.7-25-34.5,0-70,6.9-117,23.7-47.1-16.8-82.6-23.7-117-23.7-35.4,0-71.8,7.3-120.7,25-4.2,1-7.3,5.2-7.3,9.4v371.1c0,9.9 10.4,10.4 13.5,9.4 45.8-16.7 80.1-24 113.4-24s66.6,7.3 113.4,24c3.2,0.8 5.6,0.5 7.4-0.2 11.5-4.1 31.7-10.7 45-14.8 3.1,5 6.8,9.7 11.1,14 27.9,27.9 71.5,30.3 102.1,7.2l64.8,64.9 14.7-14.7-64.7-64.9c2-2.6 3.8-5.2 5.4-8 15.7,4.7 36.4,11.6 50.4,16.5 3.1,1 13.5,1 13.5-9.4v-371.1c0-4.2-3.1-8.4-7.3-9.4zm-248.6,365.9c-42.7-14.6-74.9-20.9-107.2-20.9s-65.5,6.3-107.2,20.9v-349.2c42.7-15.7 75-21.9 107.2-21.9s64.5,6.3 107.2,21.9v349.2zm84.4,8.3c-22.3-22.4-22.3-58.7 0-81.1 22.3-22.4 58.6-22.4 80.9,0 22.3,22.4 22.3,58.7 0,81.1-22.4,22.4-58.6,22.4-80.9-5.68434e-14zm150.7-8.3c-8.7-2.9-24.1-7.6-35.2-11 7.4-26.4 0.8-55.9-19.9-76.6-30.5-30.5-79.9-30.5-110.3,0-21.1,21.1-27.6,51.3-19.5,78-8.7,2.8-21.6,6.9-30.4,9.7v-349c44-17.1 78.2-22.3 109.2-22.3 31.2,0 63.5,6.3 106.1,21.9v349.3z"
         id="path22"
         style="fill:#2d4059;fill-opacity:1" />
    </g>
  </g>
</svg>
