<?xml version="1.0" encoding="utf-8"?>
<!-- Generator: Adobe Illustrator 15.0.0, SVG Export Plug-In . SVG Version: 6.00 Build 0)  -->
<!DOCTYPE svg PUBLIC "-//W3C//DTD SVG 1.1//EN" "http://www.w3.org/Graphics/SVG/1.1/DTD/svg11.dtd">
<svg version="1.1" id="Layer_1" xmlns="http://www.w3.org/2000/svg" xmlns:xlink="http://www.w3.org/1999/xlink" x="0px" y="0px"
	 width="48px" height="48px" viewBox="0 0 48 48" enable-background="new 0 0 48 48" xml:space="preserve">
<path fill="#000000" d="M10.537,0C8.062,0.172,0,1.474,0,10.964v26.06C0,37.475,0.125,48,10.961,48h26.074
	c1.832-0.059,10.961-0.871,10.961-10.977V10.942C47.938,9.118,47.102,0,37.016,0H10.537z"/>
<g>
	<polygon fill="#FFFFFF" points="24.016,17.204 37.695,20.502 37.695,12.542 33.129,12.542 33.129,9.366 14.867,9.366 
		14.867,12.542 10.301,12.542 10.301,20.51 	"/>
	<path fill="#FFFFFF" d="M40.211,36.169l-2-1.535c1.98-2.094,3.156-4.635,3.156-7.386c0-1.268-0.25-2.491-0.711-3.65l-16.641-4.012
		l-16.675,4.02l-0.003-0.004c-0.459,1.157-0.709,2.381-0.709,3.646c0,2.751,1.176,5.292,3.157,7.386l-2,1.535
		c-0.522,0.4-0.62,1.149-0.22,1.671c0.4,0.521,1.148,0.619,1.67,0.219l4.522-3.474l4.834,4.05l5.406-4.084l5.406,4.084l4.834-4.05
		l4.521,3.474c0.521,0.4,1.271,0.303,1.67-0.219C40.832,37.318,40.732,36.569,40.211,36.169z"/>
</g>
</svg>
