<?xml version="1.0" encoding="UTF-8" standalone="no"?>
<!-- Generator: Adobe Illustrator 18.0.0, SVG Export Plug-In . SVG Version: 6.00 Build 0)  -->

<svg
   xmlns:dc="http://purl.org/dc/elements/1.1/"
   xmlns:cc="http://creativecommons.org/ns#"
   xmlns:rdf="http://www.w3.org/1999/02/22-rdf-syntax-ns#"
   xmlns:svg="http://www.w3.org/2000/svg"
   xmlns="http://www.w3.org/2000/svg"
   xmlns:sodipodi="http://sodipodi.sourceforge.net/DTD/sodipodi-0.dtd"
   xmlns:inkscape="http://www.inkscape.org/namespaces/inkscape"
   version="1.1"
   id="Capa_1"
   x="0px"
   y="0px"
   viewBox="0 0 19.335938 19.335937"
   xml:space="preserve"
   width="30"
   height="30"
   inkscape:version="0.91 r13725"
   sodipodi:docname="help.svg"><metadata
     id="metadata45"><rdf:RDF><cc:Work
         rdf:about=""><dc:format>image/svg+xml</dc:format><dc:type
           rdf:resource="http://purl.org/dc/dcmitype/StillImage" /><dc:title></dc:title></cc:Work></rdf:RDF></metadata><defs
     id="defs43" /><sodipodi:namedview
     pagecolor="#ffffff"
     bordercolor="#666666"
     borderopacity="1"
     objecttolerance="10"
     gridtolerance="10"
     guidetolerance="10"
     inkscape:pageopacity="0"
     inkscape:pageshadow="2"
     inkscape:window-width="1280"
     inkscape:window-height="1002"
     id="namedview41"
     showgrid="false"
     inkscape:zoom="7.5322343"
     inkscape:cx="26.561167"
     inkscape:cy="7.4916112"
     inkscape:window-x="-8"
     inkscape:window-y="-8"
     inkscape:window-maximized="1"
     inkscape:current-layer="Capa_1" /><path
     inkscape:connector-curvature="0"
     style="fill:#2d4059;fill-opacity:1"
     id="path7"
     d="m 9.6680775,13.192556 c -0.5978783,0 -1.0842713,0.486284 -1.0842713,1.084 0,0.598258 0.486393,1.084976 1.0842713,1.084976 0.5978785,0 1.0842715,-0.486718 1.0842715,-1.084976 0,-0.597716 -0.486393,-1.084 -1.0842715,-1.084 z" /><path
     inkscape:connector-curvature="0"
     style="fill:#2d4059;fill-opacity:1"
     id="path9"
     d="m 9.6679691,3.974406 c -1.6452771,0 -2.9837524,1.3384753 -2.9837524,2.9836439 0,0.4491951 0.3641711,0.8133662 0.8133661,0.8133662 0.449195,0 0.8133662,-0.3641711 0.8133662,-0.8133662 0,-0.7481884 0.6087232,-1.3569116 1.3570201,-1.3569116 0.7482969,0 1.3570739,0.6087232 1.3570739,1.3569116 0,0.7482969 -0.608777,1.3570201 -1.3570739,1.3570201 -0.4491951,0 -0.8133662,0.3641712 -0.8133662,0.8133662 l 0,1.6240208 c 0,0.449195 0.3641711,0.813366 0.8133662,0.813366 0.4491949,0 0.8133659,-0.364171 0.8133659,-0.813366 l 0,-0.9242006 c 1.251066,-0.3550614 2.170441,-1.5068963 2.170441,-2.8701522 0,-1.6452229 -1.33853,-2.9836982 -2.9838069,-2.9836982 z" /><g
     id="g11"
     transform="translate(0,-310.66408)" /><g
     id="g13"
     transform="translate(0,-310.66408)" /><g
     id="g15"
     transform="translate(0,-310.66408)" /><g
     id="g17"
     transform="translate(0,-310.66408)" /><g
     id="g19"
     transform="translate(0,-310.66408)" /><g
     id="g21"
     transform="translate(0,-310.66408)" /><g
     id="g23"
     transform="translate(0,-310.66408)" /><g
     id="g25"
     transform="translate(0,-310.66408)" /><g
     id="g27"
     transform="translate(0,-310.66408)" /><g
     id="g29"
     transform="translate(0,-310.66408)" /><g
     id="g31"
     transform="translate(0,-310.66408)" /><g
     id="g33"
     transform="translate(0,-310.66408)" /><g
     id="g35"
     transform="translate(0,-310.66408)" /><g
     id="g37"
     transform="translate(0,-310.66408)" /><g
     id="g39"
     transform="translate(0,-310.66408)" /></svg>