<?xml version="1.0" encoding="utf-8"?>
<!-- Generator: Adobe Illustrator 23.0.1, SVG Export Plug-In . SVG Version: 6.00 Build 0)  -->
<svg version="1.1" id="Calque_1" xmlns="http://www.w3.org/2000/svg" xmlns:xlink="http://www.w3.org/1999/xlink" x="0px" y="0px"
	 viewBox="0 0 390 236" style="enable-background:new 0 0 390 236;" xml:space="preserve">
<style type="text/css">
	.st0{fill:#E0E0E0;}
	.st1{fill:#F5F4F5;}
	.st2{fill:#EBEBEB;}
	.st3{fill:#FBFBFB;}
	.st4{fill:#263239;}
	.st5{fill:#455A64;}
	.st6{opacity:0.3;}
	.st7{fill:#010202;}
	.st8{fill:#FFFFFF;}
	.st9{display:none;}
	.st10{display:inline;fill:#263239;}
	.st11{display:inline;opacity:0.55;}
	.st12{display:inline;opacity:0.55;fill:#FFFFFF;enable-background:new    ;}
</style>
<g id="NCg4fp_1_">
	<g>
		<path class="st0" d="M76.3,13c1.9,0,3.7,0,5.6,0c0.3,0.1,0.6,0.2,0.9,0.2c15.2,1.7,27.5,11.8,31.9,26.5c0.7,2.5,1.1,5.1,1.6,7.7
			c0,1.9,0,3.7,0,5.6c-0.1,0.4-0.2,0.8-0.3,1.3c-2,14.7-9.9,24.9-23.5,30.5c-3.3,1.4-7.1,1.8-10.6,2.6c-1.9,0-3.7,0-5.6,0
			c-0.3-0.1-0.6-0.2-0.9-0.2C60,85.4,47.8,75.3,43.4,60.5c-0.7-2.5-1-5-1.5-7.5c0-1.9,0-3.7,0-5.6c0.1-0.4,0.2-0.8,0.3-1.3
			c2-14.6,9.8-24.8,23.3-30.4C68.9,14.3,72.7,13.8,76.3,13z M74.6,19.2c-10,0.2-22.3,10-25,19.6c0.9,0.1,1.9,0.1,2.8,0.3
			c1.4,0.2,2.7,0.4,4,0.8c1.7,0.5,2.1,1.5,1.4,3.2c-0.2,0.4-0.4,0.8-0.6,1.2c-2.9,5.4-1.8,7.8,2.3,10.1c1.3,0.8,1.9,1.9,2.1,3.5
			c0.4,4.9,0.8,9.9,5,13.4c1,0.8,2.2,1.4,3.3,2.1c0.2-1.3,0.7-2.6,0.5-3.8c-0.3-3.5-0.3-7,0.7-10.5c0.6-2.4,1.9-4.2,4-5.4
			c0.9-0.5,1.9-0.9,2.7-1.6c0.9-0.9,2-1.8,2.4-3c1.8-4.8,0.2-8.5-4.7-10.3c-4-1.4-8-2.7-12.4-2c-1.5,0.2-2.4-0.8-3.2-2
			c-0.7-1.1-0.2-2.1,0.6-3c1.4-1.5,2.8-3,4.2-4.4c1.5-1.5,3-3,4.7-4.3C71,21.7,72.8,20.5,74.6,19.2z M104.2,69.5
			c0.3-0.3,0.5-0.5,0.7-0.8c5.9-8.5,7.6-17.8,4.6-27.6c-2.9-9.7-9.3-16.4-18.6-20.4c-0.6-0.2-1.5-0.4-1.9-0.2
			c-1.2,0.8-1.3,3.1-0.3,5c0.8,1.5,2,1.8,3.5,1.3c0.7-0.3,1.4-0.5,2.1-0.8c1.1-0.5,1.8-0.1,2,0.9c0.1,0.8,0,1.8-0.4,2.4
			c-0.6,1-1.6,1.8-2.4,2.7c-1.8,1.9-2.8,4.1-1.7,6.8c1.2,3,2.9,5.7,6.4,5.9c3.2,0.1,4.6,2,5.4,4.6c1.4,4.8,1.1,9.5-0.5,14.1
			C102.3,65.8,102.5,67.7,104.2,69.5z M97,76.5c-1.4-0.8-2.4-1.5-3.5-1.9c-3.7-1.2-7.3-0.7-11,0.7c-2.7,1-5.5,2-8.3,2.5
			c-2.1,0.3-3.4,1.3-4.9,2.7C79,83.3,87.9,82.1,97,76.5z"/>
	</g>
</g>
<g>
	<g>
		<g>
			<g>
				<path class="st1" d="M305.1,95.2H364h15.8l-12.2,8.8v17.3c0,2-1.6,3.6-3.6,3.6h-58.9c-2,0-3.6-1.6-3.6-3.6V98.9
					C301.5,96.9,303.2,95.2,305.1,95.2z"/>
			</g>
		</g>
	</g>
	<g>
		<g>
			<g>
				<g>
					<path class="st0" d="M308.3,107.4c0,0.1,11.3,0.1,25.1,0.1c13.9,0,25.1-0.1,25.1-0.1c0-0.1-11.3-0.1-25.1-0.1
						C319.5,107.3,308.3,107.4,308.3,107.4z"/>
				</g>
			</g>
		</g>
	</g>
	<g>
		<g>
			<g>
				<g>
					<path class="st0" d="M308.3,114.1c0,0.1,11.3,0.1,25.1,0.1c13.9,0,25.1-0.1,25.1-0.1c0-0.1-11.3-0.1-25.1-0.1
						C319.5,113.9,308.3,114,308.3,114.1z"/>
				</g>
			</g>
		</g>
	</g>
</g>
<g>
	<g>
		<g>
			<g>
				<g>
					<g>
						<rect x="188.3" y="31.6" class="st0" width="3.5" height="11.7"/>
					</g>
				</g>
				<g>
					<g>
						<rect x="159.1" y="29.9" class="st0" width="3.5" height="13.4"/>
					</g>
				</g>
				<g>
					<g>
						<rect x="166.4" y="27.1" class="st0" width="3.5" height="16.2"/>
					</g>
				</g>
				<g>
					<g>
						<rect x="173.7" y="28" class="st0" width="3.5" height="15.3"/>
					</g>
				</g>
				<g>
					<g>
						<rect x="181" y="22.8" class="st0" width="3.5" height="20.5"/>
					</g>
				</g>
				<g>
					<g>
						<rect x="195.6" y="22.9" class="st0" width="3.5" height="20.4"/>
					</g>
				</g>
				<g>
					<g>
						<rect x="202.9" y="29.6" class="st0" width="3.5" height="13.7"/>
					</g>
				</g>
				<g>
					<g>
						<rect x="210.2" y="23.8" class="st0" width="3.5" height="19.5"/>
					</g>
				</g>
				<g>
					<g>
						<rect x="217.5" y="19.4" class="st0" width="3.5" height="23.9"/>
					</g>
				</g>
				<g>
					<g>
						<rect x="224.8" y="23.7" class="st0" width="3.5" height="19.6"/>
					</g>
				</g>
			</g>
		</g>
	</g>
</g>
<g>
	<g>
		<g>
			<g>
				<path class="st2" d="M320.3,42.2l28.9-4.4c2.4,15.8-8.6,30.9-24.5,33.3c-15.8,2.4-30.9-8.6-33.3-24.5
					c-2.4-15.8,8.6-30.9,24.5-33.3c2.5-0.4,5.1-0.4,7.6-0.2L320.3,42.2z"/>
			</g>
		</g>
	</g>
	<g>
		<g>
			<g>
				<path class="st0" d="M329.7,13.2l-3.5,22.4l22-4.1C348.1,31.5,344.9,18.9,329.7,13.2z"/>
			</g>
		</g>
	</g>
</g>
<g>
	<g>
		<g>
			<path class="st1" d="M25.4,96.5c-0.1-7.9,6.2-14.5,14.1-14.6s14.4,6.2,14.6,14.2c0.1,7.9-6.2,14.5-14.1,14.6
				C32,110.8,25.5,104.4,25.4,96.5z M46.5,96.1c-0.1-3.8-3.2-6.8-7-6.8c-3.8,0.1-6.8,3.2-6.7,7s3.2,6.8,7,6.8S46.6,99.9,46.5,96.1z"
				/>
		</g>
	</g>
	<g>
		<g>
			<path class="st0" d="M25.4,96.5c-0.1-7.9,6.2-14.5,14.1-14.6l0.1,7.5c-3.8,0.1-6.8,3.2-6.7,7s3.2,6.8,7,6.8l0.1,7.5
				C32,110.8,25.5,104.4,25.4,96.5z"/>
		</g>
	</g>
	<g>
		<g>
			<path class="st2" d="M38.2,80.7c9.2-0.1,16.6,7,16.8,16.3l-8.7,0.1c-0.1-4.4-3.4-7.2-7.9-7.2L38.2,80.7z"/>
		</g>
	</g>
</g>
<g>
	<g>
		<g>
			<g>
				<g>
					<g>
						<g>
							<rect x="100.2" y="147" class="st1" width="18.2" height="21.6"/>
						</g>
					</g>
				</g>
				<g>
					<g>
						<g>
							<rect x="18.6" y="145.6" class="st0" width="82.3" height="24.4"/>
						</g>
					</g>
				</g>
				<g>
					<g>
						<g>
							<path class="st0" d="M119,147.6H98.7v-2.1H119c0.6,0,1,0.5,1,1l0,0C120,147.2,119.5,147.6,119,147.6z"/>
						</g>
					</g>
				</g>
				<g>
					<g>
						<g>
							<path class="st0" d="M119,170H98.7v-2.1H119c0.6,0,1,0.5,1,1l0,0C120,169.5,119.5,170,119,170z"/>
						</g>
					</g>
				</g>
				<g>
					<g>
						<g>
							<rect x="84.6" y="145.6" class="st2" width="9.7" height="24.4"/>
						</g>
					</g>
				</g>
				<g>
					<g>
						<g>
							<rect x="26.4" y="145.9" class="st2" width="9.7" height="24.4"/>
						</g>
					</g>
				</g>
				<g>
					<g>
						<g>
							<g>
								<path class="st0" d="M118.4,150.6c0,0.1-3.9,0.1-8.8,0.1s-8.8,0-8.8-0.1s3.9-0.1,8.8-0.1S118.4,150.5,118.4,150.6z"/>
							</g>
						</g>
					</g>
				</g>
				<g>
					<g>
						<g>
							<g>
								<path class="st0" d="M118.4,153.8c0,0.1-3.9,0.1-8.8,0.1s-8.8,0-8.8-0.1s3.9-0.1,8.8-0.1S118.4,153.8,118.4,153.8z"/>
							</g>
						</g>
					</g>
				</g>
				<g>
					<g>
						<g>
							<g>
								<path class="st0" d="M118.4,157.8c0,0.1-3.9,0.1-8.8,0.1s-8.8,0-8.8-0.1s3.9-0.1,8.8-0.1S118.4,157.8,118.4,157.8z"/>
							</g>
						</g>
					</g>
				</g>
				<g>
					<g>
						<g>
							<g>
								<path class="st0" d="M118.4,161.8c0,0.1-3.9,0.1-8.8,0.1s-8.8,0-8.8-0.1s3.9-0.1,8.8-0.1S118.4,161.8,118.4,161.8z"/>
							</g>
						</g>
					</g>
				</g>
				<g>
					<g>
						<g>
							<g>
								<path class="st0" d="M118.4,165.8c0,0.1-3.9,0.1-8.8,0.1s-8.8,0-8.8-0.1s3.9-0.1,8.8-0.1S118.4,165.8,118.4,165.8z"/>
							</g>
						</g>
					</g>
				</g>
			</g>
			<g>
				<g>
					<g>
						<rect x="42.4" y="155.6" class="st2" width="37" height="4.4"/>
					</g>
				</g>
			</g>
		</g>
		<g>
			<g>
				<g>
					<g>
						<rect x="99.7" y="170.5" class="st3" width="18.5" height="13.2"/>
					</g>
				</g>
			</g>
			<g>
				<g>
					<g>
						<rect x="21.3" y="170" class="st1" width="78.7" height="14.1"/>
					</g>
				</g>
			</g>
			<g>
				<g>
					<g>
						<path class="st1" d="M99.4,171h19.9c0.3,0,0.5-0.2,0.5-0.5l0,0c0-0.3-0.2-0.5-0.5-0.5H99.4V171z"/>
					</g>
				</g>
			</g>
			<g>
				<g>
					<g>
						<path class="st1" d="M99.4,184.1h19.9c0.2,0,0.4-0.2,0.4-0.4v-0.1c0-0.2-0.2-0.4-0.4-0.4H99.4V184.1z"/>
					</g>
				</g>
			</g>
			<g>
				<g>
					<g>
						<g>
							<path class="st0" d="M118.2,173c0,0.1-4.1,0.1-9.1,0.1s-9.1,0-9.1-0.1s4.1-0.1,9.1-0.1S118.2,172.9,118.2,173z"/>
						</g>
					</g>
				</g>
			</g>
			<g>
				<g>
					<g>
						<g>
							<path class="st0" d="M118.2,175.5c0,0.1-4.1,0.1-9.1,0.1s-9.1,0-9.1-0.1s4.1-0.1,9.1-0.1S118.2,175.4,118.2,175.5z"/>
						</g>
					</g>
				</g>
			</g>
			<g>
				<g>
					<g>
						<g>
							<path class="st0" d="M118.2,178c0,0.1-4.1,0.1-9.1,0.1s-9.1,0-9.1-0.1s4.1-0.1,9.1-0.1S118.2,177.9,118.2,178z"/>
						</g>
					</g>
				</g>
			</g>
			<g>
				<g>
					<g>
						<g>
							<path class="st0" d="M118.2,180.5c0,0.1-4.1,0.1-9.1,0.1s-9.1,0-9.1-0.1s4.1-0.1,9.1-0.1S118.2,180.4,118.2,180.5z"/>
						</g>
					</g>
				</g>
			</g>
		</g>
		<g>
			<g>
				<g>
					<g>
						<rect x="102.2" y="185.4" class="st2" width="18.9" height="35.7"/>
					</g>
				</g>
			</g>
			<g>
				<g>
					<g>
						<rect x="13.6" y="184.1" class="st0" width="88.6" height="38.8"/>
					</g>
				</g>
			</g>
			<g>
				<g>
					<g>
						<path class="st0" d="M122.5,222.9H99.7v-2.5h22.8c0.7,0,1.3,0.6,1.3,1.3l0,0C123.8,222.3,123.2,222.9,122.5,222.9z"/>
					</g>
				</g>
			</g>
			<g>
				<g>
					<g>
						<path class="st0" d="M122.7,186.7H99.8v-2.5h22.9c0.6,0,1.1,0.5,1.1,1.1v0.3C123.8,186.2,123.3,186.7,122.7,186.7z"/>
					</g>
				</g>
			</g>
			<g>
				<g>
					<g>
						<g>
							<path class="st0" d="M121,190.2c0,0.1-4.2,0.1-9.4,0.1c-5.2,0-9.4,0-9.4-0.1s4.2-0.1,9.4-0.1
								C116.8,190.1,121,190.1,121,190.2z"/>
						</g>
					</g>
				</g>
			</g>
			<g>
				<g>
					<g>
						<g>
							<path class="st0" d="M121,194.8c0,0.1-4.2,0.1-9.4,0.1c-5.2,0-9.4,0-9.4-0.1s4.2-0.1,9.4-0.1S121,194.7,121,194.8z"/>
						</g>
					</g>
				</g>
			</g>
			<g>
				<g>
					<g>
						<g>
							<path class="st0" d="M121,199.4c0,0.1-4.2,0.1-9.4,0.1c-5.2,0-9.4,0-9.4-0.1s4.2-0.1,9.4-0.1
								C116.8,199.3,121,199.3,121,199.4z"/>
						</g>
					</g>
				</g>
			</g>
			<g>
				<g>
					<g>
						<g>
							<path class="st0" d="M121,204c0,0.1-4.2,0.1-9.4,0.1c-5.2,0-9.4,0-9.4-0.1s4.2-0.1,9.4-0.1C116.8,203.8,121,203.9,121,204z"
								/>
						</g>
					</g>
				</g>
			</g>
			<g>
				<g>
					<g>
						<g>
							<path class="st0" d="M121,208.5c0,0.1-4.2,0.1-9.4,0.1c-5.2,0-9.4,0-9.4-0.1s4.2-0.1,9.4-0.1S121,208.5,121,208.5z"/>
						</g>
					</g>
				</g>
			</g>
			<g>
				<g>
					<g>
						<g>
							<path class="st0" d="M121,213.1c0,0.1-4.2,0.1-9.4,0.1c-5.2,0-9.4,0-9.4-0.1s4.2-0.1,9.4-0.1S121,213.1,121,213.1z"/>
						</g>
					</g>
				</g>
			</g>
			<g>
				<g>
					<g>
						<g>
							<path class="st0" d="M121,217.7c0,0.1-4.2,0.1-9.4,0.1c-5.2,0-9.4,0-9.4-0.1s4.2-0.1,9.4-0.1
								C116.8,217.6,121,217.6,121,217.7z"/>
						</g>
					</g>
				</g>
			</g>
		</g>
	</g>
	<g>
		<g>
			<path class="st2" d="M43.9,205.6v2.2c0,2.6-1.3,4.1-3.8,4.1s-3.8-1.5-3.8-4.1v-8.4c0-2.6,1.3-4.1,3.8-4.1s3.8,1.5,3.8,4.1v1.6
				h-2.4v-1.7c0-1.2-0.5-1.6-1.3-1.6s-1.3,0.4-1.3,1.6v8.8c0,1.2,0.5,1.6,1.3,1.6s1.3-0.4,1.3-1.6v-2.3h2.4V205.6z"/>
		</g>
		<g>
			<path class="st2" d="M45.2,199.4c0-2.6,1.4-4.1,3.9-4.1s3.9,1.5,3.9,4.1v8.4c0,2.6-1.4,4.1-3.9,4.1s-3.9-1.5-3.9-4.1V199.4z
				 M47.8,208c0,1.2,0.5,1.6,1.3,1.6s1.3-0.4,1.3-1.6v-8.8c0-1.2-0.5-1.6-1.3-1.6s-1.3,0.4-1.3,1.6V208z"/>
		</g>
		<g>
			<path class="st2" d="M54.6,195.5h2.6v13.9h4.2v2.3h-6.7L54.6,195.5L54.6,195.5z"/>
		</g>
		<g>
			<path class="st2" d="M62.3,199.4c0-2.6,1.4-4.1,3.9-4.1c2.5,0,3.9,1.5,3.9,4.1v8.4c0,2.6-1.4,4.1-3.9,4.1s-3.9-1.5-3.9-4.1
				C62.3,207.8,62.3,199.4,62.3,199.4z M64.8,208c0,1.2,0.5,1.6,1.3,1.6s1.3-0.4,1.3-1.6v-8.8c0-1.2-0.5-1.6-1.3-1.6
				s-1.3,0.4-1.3,1.6V208z"/>
		</g>
		<g>
			<path class="st2" d="M74.1,195.5V208c0,1.2,0.5,1.6,1.3,1.6s1.3-0.4,1.3-1.6v-12.5h2.4v12.4c0,2.6-1.3,4.1-3.8,4.1
				s-3.8-1.5-3.8-4.1v-12.4H74.1z"/>
		</g>
		<g>
			<path class="st2" d="M86.2,211.7c-0.1-0.4-0.2-0.7-0.2-2v-2.6c0-1.5-0.5-2.1-1.7-2.1h-0.9v6.6h-2.6v-16.2h3.8
				c2.6,0,3.8,1.2,3.8,3.7v1.3c0,1.7-0.5,2.8-1.7,3.3c1.3,0.5,1.7,1.8,1.7,3.5v2.5c0,0.8,0,1.4,0.3,2H86.2L86.2,211.7z M83.5,197.8
				v5h1c1,0,1.5-0.4,1.5-1.7v-1.6c0-1.2-0.4-1.7-1.3-1.7H83.5L83.5,197.8z"/>
		</g>
	</g>
	<g>
		<g>
			<path class="st0" d="M43.4,175.6h-1.9l0.1-0.5h4.3l-0.1,0.5h-1.9l-1,4.8h-0.5L43.4,175.6z"/>
		</g>
		<g>
			<path class="st0" d="M49.4,176.4l-2.9,4.5c-0.5,0.8-0.9,1-1.4,1c-0.4,0-0.7-0.1-0.9-0.4l0.3-0.4c0.2,0.2,0.4,0.3,0.7,0.3
				s0.6-0.2,0.9-0.6l0.3-0.4l-1-3.9h0.5l0.8,3.4l2.2-3.4h0.5C49.4,176.5,49.4,176.4,49.4,176.4z"/>
		</g>
		<g>
			<path class="st0" d="M53.8,178c0,1.4-0.9,2.4-2.2,2.4c-0.8,0-1.3-0.3-1.5-0.9l-0.5,2.3h-0.5l1.1-5.4h0.5l-0.1,0.6
				c0.4-0.4,0.9-0.7,1.5-0.7C53.1,176.4,53.8,177,53.8,178z M53.3,178.1c0-0.8-0.5-1.2-1.3-1.2c-1,0-1.7,0.8-1.7,1.9
				c0,0.8,0.5,1.2,1.3,1.2C52.6,179.9,53.3,179.2,53.3,178.1z"/>
		</g>
		<g>
			<path class="st0" d="M54.5,178.7c0-1.3,1-2.3,2.3-2.3c1.1,0,1.8,0.6,1.8,1.7c0,1.4-1,2.4-2.3,2.4
				C55.2,180.4,54.5,179.7,54.5,178.7z M58,178.1c0-0.8-0.5-1.2-1.3-1.2c-1,0-1.7,0.8-1.7,1.9c0,0.8,0.5,1.2,1.3,1.2
				C57.3,179.9,58,179.2,58,178.1z"/>
		</g>
		<g>
			<path class="st0" d="M63.7,176.4l-0.7,3.5c-0.3,1.4-1,2-2.3,2c-0.7,0-1.4-0.2-1.8-0.6l0.3-0.4c0.3,0.3,0.9,0.5,1.5,0.5
				c1,0,1.5-0.5,1.7-1.4l0.1-0.4c-0.4,0.4-0.9,0.7-1.6,0.7c-1,0-1.7-0.6-1.7-1.6c0-1.3,0.9-2.2,2.3-2.2c0.7,0,1.3,0.3,1.5,0.9
				l0.2-0.9h0.5V176.4z M62.8,178c0-0.7-0.5-1.2-1.3-1.2c-1,0-1.7,0.7-1.7,1.7c0,0.7,0.5,1.2,1.3,1.2C62.1,179.7,62.8,179,62.8,178z
				"/>
		</g>
		<g>
			<path class="st0" d="M67.2,176.4l-0.1,0.5c-0.1,0-0.1,0-0.2,0c-0.8,0-1.4,0.5-1.6,1.5l-0.4,2h-0.5l0.8-4h0.5l-0.1,0.7
				C65.9,176.6,66.4,176.4,67.2,176.4z"/>
		</g>
		<g>
			<path class="st0" d="M71.7,176.4l-0.8,4h-0.5l0.1-0.6c-0.4,0.4-0.9,0.7-1.5,0.7c-1,0-1.7-0.6-1.7-1.7c0-1.4,0.9-2.3,2.2-2.3
				c0.8,0,1.3,0.3,1.5,0.9l0.2-0.8h0.5C71.7,176.6,71.7,176.4,71.7,176.4z M70.8,178.1c0-0.8-0.5-1.2-1.3-1.2c-1,0-1.7,0.8-1.7,1.9
				c0,0.8,0.5,1.2,1.3,1.2C70.1,179.9,70.8,179.2,70.8,178.1z"/>
		</g>
		<g>
			<path class="st0" d="M76.9,178c0,1.4-0.9,2.4-2.2,2.4c-0.8,0-1.3-0.3-1.5-0.9l-0.5,2.3h-0.6l1.1-5.4h0.5l-0.1,0.6
				c0.4-0.4,0.9-0.7,1.5-0.7C76.1,176.4,76.9,177,76.9,178z M76.3,178.1c0-0.8-0.5-1.2-1.3-1.2c-1,0-1.7,0.8-1.7,1.9
				c0,0.8,0.5,1.2,1.3,1.2C75.6,179.9,76.3,179.2,76.3,178.1z"/>
		</g>
		<g>
			<path class="st0" d="M81.6,177.7c0,0.1,0,0.3,0,0.5l-0.5,2.3h-0.5l0.5-2.3c0-0.1,0-0.2,0-0.4c0-0.6-0.3-0.9-1-0.9
				c-0.8,0-1.4,0.5-1.6,1.4l-0.4,2.1h-0.5l1.1-5.6h0.5l-0.4,2.2c0.4-0.4,0.9-0.6,1.5-0.6C81.1,176.4,81.6,176.9,81.6,177.7z"/>
		</g>
		<g>
			<path class="st0" d="M86.7,176.4l-2.9,4.5c-0.5,0.8-0.9,1-1.4,1c-0.4,0-0.7-0.1-0.9-0.4l0.3-0.4c0.2,0.2,0.4,0.3,0.7,0.3
				c0.3,0,0.6-0.2,0.9-0.6l0.3-0.4l-1-3.9h0.5l0.8,3.4l2.2-3.4h0.5V176.4z"/>
		</g>
	</g>
</g>
<g>
	<path class="st4" d="M377.2,222.9c0,0.1-82.1,0.1-183.5,0.1c-101.3,0-183.5-0.1-183.5-0.1s82.1-0.1,183.5-0.1
		S377.2,222.8,377.2,222.9z"/>
</g>
<g>
	<g>
		<g>
			<path class="st5" d="M342.8,196.2c0,0-13.9-16-19.1-32s-2.8-14.1-2.8-14.1s7.1,15.5,12.4,23c5.4,7.5,14.9,18.5,14.9,18.5
				L342.8,196.2z"/>
		</g>
		<g>
			<path class="st5" d="M345.5,152.6c-0.4-0.8-1.6-0.4-1.5,0.5c0.8,5.6,2.7,18.8,2.6,27.3c-0.1,11.1,0,15.4,0,15.4h5.8
				c0,0-1-22.9-2.3-29.9C349.2,160.9,347.2,155.5,345.5,152.6z"/>
		</g>
		<g>
			<path class="st5" d="M348.7,193.9c0,0,3.6-7.6,4.8-17.3c0.5-4.1-0.4-9.6-1.6-17c-0.6-3.6-0.8-6.3-0.7-8.2c0-1.4,1.9-1.9,2.6-0.6
				c0.7,1.2,2.7,5.5,3.2,8.2c1.4,7.3,3,10.9,1.8,17.8c-1.2,6.9-5.7,17.5-5.7,17.5L348.7,193.9z"/>
		</g>
		<g>
			<path class="st5" d="M353.9,194.4c0,0,15.2-32.8,16.3-37.6c1.1-4.9,4.6-16.1,5.1-15.4c0.4,0.6,1.1,6.6-1.7,13.3
				c-2.7,6.8-14.5,40.7-14.5,40.7h-5.2"/>
		</g>
		<g>
			<g>
				<path class="st4" d="M347,192.9c0,0-0.2-0.1-0.4-0.3c-0.3-0.2-0.7-0.5-1.2-0.9c-1-0.8-2.4-2-4.1-3.6c-3.3-3.2-7.5-8.1-11.1-14.2
					c-3.6-6.1-6-12-7.5-16.4c-0.8-2.2-1.3-4-1.7-5.2c-0.2-0.6-0.3-1.1-0.4-1.4c-0.1-0.3-0.1-0.5-0.1-0.5s0.1,0.2,0.2,0.5
					c0.1,0.4,0.3,0.8,0.5,1.4c0.4,1.2,1,3,1.8,5.2c1.6,4.3,4,10.2,7.6,16.3c3.6,6,7.7,11,10.9,14.2c1.6,1.6,3,2.9,4,3.7
					c0.5,0.4,0.9,0.7,1.1,0.9C346.9,192.8,347,192.9,347,192.9z"/>
			</g>
		</g>
		<g>
			<g>
				<path class="st4" d="M348.7,177.2c0,0-0.1-0.3-0.1-1c-0.1-0.7-0.2-1.6-0.3-2.6c-0.2-2.2-0.6-5.3-1.2-8.6
					c-0.5-3.4-1.1-6.4-1.6-8.6c-0.2-1-0.4-1.9-0.6-2.6c-0.1-0.6-0.2-1-0.2-1s0.1,0.3,0.3,0.9c0.2,0.6,0.4,1.5,0.7,2.6
					c0.5,2.2,1.2,5.2,1.7,8.6c0.5,3.4,0.9,6.4,1.1,8.7c0.1,1.1,0.2,2,0.2,2.6C348.7,176.9,348.7,177.2,348.7,177.2z"/>
			</g>
		</g>
		<g>
			<g>
				<path class="st4" d="M352.2,150.6c0,0,0.1,0.1,0.2,0.4c0.1,0.3,0.3,0.7,0.5,1.2s0.4,1.2,0.7,2c0.2,0.8,0.5,1.6,0.7,2.6
					c0.1,0.5,0.2,1,0.4,1.5c0.1,0.5,0.2,1.1,0.3,1.7c0.2,1.2,0.4,2.4,0.6,3.7c0.3,2.7,0.5,5.6,0.4,8.7c-0.1,3.1-0.5,6-1,8.6
					c-0.3,1.3-0.5,2.6-0.9,3.7c-0.2,0.6-0.3,1.1-0.5,1.7c-0.2,0.5-0.3,1-0.5,1.5c-0.3,1-0.6,1.8-0.9,2.6s-0.6,1.4-0.8,1.9
					s-0.4,0.9-0.5,1.2s-0.2,0.4-0.2,0.4s0-0.2,0.1-0.4c0.1-0.3,0.3-0.7,0.5-1.2s0.5-1.2,0.7-1.9c0.3-0.8,0.6-1.6,0.9-2.6
					c0.1-0.5,0.3-1,0.5-1.5s0.3-1.1,0.4-1.7c0.3-1.1,0.6-2.4,0.8-3.7c0.5-2.6,0.8-5.5,1-8.6c0.1-3.1-0.1-6-0.3-8.6
					c-0.2-1.3-0.3-2.6-0.6-3.7c-0.1-0.6-0.2-1.1-0.3-1.7c-0.1-0.5-0.2-1-0.4-1.5c-0.2-1-0.5-1.9-0.7-2.6c-0.2-0.8-0.4-1.4-0.6-2
					c-0.2-0.5-0.3-0.9-0.4-1.2C352.3,150.8,352.2,150.6,352.2,150.6z"/>
			</g>
		</g>
		<g>
			<g>
				<path class="st4" d="M375.1,142v0.1c0,0.1,0,0.3-0.1,0.4c-0.1,0.4-0.2,0.9-0.3,1.6c-0.3,1.4-0.8,3.4-1.5,5.9
					c-0.8,2.5-1.8,5.3-3,8.5s-2.7,6.6-4,10.3c-1.4,3.7-2.4,7.3-3.4,10.5c-1,3.3-1.9,6.2-2.8,8.6c-0.9,2.4-1.8,4.3-2.4,5.6
					c-0.3,0.6-0.6,1.1-0.8,1.5c-0.1,0.2-0.2,0.3-0.2,0.4s-0.1,0.1-0.1,0.1s0,0,0.1-0.1c0-0.1,0.1-0.2,0.2-0.4
					c0.2-0.3,0.4-0.8,0.7-1.5c0.6-1.3,1.4-3.2,2.3-5.6c0.9-2.4,1.8-5.3,2.8-8.6s2-6.9,3.4-10.5c1.4-3.7,2.8-7.1,4-10.3
					s2.3-6,3.1-8.5c0.8-2.4,1.3-4.5,1.6-5.9c0.2-0.7,0.3-1.2,0.4-1.6C375.1,142.3,375.2,142.2,375.1,142L375.1,142z"/>
			</g>
		</g>
		<g>
			<g>
				<path class="st5" d="M328.1,134.8c-1-1-2.6,0-2.2,1.3s1,3,1.9,4.9c2.1,4.5,8.3,20.4,11.1,29.2c2.9,8.8,6.9,25.1,6.9,25.1l6.2-1
					c0,0-5.6-26.9-11.1-36.6C336.5,150,332.1,138.8,328.1,134.8z"/>
			</g>
			<g>
				<g>
					<path class="st4" d="M340.6,175.7c0,0,0.1,0.3,0.3,0.7c0.2,0.5,0.4,1.2,0.7,2.1c0.6,1.8,1.3,4.2,2,6.9s1.3,5.2,1.7,7
						c0.2,0.9,0.3,1.6,0.5,2.1c0.1,0.5,0.1,0.8,0.1,0.8s-0.1-0.3-0.3-0.8c-0.2-0.6-0.3-1.3-0.6-2.1c-0.5-1.9-1.1-4.3-1.8-7
						s-1.4-5.2-1.9-6.9c-0.2-0.8-0.4-1.5-0.6-2.1C340.7,176,340.6,175.7,340.6,175.7z"/>
				</g>
			</g>
			<g>
				<g>
					<path class="st4" d="M349,194.9c0,0,0-0.1,0-0.2s0-0.3-0.1-0.5c-0.1-0.4-0.1-1.1-0.3-1.9c-0.2-1.6-0.6-3.9-1.3-6.8
						c-0.7-2.8-1.6-6.2-2.9-9.8s-2.8-7.6-4.6-11.7c-3.6-8.1-7.2-15.4-9.6-20.7c-1.2-2.7-2.1-4.8-2.7-6.4c-0.3-0.8-0.5-1.3-0.7-1.8
						c-0.1-0.2-0.1-0.3-0.2-0.5c0-0.1-0.1-0.2,0-0.2c0,0,0,0,0.1,0.1s0.1,0.3,0.2,0.4c0.2,0.4,0.4,1,0.7,1.7
						c0.6,1.5,1.6,3.7,2.8,6.3c2.4,5.3,6.1,12.5,9.7,20.7c1.8,4.1,3.4,8,4.6,11.7c1.3,3.7,2.2,7,2.8,9.9s1,5.2,1.2,6.8
						c0.1,0.8,0.1,1.4,0.2,1.9c0,0.2,0,0.4,0,0.5C349,194.8,349,194.9,349,194.9z"/>
				</g>
			</g>
			<g>
				<g>
					<path class="st4" d="M352.1,194.4c0,0-0.1-0.4-0.2-1c-0.1-0.7-0.3-1.7-0.5-2.8c-0.4-2.4-1.1-5.7-2-9.2c-0.9-3.6-2-6.8-2.8-9
						c-0.4-1.1-0.7-2-1-2.7c-0.2-0.6-0.3-1-0.3-1s0.2,0.3,0.4,1c0.3,0.6,0.6,1.5,1.1,2.7c0.9,2.3,1.9,5.5,2.9,9
						c0.9,3.6,1.5,6.9,1.9,9.3c0.2,1.2,0.3,2.2,0.4,2.8C352,194,352.1,194.4,352.1,194.4z"/>
				</g>
			</g>
		</g>
	</g>
	<g>
		<g>
			<g>
				<rect x="340.7" y="193.5" class="st4" width="24" height="29.3"/>
			</g>
		</g>
		<g class="st6">
			<rect x="340.7" y="193.5" class="st7" width="24" height="29.3"/>
		</g>
		<g>
			<g>
				<rect x="335.7" y="193.5" class="st4" width="21.3" height="29.3"/>
			</g>
		</g>
	</g>
</g>
<g>
	<g>
		<path class="st5" d="M44.8,183.3c-4.1-2.6-9.8-2.7-13.7,0.1c-3.8,2.6-5.7,7.5-5.5,12.1s2.4,10.2,6.6,12.7h12.3
			c3.9-2.9,6.6-7.5,6.7-12.4C51.3,190.9,48.9,186,44.8,183.3z"/>
		<g>
			<g>
				<path class="st4" d="M38.7,208.6c0,0-0.1-0.4-0.1-1.1c0-0.8,0-1.7-0.1-2.9c-0.1-2.4-0.2-5.8-0.3-9.5c-0.2-3.7-0.4-7-0.5-9.5
					c-0.1-1.2-0.1-2.1-0.2-2.9c0-0.7,0-1.1,0-1.1s0.1,0.4,0.2,1c0.1,0.7,0.2,1.7,0.3,2.9c0.2,2.4,0.5,5.8,0.6,9.5
					c0.2,3.7,0.2,7.1,0.2,9.5c0,1.2,0,2.2,0,2.9C38.8,208.2,38.8,208.6,38.7,208.6z"/>
			</g>
		</g>
		<g>
			<g>
				<path class="st4" d="M26.7,194.5c0,0.1-0.7,0.1-1.5,0.1c-0.8-0.1-1.5-0.2-1.5-0.3s0.7-0.1,1.5-0.1
					C26.1,194.2,26.7,194.4,26.7,194.5z"/>
			</g>
		</g>
		<g>
			<g>
				<path class="st4" d="M27,190.3c0,0.1-0.6-0.1-1.3-0.4s-1.2-0.6-1.1-0.7c0-0.1,0.6,0.1,1.3,0.4C26.5,189.9,27,190.2,27,190.3z"/>
			</g>
		</g>
		<g>
			<g>
				<path class="st4" d="M29.1,187.3c-0.1,0.1-0.7-0.2-1.4-0.8c-0.7-0.6-1.1-1.1-1-1.2s0.6,0.4,1.3,0.9
					C28.6,186.7,29.1,187.2,29.1,187.3z"/>
			</g>
		</g>
		<g>
			<g>
				<path class="st4" d="M31.2,184.4c-0.1,0-0.4-0.4-0.7-1.1c-0.3-0.6-0.4-1.2-0.3-1.2s0.4,0.4,0.7,1.1
					C31.2,183.8,31.3,184.3,31.2,184.4z"/>
			</g>
		</g>
		<g>
			<g>
				<path class="st4" d="M34.6,182.3c-0.1,0-0.4-0.5-0.7-1.2c-0.2-0.7-0.2-1.3-0.1-1.3s0.3,0.5,0.5,1.2S34.7,182.3,34.6,182.3z"/>
			</g>
		</g>
		<g>
			<g>
				<path class="st4" d="M40.2,180c0.1,0,0,0.5-0.1,1c-0.2,0.5-0.4,0.9-0.5,0.9s0-0.5,0.1-1C39.9,180.3,40.1,180,40.2,180z"/>
			</g>
		</g>
		<g>
			<g>
				<path class="st4" d="M44.3,181.8c0.1,0.1-0.2,0.4-0.6,0.8s-0.8,0.6-0.9,0.5s0.2-0.4,0.6-0.8C43.9,181.9,44.3,181.7,44.3,181.8z"
					/>
			</g>
		</g>
		<g>
			<g>
				<path class="st4" d="M48,184.1c0.1,0.1-0.3,0.4-0.7,0.7c-0.5,0.3-0.9,0.5-0.9,0.4c-0.1-0.1,0.3-0.4,0.7-0.7S47.9,184,48,184.1z"
					/>
			</g>
		</g>
		<g>
			<g>
				<path class="st4" d="M50.6,187.7c0,0.1-0.5,0.4-1.1,0.7c-0.7,0.3-1.3,0.4-1.3,0.3s0.5-0.4,1.1-0.7
					C50,187.7,50.6,187.6,50.6,187.7z"/>
			</g>
		</g>
		<g>
			<g>
				<path class="st4" d="M51.6,191.5c0,0.1-0.5,0.3-1.2,0.3c-0.7,0.1-1.2,0.1-1.2,0s0.5-0.3,1.2-0.3
					C51.1,191.4,51.6,191.4,51.6,191.5z"/>
			</g>
		</g>
		<g>
			<g>
				<path class="st4" d="M52.1,196.2c0,0.1-0.6,0-1.2-0.3s-1.1-0.6-1.1-0.7s0.6,0,1.2,0.3C51.7,195.8,52.2,196.1,52.1,196.2z"/>
			</g>
		</g>
		<g>
			<g>
				<path class="st4" d="M51.7,200.3c0,0.1-0.7-0.1-1.5-0.6c-0.7-0.5-1.2-1.1-1.1-1.1c0.1-0.1,0.6,0.3,1.3,0.8
					C51.1,199.9,51.7,200.2,51.7,200.3z"/>
			</g>
		</g>
		<g>
			<g>
				<path class="st4" d="M49.6,204c-0.1,0.1-0.6-0.2-1.2-0.8c-0.5-0.6-0.8-1.2-0.7-1.2c0.1-0.1,0.5,0.4,1,1
					C49.2,203.4,49.6,203.9,49.6,204z"/>
			</g>
		</g>
		<g>
			<g>
				<path class="st4" d="M29.5,204.4c0,0.1-0.5,0.5-1.3,0.9s-1.4,0.7-1.5,0.6c0-0.1,0.5-0.5,1.3-0.9S29.5,204.3,29.5,204.4z"/>
			</g>
		</g>
		<g>
			<g>
				<path class="st4" d="M27.7,201.1c0,0.1-0.4,0.4-1.1,0.7c-0.6,0.3-1.2,0.4-1.2,0.3s0.4-0.4,1.1-0.7
					C27.1,201.1,27.6,201,27.7,201.1z"/>
			</g>
		</g>
		<g>
			<g>
				<path class="st4" d="M26.3,198.1c0,0.1-0.6,0.3-1.3,0.4s-1.3,0.1-1.3,0s0.6-0.3,1.3-0.4C25.7,198,26.3,198,26.3,198.1z"/>
			</g>
		</g>
		<g>
			<g>
				<path class="st4" d="M30.7,196.5c0,0.1-0.5,0.4-1.3,0.4c-0.8,0.1-1.4,0-1.4-0.1s0.6-0.2,1.3-0.2
					C30.1,196.5,30.7,196.4,30.7,196.5z"/>
			</g>
		</g>
		<g>
			<g>
				<path class="st4" d="M34.4,192.8c0,0.1-0.4,0.3-1,0.4s-1.1-0.1-1.1-0.2s0.5-0.2,1-0.2C33.9,192.8,34.4,192.7,34.4,192.8z"/>
			</g>
		</g>
		<g>
			<g>
				<path class="st4" d="M35.1,189.9c0,0.1-0.5,0-1.1-0.2s-1-0.4-1-0.5s0.5,0,1.1,0.2S35.1,189.8,35.1,189.9z"/>
			</g>
		</g>
		<g>
			<g>
				<path class="st4" d="M36.5,186.9c-0.1,0.1-0.4-0.1-0.6-0.6c-0.2-0.4-0.3-0.8-0.2-0.8s0.3,0.3,0.5,0.6
					C36.4,186.6,36.5,186.9,36.5,186.9z"/>
			</g>
		</g>
		<g>
			<g>
				<path class="st4" d="M34.8,199.1c0,0.1-0.4,0.3-0.9,0.4c-0.3,0.1-0.6,0.1-0.8,0.1l-0.1-0.2c0.1,0,0.2,0,0.3,0c0,0,0,0.1-0.2,0.2
					l-0.1-0.2c0.2-0.1,0.4-0.2,0.8-0.3C34.3,199,34.8,199,34.8,199.1z"/>
			</g>
		</g>
		<g>
			<g>
				<path class="st4" d="M35.6,204.2c0,0.1-0.5,0.4-1.2,0.7s-1.3,0.4-1.3,0.3s0.5-0.4,1.2-0.7C35,204.3,35.6,204.1,35.6,204.2z"/>
			</g>
		</g>
		<g>
			<g>
				<path class="st4" d="M31.4,201.9c0,0.1-0.3,0.3-0.8,0.5s-0.9,0.2-0.9,0.1s0.3-0.3,0.8-0.5C31,201.9,31.4,201.8,31.4,201.9z"/>
			</g>
		</g>
		<g>
			<g>
				<path class="st4" d="M31.8,191.4c0,0.1-0.6,0-1.4-0.2c-0.7-0.3-1.2-0.6-1.2-0.7s0.6,0.1,1.3,0.3C31.2,191,31.8,191.3,31.8,191.4
					z"/>
			</g>
		</g>
		<g>
			<g>
				<path class="st4" d="M41.8,190.2c0.1,0.1-0.3,0.4-0.8,0.8c-0.5,0.3-0.9,0.5-1,0.4s0.3-0.4,0.8-0.8
					C41.3,190.3,41.7,190.1,41.8,190.2z"/>
			</g>
		</g>
		<g>
			<g>
				<path class="st4" d="M42.3,195.4c0,0.1-0.3,0.3-0.8,0.4s-0.9,0.1-0.9,0s0.3-0.3,0.8-0.4C41.9,195.3,42.3,195.3,42.3,195.4z"/>
			</g>
		</g>
		<g>
			<g>
				<path class="st4" d="M43,201.3c0,0.1-0.6-0.1-1.2-0.3c-0.6-0.3-1.1-0.6-1-0.7c0-0.1,0.6,0.1,1.2,0.3
					C42.6,200.9,43,201.2,43,201.3z"/>
			</g>
		</g>
		<g>
			<g>
				<path class="st4" d="M41.6,207c-0.1,0.1-0.4-0.2-0.8-0.6c-0.3-0.4-0.6-0.8-0.5-0.9s0.4,0.2,0.8,0.6S41.7,206.9,41.6,207z"/>
			</g>
		</g>
		<g>
			<g>
				<path class="st4" d="M41.4,186.4c0.1,0.1-0.2,0.4-0.6,0.6s-0.8,0.2-0.8,0.1s0.3-0.3,0.6-0.5C41,186.4,41.3,186.3,41.4,186.4z"/>
			</g>
		</g>
		<g>
			<g>
				<path class="st4" d="M46.3,191.7c0,0.1-0.4,0.3-1,0.4s-1.1,0-1.1-0.1s0.5-0.2,1.1-0.3C45.8,191.6,46.2,191.5,46.3,191.7z"/>
			</g>
		</g>
		<g>
			<g>
				<path class="st4" d="M45.3,186.9c0,0.1-0.4,0.4-1,0.6s-1.2,0.2-1.2,0.1s0.5-0.3,1.1-0.5C44.7,187,45.3,186.8,45.3,186.9z"/>
			</g>
		</g>
		<g>
			<g>
				<path class="st4" d="M47.4,199c0,0.1-0.8,0.2-1.7,0s-1.6-0.5-1.6-0.6s0.8,0.1,1.7,0.2C46.6,198.7,47.4,198.8,47.4,199z"/>
			</g>
		</g>
		<g>
			<g>
				<path class="st4" d="M45.5,205.8c-0.1,0.1-0.6-0.3-1.2-0.8c-0.6-0.6-0.9-1.1-0.8-1.2s0.5,0.4,1.1,0.9
					C45.2,205.3,45.6,205.7,45.5,205.8z"/>
			</g>
		</g>
		<g>
			<g>
				<path class="st4" d="M37.5,181.4c0.1,0.1-1.6,0.7-3.4,2.7c-1.9,1.9-3.8,5.3-4.3,9.4c-0.2,2,0,4,0.3,5.8s0.7,3.3,1.1,4.6
					s0.7,2.4,1,3.1c0.2,0.7,0.4,1.1,0.3,1.1c0,0-0.2-0.4-0.5-1.1s-0.7-1.7-1.1-3.1c-0.4-1.3-0.8-2.9-1.2-4.7
					c-0.3-1.8-0.5-3.8-0.3-5.9c0.5-4.2,2.5-7.7,4.5-9.6c1-1,1.9-1.6,2.6-2c0.3-0.2,0.6-0.3,0.8-0.4
					C37.4,181.4,37.5,181.3,37.5,181.4z"/>
			</g>
		</g>
		<g>
			<g>
				<path class="st4" d="M42.8,208.4c-0.1,0,0.9-1.5,1.8-4.2c0.9-2.6,1.7-6.6,1.1-10.8c-0.3-2.1-0.9-4.1-1.7-5.8s-1.8-3-2.8-4
					c-1-0.9-2.1-1.5-2.8-1.8s-1.2-0.4-1.2-0.4s0.1,0,0.3,0s0.5,0.1,0.9,0.2c0.7,0.3,1.8,0.8,2.9,1.7c1.1,1,2.1,2.3,3,4
					c0.8,1.7,1.4,3.7,1.7,5.9c0.6,4.3-0.2,8.3-1.2,11c-0.2,0.7-0.5,1.3-0.7,1.8c-0.3,0.5-0.5,0.9-0.7,1.3
					C43.1,208.1,42.9,208.4,42.8,208.4z"/>
			</g>
		</g>
	</g>
	<g>
		<g>
			<polygon class="st4" points="27.7,207.5 49.2,207.5 49.4,211.8 27.7,211.8 			"/>
		</g>
	</g>
	<g>
		<g>
			<polygon class="st4" points="29.5,209.7 30.7,222.8 46.5,222.8 47.8,209.8 			"/>
		</g>
	</g>
	<g>
		<g>
			<path class="st4" d="M49.4,211.9c0,0.1-4.9,0.2-10.8,0.2c-6,0-10.8-0.1-10.8-0.2s4.9-0.2,10.8-0.2S49.4,211.8,49.4,211.9z"/>
		</g>
	</g>
	<g>
		<g>
			<path class="st4" d="M47.2,215.9c0,0-0.1,0.3-0.5,0.8c-0.3,0.5-0.9,1.2-1.7,2l-0.1,0.1l-0.1-0.1c-1-1.1-2.5-2.4-4.2-3.7h0.2
				c-0.6,0.5-1.2,1.1-1.9,1.6c-0.8,0.7-1.5,1.3-2.2,1.9l-0.1,0.1l-0.1-0.1c-1.3-1.1-2.6-2.2-3.6-3h0.2c-0.7,0.9-1.4,1.7-1.9,2.3
				c-0.4,0.5-0.7,0.8-0.7,0.8s0.2-0.3,0.6-0.9c0.5-0.6,1.1-1.4,1.8-2.4l0.1-0.1l0.1,0.1c1.1,0.9,2.3,1.9,3.7,3h-0.2
				c0.7-0.6,1.4-1.3,2.2-1.9c0.6-0.6,1.3-1.1,1.9-1.6l0.1-0.1l0.1,0.1c1.8,1.3,3.2,2.7,4.2,3.8h-0.2C46.5,217,47.1,215.8,47.2,215.9
				z"/>
		</g>
	</g>
</g>
<g>
	<g>
		<g>
			<g>
				<g>
					<g>
						<g>
							<g>
								<g>
									<path class="st5" d="M299.4,219.2H85c-8,0-14.6-6.5-14.6-14.6V72.7c0-8,6.5-14.6,14.6-14.6h214.5c8,0,14.6,6.5,14.6,14.6
										v131.9C314,212.7,307.5,219.2,299.4,219.2z"/>
								</g>
							</g>
						</g>
					</g>
					<g>
						<g>
							<g>
								<g>
									<path class="st5" d="M312.2,222.9H76.5c-7.8,0-14.1-6.3-14.1-14.1l0,0h263.9l0,0C326.3,216.6,320,222.9,312.2,222.9z"/>
								</g>
							</g>
						</g>
					</g>
					<g>
						<g>
							<g>
								<g>
									<polygon class="st4" points="168.2,207.3 171.5,212.5 217.5,212.5 220.6,207.3 									"/>
								</g>
							</g>
						</g>
					</g>
				</g>
				<g>
					<g>
						<g>
							<g>
								<path class="st4" d="M311.9,207.3c0,0.1-54.1,0.2-120.7,0.2c-66.7,0-120.8-0.1-120.8-0.2s54.1-0.2,120.8-0.2
									C257.8,207.1,311.9,207.2,311.9,207.3z"/>
							</g>
						</g>
					</g>
				</g>
			</g>
		</g>
	</g>
</g>
<g>
	<g>
		<g>
			<g>
				<g>
					<g>
						<g>
							<g>
								<path class="st2" d="M302.8,203H80.6c-1.8,0-3.3-1.5-3.3-3.3v-129c0-1.8,1.5-3.3,3.3-3.3h222.1c1.8,0,3.3,1.5,3.3,3.3v129.1
									C306.1,201.6,304.6,203,302.8,203z"/>
							</g>
						</g>
					</g>
				</g>
			</g>
			<g>
				<g>
					<g>
						<g>
							<g>
								<polygon class="st8" points="305.8,203.2 77.1,203.2 77.4,77.5 305.8,77.5 								"/>
							</g>
						</g>
					</g>
				</g>
			</g>
			<g>
				<g>
					<g>
						<g>
							<g>
								<path class="st4" d="M96.1,72.6c0,1-0.8,1.8-1.8,1.8s-1.8-0.8-1.8-1.8s0.8-1.8,1.8-1.8S96.1,71.6,96.1,72.6z"/>
							</g>
						</g>
					</g>
				</g>
			</g>
			<g>
				<g>
					<g>
						<g>
							<g>
								<path class="st4" d="M85.1,72.6c0,1-0.8,1.8-1.8,1.8s-1.8-0.8-1.8-1.8s0.8-1.8,1.8-1.8C84.2,70.8,85.1,71.6,85.1,72.6z"/>
							</g>
						</g>
					</g>
				</g>
			</g>
			<g>
				<g>
					<g>
						<g>
							<g>
								<path class="st4" d="M90.4,72.6c0,1-0.8,1.8-1.8,1.8s-1.8-0.8-1.8-1.8s0.8-1.8,1.8-1.8S90.4,71.6,90.4,72.6z"/>
							</g>
						</g>
					</g>
				</g>
			</g>
		</g>
	</g>
</g>
<rect x="77.1" y="191.1" class="st4" width="228.9" height="12.1"/>
<g class="st9">
	<path class="st10" d="M191.1,145.2c0.1,0.1,0.3,0.2,0.4,0.2l4.5-1.1c1.6,1.5,3.4,2.8,5.4,3.7l0.6,4.6c0,0.2,0.1,0.3,0.3,0.3
		l5.4,1.2c0.2,0,0.3,0,0.4-0.2l2.4-4c2.2,0,4.4-0.5,6.4-1.2l3.7,2.8c0.1,0.1,0.3,0.1,0.4,0l4.7-3c0.1-0.1,0.2-0.3,0.2-0.4l-1.1-4.5
		c1.5-1.6,2.8-3.4,3.7-5.4l4.6-0.6c0.2,0,0.3-0.1,0.3-0.3l1.2-5.4c0-0.2,0-0.3-0.2-0.4l-4-2.4c0-2.2-0.5-4.4-1.2-6.4l2.8-3.7
		c0.1-0.1,0.1-0.3,0-0.4l-3-4.7c-0.1-0.1-0.3-0.2-0.4-0.2l-4.5,1.1c-1.6-1.5-3.4-2.8-5.4-3.7l-0.6-4.6c0-0.2-0.1-0.3-0.3-0.3
		l-5.4-1.2c-0.2,0-0.3,0-0.4,0.2l-2.4,4c-2.2,0-4.4,0.5-6.4,1.2l-3.7-2.8c-0.1-0.1-0.3-0.1-0.4,0l-4.7,3c-0.1,0.1-0.2,0.3-0.2,0.4
		l1.1,4.5c-1.5,1.6-2.8,3.4-3.7,5.4l-4.6,0.6c-0.2,0-0.3,0.1-0.3,0.3l-1.2,5.4c0,0.2,0,0.3,0.2,0.4l4,2.4c0,2.2,0.5,4.4,1.2,6.4
		l-2.8,3.7c-0.1,0.1-0.1,0.3,0,0.4L191.1,145.2z"/>
	<g class="st11">
		<path class="st8" d="M209.4,135.1c-2.7-0.3-4.9-2.5-5-5.3c-0.1-3.1,2.3-5.7,5.4-5.8c1.5-0.1,2.9,0.5,4,1.5s1.7,2.4,1.8,3.9
			c0.1,3.1-2.3,5.7-5.4,5.8C209.9,135.1,209.7,135.1,209.4,135.1z M210.5,125.3c-0.2,0-0.4,0-0.6,0c-2.4,0.1-4.2,2.1-4.1,4.4
			c0.1,2.4,2.1,4.2,4.4,4.1c2.4-0.1,4.2-2.1,4.1-4.4c0-1.1-0.5-2.2-1.4-3C212.2,125.8,211.4,125.4,210.5,125.3z"/>
	</g>
	<path class="st12" d="M208.6,143.1c-0.5-0.1-0.9-0.1-1.4-0.2l0,0c-0.1,0-0.3-0.1-0.4-0.1c-0.7-0.2-1.4-0.4-2.1-0.7l0,0h-0.1
		c-0.1,0-0.1,0-0.2-0.1s-0.2-0.2-0.2-0.3v-0.1c0.1-0.2,0.3-0.2,0.4-0.2c0.8,0.4,1.7,0.7,2.6,0.9c4.5,1,9-0.6,12-3.6
		c1.7-1.7,2.9-3.9,3.4-6.4c0.1-0.4,0.2-0.9,0.2-1.3c0.3-3-0.4-6-2-8.5c-1.9-2.9-4.8-4.9-8.2-5.7c-7.1-1.5-14,3-15.5,10.1
		c-0.1,0.4-0.2,0.9-0.2,1.3c-0.2,1.9,0,3.8,0.6,5.6v0.1c0,0.1-0.1,0.2-0.2,0.3c-0.2,0.1-0.4,0-0.4-0.2c-0.7-1.9-0.9-3.9-0.7-5.9
		c0-0.5,0.1-0.9,0.2-1.4c1.6-7.4,8.9-12.2,16.3-10.6c3.6,0.8,6.7,2.9,8.7,5.9c1.7,2.7,2.5,5.8,2.1,8.9c-0.1,0.5-0.1,0.9-0.2,1.4
		c-0.8,3.6-2.9,6.7-5.9,8.7C214.9,142.7,211.8,143.5,208.6,143.1z"/>
	<path class="st10" d="M156.6,154.9c0.1,0.1,0.2,0.1,0.3,0.1l3-0.8c1,1,2.3,1.8,3.6,2.5l0.4,3.1c0,0.1,0.1,0.2,0.2,0.2l3.6,0.8
		c0.1,0,0.2,0,0.3-0.1l1.6-2.7c1.5,0,2.9-0.3,4.3-0.8l2.4,1.9c0.1,0.1,0.2,0.1,0.3,0l3.1-2c0.1-0.1,0.1-0.2,0.1-0.3l-0.8-3
		c1-1,1.8-2.3,2.5-3.6l3.1-0.4c0.1,0,0.2-0.1,0.2-0.2l0.8-3.6c0-0.1,0-0.2-0.1-0.3l-2.7-1.6c0-1.5-0.3-2.9-0.8-4.3l1.9-2.4
		c0.1-0.1,0.1-0.2,0-0.3l-2-3.1c-0.1-0.1-0.2-0.1-0.3-0.1l-3,0.8c-1-1-2.3-1.8-3.6-2.5l-0.4-3.1c0-0.1-0.1-0.2-0.2-0.2l-3.6-0.8
		c-0.1,0-0.2,0-0.3,0.1l-1.6,2.7c-1.5,0-2.9,0.3-4.3,0.8l-2.4-1.9c-0.1-0.1-0.2-0.1-0.3,0l-3.1,2c-0.1,0.1-0.1,0.2-0.1,0.3l0.8,3
		c-1,1-1.8,2.3-2.5,3.6l-3.1,0.4c-0.1,0-0.2,0.1-0.2,0.2l-0.8,3.6c0,0.1,0,0.2,0.1,0.3l2.7,1.6c0,1.5,0.3,2.9,0.8,4.3l-1.9,2.4
		c-0.1,0.1-0.1,0.2,0,0.3L156.6,154.9z"/>
	<g class="st11">
		<path class="st8" d="M168.8,148.2c-0.8-0.1-1.6-0.4-2.2-1c-0.7-0.7-1.2-1.6-1.2-2.6c-0.1-2.1,1.6-3.9,3.7-3.9
			c2.1-0.1,3.9,1.6,3.9,3.7c0,1-0.3,2-1,2.7s-1.6,1.2-2.6,1.2C169.2,148.3,169,148.2,168.8,148.2z M169.5,141.7c-0.1,0-0.3,0-0.4,0
			c-1.5,0.1-2.7,1.4-2.7,2.9c0,0.7,0.3,1.4,0.9,1.9c0.5,0.5,1.3,0.8,2,0.7l0,0c0.7,0,1.4-0.3,1.9-0.9c0.5-0.5,0.8-1.3,0.7-2
			C172,142.9,170.9,141.8,169.5,141.7z"/>
	</g>
	<path class="st12" d="M168.3,153.8c-0.3,0-0.6-0.1-1-0.2c-0.6-0.1-1.2-0.3-1.8-0.6h-0.1c-0.2-0.1-0.3-0.3-0.3-0.5
		c0-0.1,0-0.1,0-0.2c0.1-0.3,0.4-0.4,0.7-0.3c0.5,0.2,1.1,0.4,1.7,0.6l0,0h0.1c1.4,0.3,2.8,0.2,4.1-0.2c0.7-0.2,1.4-0.5,2.1-1l0,0
		l0,0c1.9-1.2,3.2-3.1,3.7-5.3c0.1-0.3,0.1-0.6,0.1-0.9c0.2-1.9-0.2-3.9-1.3-5.5c-1.2-1.9-3.1-3.2-5.3-3.7s-4.5,0-6.4,1.2
		s-3.2,3.1-3.7,5.3c-0.1,0.3-0.1,0.6-0.1,0.8c-0.1,1.2,0,2.5,0.4,3.7c0,0.1,0,0.1,0,0.2c0,0.2-0.1,0.4-0.3,0.4
		c-0.3,0.1-0.5,0-0.6-0.3c-0.5-1.3-0.6-2.7-0.5-4.1c0-0.3,0.1-0.6,0.2-0.9c0.5-2.5,2-4.6,4.1-6s4.6-1.9,7.1-1.3c2.5,0.5,4.6,2,6,4.1
		c1.2,1.8,1.7,4,1.5,6.2c0,0.3-0.1,0.6-0.2,1C177.5,151.1,173,154.3,168.3,153.8z"/>
</g>
</svg>
