<?xml version="1.0" encoding="utf-8"?>
<!-- Generated by IcoMoon.io -->
<!DOCTYPE svg PUBLIC "-//W3C//DTD SVG 1.1//EN" "http://www.w3.org/Graphics/SVG/1.1/DTD/svg11.dtd">
<svg version="1.1" xmlns="http://www.w3.org/2000/svg" xmlns:xlink="http://www.w3.org/1999/xlink" width="48" height="48" viewBox="0 0 48 48">
<path fill="rgb(255, 0, 0)" d="M29.322 0.188c0.679 0 0.882 0.408 0.882 0.886l-0.817 31.722 8.698-10.121c0.477 0 0.817 0.271 1.023 0.615l2.648 3.053 3.258 3.194c0 0.477-0.131 0.679-0.54 1.088l-11.004 10.865c-5.706 5.643-6.591 6.389-8.968 6.389s-3.397-0.746-9.035-6.389l-11.008-10.865c-0.4-0.408-0.54-0.611-0.54-1.088l3.258-3.194 2.654-3.053c0.27-0.412 0.54-0.615 1.013-0.615l8.698 10.121-0.814-31.722c0-0.748 0.404-0.886 0.882-0.886l4.686 0.34 5.027-0.34z"></path>
</svg>
