<svg id="Calque_1" data-name="Calque 1" xmlns="http://www.w3.org/2000/svg" viewBox="0 0 50.84 50.53"><title>setting</title><path d="M6.5,40.88a.39.39,0,0,0,.41.17l4.49-1.13a19.87,19.87,0,0,0,5.39,3.7l.56,4.59a.38.38,0,0,0,.3.33l5.44,1.15a.38.38,0,0,0,.4-.18l2.38-4a20.29,20.29,0,0,0,6.42-1.2L36,47.2a.37.37,0,0,0,.44,0l4.65-3a.38.38,0,0,0,.16-.41l-1.12-4.5a20,20,0,0,0,3.7-5.38l4.59-.57a.39.39,0,0,0,.33-.3l1.15-5.43a.4.4,0,0,0-.18-.41l-4-2.38a20.06,20.06,0,0,0-1.19-6.42l2.84-3.65a.38.38,0,0,0,0-.44l-3-4.66a.38.38,0,0,0-.41-.16L39.44,10.6a20.43,20.43,0,0,0-5.38-3.7l-.57-4.59a.37.37,0,0,0-.3-.32L27.76.84a.37.37,0,0,0-.41.17L25,5a20.07,20.07,0,0,0-6.42,1.2L14.9,3.33a.39.39,0,0,0-.45,0l-4.65,3a.37.37,0,0,0-.16.41l1.12,4.49a20.09,20.09,0,0,0-3.7,5.39l-4.59.57a.37.37,0,0,0-.32.3L1,22.93a.38.38,0,0,0,.18.4l4,2.38a20.12,20.12,0,0,0,1.19,6.43L3.49,35.79a.38.38,0,0,0,0,.44Z" style="fill:#263239"/><g style="opacity:0.55"><path d="M24.82,30.81a5.58,5.58,0,0,1,.39-11.12A5.59,5.59,0,0,1,31,25.05a5.57,5.57,0,0,1-6.18,5.76ZM25.89,21a4.42,4.42,0,0,0-.63,0,4.25,4.25,0,1,0,.63,0Z" style="fill:#fff"/></g><path d="M24.06,38.84a13.38,13.38,0,0,1-1.39-.22h0l-.44-.1a14.91,14.91,0,0,1-2.08-.69l0,0-.08,0-.15-.07a.33.33,0,0,1-.19-.33.22.22,0,0,1,0-.1.33.33,0,0,1,.43-.16,12.63,12.63,0,0,0,2.65.86,13,13,0,0,0,12-3.65A12.89,12.89,0,0,0,38.3,27.9a12.29,12.29,0,0,0,.22-1.33,13.07,13.07,0,0,0-25.79-4.09,9.91,9.91,0,0,0-.21,1.31,12.85,12.85,0,0,0,.63,5.64.34.34,0,0,1,0,.14.32.32,0,0,1-.22.28.33.33,0,0,1-.41-.21,13.67,13.67,0,0,1-.66-5.92,12.6,12.6,0,0,1,.22-1.37A13.72,13.72,0,0,1,37,17.71a13.6,13.6,0,0,1,2.14,8.93A13.38,13.38,0,0,1,38.94,28,13.71,13.71,0,0,1,24.06,38.84Z" style="fill:#fff;opacity:0.55"/></svg>